<?xml version="1.0" encoding="utf-8"?>
<!-- Generator: Adobe Illustrator 21.1.0, SVG Export Plug-In . SVG Version: 6.00 Build 0)  -->
<svg version="1.1" id="Layer_1" xmlns="http://www.w3.org/2000/svg" xmlns:xlink="http://www.w3.org/1999/xlink" x="0px" y="0px"
	 viewBox="0 0 59.1 59.1" style="enable-background:new 0 0 59.1 59.1;" xml:space="preserve">
<style type="text/css">
	.st0{display:none;}
	.st1{display:inline;fill:#FFFFFF;stroke:#000000;stroke-miterlimit:10;}
	.st2{display:inline;fill:#8C6E53;stroke:#603913;stroke-width:2;stroke-linejoin:round;stroke-miterlimit:10;}
	.st3{display:inline;fill:#76C378;stroke:#009444;stroke-width:2;stroke-linejoin:round;stroke-miterlimit:10;}
	.st4{display:inline;}
	.st5{fill:#E7503F;stroke:#931A1D;stroke-width:2;stroke-linejoin:round;stroke-miterlimit:10;}
	.st6{fill:#8C6E53;stroke:#603913;stroke-width:2;stroke-linejoin:round;stroke-miterlimit:10;}
	.st7{fill:#76C378;stroke:#009444;stroke-width:2;stroke-linejoin:round;stroke-miterlimit:10;}
	.st8{fill:#605D5C;stroke:#3A3636;stroke-width:2;stroke-linejoin:round;stroke-miterlimit:10;}
	.st9{display:inline;fill:#E8E352;stroke:#B5BA4E;stroke-width:6;stroke-linejoin:round;stroke-miterlimit:10;}
	.st10{display:inline;fill:#90CB7F;stroke:#61995C;stroke-width:6;stroke-linejoin:round;stroke-miterlimit:10;}
	.st11{display:inline;fill:none;stroke:#B5BA4E;stroke-width:6;stroke-linejoin:round;stroke-miterlimit:10;}
	.st12{display:inline;fill:#C08C49;stroke:#A56928;stroke-width:4;stroke-linejoin:round;stroke-miterlimit:10;}
	.st13{display:inline;fill:none;stroke:#A56928;stroke-width:4;stroke-linejoin:round;stroke-miterlimit:10;}
	.st14{display:inline;fill:#F1EB67;stroke:#E8E491;stroke-miterlimit:10;}
	.st15{display:inline;fill:#846628;}
	.st16{fill:#662C90;}
	.st17{fill:#2D6733;}
	.st18{fill:#846628;}
	.st19{fill:#E12C26;}
	.st20{display:inline;fill:#F9A51B;}
</style>
<g id="Layer_1_copy" class="st0">
	<path class="st1" d="M138.2,115.3"/>
</g>
<g id="Layer_3">
	<g class="st0">
		<path class="st2" d="M25.8-24.4c1.9,4.9-3.3,6.7-9.3,23.7c-4,11.2-5.2,25.9-7.4,55.1c-0.8,10.8-1.6,21.2-2,35.5
			c0,1.8-0.8,18.3,0.2,36.9c1.6,30,3.6,63.5,12.6,107.8c6.5,31.6,14.5,58.5,21.9,80l9,19.7c-3-2.9-7.4-7-12.7-12
			c-16.5-15.3-20.7-19.2-21.6-18.4c-1.3,1.1,5.6,9.4,10.7,24.7c3.1,9.4,5.6,21.7,3.4,22.6c-2.2,0.9-7.2-10.6-19.9-26
			c-9.7-11.8-22.9-24.7-26-22.6c-2.8,1.9,6.1,13.6,4.7,32.2c-0.6,8.6-3.2,18.4-6.2,18.5c-3.4,0.1-3.3-13.2-12.5-28.4
			c-6.1-10-18.3-24.3-26.6-21.6c-6.5,2.1-8,13.9-8.4,16.5c-2.4,18.3,9.7,31.4,7.6,32.8c-2.4,1.6-18.8-10.7-24.6-29.7
			c-2.6-8.4-2.4-15.8-5.1-16.1c-2.8-0.4-4.3,7.6-11.9,17c-6.6,8.2-15.9,15.1-17.8,13.6c-2.3-1.8,5.5-14.7,9.7-22.6
			c10.5-19.8,13.1-40.1,20.8-80.3c2.3-12.2,4.1-23.6,5.5-34.3c1.9-14.7,5.4-41.3,5.6-73.6c0.2-52.7-8.1-115.1-11.1-127.3
			s-8.2-22.3-9.7-23.5l0,0C-95.4-26.4,17.2-46.7,25.8-24.4z"/>
		<path class="st3" d="M124.1-73.2c-0.7-5.8-2.3-19-12.2-30.6c-9.7-11.4-22.6-15.6-31.6-18.5c-12.1-3.9-21.7-4.2-21.7-5.9
			s8.7-1.3,17.3-4.4c14.3-5.1,25.5-18.4,30.2-31.7c9.5-26.9-8.4-51.2-11.8-55.8C78.4-241.7,55-246.7,46-248
			c-1.2-0.2-2.1-0.3-2.9-0.4c-6.8-0.7-37.4-4.1-47.8,10.5c-5.5,7.7-3.6,16.4-6.5,16.7c-3.1,0.3-4.8-10.5-9.6-18.5
			c-13.7-22.6-56.5-28.5-86.8-16.1c-6.9,2.8-20.6,8.7-28.6,22.9c-2.3,4.2-8.7,15.6-5.3,27.1c1.9,6.3,5.5,8.4,4.3,10.7
			c-2.6,5.1-20.8-5.5-42.6,0c-4.9,1.2-13.9,3.6-21.9,10.9c-12.8,11.8-19.2,33.2-11.9,50.7c7.8,18.8,28.3,25.8,33.6,27.6
			c9.4,3.2,18.7,3.7,18.7,5.2c-0.1,1.8-12.8-0.8-23.9,6c-11.4,6.9-17,21.3-17.2,33.6c0,3.2,0.1,15.7,9,26.9
			c10.9,13.8,29.9,17.9,44,16.4c16.2-1.7,22.2-10.6,41.4-9.3c8.8,0.6,12.4,2.8,14.5,4.5c4.8,4,112.7,5.4,121,0.1
			c11.5-7.3,24.1,8,47.7,6.5c17.3-1.1,36.9-11,45.1-27.9C126.1-55.6,124.8-67.1,124.1-73.2z"/>
		<g class="st4">
			<path class="st5" d="M248-92.1c-1.9-0.1-2.1-2.6-4.5-3c-2.6-0.4-4.9,1.7-5.8,4c-0.7,1.8-0.7,3.8-0.4,5.7c0.3,1.9,1,3.6,1.7,5.3
				c0.5,1.3,1.1,2.6,2.5,3.3c1.5,0.7,3.1,0.1,4.7,0c1.7-0.1,3.2,1,4.9,0.4c2.9-0.9,4.1-3.5,5.1-6.2c1.3-3.7,2.5-7.7-0.3-11
				c-0.6-0.7-1.3-1.2-2.2-1.3C251.2-95.2,250.4-91.9,248-92.1z"/>
			<path class="st5" d="M248-99.9c0.3,0.6,0.9,1.8,1,3.3c0.1,1.9-0.5,3.4-0.8,4"/>
		</g>
		<g class="st4">
			<path class="st5" d="M267.5,65.1c-1.9-0.1-2.1-2.6-4.5-3c-2.6-0.4-4.9,1.7-5.8,4c-0.7,1.8-0.7,3.8-0.4,5.7c0.3,1.9,1,3.6,1.7,5.3
				c0.5,1.3,1.1,2.6,2.5,3.3c1.5,0.7,3.1,0.1,4.7,0c1.7-0.1,3.2,1,4.9,0.4c2.9-0.9,4.1-3.5,5.1-6.2c1.3-3.7,2.5-7.7-0.3-11
				c-0.6-0.7-1.3-1.2-2.2-1.3C270.7,62,269.8,65.3,267.5,65.1z"/>
			<path class="st5" d="M267.4,57.4c0.3,0.6,0.9,1.8,1,3.3c0.1,1.9-0.5,3.4-0.8,4"/>
		</g>
		<g class="st4">
			<path class="st5" d="M247.2-134.7c-1.9-0.1-2.1-2.6-4.5-3c-2.6-0.4-4.9,1.7-5.8,4c-0.7,1.8-0.7,3.8-0.4,5.7s1,3.6,1.7,5.3
				c0.5,1.3,1.1,2.6,2.5,3.3c1.5,0.7,3.1,0.1,4.7,0c1.7-0.1,3.2,1,4.9,0.4c2.9-0.9,4.1-3.5,5.1-6.2c1.3-3.7,2.5-7.7-0.3-11
				c-0.6-0.7-1.3-1.2-2.2-1.3C250.4-137.9,249.5-134.6,247.2-134.7z"/>
			<path class="st5" d="M247.1-142.5c0.3,0.6,0.9,1.8,1,3.3c0.1,1.9-0.5,3.4-0.8,4"/>
		</g>
		<g class="st4">
			<path class="st5" d="M260.2-28.5c-1.9-0.1-2.1-2.6-4.5-3c-2.6-0.4-4.9,1.7-5.8,4c-0.7,1.8-0.7,3.8-0.4,5.7c0.3,1.9,1,3.6,1.7,5.3
				c0.5,1.3,1.1,2.6,2.5,3.3c1.5,0.7,3.1,0.1,4.7,0c1.7-0.1,3.2,1,4.9,0.4c2.9-0.9,4.1-3.5,5.1-6.2c1.3-3.7,2.5-7.7-0.3-11
				c-0.6-0.7-1.3-1.2-2.2-1.3C263.4-31.6,262.6-28.3,260.2-28.5z"/>
			<path class="st5" d="M260.1-36.3c0.3,0.6,0.9,1.8,1,3.3c0.1,1.9-0.5,3.4-0.8,4"/>
		</g>
		<g class="st4">
			<path class="st5" d="M236.8-195.7c-1.9-0.1-2.1-2.6-4.5-3c-2.6-0.4-4.9,1.7-5.8,4c-0.7,1.8-0.7,3.8-0.4,5.7s1,3.6,1.7,5.3
				c0.5,1.3,1.1,2.6,2.5,3.3c1.5,0.7,3.1,0.1,4.7,0c1.7-0.1,3.2,1,4.9,0.4c2.9-0.9,4.1-3.5,5.1-6.2c1.3-3.7,2.5-7.7-0.3-11
				c-0.6-0.7-1.3-1.2-2.2-1.3C240-198.8,239.2-195.5,236.8-195.7z"/>
			<path class="st5" d="M236.7-203.5c0.3,0.6,0.9,1.8,1,3.3c0.1,1.9-0.5,3.4-0.8,4"/>
		</g>
		<g class="st4">
			<path class="st5" d="M251.9-59.1c-1.9-0.1-2.1-2.6-4.5-3c-2.6-0.4-4.9,1.7-5.8,4c-0.7,1.8-0.7,3.8-0.4,5.7c0.3,1.9,1,3.6,1.7,5.3
				c0.5,1.3,1.1,2.6,2.5,3.3c1.5,0.7,3.1,0.1,4.7,0c1.7-0.1,3.2,1,4.9,0.4c2.9-0.9,4.1-3.5,5.1-6.2c1.3-3.7,2.5-7.7-0.3-11
				c-0.6-0.7-1.3-1.2-2.2-1.3C255.1-62.3,254.3-59,251.9-59.1z"/>
			<path class="st5" d="M251.8-66.9c0.3,0.6,0.9,1.8,1,3.3c0.1,1.9-0.5,3.4-0.8,4"/>
		</g>
		<g class="st4">
			<path class="st5" d="M250.4-162.9c-1.9-0.1-2.1-2.6-4.5-3c-2.6-0.4-4.9,1.7-5.8,4c-0.7,1.8-0.7,3.8-0.4,5.7s1,3.6,1.7,5.3
				c0.5,1.3,1.1,2.6,2.5,3.3c1.5,0.7,3.1,0.1,4.7,0c1.7-0.1,3.2,1,4.9,0.4c2.9-0.9,4.1-3.5,5.1-6.2c1.3-3.7,2.5-7.7-0.3-11
				c-0.6-0.7-1.3-1.2-2.2-1.3C253.6-166,252.8-162.7,250.4-162.9z"/>
			<path class="st5" d="M250.4-170.7c0.3,0.6,0.9,1.8,1,3.3c0.1,1.9-0.5,3.4-0.8,4"/>
		</g>
		<g class="st4">
			<path class="st5" d="M292.2-165.2c-1.9-0.1-2.1-2.6-4.5-3c-2.6-0.4-4.9,1.7-5.8,4c-0.7,1.8-0.7,3.8-0.4,5.7s1,3.6,1.7,5.3
				c0.5,1.3,1.1,2.6,2.5,3.3c1.5,0.7,3.1,0.1,4.7,0c1.7-0.1,3.2,1,4.9,0.4c2.9-0.9,4.1-3.5,5.1-6.2c1.3-3.7,2.5-7.7-0.3-11
				c-0.6-0.7-1.3-1.2-2.2-1.3C295.4-168.3,294.6-165,292.2-165.2z"/>
			<path class="st5" d="M292.2-172.9c0.3,0.6,0.9,1.8,1,3.3c0.1,1.9-0.5,3.4-0.8,4"/>
		</g>
	</g>
	<g>
		<path class="st5" d="M33.1,21.7c-4.4-0.3-4.8-5.2-10.2-6c-5.9-0.9-11.1,3.4-13.1,8c-1.6,3.6-1.6,7.7-0.9,11.5
			c0.8,3.7,2.3,7.2,3.8,10.7c1.1,2.7,2.6,5.3,5.7,6.5c3.4,1.4,7.1,0.2,10.7,0c4-0.2,7.2,2,11.1,0.8c6.7-1.9,9.3-7,11.6-12.4
			c3-7.4,5.6-15.4-0.8-22.1c-1.3-1.3-3-2.4-5-2.7C40.3,15.4,38.4,22.1,33.1,21.7z"/>
		<path class="st5" d="M32.9,6.1c0.8,1.3,2,3.6,2.2,6.7c0.3,3.9-1.2,6.8-1.9,8.1"/>
	</g>
</g>
<g id="Layer_3_copy" class="st0">
	<g class="st4">
		<path class="st6" d="M14.3-25.8C16.2-20.9,11-19.1,5-2.1C1,9.1-0.2,23.8-2.4,53c-0.8,10.8-1.6,21.2-2,35.5
			c0,1.8-0.8,18.3,0.2,36.9c1.6,30,3.6,63.5,12.6,107.8c6.5,31.6,14.5,58.5,21.9,80l9,19.7c-3-2.9-7.4-7-12.7-12
			C10.1,305.6,5.9,301.7,5,302.5c-1.3,1.1,5.6,9.4,10.7,24.7c3.1,9.4,5.6,21.7,3.4,22.6c-2.2,0.9-7.2-10.6-19.9-26
			c-9.7-11.8-22.9-24.7-26-22.6c-2.8,1.9,6.1,13.6,4.7,32.2c-0.6,8.6-3.2,18.4-6.2,18.5c-3.4,0.1-3.3-13.2-12.5-28.4
			c-6.1-10-18.3-24.3-26.6-21.6c-6.5,2.1-8,13.9-8.4,16.5c-2.4,18.3,9.7,31.4,7.6,32.8c-2.4,1.6-18.8-10.7-24.6-29.7
			c-2.6-8.4-2.4-15.8-5.1-16.1c-2.8-0.4-4.3,7.6-11.9,17c-6.6,8.2-15.9,15.1-17.8,13.6c-2.3-1.8,5.5-14.7,9.7-22.6
			c10.5-19.8,13.1-40.1,20.8-80.3c2.3-12.2,4.1-23.6,5.5-34.3c1.9-14.7,5.4-41.3,5.6-73.6c0.2-52.7-8.1-115.1-11.1-127.3
			s-8.2-22.3-9.7-23.5l0,0C-106.9-27.7,5.6-48,14.3-25.8z"/>
		<path class="st7" d="M112.5-74.6c-0.7-5.8-2.3-19-12.2-30.6c-9.7-11.4-22.6-15.6-31.6-18.5c-12.1-3.9-21.7-4.2-21.7-5.9
			s8.7-1.3,17.3-4.4c14.3-5.1,25.5-18.4,30.2-31.7c9.5-26.9-8.4-51.2-11.8-55.8c-15.9-21.6-39.3-26.6-48.3-27.9
			c-1.2-0.2-2.1-0.3-2.9-0.4c-6.8-0.7-37.4-4.1-47.8,10.5c-5.5,7.7-3.6,16.4-6.5,16.7c-3.1,0.3-4.8-10.5-9.6-18.5
			c-13.7-22.6-56.5-28.5-86.8-16.1c-6.9,2.8-20.6,8.7-28.6,22.9c-2.3,4.2-8.7,15.6-5.3,27.1c1.9,6.3,5.5,8.4,4.3,10.7
			c-2.6,5.1-20.8-5.5-42.6,0c-4.9,1.2-13.9,3.6-21.9,10.9c-12.8,11.8-19.2,33.2-11.9,50.7c7.8,18.8,28.3,25.8,33.6,27.6
			c9.4,3.2,18.7,3.7,18.7,5.2c-0.1,1.8-12.8-0.8-23.9,6c-11.4,6.9-17,21.3-17.2,33.6c0,3.2,0.1,15.7,9,26.9
			c10.9,13.8,29.9,17.9,44,16.4c16.2-1.7,22.2-10.6,41.4-9.3c8.8,0.6,12.4,2.8,14.5,4.5c4.8,4,112.7,5.4,121,0.1
			c11.5-7.3,24.1,8,47.7,6.5c17.3-1.1,36.9-11,45.1-27.9C114.5-56.9,113.2-68.5,112.5-74.6z"/>
		<g>
			<path class="st8" d="M-142.7-55.6c-1.9-0.1-2.1-2.6-4.5-3c-2.6-0.4-4.9,1.7-5.8,4c-0.7,1.8-0.7,3.8-0.4,5.7
				c0.3,1.9,1,3.6,1.7,5.3c0.5,1.3,1.1,2.6,2.5,3.3c1.5,0.7,3.1,0.1,4.7,0c1.7-0.1,3.2,1,4.9,0.4c2.9-0.9,4.1-3.5,5.1-6.2
				c1.3-3.7,2.5-7.7-0.3-11c-0.6-0.7-1.3-1.2-2.2-1.3C-139.5-58.8-140.3-55.4-142.7-55.6z"/>
			<path class="st8" d="M-142.8-63.4c0.3,0.6,0.9,1.8,1,3.3c0.1,1.9-0.5,3.4-0.8,4"/>
		</g>
		<g>
			<path class="st5" d="M-154-159.7c-1.9-0.1-2.1-2.6-4.5-3c-2.6-0.4-4.9,1.7-5.8,4c-0.7,1.8-0.7,3.8-0.4,5.7s1,3.6,1.7,5.3
				c0.5,1.3,1.1,2.6,2.5,3.3c1.5,0.7,3.1,0.1,4.7,0c1.7-0.1,3.2,1,4.9,0.4c2.9-0.9,4.1-3.5,5.1-6.2c1.3-3.7,2.5-7.7-0.3-11
				c-0.6-0.7-1.3-1.2-2.2-1.3C-150.8-162.8-151.7-159.5-154-159.7z"/>
			<path class="st5" d="M-154.1-167.5c0.3,0.6,0.9,1.8,1,3.3c0.1,1.9-0.5,3.4-0.8,4"/>
		</g>
		<g>
			<path class="st5" d="M-83.9-116.9c-1.9-0.1-2.1-2.6-4.5-3c-2.6-0.4-4.9,1.7-5.8,4c-0.7,1.8-0.7,3.8-0.4,5.7s1,3.6,1.7,5.3
				c0.5,1.3,1.1,2.6,2.5,3.3c1.5,0.7,3.1,0.1,4.7,0c1.7-0.1,3.2,1,4.9,0.4c2.9-0.9,4.1-3.5,5.1-6.2c1.3-3.7,2.5-7.7-0.3-11
				c-0.6-0.7-1.3-1.2-2.2-1.3C-80.8-120-81.6-116.7-83.9-116.9z"/>
			<path class="st5" d="M-84-124.7c0.3,0.6,0.9,1.8,1,3.3c0.1,1.9-0.5,3.4-0.8,4"/>
		</g>
		<g>
			<path class="st5" d="M-22.8-58.6c-1.9-0.1-2.1-2.6-4.5-3c-2.6-0.4-4.9,1.7-5.8,4c-0.7,1.8-0.7,3.8-0.4,5.7c0.3,1.9,1,3.6,1.7,5.3
				c0.5,1.3,1.1,2.6,2.5,3.3c1.5,0.7,3.1,0.1,4.7,0c1.7-0.1,3.2,1,4.9,0.4c2.9-0.9,4.1-3.5,5.1-6.2c1.3-3.7,2.5-7.7-0.3-11
				c-0.6-0.7-1.3-1.2-2.2-1.3C-19.6-61.8-20.4-58.5-22.8-58.6z"/>
			<path class="st5" d="M-22.9-66.4c0.3,0.6,0.9,1.8,1,3.3c0.1,1.9-0.5,3.4-0.8,4"/>
		</g>
		<g>
			<path class="st5" d="M38.8-202c-1.9-0.1-2.1-2.6-4.5-3c-2.6-0.4-4.9,1.7-5.8,4c-0.7,1.8-0.7,3.8-0.4,5.7c0.3,1.9,1,3.6,1.7,5.3
				c0.5,1.3,1.1,2.6,2.5,3.3c1.5,0.7,3.1,0.1,4.7,0c1.7-0.1,3.2,1,4.9,0.4c2.9-0.9,4.1-3.5,5.1-6.2c1.3-3.7,2.5-7.7-0.3-11
				c-0.6-0.7-1.3-1.2-2.2-1.3C42-205.2,41.1-201.9,38.8-202z"/>
			<path class="st5" d="M38.7-209.8c0.3,0.6,0.9,1.8,1,3.3c0.1,1.9-0.5,3.4-0.8,4"/>
		</g>
		<g>
			<path class="st5" d="M67.4-76.9c-1.9-0.1-2.1-2.6-4.5-3c-2.6-0.4-4.9,1.7-5.8,4c-0.7,1.8-0.7,3.8-0.4,5.7c0.3,1.9,1,3.6,1.7,5.3
				c0.5,1.3,1.1,2.6,2.5,3.3c1.5,0.7,3.1,0.1,4.7,0c1.7-0.1,3.2,1,4.9,0.4c2.9-0.9,4.1-3.5,5.1-6.2c1.3-3.7,2.5-7.7-0.3-11
				c-0.6-0.7-1.3-1.2-2.2-1.3C70.6-80,69.8-76.7,67.4-76.9z"/>
			<path class="st5" d="M67.3-84.6c0.3,0.6,0.9,1.8,1,3.3c0.1,1.9-0.5,3.4-0.8,4"/>
		</g>
		<g>
			<path class="st5" d="M-4.5-137.9c-1.9-0.1-2.1-2.6-4.5-3c-2.6-0.4-4.9,1.7-5.8,4c-0.7,1.8-0.7,3.8-0.4,5.7c0.3,1.9,1,3.6,1.7,5.3
				c0.5,1.3,1.1,2.6,2.5,3.3c1.5,0.7,3.1,0.1,4.7,0c1.7-0.1,3.2,1,4.9,0.4c2.9-0.9,4.1-3.5,5.1-6.2c1.3-3.7,2.5-7.7-0.3-11
				c-0.6-0.7-1.3-1.2-2.2-1.3C-1.3-141.1-2.2-137.7-4.5-137.9z"/>
			<path class="st5" d="M-4.6-145.7c0.3,0.6,0.9,1.8,1,3.3c0.1,1.9-0.5,3.4-0.8,4"/>
		</g>
		<g>
			<path class="st5" d="M-94.1-208.8c-1.9-0.1-2.1-2.6-4.5-3c-2.6-0.4-4.9,1.7-5.8,4c-0.7,1.8-0.7,3.8-0.4,5.7s1,3.6,1.7,5.3
				c0.5,1.3,1.1,2.6,2.5,3.3c1.5,0.7,3.1,0.1,4.7,0c1.7-0.1,3.2,1,4.9,0.4c2.9-0.9,4.1-3.5,5.1-6.2c1.3-3.7,2.5-7.7-0.3-11
				c-0.6-0.7-1.3-1.2-2.2-1.3C-91-211.9-91.8-208.6-94.1-208.8z"/>
			<path class="st5" d="M-94.2-216.6c0.3,0.6,0.9,1.8,1,3.3c0.1,1.9-0.5,3.4-0.8,4"/>
		</g>
		<g>
			<path class="st8" d="M-4.5-137.9c-1.9-0.1-2.1-2.6-4.5-3c-2.6-0.4-4.9,1.7-5.8,4c-0.7,1.8-0.7,3.8-0.4,5.7c0.3,1.9,1,3.6,1.7,5.3
				c0.5,1.3,1.1,2.6,2.5,3.3c1.5,0.7,3.1,0.1,4.7,0c1.7-0.1,3.2,1,4.9,0.4c2.9-0.9,4.1-3.5,5.1-6.2c1.3-3.7,2.5-7.7-0.3-11
				c-0.6-0.7-1.3-1.2-2.2-1.3C-1.3-141.1-2.2-137.7-4.5-137.9z"/>
			<path class="st8" d="M-4.6-145.7c0.3,0.6,0.9,1.8,1,3.3c0.1,1.9-0.5,3.4-0.8,4"/>
		</g>
		<g>
			<path class="st8" d="M-83.9-116.9c-1.9-0.1-2.1-2.6-4.5-3c-2.6-0.4-4.9,1.7-5.8,4c-0.7,1.8-0.7,3.8-0.4,5.7s1,3.6,1.7,5.3
				c0.5,1.3,1.1,2.6,2.5,3.3c1.5,0.7,3.1,0.1,4.7,0c1.7-0.1,3.2,1,4.9,0.4c2.9-0.9,4.1-3.5,5.1-6.2c1.3-3.7,2.5-7.7-0.3-11
				c-0.6-0.7-1.3-1.2-2.2-1.3C-80.8-120-81.6-116.7-83.9-116.9z"/>
			<path class="st8" d="M-84-124.7c0.3,0.6,0.9,1.8,1,3.3c0.1,1.9-0.5,3.4-0.8,4"/>
		</g>
		<g>
			<path class="st8" d="M-22.8-58.6c-1.9-0.1-2.1-2.6-4.5-3c-2.6-0.4-4.9,1.7-5.8,4c-0.7,1.8-0.7,3.8-0.4,5.7c0.3,1.9,1,3.6,1.7,5.3
				c0.5,1.3,1.1,2.6,2.5,3.3c1.5,0.7,3.1,0.1,4.7,0c1.7-0.1,3.2,1,4.9,0.4c2.9-0.9,4.1-3.5,5.1-6.2c1.3-3.7,2.5-7.7-0.3-11
				c-0.6-0.7-1.3-1.2-2.2-1.3C-19.6-61.8-20.4-58.5-22.8-58.6z"/>
			<path class="st8" d="M-22.9-66.4c0.3,0.6,0.9,1.8,1,3.3c0.1,1.9-0.5,3.4-0.8,4"/>
		</g>
	</g>
</g>
<g id="Layer_4" class="st0">
</g>
<g id="Layer_5" class="st0">
	<ellipse class="st9" cx="-12.4" cy="67.5" rx="119.8" ry="146.8"/>
	<path class="st10" d="M-90.3-164.3c-4.4-0.1-14-16.3-16-18.9c-9.5-12-17.8-24.9-29.4-36.2c3.4,3.2,51.7,18.3,53.3,18.1
		c10.4-1,17-20.2,21.8-25.2c-2.8,2.9,34.5,24.4,39.1,27.8c0.1,0.1,34.1-21.4,36.6-24.3c8.6,9.3,17.3,18.5,25.9,27.8
		c-1.6-2.4,41.7-20.7,46.7-23.2c-5.3,2.7-23.1,46.1-29.6,59C8.6-161.1-40.9-162.7-90.3-164.3z"/>
	<path class="st10" d="M-69.6-125c-3.4-0.1-10.5-16.1-12.1-18.7c-7.1-11.8-13.3-24.6-22.1-35.8c2.5,3.2,39.6,17.5,40.8,17.3
		c8-1.1,13.4-20.5,17.1-25.5c-2.2,2.9,26.2,23.9,29.7,27.2c0.1,0.1,26.6-21.9,28.5-24.8c6.5,9.1,13.1,18.2,19.6,27.4
		c-1.2-2.4,32.4-21.3,36.3-23.9c-4.2,2.7-18.5,46.4-23.6,59.4C6.6-123.2-31.5-124.1-69.6-125z"/>
	<path class="st10" d="M-56.6-93.7c-2.7,0-8.2-16-9.4-18.5c-5.6-11.7-10.4-24.5-17.3-35.5c2,3.2,31.5,17,32.5,16.8
		c6.4-1.2,11-20.6,14-25.7c-1.8,2.9,20.7,23.6,23.5,26.8c0,0.1,21.6-22.2,23.2-25.2c5.1,9,10.2,18.1,15.3,27.1
		c-1-2.4,26.2-21.7,29.4-24.3c-3.4,2.8-15.4,46.6-19.7,59.6C4.4-92.9-26.1-93.3-56.6-93.7z"/>
</g>
<g id="Layer_6" class="st0">
	<line class="st11" x1="-132.2" y1="73.8" x2="7.6" y2="-77.2"/>
	<line class="st11" x1="-123.5" y1="117.9" x2="43.9" y2="-63"/>
	<line class="st11" x1="-107.2" y1="154.2" x2="69.9" y2="-37.1"/>
	<line class="st11" x1="-85.7" y1="185" x2="91.4" y2="-6.3"/>
	<line class="st11" x1="-55.1" y1="204.3" x2="104.1" y2="33.3"/>
	<line class="st11" x1="-6.9" y1="214.8" x2="106.1" y2="89.4"/>
	<line class="st11" x1="95.2" y1="136.7" x2="-89.4" y2="-42.5"/>
	<line class="st11" x1="71.7" y1="172" x2="-114.5" y2="-7.7"/>
	<line class="st11" x1="40.2" y1="202.9" x2="-129.7" y2="37.9"/>
	<line class="st11" x1="107.1" y1="90.4" x2="-59.5" y2="-69.6"/>
	<line class="st11" x1="104.1" y1="33.3" x2="-6" y2="-78.8"/>
	<line class="st11" x1="-6.9" y1="214.8" x2="-132.2" y2="89.4"/>
	<line class="st11" x1="-125.6" y1="18.1" x2="-38.7" y2="-75.7"/>
</g>
<g id="Layer_7" class="st0">
	<path class="st12" d="M100.7-58.6c0,10.7-1.6,32.6-14.7,55.5c-3.9,6.8-12.9,22-30.6,34c-23.6,15.9-47.8,15.9-68,15.9
		c-20.5,0-53.2-0.1-80.4-22.7C-106.3,13-113.4,0.6-116.8-5.3c-12.6-22.5-14.6-44-14.7-55.3L100.7-58.6z"/>
	<path class="st13" d="M-131.8-58.4c1.5-12.7,7.4-47.4,35.9-73c41.6-37.3,110.1-35.9,153.1-1.9c32.7,25.8,41.1,62.8,43.4,75.6"/>
	<line class="st13" x1="-126.2" y1="-30.8" x2="-75.7" y2="-60.7"/>
	<line class="st13" x1="-116.8" y1="-7" x2="-27.6" y2="-59.7"/>
	<line class="st13" x1="-103.8" y1="15" x2="20.9" y2="-58.7"/>
	<line class="st13" x1="-80.1" y1="32.8" x2="74.8" y2="-58.8"/>
	<line class="st13" x1="-45.5" y1="45.1" x2="99.7" y2="-40.8"/>
	<line class="st13" x1="-4" y1="46.7" x2="88.5" y2="-8"/>
	<line class="st13" x1="57" y1="-58.7" x2="96" y2="-27.5"/>
	<line class="st13" x1="16" y1="-58.6" x2="85.9" y2="-3.1"/>
	<line class="st13" x1="-24.7" y1="-58.6" x2="71.1" y2="17.5"/>
	<line class="st13" x1="-70.5" y1="-60.1" x2="48.9" y2="34.8"/>
	<line class="st13" x1="-115.3" y1="-60.7" x2="18.7" y2="45.7"/>
	<line class="st13" x1="-128.5" y1="-38.5" x2="-21.3" y2="46.7"/>
	<line class="st13" x1="-115.9" y1="-3.1" x2="-59.6" y2="41.6"/>
</g>
<g id="Layer_7_copy_5" class="st0">
	<path class="st14" d="M9.4-64.9c4.4-6,14.8-16.4,15.2-23.6c0.4-7.3,0.8-30.8,2-35.6s9.4,7.8,10.2,12.6c0.8,4.8,3.9,19.9,2.5,25.2
		s-6.5,15.7-9.7,18.5s-7.3,8-13.2,12c-6.1,2.4-10,6.6-16.1,6.6C-5.8-49.1,5-58.8,9.4-64.9z"/>
	<path class="st14" d="M31.8-63.3c2.5-6.8,9.5-19.2,7.8-25.9s-8-28.2-8.2-32.8c-0.2-4.7,11.2,4.3,13.3,8.4
		c2.1,4.1,9.4,16.9,9.5,22.1c0.1,5.2-1.8,16.2-4,19.7S45.5-62.4,41-57c-5.1,4-7.7,8.9-13.5,10.8C21.8-44.5,29.4-56.6,31.8-63.3z"/>
	<path class="st14" d="M-11.3-79.1c6.2-3.6,19.6-8.7,22.6-15c3-6.2,11.9-26.7,14.7-30.5c2.8-3.7,5.9,10.5,4.9,15s-3.6,19-6.8,23.1
		c-3.2,4.1-11.7,11.3-15.7,12.6c-3.9,1.3-9.6,4.3-16.5,5.5c-6.5-0.3-11.6,2-17.3-0.4S-17.5-75.5-11.3-79.1z"/>
	<path class="st15" d="M25.3-122c0.2-3.8,0-15,0-18.5s10.5-3.5,10.5,0s2.4,15,0,18.5C33.5-118.5,25.1-118.2,25.3-122z"/>
	<g class="st4">
		
			<ellipse transform="matrix(0.8054 -0.5928 0.5928 0.8054 21.265 -88.8138)" class="st16" cx="-124.6" cy="-76.8" rx="8.5" ry="8.9"/>
		
			<ellipse transform="matrix(0.8054 -0.5928 0.5928 0.8054 29.8865 -82.6374)" class="st16" cx="-110.9" cy="-86.8" rx="8.5" ry="8.9"/>
		
			<ellipse transform="matrix(0.8054 -0.5928 0.5928 0.8054 38.4934 -76.548)" class="st16" cx="-97.3" cy="-96.9" rx="8.5" ry="8.9"/>
		
			<ellipse transform="matrix(0.8054 -0.5928 0.5928 0.8054 47.115 -70.3716)" class="st16" cx="-83.6" cy="-106.9" rx="8.5" ry="8.9"/>
		
			<ellipse transform="matrix(0.8054 -0.5928 0.5928 0.8054 20.019 -77.8915)" class="st16" cx="-108.6" cy="-69.4" rx="8.5" ry="8.9"/>
		<ellipse transform="matrix(0.8054 -0.5928 0.5928 0.8054 28.626 -71.8021)" class="st16" cx="-95" cy="-79.5" rx="8.5" ry="8.9"/>
		
			<ellipse transform="matrix(0.8054 -0.5928 0.5928 0.8054 37.2475 -65.6257)" class="st16" cx="-81.3" cy="-89.5" rx="8.5" ry="8.9"/>
		
			<ellipse transform="matrix(0.8054 -0.5928 0.5928 0.8054 18.644 -66.8648)" class="st16" cx="-92.5" cy="-61.8" rx="8.5" ry="8.9"/>
		
			<ellipse transform="matrix(0.8054 -0.5928 0.5928 0.8054 27.2509 -60.7755)" class="st16" cx="-78.9" cy="-71.9" rx="8.5" ry="8.9"/>
		
			<ellipse transform="matrix(0.8054 -0.5928 0.5928 0.8054 17.3674 -55.9521)" class="st16" cx="-76.5" cy="-54.4" rx="8.5" ry="8.9"/>
		<path class="st17" d="M-110.7-96.9c-0.3,1.4-9.6,2.2-10.9,1.8c-1.9,0.2-11.3-4.7-10.8-7.2s10.2-3.1,11.9-2.6
			S-110.4-98.4-110.7-96.9z"/>
		<path class="st17" d="M-108-122.2c2.9,0.8,4.4,12.7,4.5,14.7s-6.9,11.3-8.1,11.3c-1.2,0-6.4-11.1-5.3-14.9
			C-115.7-114.9-110.8-123-108-122.2z"/>
	</g>
	<g class="st4">
		<path class="st18" d="M-42-83.6c0,0,1.1-13.5,0.8-18.9s-2.2-6.1-2.5-10.5c-1.5-3,5.2-1,6.7,0.3s3.3,8.9,3.1,14.8
			c-0.2,5.9-0.6,14.7-0.6,14.7L-42-83.6z"/>
		<ellipse transform="matrix(0.1431 -0.9897 0.9897 0.1431 32.4136 -99.923)" class="st19" cx="-41.5" cy="-68.7" rx="26" ry="26"/>
	</g>
	<ellipse transform="matrix(0.1431 -0.9897 0.9897 0.1431 138.8909 12.1058)" class="st20" cx="76.4" cy="-74.2" rx="26" ry="26"/>
	<path class="st12" d="M100.7-58.6c0,10.7-1.6,32.6-14.7,55.5c-3.9,6.8-12.9,22-30.6,34c-23.6,15.9-47.8,15.9-68,15.9
		c-20.5,0-53.2-0.1-80.4-22.7C-106.3,13-113.4,0.6-116.8-5.3c-12.6-22.5-14.6-44-14.7-55.3L100.7-58.6z"/>
	<line class="st13" x1="-126.2" y1="-30.8" x2="-75.7" y2="-60.7"/>
	<line class="st13" x1="-116.8" y1="-7" x2="-27.6" y2="-59.7"/>
	<line class="st13" x1="-103.8" y1="15" x2="20.9" y2="-58.7"/>
	<line class="st13" x1="-80.1" y1="32.8" x2="74.8" y2="-58.8"/>
	<line class="st13" x1="-45.5" y1="45.1" x2="99.7" y2="-40.8"/>
	<line class="st13" x1="-4" y1="46.7" x2="88.5" y2="-8"/>
	<line class="st13" x1="57" y1="-58.7" x2="96" y2="-27.5"/>
	<line class="st13" x1="16" y1="-58.6" x2="85.9" y2="-3.1"/>
	<line class="st13" x1="-24.7" y1="-58.6" x2="71.1" y2="17.5"/>
	<line class="st13" x1="-70.5" y1="-60.1" x2="48.9" y2="34.8"/>
	<line class="st13" x1="-115.3" y1="-60.7" x2="18.7" y2="45.7"/>
	<line class="st13" x1="-128.5" y1="-38.5" x2="-21.3" y2="46.7"/>
	<line class="st13" x1="-115.9" y1="-3.1" x2="-59.6" y2="41.6"/>
</g>
<g id="Layer_7_copy" class="st0">
	<path class="st12" d="M100.7-58.6c0,10.7-1.6,32.6-14.7,55.5c-3.9,6.8-12.9,22-30.6,34c-23.6,15.9-47.8,15.9-68,15.9
		c-20.5,0-53.2-0.1-80.4-22.7C-106.3,13-113.4,0.6-116.8-5.3c-12.6-22.5-14.6-44-14.7-55.3L100.7-58.6z"/>
	<path class="st13" d="M-131.8-58.4c1.5-12.7,7.4-47.4,35.9-73c41.6-37.3,110.1-35.9,153.1-1.9c32.7,25.8,41.1,62.8,43.4,75.6"/>
	<line class="st13" x1="-126.2" y1="-30.8" x2="-75.7" y2="-60.7"/>
	<line class="st13" x1="-116.8" y1="-7" x2="-27.6" y2="-59.7"/>
	<line class="st13" x1="-103.8" y1="15" x2="20.9" y2="-58.7"/>
	<line class="st13" x1="-80.1" y1="32.8" x2="74.8" y2="-58.8"/>
	<line class="st13" x1="-45.5" y1="45.1" x2="99.7" y2="-40.8"/>
	<line class="st13" x1="-4" y1="46.7" x2="88.5" y2="-8"/>
	<line class="st13" x1="57" y1="-58.7" x2="96" y2="-27.5"/>
	<line class="st13" x1="16" y1="-58.6" x2="85.9" y2="-3.1"/>
	<line class="st13" x1="-24.7" y1="-58.6" x2="71.1" y2="17.5"/>
	<line class="st13" x1="-70.5" y1="-60.1" x2="48.9" y2="34.8"/>
	<line class="st13" x1="-115.3" y1="-60.7" x2="18.7" y2="45.7"/>
	<line class="st13" x1="-128.5" y1="-38.5" x2="-21.3" y2="46.7"/>
	<line class="st13" x1="-115.9" y1="-3.1" x2="-59.6" y2="41.6"/>
	<path class="st2" d="M-57.4-90.4c1.9,4.9-3.3,6.7-9.3,23.7c-4,11.2-5.2,25.9-7.4,55.1c-0.8,10.8-1.6,21.2-2,35.5
		c0,1.8-0.8,18.3,0.2,36.9c1.6,30,3.6,63.5,12.6,107.8c6.5,31.6,14.5,58.5,21.9,80l9,19.7c-3-2.9-7.4-7-12.7-12
		c-16.5-15.3-20.7-19.2-21.6-18.4c-1.3,1.1,5.6,9.4,10.7,24.7c3.1,9.4,5.6,21.7,3.4,22.6c-2.2,0.9-7.2-10.6-19.9-26
		c-9.7-11.8-22.9-24.7-26-22.6c-2.8,1.9,6.1,13.6,4.7,32.2c-0.6,8.6-3.2,18.4-6.2,18.5c-3.4,0.1-3.3-13.2-12.5-28.4
		c-6.1-10-18.3-24.3-26.6-21.6c-6.5,2.1-8,13.9-8.4,16.5c-2.4,18.3,9.7,31.4,7.6,32.8c-2.4,1.6-18.8-10.7-24.6-29.7
		c-2.6-8.4-2.4-15.8-5.1-16.1c-2.8-0.4-4.3,7.6-11.9,17c-6.6,8.2-15.9,15.1-17.8,13.6c-2.3-1.8,5.5-14.7,9.7-22.6
		c10.5-19.8,13.1-40.1,20.8-80.3c2.3-12.2,4.1-23.6,5.5-34.3c1.9-14.7,5.4-41.3,5.6-73.6c0.2-52.7-8.1-115.1-11.1-127.3
		s-8.2-22.3-9.7-23.5l0,0C-178.6-92.4-66.1-112.7-57.4-90.4z"/>
	<path class="st3" d="M40.9-139.2c-0.7-5.8-2.3-19-12.2-30.6C19-181.2,6.1-185.4-2.9-188.3c-12.1-3.9-21.7-4.2-21.7-5.9
		s8.7-1.3,17.3-4.4C7-203.7,18.2-217,22.9-230.3c9.5-26.9-8.4-51.2-11.8-55.8c-15.9-21.6-39.3-26.6-48.3-27.9
		c-1.2-0.2-2.1-0.3-2.9-0.4c-6.8-0.7-37.4-4.1-47.8,10.5c-5.5,7.7-3.6,16.4-6.5,16.7c-3.1,0.3-4.8-10.5-9.6-18.5
		c-13.7-22.6-56.5-28.5-86.8-16.1c-6.9,2.8-20.6,8.7-28.6,22.9c-2.3,4.2-8.7,15.6-5.3,27.1c1.9,6.3,5.5,8.4,4.3,10.7
		c-2.6,5.1-20.8-5.5-42.6,0c-4.7,1.1-13.7,3.4-21.6,10.8c-12.8,11.8-19.2,33.2-12,50.7c7.8,18.8,28.3,25.8,33.6,27.6
		c9.4,3.2,18.7,3.7,18.7,5.2c-0.1,1.8-12.8-0.8-23.9,6c-11.4,6.9-17,21.3-17.2,33.6c0,3.2,0.1,15.7,9,26.9
		c10.9,13.8,29.9,17.9,44,16.4c16.2-1.7,22.2-10.6,41.4-9.3c8.8,0.6,12.4,2.8,14.5,4.5c4.8,4,112.7,5.4,121,0.1
		c11.5-7.3,24.1,8,47.7,6.5c17.3-1.1,36.9-11,45.1-27.9C42.9-121.6,41.6-133.1,40.9-139.2z"/>
	<g class="st4">
		<path class="st5" d="M-86.5-91.2c-3.7-0.3-4-4.5-8.5-5.2c-4.9-0.8-9.2,3-10.9,6.9c-1.3,3.1-1.4,6.6-0.7,10c0.6,3.2,2,6.2,3.1,9.3
			c0.9,2.3,2.1,4.6,4.7,5.7c2.8,1.2,5.9,0.2,8.9,0c3.3-0.2,6,1.7,9.3,0.7c5.6-1.6,7.8-6.1,9.6-10.8c2.5-6.4,4.7-13.4-0.7-19.2
			c-1.1-1.2-2.5-2.1-4.2-2.3C-80.5-96.7-82.1-90.9-86.5-91.2z"/>
		<path class="st5" d="M-86.7-104.7c0.7,1.1,1.7,3.1,1.8,5.8c0.2,3.3-1,5.9-1.6,7"/>
	</g>
</g>
<g id="Layer_7_copy_2" class="st0">
	<path class="st12" d="M100.7-58.6c0,10.7-1.6,32.6-14.7,55.5c-3.9,6.8-12.9,22-30.6,34c-23.6,15.9-47.8,15.9-68,15.9
		c-20.5,0-53.2-0.1-80.4-22.7C-106.3,13-113.4,0.6-116.8-5.3c-12.6-22.5-14.6-44-14.7-55.3L100.7-58.6z"/>
	<path class="st13" d="M-131.8-58.4c1.5-12.7,7.4-47.4,35.9-73c41.6-37.3,110.1-35.9,153.1-1.9c32.7,25.8,41.1,62.8,43.4,75.6"/>
	<line class="st13" x1="-126.2" y1="-30.8" x2="-75.7" y2="-60.7"/>
	<line class="st13" x1="-116.8" y1="-7" x2="-27.6" y2="-59.7"/>
	<line class="st13" x1="-103.8" y1="15" x2="20.9" y2="-58.7"/>
	<line class="st13" x1="-80.1" y1="32.8" x2="74.8" y2="-58.8"/>
	<line class="st13" x1="-45.5" y1="45.1" x2="99.7" y2="-40.8"/>
	<line class="st13" x1="-4" y1="46.7" x2="88.5" y2="-8"/>
	<line class="st13" x1="57" y1="-58.7" x2="96" y2="-27.5"/>
	<line class="st13" x1="16" y1="-58.6" x2="85.9" y2="-3.1"/>
	<line class="st13" x1="-24.7" y1="-58.6" x2="71.1" y2="17.5"/>
	<line class="st13" x1="-70.5" y1="-60.1" x2="48.9" y2="34.8"/>
	<line class="st13" x1="-115.3" y1="-60.7" x2="18.7" y2="45.7"/>
	<line class="st13" x1="-128.5" y1="-38.5" x2="-21.3" y2="46.7"/>
	<line class="st13" x1="-115.9" y1="-3.1" x2="-59.6" y2="41.6"/>
	<g class="st4">
		<path class="st5" d="M-86.5-91.2c-3.7-0.3-4-4.5-8.5-5.2c-4.9-0.8-9.2,3-10.9,6.9c-1.3,3.1-1.4,6.6-0.7,10c0.6,3.2,2,6.2,3.1,9.3
			c0.9,2.3,2.1,4.6,4.7,5.7c2.8,1.2,5.9,0.2,8.9,0c3.3-0.2,6,1.7,9.3,0.7c5.6-1.6,7.8-6.1,9.6-10.8c2.5-6.4,4.7-13.4-0.7-19.2
			c-1.1-1.2-2.5-2.1-4.2-2.3C-80.5-96.7-82.1-90.9-86.5-91.2z"/>
		<path class="st5" d="M-86.7-104.7c0.7,1.1,1.7,3.1,1.8,5.8c0.2,3.3-1,5.9-1.6,7"/>
	</g>
	<g class="st4">
		<path class="st5" d="M-40.3-91.2c-3.7-0.3-4-4.5-8.5-5.2c-4.9-0.8-9.2,3-10.9,6.9c-1.3,3.1-1.4,6.6-0.7,10c0.6,3.2,2,6.2,3.1,9.3
			c0.9,2.3,2.1,4.6,4.7,5.7c2.8,1.2,5.9,0.2,8.9,0c3.3-0.2,6,1.7,9.3,0.7c5.6-1.6,7.8-6.1,9.6-10.8c2.5-6.4,4.7-13.4-0.7-19.2
			c-1.1-1.2-2.5-2.1-4.2-2.3C-34.2-96.7-35.8-90.9-40.3-91.2z"/>
		<path class="st5" d="M-40.4-104.7c0.7,1.1,1.7,3.1,1.8,5.8c0.2,3.3-1,5.9-1.6,7"/>
	</g>
</g>
<g id="Layer_7_copy_3" class="st0">
	<path class="st12" d="M100.7-58.6c0,10.7-1.6,32.6-14.7,55.5c-3.9,6.8-12.9,22-30.6,34c-23.6,15.9-47.8,15.9-68,15.9
		c-20.5,0-53.2-0.1-80.4-22.7C-106.3,13-113.4,0.6-116.8-5.3c-12.6-22.5-14.6-44-14.7-55.3L100.7-58.6z"/>
	<path class="st13" d="M-131.8-58.4c1.5-12.7,7.4-47.4,35.9-73c41.6-37.3,110.1-35.9,153.1-1.9c32.7,25.8,41.1,62.8,43.4,75.6"/>
	<line class="st13" x1="-126.2" y1="-30.8" x2="-75.7" y2="-60.7"/>
	<line class="st13" x1="-116.8" y1="-7" x2="-27.6" y2="-59.7"/>
	<line class="st13" x1="-103.8" y1="15" x2="20.9" y2="-58.7"/>
	<line class="st13" x1="-80.1" y1="32.8" x2="74.8" y2="-58.8"/>
	<line class="st13" x1="-45.5" y1="45.1" x2="99.7" y2="-40.8"/>
	<line class="st13" x1="-4" y1="46.7" x2="88.5" y2="-8"/>
	<line class="st13" x1="57" y1="-58.7" x2="96" y2="-27.5"/>
	<line class="st13" x1="16" y1="-58.6" x2="85.9" y2="-3.1"/>
	<line class="st13" x1="-24.7" y1="-58.6" x2="71.1" y2="17.5"/>
	<line class="st13" x1="-70.5" y1="-60.1" x2="48.9" y2="34.8"/>
	<line class="st13" x1="-115.3" y1="-60.7" x2="18.7" y2="45.7"/>
	<line class="st13" x1="-128.5" y1="-38.5" x2="-21.3" y2="46.7"/>
	<line class="st13" x1="-115.9" y1="-3.1" x2="-59.6" y2="41.6"/>
	<g class="st4">
		<path class="st5" d="M-86.5-91.2c-3.7-0.3-4-4.5-8.5-5.2c-4.9-0.8-9.2,3-10.9,6.9c-1.3,3.1-1.4,6.6-0.7,10c0.6,3.2,2,6.2,3.1,9.3
			c0.9,2.3,2.1,4.6,4.7,5.7c2.8,1.2,5.9,0.2,8.9,0c3.3-0.2,6,1.7,9.3,0.7c5.6-1.6,7.8-6.1,9.6-10.8c2.5-6.4,4.7-13.4-0.7-19.2
			c-1.1-1.2-2.5-2.1-4.2-2.3C-80.5-96.7-82.1-90.9-86.5-91.2z"/>
		<path class="st5" d="M-86.7-104.7c0.7,1.1,1.7,3.1,1.8,5.8c0.2,3.3-1,5.9-1.6,7"/>
	</g>
	<g class="st4">
		<path class="st5" d="M-40.3-91.2c-3.7-0.3-4-4.5-8.5-5.2c-4.9-0.8-9.2,3-10.9,6.9c-1.3,3.1-1.4,6.6-0.7,10c0.6,3.2,2,6.2,3.1,9.3
			c0.9,2.3,2.1,4.6,4.7,5.7c2.8,1.2,5.9,0.2,8.9,0c3.3-0.2,6,1.7,9.3,0.7c5.6-1.6,7.8-6.1,9.6-10.8c2.5-6.4,4.7-13.4-0.7-19.2
			c-1.1-1.2-2.5-2.1-4.2-2.3C-34.2-96.7-35.8-90.9-40.3-91.2z"/>
		<path class="st5" d="M-40.4-104.7c0.7,1.1,1.7,3.1,1.8,5.8c0.2,3.3-1,5.9-1.6,7"/>
	</g>
	<g class="st4">
		<path class="st5" d="M4.9-91.2c-3.7-0.3-4-4.5-8.5-5.2c-4.9-0.8-9.2,3-10.9,6.9c-1.3,3.1-1.4,6.6-0.7,10c0.6,3.2,2,6.2,3.1,9.3
			c0.9,2.3,2.1,4.6,4.7,5.7c2.8,1.2,5.9,0.2,8.9,0c3.3-0.2,6,1.7,9.3,0.7c5.6-1.6,7.8-6.1,9.6-10.8c2.5-6.4,4.7-13.4-0.7-19.2
			c-1.1-1.2-2.5-2.1-4.2-2.3C11-96.7,9.4-90.9,4.9-91.2z"/>
		<path class="st5" d="M4.8-104.7c0.7,1.1,1.7,3.1,1.8,5.8c0.2,3.3-1,5.9-1.6,7"/>
	</g>
</g>
<g id="Layer_7_copy_4" class="st0">
	<path class="st12" d="M100.7-58.6c0,10.7-1.6,32.6-14.7,55.5c-3.9,6.8-12.9,22-30.6,34c-23.6,15.9-47.8,15.9-68,15.9
		c-20.5,0-53.2-0.1-80.4-22.7C-106.3,13-113.4,0.6-116.8-5.3c-12.6-22.5-14.6-44-14.7-55.3L100.7-58.6z"/>
	<path class="st13" d="M-131.8-58.4c1.5-12.7,7.4-47.4,35.9-73c41.6-37.3,110.1-35.9,153.1-1.9c32.7,25.8,41.1,62.8,43.4,75.6"/>
	<line class="st13" x1="-126.2" y1="-30.8" x2="-75.7" y2="-60.7"/>
	<line class="st13" x1="-116.8" y1="-7" x2="-27.6" y2="-59.7"/>
	<line class="st13" x1="-103.8" y1="15" x2="20.9" y2="-58.7"/>
	<line class="st13" x1="-80.1" y1="32.8" x2="74.8" y2="-58.8"/>
	<line class="st13" x1="-45.5" y1="45.1" x2="99.7" y2="-40.8"/>
	<line class="st13" x1="-4" y1="46.7" x2="88.5" y2="-8"/>
	<line class="st13" x1="57" y1="-58.7" x2="96" y2="-27.5"/>
	<line class="st13" x1="16" y1="-58.6" x2="85.9" y2="-3.1"/>
	<line class="st13" x1="-24.7" y1="-58.6" x2="71.1" y2="17.5"/>
	<line class="st13" x1="-70.5" y1="-60.1" x2="48.9" y2="34.8"/>
	<line class="st13" x1="-115.3" y1="-60.7" x2="18.7" y2="45.7"/>
	<line class="st13" x1="-128.5" y1="-38.5" x2="-21.3" y2="46.7"/>
	<line class="st13" x1="-115.9" y1="-3.1" x2="-59.6" y2="41.6"/>
	<g class="st4">
		<path class="st5" d="M-85.5-91.2c-3.7-0.3-4-4.5-8.5-5.2c-4.9-0.8-9.2,3-10.9,6.9c-1.3,3.1-1.4,6.6-0.7,10c0.6,3.2,2,6.2,3.1,9.3
			c0.9,2.3,2.1,4.6,4.7,5.7c2.8,1.2,5.9,0.2,8.9,0c3.3-0.2,6,1.7,9.3,0.7c5.6-1.6,7.8-6.1,9.6-10.8c2.5-6.4,4.7-13.4-0.7-19.2
			c-1.1-1.2-2.5-2.1-4.2-2.3C-79.4-96.7-81-90.9-85.5-91.2z"/>
		<path class="st5" d="M-85.6-104.7c0.7,1.1,1.7,3.1,1.8,5.8c0.2,3.3-1,5.9-1.6,7"/>
	</g>
	<g class="st4">
		<path class="st5" d="M-40.4-90.5c-3.7-0.3-4-4.5-8.5-5.2c-4.9-0.8-9.2,3-10.9,6.9c-1.3,3.1-1.4,6.6-0.7,10c0.6,3.2,2,6.2,3.1,9.3
			c0.9,2.3,2.1,4.6,4.7,5.7c2.8,1.2,5.9,0.2,8.9,0c3.3-0.2,6,1.7,9.3,0.7c5.6-1.6,7.8-6.1,9.6-10.8c2.5-6.4,4.7-13.4-0.7-19.2
			c-1.1-1.2-2.5-2.1-4.2-2.3C-34.3-96-35.9-90.2-40.4-90.5z"/>
		<path class="st5" d="M-40.5-104.1c0.7,1.1,1.7,3.1,1.8,5.8c0.2,3.3-1,5.9-1.6,7"/>
	</g>
	<g class="st4">
		<path class="st5" d="M4.8-90.5c-3.7-0.3-4-4.5-8.5-5.2c-4.9-0.8-9.2,3-10.9,6.9c-1.3,3.1-1.4,6.6-0.7,10c0.6,3.2,2,6.2,3.1,9.3
			c0.9,2.3,2.1,4.6,4.7,5.7c2.8,1.2,5.9,0.2,8.9,0c3.3-0.2,6,1.7,9.3,0.7c5.6-1.6,7.8-6.1,9.6-10.8c2.5-6.4,4.7-13.4-0.7-19.2
			c-1.1-1.2-2.5-2.1-4.2-2.3C10.8-96,9.3-90.2,4.8-90.5z"/>
		<path class="st5" d="M4.7-104.1c0.7,1.1,1.7,3.1,1.8,5.8c0.2,3.3-1,5.9-1.6,7"/>
	</g>
	<g class="st4">
		<path class="st5" d="M47.6-90.2c-3.7-0.3-4-4.5-8.5-5.2c-4.9-0.8-9.2,3-10.9,6.9c-1.3,3.1-1.4,6.6-0.7,10c0.6,3.2,2,6.2,3.1,9.3
			c0.9,2.3,2.1,4.6,4.7,5.7c2.8,1.2,5.9,0.2,8.9,0c3.3-0.2,6,1.7,9.3,0.7c5.6-1.6,7.8-6.1,9.6-10.8c2.5-6.4,4.7-13.4-0.7-19.2
			c-1.1-1.2-2.5-2.1-4.2-2.3C53.6-95.7,52.1-89.9,47.6-90.2z"/>
		<path class="st5" d="M47.4-103.7c0.7,1.1,1.7,3.1,1.8,5.8c0.2,3.3-1,5.9-1.6,7"/>
	</g>
</g>
</svg>
