<?xml version="1.0" encoding="utf-8"?>
<!-- Generator: Adobe Illustrator 21.1.0, SVG Export Plug-In . SVG Version: 6.00 Build 0)  -->
<svg version="1.1" xmlns="http://www.w3.org/2000/svg" xmlns:xlink="http://www.w3.org/1999/xlink" x="0px" y="0px"
	 viewBox="0 0 268.9 246.3" style="enable-background:new 0 0 268.9 246.3;" xml:space="preserve">
<style type="text/css">
	.st0{display:none;}
	.st1{display:inline;fill:#FFFFFF;stroke:#000000;stroke-miterlimit:10;}
	.st2{display:inline;fill:#8C6E53;stroke:#603913;stroke-width:2;stroke-linejoin:round;stroke-miterlimit:10;}
	.st3{display:inline;fill:#76C378;stroke:#009444;stroke-width:2;stroke-linejoin:round;stroke-miterlimit:10;}
	.st4{display:inline;}
	.st5{fill:#E7503F;stroke:#931A1D;stroke-width:2;stroke-linejoin:round;stroke-miterlimit:10;}
	.st6{fill:#8C6E53;stroke:#603913;stroke-width:2;stroke-linejoin:round;stroke-miterlimit:10;}
	.st7{fill:#76C378;stroke:#009444;stroke-width:2;stroke-linejoin:round;stroke-miterlimit:10;}
	.st8{fill:#605D5C;stroke:#3A3636;stroke-width:2;stroke-linejoin:round;stroke-miterlimit:10;}
	.st9{fill:#E8E352;stroke:#B5BA4E;stroke-width:6;stroke-linejoin:round;stroke-miterlimit:10;}
	.st10{display:inline;fill:#90CB7F;stroke:#61995C;stroke-width:6;stroke-linejoin:round;stroke-miterlimit:10;}
	.st11{display:inline;fill:none;stroke:#B5BA4E;stroke-width:6;stroke-linejoin:round;stroke-miterlimit:10;}
	.st12{fill:#C08C49;stroke:#A56928;stroke-width:4;stroke-linejoin:round;stroke-miterlimit:10;}
	.st13{fill:none;stroke:#A56928;stroke-width:4;stroke-linejoin:round;stroke-miterlimit:10;}
	.st14{display:inline;fill:#F1EB67;stroke:#E8E491;stroke-miterlimit:10;}
	.st15{display:inline;fill:#846628;}
	.st16{fill:#662C90;}
	.st17{fill:#2D6733;}
	.st18{fill:#846628;}
	.st19{fill:#E12C26;}
	.st20{display:inline;fill:#F9A51B;}
	.st21{display:inline;fill:#C08C49;stroke:#A56928;stroke-width:4;stroke-linejoin:round;stroke-miterlimit:10;}
	.st22{display:inline;fill:none;stroke:#A56928;stroke-width:4;stroke-linejoin:round;stroke-miterlimit:10;}
</style>
<g id="Layer_1_copy" class="st0">
	<path class="st1" d="M288.3,288"/>
</g>
<g id="Layer_3">
	<g class="st0">
		<path class="st2" d="M164.4,146.9c1.9,4.9-3.3,6.7-9.3,23.7c-4,11.2-5.2,25.9-7.4,55.1c-0.8,10.8-1.6,21.2-2,35.5
			c0,1.8-0.8,18.3,0.2,36.9c1.6,30,3.6,63.5,12.6,107.8c6.5,31.6,14.5,58.5,21.9,80l9,19.7c-3-2.9-7.4-7-12.7-12
			c-16.5-15.3-20.7-19.2-21.6-18.4c-1.3,1.1,5.6,9.4,10.7,24.7c3.1,9.4,5.6,21.7,3.4,22.6c-2.2,0.9-7.2-10.6-19.9-26
			c-9.7-11.8-22.9-24.7-26-22.6c-2.8,1.9,6.1,13.6,4.7,32.2c-0.6,8.6-3.2,18.4-6.2,18.5c-3.4,0.1-3.3-13.2-12.5-28.4
			c-6.1-10-18.3-24.3-26.6-21.6c-6.5,2.1-8,13.9-8.4,16.5c-2.4,18.3,9.7,31.4,7.6,32.8c-2.4,1.6-18.8-10.7-24.6-29.7
			c-2.6-8.4-2.4-15.8-5.1-16.1c-2.8-0.4-4.3,7.6-11.9,17c-6.6,8.2-15.9,15.1-17.8,13.6c-2.3-1.8,5.5-14.7,9.7-22.6
			c10.5-19.8,13.1-40.1,20.8-80.3c2.3-12.2,4.1-23.6,5.5-34.3c1.9-14.7,5.4-41.3,5.6-73.6C64.3,244.9,56,182.6,53,170.4
			c-3-12.2-8.2-22.3-9.7-23.5c0,0,0,0,0,0C43.2,145,155.7,124.7,164.4,146.9z"/>
		<path class="st3" d="M262.6,98.2c-0.7-5.8-2.3-19-12.2-30.6C240.7,56.1,227.8,52,218.8,49c-12.1-3.9-21.7-4.2-21.7-5.9
			c0-1.7,8.7-1.3,17.3-4.4c14.3-5.1,25.5-18.4,30.2-31.7c9.5-26.9-8.4-51.2-11.8-55.8c-15.9-21.6-39.3-26.6-48.3-27.9
			c-1.2-0.2-2.1-0.3-2.9-0.4c-6.8-0.7-37.4-4.1-47.8,10.5c-5.5,7.7-3.6,16.4-6.5,16.7c-3.1,0.3-4.8-10.5-9.6-18.5
			C104.2-91.1,61.4-97,31.1-84.6c-6.9,2.8-20.6,8.7-28.6,22.9c-2.3,4.2-8.7,15.6-5.3,27.1c1.9,6.3,5.5,8.4,4.3,10.7
			c-2.6,5.1-20.8-5.5-42.6,0c-4.9,1.2-13.9,3.6-21.9,10.9C-75.7-1.1-82.1,20.2-74.8,37.8c7.8,18.8,28.3,25.8,33.6,27.6
			c9.4,3.2,18.7,3.7,18.7,5.2c-0.1,1.8-12.8-0.8-23.9,6c-11.4,6.9-17,21.3-17.2,33.6c0,3.2,0.1,15.7,9,26.9
			c10.9,13.8,29.9,17.9,44,16.4c16.2-1.7,22.2-10.6,41.4-9.3c8.8,0.6,12.4,2.8,14.5,4.5c4.8,4,112.7,5.4,121,0.1
			c11.5-7.3,24.1,8,47.7,6.5c17.3-1.1,36.9-11,45.1-27.9C264.6,115.8,263.3,104.2,262.6,98.2z"/>
		<g class="st4">
			<path class="st5" d="M5.3,112.8c-1.9-0.1-2.1-2.6-4.5-3c-2.6-0.4-4.9,1.7-5.8,4c-0.7,1.8-0.7,3.8-0.4,5.7c0.3,1.9,1,3.6,1.7,5.3
				c0.5,1.3,1.1,2.6,2.5,3.3c1.5,0.7,3.1,0.1,4.7,0c1.7-0.1,3.2,1,4.9,0.4c2.9-0.9,4.1-3.5,5.1-6.2c1.3-3.7,2.5-7.7-0.3-11
				c-0.6-0.7-1.3-1.2-2.2-1.3C8.5,109.6,7.7,112.9,5.3,112.8z"/>
			<path class="st5" d="M5.3,105c0.3,0.6,0.9,1.8,1,3.3c0.1,1.9-0.5,3.4-0.8,4"/>
		</g>
		<g class="st4">
			<path class="st5" d="M-3.9,13c-1.9-0.1-2.1-2.6-4.5-3c-2.6-0.4-4.9,1.7-5.8,4c-0.7,1.8-0.7,3.8-0.4,5.7c0.3,1.9,1,3.6,1.7,5.3
				c0.5,1.3,1.1,2.6,2.5,3.3c1.5,0.7,3.1,0.1,4.7,0c1.7-0.1,3.2,1,4.9,0.4c2.9-0.9,4.1-3.5,5.1-6.2c1.3-3.7,2.5-7.7-0.3-11
				c-0.6-0.7-1.3-1.2-2.2-1.3C-0.8,9.9-1.6,13.2-3.9,13z"/>
			<path class="st5" d="M-4,5.2C-3.7,5.9-3.1,7-3,8.6c0.1,1.9-0.5,3.4-0.8,4"/>
		</g>
		<g class="st4">
			<path class="st5" d="M66.2,55.8c-1.9-0.1-2.1-2.6-4.5-3c-2.6-0.4-4.9,1.7-5.8,4c-0.7,1.8-0.7,3.8-0.4,5.7c0.3,1.9,1,3.6,1.7,5.3
				c0.5,1.3,1.1,2.6,2.5,3.3c1.5,0.7,3.1,0.1,4.7,0c1.7-0.1,3.2,1,4.9,0.4c2.9-0.9,4.1-3.5,5.1-6.2c1.3-3.7,2.5-7.7-0.3-11
				c-0.6-0.7-1.3-1.2-2.2-1.3C69.3,52.7,68.5,56,66.2,55.8z"/>
			<path class="st5" d="M66.1,48c0.3,0.6,0.9,1.8,1,3.3c0.1,1.9-0.5,3.4-0.8,4"/>
		</g>
		<g class="st4">
			<path class="st5" d="M127.3,114.1c-1.9-0.1-2.1-2.6-4.5-3c-2.6-0.4-4.9,1.7-5.8,4c-0.7,1.8-0.7,3.8-0.4,5.7
				c0.3,1.9,1,3.6,1.7,5.3c0.5,1.3,1.1,2.6,2.5,3.3c1.5,0.7,3.1,0.1,4.7,0c1.7-0.1,3.2,1,4.9,0.4c2.9-0.9,4.1-3.5,5.1-6.2
				c1.3-3.7,2.5-7.7-0.3-11c-0.6-0.7-1.3-1.2-2.2-1.3C130.5,110.9,129.7,114.3,127.3,114.1z"/>
			<path class="st5" d="M127.2,106.3c0.3,0.6,0.9,1.8,1,3.3c0.1,1.9-0.5,3.4-0.8,4"/>
		</g>
		<g class="st4">
			<path class="st5" d="M188.9-29.3c-1.9-0.1-2.1-2.6-4.5-3c-2.6-0.4-4.9,1.7-5.8,4c-0.7,1.8-0.7,3.8-0.4,5.7c0.3,1.9,1,3.6,1.7,5.3
				c0.5,1.3,1.1,2.6,2.5,3.3c1.5,0.7,3.1,0.1,4.7,0c1.7-0.1,3.2,1,4.9,0.4c2.9-0.9,4.1-3.5,5.1-6.2c1.3-3.7,2.5-7.7-0.3-11
				c-0.6-0.7-1.3-1.2-2.2-1.3C192.1-32.5,191.2-29.1,188.9-29.3z"/>
			<path class="st5" d="M188.8-37.1c0.3,0.6,0.9,1.8,1,3.3c0.1,1.9-0.5,3.4-0.8,4"/>
		</g>
		<g class="st4">
			<path class="st5" d="M217.5,95.8c-1.9-0.1-2.1-2.6-4.5-3c-2.6-0.4-4.9,1.7-5.8,4c-0.7,1.8-0.7,3.8-0.4,5.7c0.3,1.9,1,3.6,1.7,5.3
				c0.5,1.3,1.1,2.6,2.5,3.3c1.5,0.7,3.1,0.1,4.7,0c1.7-0.1,3.2,1,4.9,0.4c2.9-0.9,4.1-3.5,5.1-6.2c1.3-3.7,2.5-7.7-0.3-11
				c-0.6-0.7-1.3-1.2-2.2-1.3C220.7,92.7,219.9,96,217.5,95.8z"/>
			<path class="st5" d="M217.4,88.1c0.3,0.6,0.9,1.8,1,3.3c0.1,1.9-0.5,3.4-0.8,4"/>
		</g>
		<g class="st4">
			<path class="st5" d="M145.6,34.8c-1.9-0.1-2.1-2.6-4.5-3c-2.6-0.4-4.9,1.7-5.8,4c-0.7,1.8-0.7,3.8-0.4,5.7c0.3,1.9,1,3.6,1.7,5.3
				c0.5,1.3,1.1,2.6,2.5,3.3c1.5,0.7,3.1,0.1,4.7,0c1.7-0.1,3.2,1,4.9,0.4c2.9-0.9,4.1-3.5,5.1-6.2c1.3-3.7,2.5-7.7-0.3-11
				c-0.6-0.7-1.3-1.2-2.2-1.3C148.8,31.7,147.9,35,145.6,34.8z"/>
			<path class="st5" d="M145.5,27c0.3,0.6,0.9,1.8,1,3.3c0.1,1.9-0.5,3.4-0.8,4"/>
		</g>
		<g class="st4">
			<path class="st5" d="M56-36.1c-1.9-0.1-2.1-2.6-4.5-3c-2.6-0.4-4.9,1.7-5.8,4c-0.7,1.8-0.7,3.8-0.4,5.7c0.3,1.9,1,3.6,1.7,5.3
				c0.5,1.3,1.1,2.6,2.5,3.3c1.5,0.7,3.1,0.1,4.7,0c1.7-0.1,3.2,1,4.9,0.4c2.9-0.9,4.1-3.5,5.1-6.2c1.3-3.7,2.5-7.7-0.3-11
				c-0.6-0.7-1.3-1.2-2.2-1.3C59.1-39.2,58.3-35.9,56-36.1z"/>
			<path class="st5" d="M55.9-43.9c0.3,0.6,0.9,1.8,1,3.3c0.1,1.9-0.5,3.4-0.8,4"/>
		</g>
	</g>
</g>
<g id="Layer_3_copy" class="st0">
	<g class="st4">
		<path class="st6" d="M164.4,146.9c1.9,4.9-3.3,6.7-9.3,23.7c-4,11.2-5.2,25.9-7.4,55.1c-0.8,10.8-1.6,21.2-2,35.5
			c0,1.8-0.8,18.3,0.2,36.9c1.6,30,3.6,63.5,12.6,107.8c6.5,31.6,14.5,58.5,21.9,80l9,19.7c-3-2.9-7.4-7-12.7-12
			c-16.5-15.3-20.7-19.2-21.6-18.4c-1.3,1.1,5.6,9.4,10.7,24.7c3.1,9.4,5.6,21.7,3.4,22.6c-2.2,0.9-7.2-10.6-19.9-26
			c-9.7-11.8-22.9-24.7-26-22.6c-2.8,1.9,6.1,13.6,4.7,32.2c-0.6,8.6-3.2,18.4-6.2,18.5c-3.4,0.1-3.3-13.2-12.5-28.4
			c-6.1-10-18.3-24.3-26.6-21.6c-6.5,2.1-8,13.9-8.4,16.5c-2.4,18.3,9.7,31.4,7.6,32.8c-2.4,1.6-18.8-10.7-24.6-29.7
			c-2.6-8.4-2.4-15.8-5.1-16.1c-2.8-0.4-4.3,7.6-11.9,17c-6.6,8.2-15.9,15.1-17.8,13.6c-2.3-1.8,5.5-14.7,9.7-22.6
			c10.5-19.8,13.1-40.1,20.8-80.3c2.3-12.2,4.1-23.6,5.5-34.3c1.9-14.7,5.4-41.3,5.6-73.6C64.3,244.9,56,182.6,53,170.4
			c-3-12.2-8.2-22.3-9.7-23.5c0,0,0,0,0,0C43.2,145,155.7,124.7,164.4,146.9z"/>
		<path class="st7" d="M262.6,98.2c-0.7-5.8-2.3-19-12.2-30.6C240.7,56.1,227.8,52,218.8,49c-12.1-3.9-21.7-4.2-21.7-5.9
			c0-1.7,8.7-1.3,17.3-4.4c14.3-5.1,25.5-18.4,30.2-31.7c9.5-26.9-8.4-51.2-11.8-55.8c-15.9-21.6-39.3-26.6-48.3-27.9
			c-1.2-0.2-2.1-0.3-2.9-0.4c-6.8-0.7-37.4-4.1-47.8,10.5c-5.5,7.7-3.6,16.4-6.5,16.7c-3.1,0.3-4.8-10.5-9.6-18.5
			C104.2-91.1,61.4-97,31.1-84.6c-6.9,2.8-20.6,8.7-28.6,22.9c-2.3,4.2-8.7,15.6-5.3,27.1c1.9,6.3,5.5,8.4,4.3,10.7
			c-2.6,5.1-20.8-5.5-42.6,0c-4.9,1.2-13.9,3.6-21.9,10.9C-75.7-1.1-82.1,20.2-74.8,37.8c7.8,18.8,28.3,25.8,33.6,27.6
			c9.4,3.2,18.7,3.7,18.7,5.2c-0.1,1.8-12.8-0.8-23.9,6c-11.4,6.9-17,21.3-17.2,33.6c0,3.2,0.1,15.7,9,26.9
			c10.9,13.8,29.9,17.9,44,16.4c16.2-1.7,22.2-10.6,41.4-9.3c8.8,0.6,12.4,2.8,14.5,4.5c4.8,4,112.7,5.4,121,0.1
			c11.5-7.3,24.1,8,47.7,6.5c17.3-1.1,36.9-11,45.1-27.9C264.6,115.8,263.3,104.2,262.6,98.2z"/>
		<g>
			<path class="st8" d="M7.4,117.1c-1.9-0.1-2.1-2.6-4.5-3c-2.6-0.4-4.9,1.7-5.8,4c-0.7,1.8-0.7,3.8-0.4,5.7c0.3,1.9,1,3.6,1.7,5.3
				c0.5,1.3,1.1,2.6,2.5,3.3c1.5,0.7,3.1,0.1,4.7,0c1.7-0.1,3.2,1,4.9,0.4c2.9-0.9,4.1-3.5,5.1-6.2c1.3-3.7,2.5-7.7-0.3-11
				c-0.6-0.7-1.3-1.2-2.2-1.3C10.6,114,9.7,117.3,7.4,117.1z"/>
			<path class="st8" d="M7.3,109.3c0.3,0.6,0.9,1.8,1,3.3c0.1,1.9-0.5,3.4-0.8,4"/>
		</g>
		<g>
			<path class="st5" d="M-3.9,13c-1.9-0.1-2.1-2.6-4.5-3c-2.6-0.4-4.9,1.7-5.8,4c-0.7,1.8-0.7,3.8-0.4,5.7c0.3,1.9,1,3.6,1.7,5.3
				c0.5,1.3,1.1,2.6,2.5,3.3c1.5,0.7,3.1,0.1,4.7,0c1.7-0.1,3.2,1,4.9,0.4c2.9-0.9,4.1-3.5,5.1-6.2c1.3-3.7,2.5-7.7-0.3-11
				c-0.6-0.7-1.3-1.2-2.2-1.3C-0.8,9.9-1.6,13.2-3.9,13z"/>
			<path class="st5" d="M-4,5.2C-3.7,5.9-3.1,7-3,8.6c0.1,1.9-0.5,3.4-0.8,4"/>
		</g>
		<g>
			<path class="st5" d="M66.2,55.8c-1.9-0.1-2.1-2.6-4.5-3c-2.6-0.4-4.9,1.7-5.8,4c-0.7,1.8-0.7,3.8-0.4,5.7c0.3,1.9,1,3.6,1.7,5.3
				c0.5,1.3,1.1,2.6,2.5,3.3c1.5,0.7,3.1,0.1,4.7,0c1.7-0.1,3.2,1,4.9,0.4c2.9-0.9,4.1-3.5,5.1-6.2c1.3-3.7,2.5-7.7-0.3-11
				c-0.6-0.7-1.3-1.2-2.2-1.3C69.3,52.7,68.5,56,66.2,55.8z"/>
			<path class="st5" d="M66.1,48c0.3,0.6,0.9,1.8,1,3.3c0.1,1.9-0.5,3.4-0.8,4"/>
		</g>
		<g>
			<path class="st5" d="M127.3,114.1c-1.9-0.1-2.1-2.6-4.5-3c-2.6-0.4-4.9,1.7-5.8,4c-0.7,1.8-0.7,3.8-0.4,5.7
				c0.3,1.9,1,3.6,1.7,5.3c0.5,1.3,1.1,2.6,2.5,3.3c1.5,0.7,3.1,0.1,4.7,0c1.7-0.1,3.2,1,4.9,0.4c2.9-0.9,4.1-3.5,5.1-6.2
				c1.3-3.7,2.5-7.7-0.3-11c-0.6-0.7-1.3-1.2-2.2-1.3C130.5,110.9,129.7,114.3,127.3,114.1z"/>
			<path class="st5" d="M127.2,106.3c0.3,0.6,0.9,1.8,1,3.3c0.1,1.9-0.5,3.4-0.8,4"/>
		</g>
		<g>
			<path class="st5" d="M188.9-29.3c-1.9-0.1-2.1-2.6-4.5-3c-2.6-0.4-4.9,1.7-5.8,4c-0.7,1.8-0.7,3.8-0.4,5.7c0.3,1.9,1,3.6,1.7,5.3
				c0.5,1.3,1.1,2.6,2.5,3.3c1.5,0.7,3.1,0.1,4.7,0c1.7-0.1,3.2,1,4.9,0.4c2.9-0.9,4.1-3.5,5.1-6.2c1.3-3.7,2.5-7.7-0.3-11
				c-0.6-0.7-1.3-1.2-2.2-1.3C192.1-32.5,191.2-29.1,188.9-29.3z"/>
			<path class="st5" d="M188.8-37.1c0.3,0.6,0.9,1.8,1,3.3c0.1,1.9-0.5,3.4-0.8,4"/>
		</g>
		<g>
			<path class="st5" d="M217.5,95.8c-1.9-0.1-2.1-2.6-4.5-3c-2.6-0.4-4.9,1.7-5.8,4c-0.7,1.8-0.7,3.8-0.4,5.7c0.3,1.9,1,3.6,1.7,5.3
				c0.5,1.3,1.1,2.6,2.5,3.3c1.5,0.7,3.1,0.1,4.7,0c1.7-0.1,3.2,1,4.9,0.4c2.9-0.9,4.1-3.5,5.1-6.2c1.3-3.7,2.5-7.7-0.3-11
				c-0.6-0.7-1.3-1.2-2.2-1.3C220.7,92.7,219.9,96,217.5,95.8z"/>
			<path class="st5" d="M217.4,88.1c0.3,0.6,0.9,1.8,1,3.3c0.1,1.9-0.5,3.4-0.8,4"/>
		</g>
		<g>
			<path class="st5" d="M145.6,34.8c-1.9-0.1-2.1-2.6-4.5-3c-2.6-0.4-4.9,1.7-5.8,4c-0.7,1.8-0.7,3.8-0.4,5.7c0.3,1.9,1,3.6,1.7,5.3
				c0.5,1.3,1.1,2.6,2.5,3.3c1.5,0.7,3.1,0.1,4.7,0c1.7-0.1,3.2,1,4.9,0.4c2.9-0.9,4.1-3.5,5.1-6.2c1.3-3.7,2.5-7.7-0.3-11
				c-0.6-0.7-1.3-1.2-2.2-1.3C148.8,31.7,147.9,35,145.6,34.8z"/>
			<path class="st5" d="M145.5,27c0.3,0.6,0.9,1.8,1,3.3c0.1,1.9-0.5,3.4-0.8,4"/>
		</g>
		<g>
			<path class="st5" d="M56-36.1c-1.9-0.1-2.1-2.6-4.5-3c-2.6-0.4-4.9,1.7-5.8,4c-0.7,1.8-0.7,3.8-0.4,5.7c0.3,1.9,1,3.6,1.7,5.3
				c0.5,1.3,1.1,2.6,2.5,3.3c1.5,0.7,3.1,0.1,4.7,0c1.7-0.1,3.2,1,4.9,0.4c2.9-0.9,4.1-3.5,5.1-6.2c1.3-3.7,2.5-7.7-0.3-11
				c-0.6-0.7-1.3-1.2-2.2-1.3C59.1-39.2,58.3-35.9,56-36.1z"/>
			<path class="st5" d="M55.9-43.9c0.3,0.6,0.9,1.8,1,3.3c0.1,1.9-0.5,3.4-0.8,4"/>
		</g>
		<g>
			<path class="st8" d="M145.6,34.8c-1.9-0.1-2.1-2.6-4.5-3c-2.6-0.4-4.9,1.7-5.8,4c-0.7,1.8-0.7,3.8-0.4,5.7c0.3,1.9,1,3.6,1.7,5.3
				c0.5,1.3,1.1,2.6,2.5,3.3c1.5,0.7,3.1,0.1,4.7,0c1.7-0.1,3.2,1,4.9,0.4c2.9-0.9,4.1-3.5,5.1-6.2c1.3-3.7,2.5-7.7-0.3-11
				c-0.6-0.7-1.3-1.2-2.2-1.3C148.8,31.7,147.9,35,145.6,34.8z"/>
			<path class="st8" d="M145.5,27c0.3,0.6,0.9,1.8,1,3.3c0.1,1.9-0.5,3.4-0.8,4"/>
		</g>
		<g>
			<path class="st8" d="M66.2,55.8c-1.9-0.1-2.1-2.6-4.5-3c-2.6-0.4-4.9,1.7-5.8,4c-0.7,1.8-0.7,3.8-0.4,5.7c0.3,1.9,1,3.6,1.7,5.3
				c0.5,1.3,1.1,2.6,2.5,3.3c1.5,0.7,3.1,0.1,4.7,0c1.7-0.1,3.2,1,4.9,0.4c2.9-0.9,4.1-3.5,5.1-6.2c1.3-3.7,2.5-7.7-0.3-11
				c-0.6-0.7-1.3-1.2-2.2-1.3C69.3,52.7,68.5,56,66.2,55.8z"/>
			<path class="st8" d="M66.1,48c0.3,0.6,0.9,1.8,1,3.3c0.1,1.9-0.5,3.4-0.8,4"/>
		</g>
		<g>
			<path class="st8" d="M127.3,114.1c-1.9-0.1-2.1-2.6-4.5-3c-2.6-0.4-4.9,1.7-5.8,4c-0.7,1.8-0.7,3.8-0.4,5.7
				c0.3,1.9,1,3.6,1.7,5.3c0.5,1.3,1.1,2.6,2.5,3.3c1.5,0.7,3.1,0.1,4.7,0c1.7-0.1,3.2,1,4.9,0.4c2.9-0.9,4.1-3.5,5.1-6.2
				c1.3-3.7,2.5-7.7-0.3-11c-0.6-0.7-1.3-1.2-2.2-1.3C130.5,110.9,129.7,114.3,127.3,114.1z"/>
			<path class="st8" d="M127.2,106.3c0.3,0.6,0.9,1.8,1,3.3c0.1,1.9-0.5,3.4-0.8,4"/>
		</g>
	</g>
</g>
<g id="Layer_4" class="st0">
</g>
<g id="Layer_5" class="st0">
	<ellipse class="st9" cx="137.7" cy="240.2" rx="119.8" ry="146.8"/>
	<path class="st10" d="M59.8,8.4c-4.4-0.1-14-16.3-16-18.9c-9.5-12-17.8-24.9-29.4-36.2c3.4,3.2,51.7,18.3,53.3,18.1
		c10.4-1,17-20.2,21.8-25.2c-2.8,2.9,34.5,24.4,39.1,27.8c0.1,0.1,34.1-21.4,36.6-24.3c8.6,9.3,17.3,18.5,25.9,27.8
		c-1.6-2.4,41.7-20.7,46.7-23.2c-5.3,2.7-23.1,46.1-29.6,59C158.7,11.6,109.2,10,59.8,8.4z"/>
	<path class="st10" d="M80.5,47.7C77.1,47.7,70,31.6,68.5,29.1C61.3,17.2,55.1,4.4,46.3-6.7c2.5,3.2,39.6,17.5,40.8,17.3
		c8-1.1,13.4-20.5,17.1-25.5c-2.2,2.9,26.2,23.9,29.7,27.2c0.1,0.1,26.6-21.9,28.5-24.8C169-3.4,175.5,5.8,182,14.9
		c-1.2-2.4,32.4-21.3,36.3-23.9c-4.2,2.7-18.5,46.4-23.6,59.4C156.7,49.5,118.6,48.6,80.5,47.7z"/>
	<path class="st10" d="M93.5,79c-2.7,0-8.2-16-9.4-18.5c-5.6-11.7-10.4-24.5-17.3-35.5c2,3.2,31.5,17,32.5,16.8
		c6.4-1.2,11-20.6,14-25.7c-1.8,2.9,20.7,23.6,23.5,26.8c0,0.1,21.6-22.2,23.2-25.2c5.1,9,10.2,18.1,15.3,27.1
		c-1-2.4,26.2-21.7,29.4-24.3c-3.4,2.8-15.4,46.6-19.7,59.6C154.5,79.8,124,79.4,93.5,79z"/>
</g>
<g id="Layer_6" class="st0">
	<line class="st11" x1="17.9" y1="246.5" x2="157.7" y2="95.5"/>
	<line class="st11" x1="26.6" y1="290.6" x2="194" y2="109.7"/>
	<line class="st11" x1="42.9" y1="326.9" x2="220" y2="135.6"/>
	<line class="st11" x1="64.4" y1="357.8" x2="241.5" y2="166.4"/>
	<line class="st11" x1="95" y1="377" x2="254.2" y2="206"/>
	<line class="st11" x1="143.2" y1="387.5" x2="256.2" y2="262.1"/>
	<line class="st11" x1="245.3" y1="309.4" x2="60.7" y2="130.2"/>
	<line class="st11" x1="221.8" y1="344.7" x2="35.6" y2="165"/>
	<line class="st11" x1="190.3" y1="375.6" x2="20.4" y2="210.6"/>
	<line class="st11" x1="257.2" y1="263.1" x2="90.6" y2="103.1"/>
	<line class="st11" x1="254.2" y1="206" x2="144.1" y2="93.9"/>
	<line class="st11" x1="143.2" y1="387.5" x2="17.9" y2="262.1"/>
	<line class="st11" x1="24.5" y1="190.8" x2="111.4" y2="97"/>
</g>
<g id="Layer_7">
	<path class="st12" d="M250.8,114.1c0,10.7-1.6,32.6-14.7,55.5c-3.9,6.8-12.9,22-30.6,34c-23.6,15.9-47.8,15.9-68,15.9
		c-20.5,0-53.2-0.1-80.4-22.7c-13.3-11.1-20.4-23.5-23.8-29.4c-12.6-22.5-14.6-44-14.7-55.3L250.8,114.1z"/>
	<path class="st13" d="M18.3,114.3c1.5-12.7,7.4-47.4,35.9-73C95.8,4,164.2,5.4,207.3,39.4c32.7,25.8,41.1,62.8,43.4,75.6"/>
	<line class="st13" x1="23.9" y1="141.9" x2="74.4" y2="112"/>
	<line class="st13" x1="33.3" y1="165.8" x2="122.5" y2="113"/>
	<line class="st13" x1="46.3" y1="187.7" x2="171" y2="114"/>
	<line class="st13" x1="70" y1="205.5" x2="224.9" y2="113.9"/>
	<line class="st13" x1="104.5" y1="217.8" x2="249.8" y2="131.9"/>
	<line class="st13" x1="146.1" y1="219.4" x2="238.6" y2="164.8"/>
	<line class="st13" x1="207.1" y1="114" x2="246.1" y2="145.2"/>
	<line class="st13" x1="166.1" y1="114.1" x2="236" y2="169.6"/>
	<line class="st13" x1="125.4" y1="114.1" x2="221.2" y2="190.2"/>
	<line class="st13" x1="79.6" y1="112.6" x2="199" y2="207.6"/>
	<line class="st13" x1="34.8" y1="112" x2="168.8" y2="218.4"/>
	<line class="st13" x1="21.6" y1="134.2" x2="128.8" y2="219.4"/>
	<line class="st13" x1="34.2" y1="169.6" x2="90.5" y2="214.3"/>
</g>
<g id="Layer_7_copy_5" class="st0">
	<path class="st14" d="M159.5,107.9c4.4-6,14.8-16.4,15.2-23.6c0.4-7.3,0.8-30.8,2-35.6c1.2-4.8,9.4,7.8,10.2,12.6
		s3.9,19.9,2.5,25.2s-6.5,15.7-9.7,18.5c-3.2,2.8-7.3,8-13.2,12c-6.1,2.4-10,6.6-16.1,6.6C144.3,123.6,155.1,113.9,159.5,107.9z"/>
	<path class="st14" d="M181.9,109.4c2.5-6.8,9.5-19.2,7.8-25.9s-8-28.2-8.2-32.8s11.2,4.3,13.3,8.4c2.1,4.1,9.4,16.9,9.5,22.1
		s-1.8,16.2-4,19.7s-4.7,9.4-9.2,14.8c-5.1,4-7.7,8.9-13.5,10.8C171.9,128.2,179.5,116.1,181.9,109.4z"/>
	<path class="st14" d="M138.8,93.6c6.2-3.6,19.6-8.7,22.6-15c3-6.2,11.9-26.7,14.7-30.5c2.8-3.7,5.9,10.5,4.9,15
		c-1,4.5-3.6,19-6.8,23.1c-3.2,4.1-11.7,11.3-15.7,12.6c-3.9,1.3-9.6,4.3-16.5,5.5c-6.5-0.3-11.6,2-17.3-0.4
		C119.1,101.6,132.6,97.2,138.8,93.6z"/>
	<path class="st15" d="M175.4,50.7c0.2-3.8,0-15,0-18.5s10.5-3.5,10.5,0s2.4,15,0,18.5C183.6,54.2,175.2,54.5,175.4,50.7z"/>
	<g class="st4">
		
			<ellipse transform="matrix(0.8054 -0.5928 0.5928 0.8054 -51.8934 33.8083)" class="st16" cx="25.5" cy="95.9" rx="8.5" ry="8.9"/>
		
			<ellipse transform="matrix(0.8054 -0.5928 0.5928 0.8054 -43.2831 39.9429)" class="st16" cx="39.2" cy="85.9" rx="8.5" ry="8.9"/>
		
			<ellipse transform="matrix(0.8054 -0.5928 0.5928 0.8054 -34.6728 46.0775)" class="st16" cx="52.8" cy="75.8" rx="8.5" ry="8.9"/>
		
			<ellipse transform="matrix(0.8054 -0.5928 0.5928 0.8054 -26.0625 52.2121)" class="st16" cx="66.5" cy="65.8" rx="8.5" ry="8.9"/>
		
			<ellipse transform="matrix(0.8054 -0.5928 0.5928 0.8054 -53.1569 44.6916)" class="st16" cx="41.5" cy="103.3" rx="8.5" ry="8.9"/>
		
			<ellipse transform="matrix(0.8054 -0.5928 0.5928 0.8054 -44.5466 50.8262)" class="st16" cx="55.1" cy="93.2" rx="8.5" ry="8.9"/>
		
			<ellipse transform="matrix(0.8054 -0.5928 0.5928 0.8054 -35.9363 56.9608)" class="st16" cx="68.8" cy="83.2" rx="8.5" ry="8.9"/>
		
			<ellipse transform="matrix(0.8054 -0.5928 0.5928 0.8054 -54.5252 55.7219)" class="st16" cx="57.6" cy="110.9" rx="8.5" ry="8.9"/>
		
			<ellipse transform="matrix(0.8054 -0.5928 0.5928 0.8054 -45.9149 61.8565)" class="st16" cx="71.2" cy="100.8" rx="8.5" ry="8.9"/>
		
			<ellipse transform="matrix(0.8054 -0.5928 0.5928 0.8054 -55.8185 66.647)" class="st16" cx="73.6" cy="118.3" rx="8.5" ry="8.9"/>
		<path class="st17" d="M39.4,75.8c-0.3,1.4-9.6,2.2-10.9,1.8c-1.9,0.2-11.3-4.7-10.8-7.2c0.5-2.5,10.2-3.1,11.9-2.6
			C31.4,68.2,39.7,74.3,39.4,75.8z"/>
		<path class="st17" d="M42.1,50.5c2.9,0.8,4.4,12.7,4.5,14.7c0.1,2-6.9,11.3-8.1,11.3c-1.2,0-6.4-11.1-5.3-14.9
			S39.3,49.7,42.1,50.5z"/>
	</g>
	<g class="st4">
		<path class="st18" d="M108.1,89.1c0,0,1.1-13.5,0.8-18.9c-0.3-5.4-2.2-6.1-2.5-10.5c-1.5-3,5.2-1,6.7,0.3s3.3,8.9,3.1,14.8
			c-0.2,5.9-0.6,14.7-0.6,14.7L108.1,89.1z"/>
		<ellipse transform="matrix(0.1431 -0.9897 0.9897 0.1431 -9.8524 196.6471)" class="st19" cx="108.6" cy="104" rx="26" ry="26"/>
	</g>
	<ellipse transform="matrix(0.1431 -0.9897 0.9897 0.1431 96.5408 308.729)" class="st20" cx="226.6" cy="98.6" rx="26" ry="26"/>
	<path class="st21" d="M250.8,114.1c0,10.7-1.6,32.6-14.7,55.5c-3.9,6.8-12.9,22-30.6,34c-23.6,15.9-47.8,15.9-68,15.9
		c-20.5,0-53.2-0.1-80.4-22.7c-13.3-11.1-20.4-23.5-23.8-29.4c-12.6-22.5-14.6-44-14.7-55.3L250.8,114.1z"/>
	<line class="st22" x1="23.9" y1="141.9" x2="74.4" y2="112"/>
	<line class="st22" x1="33.3" y1="165.8" x2="122.5" y2="113"/>
	<line class="st22" x1="46.3" y1="187.7" x2="171" y2="114"/>
	<line class="st22" x1="70" y1="205.5" x2="224.9" y2="113.9"/>
	<line class="st22" x1="104.5" y1="217.8" x2="249.8" y2="131.9"/>
	<line class="st22" x1="146.1" y1="219.4" x2="238.6" y2="164.8"/>
	<line class="st22" x1="207.1" y1="114" x2="246.1" y2="145.2"/>
	<line class="st22" x1="166.1" y1="114.1" x2="236" y2="169.6"/>
	<line class="st22" x1="125.4" y1="114.1" x2="221.2" y2="190.2"/>
	<line class="st22" x1="79.6" y1="112.6" x2="199" y2="207.6"/>
	<line class="st22" x1="34.8" y1="112" x2="168.8" y2="218.4"/>
	<line class="st22" x1="21.6" y1="134.2" x2="128.8" y2="219.4"/>
	<line class="st22" x1="34.2" y1="169.6" x2="90.5" y2="214.3"/>
</g>
<g id="Layer_7_copy" class="st0">
	<path class="st21" d="M250.8,114.1c0,10.7-1.6,32.6-14.7,55.5c-3.9,6.8-12.9,22-30.6,34c-23.6,15.9-47.8,15.9-68,15.9
		c-20.5,0-53.2-0.1-80.4-22.7c-13.3-11.1-20.4-23.5-23.8-29.4c-12.6-22.5-14.6-44-14.7-55.3L250.8,114.1z"/>
	<path class="st22" d="M18.3,114.3c1.5-12.7,7.4-47.4,35.9-73C95.8,4,164.2,5.4,207.3,39.4c32.7,25.8,41.1,62.8,43.4,75.6"/>
	<line class="st22" x1="23.9" y1="141.9" x2="74.4" y2="112"/>
	<line class="st22" x1="33.3" y1="165.8" x2="122.5" y2="113"/>
	<line class="st22" x1="46.3" y1="187.7" x2="171" y2="114"/>
	<line class="st22" x1="70" y1="205.5" x2="224.9" y2="113.9"/>
	<line class="st22" x1="104.5" y1="217.8" x2="249.8" y2="131.9"/>
	<line class="st22" x1="146.1" y1="219.4" x2="238.6" y2="164.8"/>
	<line class="st22" x1="207.1" y1="114" x2="246.1" y2="145.2"/>
	<line class="st22" x1="166.1" y1="114.1" x2="236" y2="169.6"/>
	<line class="st22" x1="125.4" y1="114.1" x2="221.2" y2="190.2"/>
	<line class="st22" x1="79.6" y1="112.6" x2="199" y2="207.6"/>
	<line class="st22" x1="34.8" y1="112" x2="168.8" y2="218.4"/>
	<line class="st22" x1="21.6" y1="134.2" x2="128.8" y2="219.4"/>
	<line class="st22" x1="34.2" y1="169.6" x2="90.5" y2="214.3"/>
	<path class="st6" d="M92.7,82.3c1.9,4.9-3.3,6.7-9.3,23.7c-4,11.2-5.2,25.9-7.4,55.1c-0.8,10.8-1.6,21.2-2,35.5
		c0,1.8-0.8,18.3,0.2,36.9c1.6,30,3.6,63.5,12.6,107.8c6.5,31.6,14.5,58.5,21.9,80l9,19.7c-3-2.9-7.4-7-12.7-12
		c-16.5-15.3-20.7-19.2-21.6-18.4c-1.3,1.1,5.6,9.4,10.7,24.7c3.1,9.4,5.6,21.7,3.4,22.6c-2.2,0.9-7.2-10.6-19.9-26
		c-9.7-11.8-22.9-24.7-26-22.6c-2.8,1.9,6.1,13.6,4.7,32.2c-0.6,8.6-3.2,18.4-6.2,18.5c-3.4,0.1-3.3-13.2-12.5-28.4
		c-6.1-10-18.3-24.3-26.6-21.6c-6.5,2.1-8,13.9-8.4,16.5c-2.4,18.3,9.7,31.4,7.6,32.8c-2.4,1.6-18.8-10.7-24.6-29.7
		c-2.6-8.4-2.4-15.8-5.1-16.1c-2.8-0.4-4.3,7.6-11.9,17c-6.6,8.2-15.9,15.1-17.8,13.6c-2.3-1.8,5.5-14.7,9.7-22.6
		c10.5-19.8,13.1-40.1,20.8-80.3c2.3-12.2,4.1-23.6,5.5-34.3c1.9-14.7,5.4-41.3,5.6-73.6c0.2-52.7-8.1-115.1-11.1-127.3
		c-3-12.2-8.2-22.3-9.7-23.5c0,0,0,0,0,0C-28.5,80.3,84,60,92.7,82.3z"/>
	<path class="st7" d="M191,33.5c-0.7-5.8-2.3-19-12.2-30.6c-9.7-11.4-22.6-15.6-31.6-18.5c-12.1-3.9-21.7-4.2-21.7-5.9
		c0-1.7,8.7-1.3,17.3-4.4c14.3-5.1,25.5-18.4,30.2-31.7c9.5-26.9-8.4-51.2-11.8-55.8c-15.9-21.6-39.3-26.6-48.3-27.9
		c-1.2-0.2-2.1-0.3-2.9-0.4c-6.8-0.7-37.4-4.1-47.8,10.5c-5.5,7.7-3.6,16.4-6.5,16.7c-3.1,0.3-4.8-10.5-9.6-18.5
		c-13.7-22.6-56.5-28.5-86.8-16.1c-6.9,2.8-20.6,8.7-28.6,22.9c-2.3,4.2-8.7,15.6-5.3,27.1c1.9,6.3,5.5,8.4,4.3,10.7
		c-2.6,5.1-20.8-5.5-42.6,0c-4.9,1.2-13.9,3.6-21.9,10.9c-12.8,11.8-19.2,33.2-11.9,50.7c7.8,18.8,28.3,25.8,33.6,27.6
		c9.4,3.2,18.7,3.7,18.7,5.2c-0.1,1.8-12.8-0.8-23.9,6c-11.4,6.9-17,21.3-17.2,33.6c0,3.2,0.1,15.7,9,26.9
		c10.9,13.8,29.9,17.9,44,16.4c16.2-1.7,22.2-10.6,41.4-9.3c8.8,0.6,12.4,2.8,14.5,4.5c4.8,4,112.7,5.4,121,0.1
		c11.5-7.3,24.1,8,47.7,6.5c17.3-1.1,36.9-11,45.1-27.9C193,51.1,191.7,39.6,191,33.5z"/>
	<g class="st4">
		<path class="st5" d="M63.6,81.5c-3.7-0.3-4-4.5-8.5-5.2c-4.9-0.8-9.2,3-10.9,6.9c-1.3,3.1-1.4,6.6-0.7,10c0.6,3.2,2,6.2,3.1,9.3
			c0.9,2.3,2.1,4.6,4.7,5.7c2.8,1.2,5.9,0.2,8.9,0c3.3-0.2,6,1.7,9.3,0.7c5.6-1.6,7.8-6.1,9.6-10.8c2.5-6.4,4.7-13.4-0.7-19.2
			c-1.1-1.2-2.5-2.1-4.2-2.3C69.6,76,68,81.8,63.6,81.5z"/>
		<path class="st5" d="M63.4,68c0.7,1.1,1.7,3.1,1.8,5.8c0.2,3.3-1,5.9-1.6,7"/>
	</g>
</g>
<g id="Layer_7_copy_2" class="st0">
	<path class="st21" d="M250.8,114.1c0,10.7-1.6,32.6-14.7,55.5c-3.9,6.8-12.9,22-30.6,34c-23.6,15.9-47.8,15.9-68,15.9
		c-20.5,0-53.2-0.1-80.4-22.7c-13.3-11.1-20.4-23.5-23.8-29.4c-12.6-22.5-14.6-44-14.7-55.3L250.8,114.1z"/>
	<path class="st22" d="M18.3,114.3c1.5-12.7,7.4-47.4,35.9-73C95.8,4,164.2,5.4,207.3,39.4c32.7,25.8,41.1,62.8,43.4,75.6"/>
	<line class="st22" x1="23.9" y1="141.9" x2="74.4" y2="112"/>
	<line class="st22" x1="33.3" y1="165.8" x2="122.5" y2="113"/>
	<line class="st22" x1="46.3" y1="187.7" x2="171" y2="114"/>
	<line class="st22" x1="70" y1="205.5" x2="224.9" y2="113.9"/>
	<line class="st22" x1="104.5" y1="217.8" x2="249.8" y2="131.9"/>
	<line class="st22" x1="146.1" y1="219.4" x2="238.6" y2="164.8"/>
	<line class="st22" x1="207.1" y1="114" x2="246.1" y2="145.2"/>
	<line class="st22" x1="166.1" y1="114.1" x2="236" y2="169.6"/>
	<line class="st22" x1="125.4" y1="114.1" x2="221.2" y2="190.2"/>
	<line class="st22" x1="79.6" y1="112.6" x2="199" y2="207.6"/>
	<line class="st22" x1="34.8" y1="112" x2="168.8" y2="218.4"/>
	<line class="st22" x1="21.6" y1="134.2" x2="128.8" y2="219.4"/>
	<line class="st22" x1="34.2" y1="169.6" x2="90.5" y2="214.3"/>
	<g class="st4">
		<path class="st5" d="M63.6,81.5c-3.7-0.3-4-4.5-8.5-5.2c-4.9-0.8-9.2,3-10.9,6.9c-1.3,3.1-1.4,6.6-0.7,10c0.6,3.2,2,6.2,3.1,9.3
			c0.9,2.3,2.1,4.6,4.7,5.7c2.8,1.2,5.9,0.2,8.9,0c3.3-0.2,6,1.7,9.3,0.7c5.6-1.6,7.8-6.1,9.6-10.8c2.5-6.4,4.7-13.4-0.7-19.2
			c-1.1-1.2-2.5-2.1-4.2-2.3C69.6,76,68,81.8,63.6,81.5z"/>
		<path class="st5" d="M63.4,68c0.7,1.1,1.7,3.1,1.8,5.8c0.2,3.3-1,5.9-1.6,7"/>
	</g>
	<g class="st4">
		<path class="st5" d="M109.8,81.5c-3.7-0.3-4-4.5-8.5-5.2c-4.9-0.8-9.2,3-10.9,6.9c-1.3,3.1-1.4,6.6-0.7,10c0.6,3.2,2,6.2,3.1,9.3
			c0.9,2.3,2.1,4.6,4.7,5.7c2.8,1.2,5.9,0.2,8.9,0c3.3-0.2,6,1.7,9.3,0.7c5.6-1.6,7.8-6.1,9.6-10.8c2.5-6.4,4.7-13.4-0.7-19.2
			c-1.1-1.2-2.5-2.1-4.2-2.3C115.9,76,114.3,81.8,109.8,81.5z"/>
		<path class="st5" d="M109.7,68c0.7,1.1,1.7,3.1,1.8,5.8c0.2,3.3-1,5.9-1.6,7"/>
	</g>
</g>
<g id="Layer_7_copy_3" class="st0">
	<path class="st21" d="M250.8,114.1c0,10.7-1.6,32.6-14.7,55.5c-3.9,6.8-12.9,22-30.6,34c-23.6,15.9-47.8,15.9-68,15.9
		c-20.5,0-53.2-0.1-80.4-22.7c-13.3-11.1-20.4-23.5-23.8-29.4c-12.6-22.5-14.6-44-14.7-55.3L250.8,114.1z"/>
	<path class="st22" d="M18.3,114.3c1.5-12.7,7.4-47.4,35.9-73C95.8,4,164.2,5.4,207.3,39.4c32.7,25.8,41.1,62.8,43.4,75.6"/>
	<line class="st22" x1="23.9" y1="141.9" x2="74.4" y2="112"/>
	<line class="st22" x1="33.3" y1="165.8" x2="122.5" y2="113"/>
	<line class="st22" x1="46.3" y1="187.7" x2="171" y2="114"/>
	<line class="st22" x1="70" y1="205.5" x2="224.9" y2="113.9"/>
	<line class="st22" x1="104.5" y1="217.8" x2="249.8" y2="131.9"/>
	<line class="st22" x1="146.1" y1="219.4" x2="238.6" y2="164.8"/>
	<line class="st22" x1="207.1" y1="114" x2="246.1" y2="145.2"/>
	<line class="st22" x1="166.1" y1="114.1" x2="236" y2="169.6"/>
	<line class="st22" x1="125.4" y1="114.1" x2="221.2" y2="190.2"/>
	<line class="st22" x1="79.6" y1="112.6" x2="199" y2="207.6"/>
	<line class="st22" x1="34.8" y1="112" x2="168.8" y2="218.4"/>
	<line class="st22" x1="21.6" y1="134.2" x2="128.8" y2="219.4"/>
	<line class="st22" x1="34.2" y1="169.6" x2="90.5" y2="214.3"/>
	<g class="st4">
		<path class="st5" d="M63.6,81.5c-3.7-0.3-4-4.5-8.5-5.2c-4.9-0.8-9.2,3-10.9,6.9c-1.3,3.1-1.4,6.6-0.7,10c0.6,3.2,2,6.2,3.1,9.3
			c0.9,2.3,2.1,4.6,4.7,5.7c2.8,1.2,5.9,0.2,8.9,0c3.3-0.2,6,1.7,9.3,0.7c5.6-1.6,7.8-6.1,9.6-10.8c2.5-6.4,4.7-13.4-0.7-19.2
			c-1.1-1.2-2.5-2.1-4.2-2.3C69.6,76,68,81.8,63.6,81.5z"/>
		<path class="st5" d="M63.4,68c0.7,1.1,1.7,3.1,1.8,5.8c0.2,3.3-1,5.9-1.6,7"/>
	</g>
	<g class="st4">
		<path class="st5" d="M109.8,81.5c-3.7-0.3-4-4.5-8.5-5.2c-4.9-0.8-9.2,3-10.9,6.9c-1.3,3.1-1.4,6.6-0.7,10c0.6,3.2,2,6.2,3.1,9.3
			c0.9,2.3,2.1,4.6,4.7,5.7c2.8,1.2,5.9,0.2,8.9,0c3.3-0.2,6,1.7,9.3,0.7c5.6-1.6,7.8-6.1,9.6-10.8c2.5-6.4,4.7-13.4-0.7-19.2
			c-1.1-1.2-2.5-2.1-4.2-2.3C115.9,76,114.3,81.8,109.8,81.5z"/>
		<path class="st5" d="M109.7,68c0.7,1.1,1.7,3.1,1.8,5.8c0.2,3.3-1,5.9-1.6,7"/>
	</g>
	<g class="st4">
		<path class="st5" d="M155,81.5c-3.7-0.3-4-4.5-8.5-5.2c-4.9-0.8-9.2,3-10.9,6.9c-1.3,3.1-1.4,6.6-0.7,10c0.6,3.2,2,6.2,3.1,9.3
			c0.9,2.3,2.1,4.6,4.7,5.7c2.8,1.2,5.9,0.2,8.9,0c3.3-0.2,6,1.7,9.3,0.7c5.6-1.6,7.8-6.1,9.6-10.8c2.5-6.4,4.7-13.4-0.7-19.2
			c-1.1-1.2-2.5-2.1-4.2-2.3C161.1,76,159.5,81.8,155,81.5z"/>
		<path class="st5" d="M154.9,68c0.7,1.1,1.7,3.1,1.8,5.8c0.2,3.3-1,5.9-1.6,7"/>
	</g>
</g>
<g id="Layer_7_copy_4" class="st0">
	<path class="st21" d="M250.8,114.1c0,10.7-1.6,32.6-14.7,55.5c-3.9,6.8-12.9,22-30.6,34c-23.6,15.9-47.8,15.9-68,15.9
		c-20.5,0-53.2-0.1-80.4-22.7c-13.3-11.1-20.4-23.5-23.8-29.4c-12.6-22.5-14.6-44-14.7-55.3L250.8,114.1z"/>
	<path class="st22" d="M18.3,114.3c1.5-12.7,7.4-47.4,35.9-73C95.8,4,164.2,5.4,207.3,39.4c32.7,25.8,41.1,62.8,43.4,75.6"/>
	<line class="st22" x1="23.9" y1="141.9" x2="74.4" y2="112"/>
	<line class="st22" x1="33.3" y1="165.8" x2="122.5" y2="113"/>
	<line class="st22" x1="46.3" y1="187.7" x2="171" y2="114"/>
	<line class="st22" x1="70" y1="205.5" x2="224.9" y2="113.9"/>
	<line class="st22" x1="104.5" y1="217.8" x2="249.8" y2="131.9"/>
	<line class="st22" x1="146.1" y1="219.4" x2="238.6" y2="164.8"/>
	<line class="st22" x1="207.1" y1="114" x2="246.1" y2="145.2"/>
	<line class="st22" x1="166.1" y1="114.1" x2="236" y2="169.6"/>
	<line class="st22" x1="125.4" y1="114.1" x2="221.2" y2="190.2"/>
	<line class="st22" x1="79.6" y1="112.6" x2="199" y2="207.6"/>
	<line class="st22" x1="34.8" y1="112" x2="168.8" y2="218.4"/>
	<line class="st22" x1="21.6" y1="134.2" x2="128.8" y2="219.4"/>
	<line class="st22" x1="34.2" y1="169.6" x2="90.5" y2="214.3"/>
	<g class="st4">
		<path class="st5" d="M64.6,81.5c-3.7-0.3-4-4.5-8.5-5.2c-4.9-0.8-9.2,3-10.9,6.9c-1.3,3.1-1.4,6.6-0.7,10c0.6,3.2,2,6.2,3.1,9.3
			c0.9,2.3,2.1,4.6,4.7,5.7c2.8,1.2,5.9,0.2,8.9,0c3.3-0.2,6,1.7,9.3,0.7c5.6-1.6,7.8-6.1,9.6-10.8c2.5-6.4,4.7-13.4-0.7-19.2
			c-1.1-1.2-2.5-2.1-4.2-2.3C70.7,76,69.1,81.8,64.6,81.5z"/>
		<path class="st5" d="M64.5,68c0.7,1.1,1.7,3.1,1.8,5.8c0.2,3.3-1,5.9-1.6,7"/>
	</g>
	<g class="st4">
		<path class="st5" d="M109.7,82.2c-3.7-0.3-4-4.5-8.5-5.2c-4.9-0.8-9.2,3-10.9,6.9c-1.3,3.1-1.4,6.6-0.7,10c0.6,3.2,2,6.2,3.1,9.3
			c0.9,2.3,2.1,4.6,4.7,5.7c2.8,1.2,5.9,0.2,8.9,0c3.3-0.2,6,1.7,9.3,0.7c5.6-1.6,7.8-6.1,9.6-10.8c2.5-6.4,4.7-13.4-0.7-19.2
			c-1.1-1.2-2.5-2.1-4.2-2.3C115.8,76.7,114.2,82.5,109.7,82.2z"/>
		<path class="st5" d="M109.6,68.6c0.7,1.1,1.7,3.1,1.8,5.8c0.2,3.3-1,5.9-1.6,7"/>
	</g>
	<g class="st4">
		<path class="st5" d="M154.9,82.2c-3.7-0.3-4-4.5-8.5-5.2c-4.9-0.8-9.2,3-10.9,6.9c-1.3,3.1-1.4,6.6-0.7,10c0.6,3.2,2,6.2,3.1,9.3
			c0.9,2.3,2.1,4.6,4.7,5.7c2.8,1.2,5.9,0.2,8.9,0c3.3-0.2,6,1.7,9.3,0.7c5.6-1.6,7.8-6.1,9.6-10.8c2.5-6.4,4.7-13.4-0.7-19.2
			c-1.1-1.2-2.5-2.1-4.2-2.3C160.9,76.7,159.4,82.5,154.9,82.2z"/>
		<path class="st5" d="M154.8,68.6c0.7,1.1,1.7,3.1,1.8,5.8c0.2,3.3-1,5.9-1.6,7"/>
	</g>
	<g class="st4">
		<path class="st5" d="M197.7,82.5c-3.7-0.3-4-4.5-8.5-5.2c-4.9-0.8-9.2,3-10.9,6.9c-1.3,3.1-1.4,6.6-0.7,10c0.6,3.2,2,6.2,3.1,9.3
			c0.9,2.3,2.1,4.6,4.7,5.7c2.8,1.2,5.9,0.2,8.9,0c3.3-0.2,6,1.7,9.3,0.7c5.6-1.6,7.8-6.1,9.6-10.8c2.5-6.4,4.7-13.4-0.7-19.2
			c-1.1-1.2-2.5-2.1-4.2-2.3C203.7,77,202.1,82.8,197.7,82.5z"/>
		<path class="st5" d="M197.5,69c0.7,1.1,1.7,3.1,1.8,5.8c0.2,3.3-1,5.9-1.6,7"/>
	</g>
</g>
</svg>
