<?xml version="1.0" encoding="utf-8"?>
<!-- Generator: Adobe Illustrator 21.1.0, SVG Export Plug-In . SVG Version: 6.00 Build 0)  -->
<svg version="1.1" id="Layer_1" xmlns="http://www.w3.org/2000/svg" xmlns:xlink="http://www.w3.org/1999/xlink" x="0px" y="0px"
	 viewBox="0 0 304.9 189" style="enable-background:new 0 0 304.9 189;" xml:space="preserve">
<style type="text/css">
	.st0{display:none;}
	.st1{display:inline;fill:#FFFFFF;stroke:#000000;stroke-miterlimit:10;}
	.st2{display:inline;}
	.st3{fill:#8C6E53;stroke:#603913;stroke-width:2;stroke-linejoin:round;stroke-miterlimit:10;}
	.st4{fill:#76C378;stroke:#009444;stroke-width:2;stroke-linejoin:round;stroke-miterlimit:10;}
	.st5{fill:#E7503F;stroke:#931A1D;stroke-width:2;stroke-linejoin:round;stroke-miterlimit:10;}
	.st6{fill:#605D5C;stroke:#3A3636;stroke-width:2;stroke-linejoin:round;stroke-miterlimit:10;}
	.st7{display:inline;fill:#E8E352;stroke:#B5BA4E;stroke-width:6;stroke-linejoin:round;stroke-miterlimit:10;}
	.st8{display:inline;fill:#AED693;stroke:#79AA67;stroke-width:6;stroke-linejoin:round;stroke-miterlimit:10;}
	.st9{display:inline;fill:#E8E552;stroke:#E4C74A;stroke-width:6;stroke-linejoin:round;stroke-miterlimit:10;}
	.st10{display:inline;fill:none;stroke:#E4C74A;stroke-width:6;stroke-linejoin:round;stroke-miterlimit:10;}
	.st11{display:inline;fill:none;stroke:#B5BA4E;stroke-width:6;stroke-linejoin:round;stroke-miterlimit:10;}
	.st12{display:inline;fill:#C08C49;stroke:#A56928;stroke-width:4;stroke-linejoin:round;stroke-miterlimit:10;}
	.st13{display:inline;fill:none;stroke:#A56928;stroke-width:4;stroke-linejoin:round;stroke-miterlimit:10;}
	.st14{display:none;fill:#F1EB67;stroke:#E8E491;stroke-miterlimit:10;}
	.st15{display:none;fill:#846628;}
	.st16{display:inline;fill:#662C90;}
	.st17{display:inline;fill:#2D6733;}
	.st18{display:inline;fill:#846628;}
	.st19{display:inline;fill:#E12C26;}
	.st20{display:none;fill:#F9A51B;}
	.st21{fill:#5FC6D1;stroke:#5F7EAA;stroke-width:4;stroke-miterlimit:10;}
	.st22{fill:#5EC6D1;stroke:#5F7EAA;stroke-width:4;stroke-linejoin:round;stroke-miterlimit:10;}
	.st23{display:inline;fill:#8C6E53;stroke:#603913;stroke-width:2;stroke-linejoin:round;stroke-miterlimit:10;}
	.st24{display:inline;fill:#76C378;stroke:#009444;stroke-width:2;stroke-linejoin:round;stroke-miterlimit:10;}
</style>
<g id="Layer_1_copy" class="st0">
	<path class="st1" d="M305.1,196"/>
</g>
<g id="Layer_3" class="st0">
	<g class="st2">
		<path class="st3" d="M192.7,56.3c1.9,4.9-3.3,6.7-9.3,23.7c-4,11.2-5.2,25.9-7.4,55.1c-0.8,10.8-1.6,21.2-2,35.5
			c0,1.8-0.8,18.3,0.2,36.9c1.6,30,3.6,63.5,12.6,107.8c6.5,31.6,14.5,58.5,21.9,80l9,19.7c-3-2.9-7.4-7-12.7-12
			c-16.5-15.3-20.7-19.2-21.6-18.4c-1.3,1.1,5.6,9.4,10.7,24.7c3.1,9.4,5.6,21.7,3.4,22.6c-2.2,0.9-7.2-10.6-19.9-26
			c-9.7-11.8-22.9-24.7-26-22.6c-2.8,1.9,6.1,13.6,4.7,32.2c-0.6,8.6-3.2,18.4-6.2,18.5c-3.4,0.1-3.3-13.2-12.5-28.4
			c-6.1-10-18.3-24.3-26.6-21.6c-6.5,2.1-8,13.9-8.4,16.5c-2.4,18.3,9.7,31.4,7.6,32.8c-2.4,1.6-18.8-10.7-24.6-29.7
			c-2.6-8.4-2.4-15.8-5.1-16.1c-2.8-0.4-4.3,7.6-11.9,17c-6.6,8.2-15.9,15.1-17.8,13.6c-2.3-1.8,5.5-14.7,9.7-22.6
			c10.5-19.8,13.1-40.1,20.8-80.3c2.3-12.2,4.1-23.6,5.5-34.3c1.9-14.7,5.4-41.3,5.6-73.6C92.6,154.6,84.3,92.2,81.3,80
			s-8.2-22.3-9.7-23.5l0,0C71.5,54.3,184.1,34,192.7,56.3z"/>
		<path class="st4" d="M291,7.5c-0.7-5.8-2.3-19-12.2-30.6c-9.7-11.4-22.6-15.6-31.6-18.5c-12.1-3.9-21.7-4.2-21.7-5.9
			s8.7-1.3,17.3-4.4c14.3-5.1,25.5-18.4,30.2-31.7c9.5-26.9-8.4-51.2-11.8-55.8c-15.9-21.6-39.3-26.6-48.3-27.9
			c-1.2-0.2-2.1-0.3-2.9-0.4c-6.8-0.7-37.4-4.1-47.8,10.5c-5.5,7.7-3.6,16.4-6.5,16.7c-3.1,0.3-4.8-10.5-9.6-18.5
			c-13.7-22.6-56.5-28.5-86.8-16.1c-6.9,2.8-20.6,8.7-28.6,22.9c-2.3,4.2-8.7,15.6-5.3,27.1c1.9,6.3,5.5,8.4,4.3,10.7
			c-2.6,5.1-20.8-5.5-42.6,0c-4.9,1.2-13.9,3.6-21.9,10.9C-47.6-91.7-54-70.3-46.7-52.8C-38.9-34-18.4-27-13.1-25.2
			C-3.7-22,5.6-21.5,5.6-20c-0.1,1.8-12.8-0.8-23.9,6c-11.4,6.9-17,21.3-17.2,33.6c0,3.2,0.1,15.7,9,26.9
			c10.9,13.8,29.9,17.9,44,16.4c16.2-1.7,22.2-10.6,41.4-9.3c8.8,0.6,12.4,2.8,14.5,4.5c4.8,4,112.7,5.4,121,0.1
			c11.5-7.3,24.1,8,47.7,6.5c17.3-1.1,36.9-11,45.1-27.9C293,25.1,291.7,13.6,291,7.5z"/>
		<g>
			<path class="st5" d="M414.9-11.4c-1.9-0.1-2.1-2.6-4.5-3c-2.6-0.4-4.9,1.7-5.8,4c-0.7,1.8-0.7,3.8-0.4,5.7c0.3,1.9,1,3.6,1.7,5.3
				c0.5,1.3,1.1,2.6,2.5,3.3c1.5,0.7,3.1,0.1,4.7,0c1.7-0.1,3.2,1,4.9,0.4c2.9-0.9,4.1-3.5,5.1-6.2c1.3-3.7,2.5-7.7-0.3-11
				c-0.6-0.7-1.3-1.2-2.2-1.3C418.1-14.5,417.3-11.2,414.9-11.4z"/>
			<path class="st5" d="M414.9-19.2c0.3,0.6,0.9,1.8,1,3.3c0.1,1.9-0.5,3.4-0.8,4"/>
		</g>
		<g>
			<path class="st5" d="M434.4,145.8c-1.9-0.1-2.1-2.6-4.5-3c-2.6-0.4-4.9,1.7-5.8,4c-0.7,1.8-0.7,3.8-0.4,5.7
				c0.3,1.9,1,3.6,1.7,5.3c0.5,1.3,1.1,2.6,2.5,3.3c1.5,0.7,3.1,0.1,4.7,0c1.7-0.1,3.2,1,4.9,0.4c2.9-0.9,4.1-3.5,5.1-6.2
				c1.3-3.7,2.5-7.7-0.3-11c-0.6-0.7-1.3-1.2-2.2-1.3C437.6,142.7,436.7,146,434.4,145.8z"/>
			<path class="st5" d="M434.3,138.1c0.3,0.6,0.9,1.8,1,3.3c0.1,1.9-0.5,3.4-0.8,4"/>
		</g>
		<g>
			<path class="st5" d="M414.1-54c-1.9-0.1-2.1-2.6-4.5-3c-2.6-0.4-4.9,1.7-5.8,4c-0.7,1.8-0.7,3.8-0.4,5.7s1,3.6,1.7,5.3
				c0.5,1.3,1.1,2.6,2.5,3.3c1.5,0.7,3.1,0.1,4.7,0c1.7-0.1,3.2,1,4.9,0.4c2.9-0.9,4.1-3.5,5.1-6.2c1.3-3.7,2.5-7.7-0.3-11
				c-0.6-0.7-1.3-1.2-2.2-1.3C417.3-57.2,416.4-53.9,414.1-54z"/>
			<path class="st5" d="M414-61.8c0.3,0.6,0.9,1.8,1,3.3c0.1,1.9-0.5,3.4-0.8,4"/>
		</g>
		<g>
			<path class="st5" d="M427.1,52.2c-1.9-0.1-2.1-2.6-4.5-3c-2.6-0.4-4.9,1.7-5.8,4c-0.7,1.8-0.7,3.8-0.4,5.7c0.3,1.9,1,3.6,1.7,5.3
				c0.5,1.3,1.1,2.6,2.5,3.3c1.5,0.7,3.1,0.1,4.7,0c1.7-0.1,3.2,1,4.9,0.4c2.9-0.9,4.1-3.5,5.1-6.2c1.3-3.7,2.5-7.7-0.3-11
				c-0.6-0.7-1.3-1.2-2.2-1.3C430.3,49.1,429.5,52.4,427.1,52.2z"/>
			<path class="st5" d="M427,44.4c0.3,0.6,0.9,1.8,1,3.3c0.1,1.9-0.5,3.4-0.8,4"/>
		</g>
		<g>
			<path class="st5" d="M403.7-115c-1.9-0.1-2.1-2.6-4.5-3c-2.6-0.4-4.9,1.7-5.8,4c-0.7,1.8-0.7,3.8-0.4,5.7s1,3.6,1.7,5.3
				c0.5,1.3,1.1,2.6,2.5,3.3c1.5,0.7,3.1,0.1,4.7,0c1.7-0.1,3.2,1,4.9,0.4c2.9-0.9,4.1-3.5,5.1-6.2c1.3-3.7,2.5-7.7-0.3-11
				c-0.6-0.7-1.3-1.2-2.2-1.3C406.9-118.1,406.1-114.8,403.7-115z"/>
			<path class="st5" d="M403.6-122.8c0.3,0.6,0.9,1.8,1,3.3c0.1,1.9-0.5,3.4-0.8,4"/>
		</g>
		<g>
			<path class="st5" d="M418.8,21.6c-1.9-0.1-2.1-2.6-4.5-3c-2.6-0.4-4.9,1.7-5.8,4c-0.7,1.8-0.7,3.8-0.4,5.7c0.3,1.9,1,3.6,1.7,5.3
				c0.5,1.3,1.1,2.6,2.5,3.3c1.5,0.7,3.1,0.1,4.7,0c1.7-0.1,3.2,1,4.9,0.4c2.9-0.9,4.1-3.5,5.1-6.2c1.3-3.7,2.5-7.7-0.3-11
				c-0.6-0.7-1.3-1.2-2.2-1.3C422,18.4,421.2,21.7,418.8,21.6z"/>
			<path class="st5" d="M418.7,13.8c0.3,0.6,0.9,1.8,1,3.3c0.1,1.9-0.5,3.4-0.8,4"/>
		</g>
		<g>
			<path class="st5" d="M417.3-82.2c-1.9-0.1-2.1-2.6-4.5-3c-2.6-0.4-4.9,1.7-5.8,4c-0.7,1.8-0.7,3.8-0.4,5.7s1,3.6,1.7,5.3
				c0.5,1.3,1.1,2.6,2.5,3.3c1.5,0.7,3.1,0.1,4.7,0c1.7-0.1,3.2,1,4.9,0.4c2.9-0.9,4.1-3.5,5.1-6.2c1.3-3.7,2.5-7.7-0.3-11
				c-0.6-0.7-1.3-1.2-2.2-1.3C420.5-85.3,419.7-82,417.3-82.2z"/>
			<path class="st5" d="M417.3-90c0.3,0.6,0.9,1.8,1,3.3c0.1,1.9-0.5,3.4-0.8,4"/>
		</g>
		<g>
			<path class="st5" d="M459.1-84.5c-1.9-0.1-2.1-2.6-4.5-3c-2.6-0.4-4.9,1.7-5.8,4c-0.7,1.8-0.7,3.8-0.4,5.7s1,3.6,1.7,5.3
				c0.5,1.3,1.1,2.6,2.5,3.3c1.5,0.7,3.1,0.1,4.7,0c1.7-0.1,3.2,1,4.9,0.4c2.9-0.9,4.1-3.5,5.1-6.2c1.3-3.7,2.5-7.7-0.3-11
				c-0.6-0.7-1.3-1.2-2.2-1.3C462.3-87.6,461.5-84.3,459.1-84.5z"/>
			<path class="st5" d="M459.1-92.2c0.3,0.6,0.9,1.8,1,3.3c0.1,1.9-0.5,3.4-0.8,4"/>
		</g>
	</g>
	<g class="st2">
		<path class="st5" d="M200,102.4c-4.4-0.3-4.8-5.2-10.2-6c-5.9-0.9-11.1,3.4-13.1,8c-1.6,3.6-1.6,7.7-0.9,11.5
			c0.8,3.7,2.3,7.2,3.8,10.7c1.1,2.7,2.6,5.3,5.7,6.5c3.4,1.4,7.1,0.2,10.7,0c4-0.2,7.2,2,11.1,0.8c6.7-1.9,9.3-7,11.6-12.4
			c3-7.4,5.6-15.4-0.8-22.1c-1.3-1.3-3-2.4-5-2.7C207.2,96.1,205.3,102.8,200,102.4z"/>
		<path class="st5" d="M199.8,86.8c0.8,1.3,2,3.6,2.2,6.7c0.3,3.9-1.2,6.8-1.9,8.1"/>
	</g>
</g>
<g id="Layer_3_copy" class="st0">
	<g class="st2">
		<path class="st3" d="M181.2,54.9c1.9,4.9-3.3,6.7-9.3,23.7c-4,11.2-5.2,25.9-7.4,55.1c-0.8,10.8-1.6,21.2-2,35.5
			c0,1.8-0.8,18.3,0.2,36.9c1.6,30,3.6,63.5,12.6,107.8c6.5,31.6,14.5,58.5,21.9,80l9,19.7c-3-2.9-7.4-7-12.7-12
			c-16.5-15.3-20.7-19.2-21.6-18.4c-1.3,1.1,5.6,9.4,10.7,24.7c3.1,9.4,5.6,21.7,3.4,22.6c-2.2,0.9-7.2-10.6-19.9-26
			c-9.7-11.8-22.9-24.7-26-22.6c-2.8,1.9,6.1,13.6,4.7,32.2c-0.6,8.6-3.2,18.4-6.2,18.5c-3.4,0.1-3.3-13.2-12.5-28.4
			c-6.1-10-18.3-24.3-26.6-21.6c-6.5,2.1-8,13.9-8.4,16.5c-2.4,18.3,9.7,31.4,7.6,32.8c-2.4,1.6-18.8-10.7-24.6-29.7
			c-2.6-8.4-2.4-15.8-5.1-16.1c-2.8-0.4-4.3,7.6-11.9,17c-6.6,8.2-15.9,15.1-17.8,13.6c-2.3-1.8,5.5-14.7,9.7-22.6
			c10.5-19.8,13.1-40.1,20.8-80.3c2.3-12.2,4.1-23.6,5.5-34.3c1.9-14.7,5.4-41.3,5.6-73.6c0.2-52.7-8.1-115.1-11.1-127.3
			s-8.2-22.3-9.7-23.5l0,0C60,53,172.5,32.7,181.2,54.9z"/>
		<path class="st4" d="M279.4,6.1c-0.7-5.8-2.3-19-12.2-30.6c-9.7-11.4-22.6-15.6-31.6-18.5c-12.1-3.9-21.7-4.2-21.7-5.9
			s8.7-1.3,17.3-4.4c14.3-5.1,25.5-18.4,30.2-31.7c9.5-26.9-8.4-51.2-11.8-55.8c-15.9-21.6-39.3-26.6-48.3-27.9
			c-1.2-0.2-2.1-0.3-2.9-0.4c-6.8-0.7-37.4-4.1-47.8,10.5c-5.5,7.7-3.6,16.4-6.5,16.7c-3.1,0.3-4.8-10.5-9.6-18.5
			C120.8-183,78-188.9,47.7-176.5c-6.9,2.8-20.6,8.7-28.6,22.9c-2.3,4.2-8.7,15.6-5.3,27.1c1.9,6.3,5.5,8.4,4.3,10.7
			c-2.6,5.1-20.8-5.5-42.6,0c-4.9,1.2-13.9,3.6-21.9,10.9c-12.8,11.8-19.2,33.2-11.9,50.7c7.8,18.8,28.3,25.8,33.6,27.6
			C-15.3-23.4-6-22.9-6-21.4c-0.1,1.8-12.8-0.8-23.9,6c-11.4,6.9-17,21.3-17.2,33.6c0,3.2,0.1,15.7,9,26.9
			C-27.2,58.9-8.2,63,5.9,61.5c16.2-1.7,22.2-10.6,41.4-9.3c8.8,0.6,12.4,2.8,14.5,4.5c4.8,4,112.7,5.4,121,0.1
			c11.5-7.3,24.1,8,47.7,6.5c17.3-1.1,36.9-11,45.1-27.9C281.4,23.8,280.1,12.2,279.4,6.1z"/>
		<g>
			<path class="st6" d="M24.2,25.1c-1.9-0.1-2.1-2.6-4.5-3c-2.6-0.4-4.9,1.7-5.8,4c-0.7,1.8-0.7,3.8-0.4,5.7c0.3,1.9,1,3.6,1.7,5.3
				c0.5,1.3,1.1,2.6,2.5,3.3c1.5,0.7,3.1,0.1,4.7,0c1.7-0.1,3.2,1,4.9,0.4c2.9-0.9,4.1-3.5,5.1-6.2c1.3-3.7,2.5-7.7-0.3-11
				c-0.6-0.7-1.3-1.2-2.2-1.3C27.4,21.9,26.6,25.3,24.2,25.1z"/>
			<path class="st6" d="M24.1,17.3c0.3,0.6,0.9,1.8,1,3.3c0.1,1.9-0.5,3.4-0.8,4"/>
		</g>
		<g>
			<path class="st5" d="M12.9-79c-1.9-0.1-2.1-2.6-4.5-3c-2.6-0.4-4.9,1.7-5.8,4c-0.7,1.8-0.7,3.8-0.4,5.7s1,3.6,1.7,5.3
				c0.5,1.3,1.1,2.6,2.5,3.3c1.5,0.7,3.1,0.1,4.7,0c1.7-0.1,3.2,1,4.9,0.4c2.9-0.9,4.1-3.5,5.1-6.2c1.3-3.7,2.5-7.7-0.3-11
				c-0.6-0.7-1.3-1.2-2.2-1.3C16.1-82.1,15.2-78.8,12.9-79z"/>
			<path class="st5" d="M12.8-86.8c0.3,0.6,0.9,1.8,1,3.3c0.1,1.9-0.5,3.4-0.8,4"/>
		</g>
		<g>
			<path class="st5" d="M83-36.2c-1.9-0.1-2.1-2.6-4.5-3c-2.6-0.4-4.9,1.7-5.8,4c-0.7,1.8-0.7,3.8-0.4,5.7s1,3.6,1.7,5.3
				c0.5,1.3,1.1,2.6,2.5,3.3c1.5,0.7,3.1,0.1,4.7,0c1.7-0.1,3.2,1,4.9,0.4c2.9-0.9,4.1-3.5,5.1-6.2c1.3-3.7,2.5-7.7-0.3-11
				c-0.6-0.7-1.3-1.2-2.2-1.3C86.1-39.3,85.3-36,83-36.2z"/>
			<path class="st5" d="M82.9-44c0.3,0.6,0.9,1.8,1,3.3c0.1,1.9-0.5,3.4-0.8,4"/>
		</g>
		<g>
			<path class="st5" d="M144.1,22.1c-1.9-0.1-2.1-2.6-4.5-3c-2.6-0.4-4.9,1.7-5.8,4c-0.7,1.8-0.7,3.8-0.4,5.7c0.3,1.9,1,3.6,1.7,5.3
				c0.5,1.3,1.1,2.6,2.5,3.3c1.5,0.7,3.1,0.1,4.7,0c1.7-0.1,3.2,1,4.9,0.4c2.9-0.9,4.1-3.5,5.1-6.2c1.3-3.7,2.5-7.7-0.3-11
				c-0.6-0.7-1.3-1.2-2.2-1.3C147.3,18.9,146.5,22.2,144.1,22.1z"/>
			<path class="st5" d="M144,14.3c0.3,0.6,0.9,1.8,1,3.3c0.1,1.9-0.5,3.4-0.8,4"/>
		</g>
		<g>
			<path class="st5" d="M205.7-121.3c-1.9-0.1-2.1-2.6-4.5-3c-2.6-0.4-4.9,1.7-5.8,4c-0.7,1.8-0.7,3.8-0.4,5.7
				c0.3,1.9,1,3.6,1.7,5.3c0.5,1.3,1.1,2.6,2.5,3.3c1.5,0.7,3.1,0.1,4.7,0c1.7-0.1,3.2,1,4.9,0.4c2.9-0.9,4.1-3.5,5.1-6.2
				c1.3-3.7,2.5-7.7-0.3-11c-0.6-0.7-1.3-1.2-2.2-1.3C208.9-124.5,208-121.2,205.7-121.3z"/>
			<path class="st5" d="M205.6-129.1c0.3,0.6,0.9,1.8,1,3.3c0.1,1.9-0.5,3.4-0.8,4"/>
		</g>
		<g>
			<path class="st5" d="M234.3,3.8c-1.9-0.1-2.1-2.6-4.5-3c-2.6-0.4-4.9,1.7-5.8,4c-0.7,1.8-0.7,3.8-0.4,5.7c0.3,1.9,1,3.6,1.7,5.3
				c0.5,1.3,1.1,2.6,2.5,3.3c1.5,0.7,3.1,0.1,4.7,0c1.7-0.1,3.2,1,4.9,0.4c2.9-0.9,4.1-3.5,5.1-6.2c1.3-3.7,2.5-7.7-0.3-11
				c-0.6-0.7-1.3-1.2-2.2-1.3C237.5,0.7,236.7,4,234.3,3.8z"/>
			<path class="st5" d="M234.2-3.9c0.3,0.6,0.9,1.8,1,3.3c0.1,1.9-0.5,3.4-0.8,4"/>
		</g>
		<g>
			<path class="st5" d="M162.4-57.2c-1.9-0.1-2.1-2.6-4.5-3c-2.6-0.4-4.9,1.7-5.8,4c-0.7,1.8-0.7,3.8-0.4,5.7c0.3,1.9,1,3.6,1.7,5.3
				c0.5,1.3,1.1,2.6,2.5,3.3c1.5,0.7,3.1,0.1,4.7,0c1.7-0.1,3.2,1,4.9,0.4c2.9-0.9,4.1-3.5,5.1-6.2c1.3-3.7,2.5-7.7-0.3-11
				c-0.6-0.7-1.3-1.2-2.2-1.3C165.6-60.4,164.7-57,162.4-57.2z"/>
			<path class="st5" d="M162.3-65c0.3,0.6,0.9,1.8,1,3.3c0.1,1.9-0.5,3.4-0.8,4"/>
		</g>
		<g>
			<path class="st5" d="M72.8-128.1c-1.9-0.1-2.1-2.6-4.5-3c-2.6-0.4-4.9,1.7-5.8,4c-0.7,1.8-0.7,3.8-0.4,5.7s1,3.6,1.7,5.3
				c0.5,1.3,1.1,2.6,2.5,3.3c1.5,0.7,3.1,0.1,4.7,0c1.7-0.1,3.2,1,4.9,0.4c2.9-0.9,4.1-3.5,5.1-6.2c1.3-3.7,2.5-7.7-0.3-11
				c-0.6-0.7-1.3-1.2-2.2-1.3C75.9-131.2,75.1-127.9,72.8-128.1z"/>
			<path class="st5" d="M72.7-135.9c0.3,0.6,0.9,1.8,1,3.3c0.1,1.9-0.5,3.4-0.8,4"/>
		</g>
		<g>
			<path class="st6" d="M162.4-57.2c-1.9-0.1-2.1-2.6-4.5-3c-2.6-0.4-4.9,1.7-5.8,4c-0.7,1.8-0.7,3.8-0.4,5.7c0.3,1.9,1,3.6,1.7,5.3
				c0.5,1.3,1.1,2.6,2.5,3.3c1.5,0.7,3.1,0.1,4.7,0c1.7-0.1,3.2,1,4.9,0.4c2.9-0.9,4.1-3.5,5.1-6.2c1.3-3.7,2.5-7.7-0.3-11
				c-0.6-0.7-1.3-1.2-2.2-1.3C165.6-60.4,164.7-57,162.4-57.2z"/>
			<path class="st6" d="M162.3-65c0.3,0.6,0.9,1.8,1,3.3c0.1,1.9-0.5,3.4-0.8,4"/>
		</g>
		<g>
			<path class="st6" d="M83-36.2c-1.9-0.1-2.1-2.6-4.5-3c-2.6-0.4-4.9,1.7-5.8,4c-0.7,1.8-0.7,3.8-0.4,5.7s1,3.6,1.7,5.3
				c0.5,1.3,1.1,2.6,2.5,3.3c1.5,0.7,3.1,0.1,4.7,0c1.7-0.1,3.2,1,4.9,0.4c2.9-0.9,4.1-3.5,5.1-6.2c1.3-3.7,2.5-7.7-0.3-11
				c-0.6-0.7-1.3-1.2-2.2-1.3C86.1-39.3,85.3-36,83-36.2z"/>
			<path class="st6" d="M82.9-44c0.3,0.6,0.9,1.8,1,3.3c0.1,1.9-0.5,3.4-0.8,4"/>
		</g>
		<g>
			<path class="st6" d="M144.1,22.1c-1.9-0.1-2.1-2.6-4.5-3c-2.6-0.4-4.9,1.7-5.8,4c-0.7,1.8-0.7,3.8-0.4,5.7c0.3,1.9,1,3.6,1.7,5.3
				c0.5,1.3,1.1,2.6,2.5,3.3c1.5,0.7,3.1,0.1,4.7,0c1.7-0.1,3.2,1,4.9,0.4c2.9-0.9,4.1-3.5,5.1-6.2c1.3-3.7,2.5-7.7-0.3-11
				c-0.6-0.7-1.3-1.2-2.2-1.3C147.3,18.9,146.5,22.2,144.1,22.1z"/>
			<path class="st6" d="M144,14.3c0.3,0.6,0.9,1.8,1,3.3c0.1,1.9-0.5,3.4-0.8,4"/>
		</g>
	</g>
</g>
<g id="Layer_5" class="st0">
	<ellipse class="st7" cx="154.5" cy="148.2" rx="119.8" ry="146.8"/>
	<path class="st8" d="M100-107.8c-4.4-0.1-14-16.3-16-18.9c-9.5-12-17.8-24.9-29.4-36.2c3.4,3.2,51.7,18.3,53.3,18.1
		c10.4-1,17-20.2,21.8-25.2c-2.8,2.9,34.5,24.4,39.1,27.8c0.1,0.1,34.1-21.4,36.6-24.3c8.6,9.3,17.3,18.5,25.9,27.8
		c-1.6-2.4,41.7-20.7,46.7-23.2c-5.3,2.7-23.1,46.1-29.6,59C198.8-104.6,149.4-106.2,100-107.8z"/>
	<path class="st8" d="M120.7-68.4c-3.4-0.1-10.5-16.1-12.1-18.7c-7.1-11.8-13.3-24.6-22.1-35.8c2.5,3.2,39.6,17.5,40.8,17.3
		c8-1.1,13.4-20.5,17.1-25.5c-2.2,2.9,26.2,23.9,29.7,27.2c0.1,0.1,26.6-21.9,28.5-24.8c6.5,9.1,13.1,18.2,19.6,27.4
		c-1.2-2.4,32.4-21.3,36.3-23.9c-4.2,2.7-18.5,46.4-23.6,59.4C196.8-66.7,158.8-67.6,120.7-68.4z"/>
	<path class="st8" d="M133.7-37.2c-2.7,0-8.2-16-9.4-18.5c-5.6-11.7-10.4-24.5-17.3-35.5c2,3.2,31.5,17,32.5,16.8
		c6.4-1.2,11-20.6,14-25.7c-1.8,2.9,20.7,23.6,23.5,26.8c0,0.1,21.6-22.2,23.2-25.2c5.1,9,10.2,18.1,15.3,27.1
		c-1-2.4,26.2-21.7,29.4-24.3c-3.4,2.8-15.4,46.6-19.7,59.6C194.6-36.3,164.2-36.7,133.7-37.2z"/>
	<path class="st9" d="M151.1,15c0,0-56-2.9-73.1,2.8S34.9,52.5,30.7,66.9c-4.2,14.3-3.2,62-3.2,62l122.3-0.1L151.1,15z"/>
	<path class="st9" d="M26.7,152.2c0,0-3.1,26.5-2.7,43.4c-0.3,16.3,4,40.9,4,40.9l123.3-1.2l-1.5-82.6L26.7,152.2z"/>
	<path class="st9" d="M170.7,14.9c0,0,56-1.7,73.1,4.4c17,6.1,38.9,35.1,45.2,46.1c6.3,11,4.8,63,4.8,63l-122.3,0.2L170.7,14.9z"/>
	<path class="st9" d="M296.9,152.8c0,0,3,26.5,2.7,43.4c0.3,16.3-4,40.9-4,40.9l-123.3-1.4l0.6-82.6L296.9,152.8z"/>
	<path class="st9" d="M151,372c0,0-56,2.3-73.1-3.6s-42.7-35.2-46.8-49.6c-4.1-14.4-2.6-62-2.6-62l122.3,1.4L151,372z"/>
	<path class="st9" d="M176.1,371.1c0,0,56,2.4,73.1-3.5s42.7-35.2,46.8-49.5c4.1-14.4,2.6-62,2.6-62l-122.3,1.3L176.1,371.1z"/>
	<line class="st10" x1="31.1" y1="84" x2="116.5" y2="13.7"/>
	<line class="st10" x1="28.4" y1="123.3" x2="148.9" y2="28.6"/>
	<line class="st10" x1="85.3" y1="127.3" x2="148.9" y2="75.9"/>
	<line class="st10" x1="30.4" y1="60.7" x2="122.4" y2="125.6"/>
	<line class="st10" x1="50.1" y1="35.3" x2="148.9" y2="105.7"/>
	<line class="st10" x1="78" y1="17.8" x2="150.2" y2="59.7"/>
	<line class="st10" x1="25.7" y1="100.3" x2="69.9" y2="127.9"/>
	<line class="st10" x1="181.9" y1="15.7" x2="293.8" y2="120.5"/>
	<line class="st10" x1="217.9" y1="16.4" x2="295" y2="86.8"/>
	<line class="st10" x1="169.9" y1="83.3" x2="217.5" y2="127.7"/>
	<line class="st10" x1="171.5" y1="45.2" x2="255.2" y2="126.6"/>
	<line class="st10" x1="227.3" y1="17.8" x2="169.1" y2="59.7"/>
	<line class="st10" x1="267.9" y1="36.7" x2="173.2" y2="120.6"/>
	<line class="st10" x1="221.6" y1="128.3" x2="290.9" y2="71.9"/>
	<line class="st10" x1="25" y1="186.3" x2="84.2" y2="154.2"/>
	<line class="st10" x1="26" y1="221.2" x2="147.4" y2="157.1"/>
	<line class="st10" x1="70.6" y1="234.8" x2="150.3" y2="196"/>
	<line class="st10" x1="23" y1="176.5" x2="110.5" y2="234.8"/>
	<line class="st10" x1="50.2" y1="152.3" x2="152.2" y2="221.2"/>
	<line class="st10" x1="111.4" y1="153.2" x2="151.3" y2="175.6"/>
	<line class="st10" x1="25" y1="206.7" x2="70.6" y2="234.8"/>
	<line class="st10" x1="226" y1="234.8" x2="299.6" y2="196.2"/>
	<line class="st10" x1="173.6" y1="224.1" x2="297.9" y2="160"/>
	<line class="st10" x1="172.6" y1="183.3" x2="237.7" y2="153.2"/>
	<line class="st10" x1="189.1" y1="153.2" x2="297.9" y2="219.3"/>
	<line class="st10" x1="251.3" y1="151.3" x2="300.8" y2="181.4"/>
	<line class="st10" x1="172.6" y1="183.3" x2="261" y2="233.9"/>
	<line class="st10" x1="172.6" y1="211.5" x2="215.4" y2="234.8"/>
	<line class="st10" x1="53.1" y1="348.5" x2="150.9" y2="258.3"/>
	<line class="st10" x1="29.8" y1="313.5" x2="93.9" y2="257.2"/>
	<line class="st10" x1="100.7" y1="370.8" x2="150.3" y2="325.2"/>
	<line class="st10" x1="57" y1="257.2" x2="150.3" y2="307.7"/>
	<line class="st10" x1="28.9" y1="282.4" x2="151.3" y2="346.5"/>
	<line class="st10" x1="37.6" y1="329" x2="134.7" y2="372.7"/>
	<line class="st10" x1="117.3" y1="256.2" x2="149.3" y2="273.7"/>
	<line class="st10" x1="252.3" y1="258.1" x2="297.9" y2="282.4"/>
	<line class="st10" x1="187.2" y1="258.1" x2="296" y2="318.1"/>
	<line class="st10" x1="175.5" y1="297" x2="272.7" y2="349.4"/>
	<line class="st10" x1="175.5" y1="336.8" x2="229.9" y2="368.9"/>
	<line class="st10" x1="175.5" y1="307.7" x2="230.9" y2="257.2"/>
	<line class="st10" x1="175.5" y1="349.4" x2="298.7" y2="256.1"/>
	<line class="st10" x1="202.7" y1="370.9" x2="296.9" y2="298"/>
</g>
<g id="Layer_12" class="st0">
	<path class="st9" d="M223.6-4.7c0,0-56-2.9-73.1,2.8c-17.2,5.8-43.1,34.7-47.3,49.1c-4.2,14.3-3.2,62-3.2,62l122.3-0.1L223.6-4.7z"
		/>
	<line class="st10" x1="103.6" y1="64.3" x2="189" y2="-6"/>
	<line class="st10" x1="100.9" y1="103.6" x2="221.3" y2="8.9"/>
	<line class="st10" x1="157.8" y1="107.6" x2="221.3" y2="56.2"/>
	<line class="st10" x1="102.9" y1="41" x2="194.9" y2="105.9"/>
	<line class="st10" x1="122.6" y1="15.6" x2="221.3" y2="86"/>
	<line class="st10" x1="150.5" y1="-1.9" x2="222.7" y2="40"/>
	<line class="st10" x1="98.2" y1="80.6" x2="142.4" y2="108.1"/>
</g>
<g id="Layer_13" class="st0">
	<path class="st9" d="M122,3.3c0,0,56-1.7,73.1,4.4c17,6.1,38.9,35.1,45.2,46.1c6.3,11,4.8,63,4.8,63l-122.3,0.3L122,3.3z"/>
	<line class="st10" x1="133.2" y1="4" x2="245.1" y2="108.8"/>
	<line class="st10" x1="169.2" y1="4.8" x2="246.3" y2="75.1"/>
	<line class="st10" x1="121.2" y1="71.7" x2="168.8" y2="116.1"/>
	<line class="st10" x1="122.8" y1="33.6" x2="206.5" y2="115"/>
	<line class="st10" x1="178.6" y1="6.1" x2="120.4" y2="48.1"/>
	<line class="st10" x1="219.2" y1="25.1" x2="124.5" y2="109"/>
	<line class="st10" x1="172.9" y1="116.7" x2="242.2" y2="60.3"/>
</g>
<g id="Layer_14" class="st0">
	<path class="st9" d="M228.5,80.7c0,0,3,26.5,2.7,43.4c0.3,16.3-4,40.9-4,40.9l-123.3-1.4l0.6-82.6L228.5,80.7z"/>
	<line class="st10" x1="157.6" y1="162.7" x2="231.1" y2="124.1"/>
	<line class="st10" x1="105.1" y1="152" x2="229.4" y2="87.9"/>
	<line class="st10" x1="104.1" y1="111.2" x2="169.2" y2="81.1"/>
	<line class="st10" x1="120.7" y1="81.1" x2="229.4" y2="147.2"/>
	<line class="st10" x1="182.8" y1="79.2" x2="232.4" y2="109.3"/>
	<line class="st10" x1="104.1" y1="111.2" x2="199.7" y2="165.3"/>
	<line class="st10" x1="104.1" y1="139.4" x2="146.9" y2="162.7"/>
</g>
<g id="Layer_15" class="st0">
	<path class="st9" d="M257.9,189.7c0,0-56,2.3-73.1-3.6s-42.7-35.2-46.8-49.6c-4.1-14.4-2.6-62-2.6-62l122.3,1.4L257.9,189.7z"/>
	<line class="st10" x1="160" y1="166.2" x2="257.7" y2="75.9"/>
	<line class="st10" x1="136.7" y1="131.2" x2="200.8" y2="74.8"/>
	<line class="st10" x1="207.6" y1="188.5" x2="257.1" y2="142.9"/>
	<line class="st10" x1="163.9" y1="74.8" x2="257.2" y2="125.4"/>
	<line class="st10" x1="135.7" y1="100.1" x2="258.1" y2="164.2"/>
	<line class="st10" x1="144.5" y1="146.7" x2="241.6" y2="190.4"/>
	<line class="st10" x1="224.1" y1="73.9" x2="256.2" y2="91.4"/>
</g>
<g id="Layer_16" class="st0">
	<path class="st9" d="M109.8,183.2c0,0,56,2.4,73.1-3.5s42.7-35.2,46.8-49.5c4.1-14.4,2.6-62,2.6-62L110,69.5L109.8,183.2z"/>
	<line class="st10" x1="186" y1="70.2" x2="231.6" y2="94.5"/>
	<line class="st10" x1="120.9" y1="70.2" x2="229.8" y2="130.2"/>
	<line class="st10" x1="109.3" y1="109.1" x2="206.4" y2="161.5"/>
	<line class="st10" x1="109.3" y1="148.9" x2="163.6" y2="181"/>
	<line class="st10" x1="109.3" y1="119.8" x2="164.6" y2="69.3"/>
	<line class="st10" x1="109.3" y1="161.5" x2="232.4" y2="68.2"/>
	<line class="st10" x1="136.4" y1="183" x2="230.6" y2="110.1"/>
</g>
<g id="Layer_17" class="st0">
	<path class="st9" d="M111.8,42.4c0,0-3.1,26.5-2.7,43.4c-0.3,16.3,4,40.9,4,40.9l123.3-1.2l-1.5-82.6L111.8,42.4z"/>
	<line class="st10" x1="110.1" y1="76.4" x2="169.3" y2="44.4"/>
	<line class="st10" x1="111.1" y1="111.4" x2="232.5" y2="47.3"/>
	<line class="st10" x1="155.8" y1="125" x2="235.4" y2="86.1"/>
	<line class="st10" x1="108.2" y1="66.7" x2="195.6" y2="125"/>
	<line class="st10" x1="135.4" y1="42.4" x2="237.3" y2="111.4"/>
	<line class="st10" x1="196.5" y1="43.4" x2="236.4" y2="65.7"/>
	<line class="st10" x1="110.1" y1="96.8" x2="155.8" y2="125"/>
</g>
<g id="Layer_6" class="st0">
	<line class="st11" x1="34.7" y1="154.5" x2="174.5" y2="3.5"/>
	<line class="st11" x1="43.4" y1="198.6" x2="210.8" y2="17.7"/>
	<line class="st11" x1="59.7" y1="234.9" x2="236.8" y2="43.6"/>
	<line class="st11" x1="81.2" y1="265.7" x2="258.3" y2="74.4"/>
	<line class="st11" x1="111.8" y1="285" x2="271" y2="114"/>
	<line class="st11" x1="160" y1="295.5" x2="273" y2="170.1"/>
	<line class="st11" x1="262.1" y1="217.4" x2="77.5" y2="38.2"/>
	<line class="st11" x1="238.6" y1="252.7" x2="52.4" y2="73"/>
	<line class="st11" x1="207.1" y1="283.6" x2="37.2" y2="118.6"/>
	<line class="st11" x1="274" y1="171.1" x2="107.4" y2="11.1"/>
	<line class="st11" x1="271" y1="114" x2="160.9" y2="1.9"/>
	<line class="st11" x1="160" y1="295.5" x2="34.7" y2="170.1"/>
	<line class="st11" x1="41.3" y1="98.8" x2="128.2" y2="5"/>
</g>
<g id="Layer_7" class="st0">
	<path class="st12" d="M267.6,22.1c0,10.7-1.6,32.6-14.7,55.5c-3.9,6.8-12.9,22-30.6,34c-23.6,15.9-47.8,15.9-68,15.9
		c-20.5,0-53.2-0.1-80.4-22.7C60.6,93.7,53.5,81.3,50.1,75.4c-12.6-22.5-14.6-44-14.7-55.3L267.6,22.1z"/>
	<path class="st13" d="M35.1,22.3c1.5-12.7,7.4-47.4,35.9-73c41.6-37.3,110.1-35.9,153.1-1.9c32.7,25.8,41.1,62.8,43.4,75.6"/>
	<line class="st13" x1="40.7" y1="49.9" x2="91.2" y2="20"/>
	<line class="st13" x1="50.1" y1="73.7" x2="139.3" y2="21"/>
	<line class="st13" x1="63.1" y1="95.7" x2="187.8" y2="22"/>
	<line class="st13" x1="86.8" y1="113.5" x2="241.7" y2="21.9"/>
	<line class="st13" x1="121.4" y1="125.8" x2="266.6" y2="39.9"/>
	<line class="st13" x1="162.9" y1="127.4" x2="255.4" y2="72.7"/>
	<line class="st13" x1="223.9" y1="22" x2="262.9" y2="53.2"/>
	<line class="st13" x1="182.9" y1="22.1" x2="252.8" y2="77.6"/>
	<line class="st13" x1="142.2" y1="22.1" x2="238" y2="98.2"/>
	<line class="st13" x1="96.4" y1="20.6" x2="215.8" y2="115.5"/>
	<line class="st13" x1="51.6" y1="20" x2="185.6" y2="126.4"/>
	<line class="st13" x1="38.4" y1="42.2" x2="145.6" y2="127.4"/>
	<line class="st13" x1="51" y1="77.6" x2="107.3" y2="122.3"/>
</g>
<g id="Layer_7_copy_5">
	<path class="st14" d="M176.3,15.8c4.4-6,14.8-16.4,15.2-23.6c0.4-7.3,0.8-30.8,2-35.6s9.4,7.8,10.2,12.6c0.8,4.8,3.9,19.9,2.5,25.2
		s-6.5,15.7-9.7,18.5s-7.3,8-13.2,12c-6.1,2.4-10,6.6-16.1,6.6C161.1,31.6,171.9,21.9,176.3,15.8z"/>
	<path class="st14" d="M198.7,17.4c2.5-6.8,9.5-19.2,7.8-25.9s-8-28.2-8.2-32.8c-0.2-4.7,11.2,4.3,13.3,8.4
		c2.1,4.1,9.4,16.9,9.5,22.1c0.1,5.2-1.8,16.2-4,19.7s-4.7,9.4-9.2,14.8c-5.1,4-7.7,8.9-13.5,10.8C188.7,36.2,196.3,24.1,198.7,17.4
		z"/>
	<path class="st14" d="M155.6,1.6c6.2-3.6,19.6-8.7,22.6-15c3-6.2,11.9-26.7,14.7-30.5c2.8-3.7,5.9,10.5,4.9,15s-3.6,19-6.8,23.1
		c-3.2,4.1-11.7,11.3-15.7,12.6c-3.9,1.3-9.6,4.3-16.5,5.5c-6.5-0.3-11.6,2-17.3-0.4S149.4,5.2,155.6,1.6z"/>
	<path class="st15" d="M192.2-41.3c0.2-3.8,0-15,0-18.5s10.5-3.5,10.5,0s2.4,15,0,18.5C200.4-37.8,192-37.5,192.2-41.3z"/>
	<g class="st0">
		<ellipse transform="matrix(0.8054 -0.5928 0.5928 0.8054 5.9351 25.8522)" class="st16" cx="42.3" cy="3.9" rx="8.5" ry="8.9"/>
		<ellipse transform="matrix(0.8054 -0.5928 0.5928 0.8054 14.5566 32.0286)" class="st16" cx="56.1" cy="-6.2" rx="8.5" ry="8.9"/>
		<ellipse transform="matrix(0.8054 -0.5928 0.5928 0.8054 23.1636 38.118)" class="st16" cx="69.6" cy="-16.2" rx="8.5" ry="8.9"/>
		
			<ellipse transform="matrix(0.8054 -0.5928 0.5928 0.8054 31.7851 44.2944)" class="st16" cx="83.3" cy="-26.3" rx="8.5" ry="8.9"/>
		<ellipse transform="matrix(0.8054 -0.5928 0.5928 0.8054 4.6891 36.7745)" class="st16" cx="58.3" cy="11.2" rx="8.5" ry="8.9"/>
		<ellipse transform="matrix(0.8054 -0.5928 0.5928 0.8054 13.2961 42.8639)" class="st16" cx="71.9" cy="1.2" rx="8.5" ry="8.9"/>
		<ellipse transform="matrix(0.8054 -0.5928 0.5928 0.8054 21.9177 49.0403)" class="st16" cx="85.6" cy="-8.9" rx="8.5" ry="8.9"/>
		<ellipse transform="matrix(0.8054 -0.5928 0.5928 0.8054 3.3141 47.8012)" class="st16" cx="74.4" cy="18.9" rx="8.5" ry="8.9"/>
		<ellipse transform="matrix(0.8054 -0.5928 0.5928 0.8054 11.921 53.8905)" class="st16" cx="88" cy="8.8" rx="8.5" ry="8.9"/>
		<ellipse transform="matrix(0.8054 -0.5928 0.5928 0.8054 2.0376 58.7139)" class="st16" cx="90.4" cy="26.3" rx="8.5" ry="8.9"/>
		<path class="st17" d="M56.2-16.2c-0.3,1.4-9.6,2.2-10.9,1.8c-1.9,0.2-11.3-4.7-10.8-7.2s10.2-3.1,11.9-2.6S56.5-17.7,56.2-16.2z"
			/>
		<path class="st17" d="M58.9-41.5c2.9,0.8,4.4,12.7,4.5,14.7s-6.9,11.3-8.1,11.3c-1.2,0-6.4-11.1-5.3-14.9
			C51.2-34.2,56.1-42.3,58.9-41.5z"/>
	</g>
	<g class="st0">
		<path class="st18" d="M124.9-2.9c0,0,1.1-13.5,0.8-18.9s-2.2-6.1-2.5-10.5c-1.5-3,5.2-1,6.7,0.3c1.5,1.3,3.3,8.9,3.1,14.8
			c-0.2,5.9-0.6,14.7-0.6,14.7L124.9-2.9z"/>
		<ellipse transform="matrix(0.1431 -0.9897 0.9897 0.1431 95.6252 134.4404)" class="st19" cx="125.5" cy="12" rx="26" ry="26"/>
	</g>
	<ellipse transform="matrix(0.1431 -0.9897 0.9897 0.1431 202.1025 246.4692)" class="st20" cx="243.4" cy="6.5" rx="26" ry="26"/>
	<g>
		<path class="st21" d="M121.2,154.8c-1.6,0.9-3,5.3-1.6,6.8s68.9,2.5,70.2,0.5s0.3-4.9-2.1-6.7C185.3,153.5,122.8,154,121.2,154.8z
			"/>
		<path class="st21" d="M9.5,35.6c0.1,2,6.3,3.5,18.6,6.6c35.3,8.8,63.2,8.2,83.5,7.8c78.2-1.5,61.8,0.1,92.1-1.4
			c45.5-2.2,92.1-4.4,92.5-10.9c0-0.7-0.4-4-22.3-9.2C180.4,6,8.6,22,9.5,35.6z"/>
		<path class="st22" d="M268.6,46.1c0,10.7-1.6,32.6-14.7,55.5c-3.9,6.8-12.9,22-30.6,34c-23.6,15.9-47.8,15.9-68,15.9
			c-20.5,0-53.2-0.1-80.4-22.7c-13.3-11.1-20.4-23.5-23.8-29.4c-12.6-22.5-14.6-44-14.7-55.3L268.6,46.1z"/>
	</g>
</g>
<g id="Layer_7_copy" class="st0">
	<path class="st12" d="M267.6,22.1c0,10.7-1.6,32.6-14.7,55.5c-3.9,6.8-12.9,22-30.6,34c-23.6,15.9-47.8,15.9-68,15.9
		c-20.5,0-53.2-0.1-80.4-22.7C60.6,93.7,53.5,81.3,50.1,75.4c-12.6-22.5-14.6-44-14.7-55.3L267.6,22.1z"/>
	<path class="st13" d="M35.1,22.3c1.5-12.7,7.4-47.4,35.9-73c41.6-37.3,110.1-35.9,153.1-1.9c32.7,25.8,41.1,62.8,43.4,75.6"/>
	<line class="st13" x1="40.7" y1="49.9" x2="91.2" y2="20"/>
	<line class="st13" x1="50.1" y1="73.7" x2="139.3" y2="21"/>
	<line class="st13" x1="63.1" y1="95.7" x2="187.8" y2="22"/>
	<line class="st13" x1="86.8" y1="113.5" x2="241.7" y2="21.9"/>
	<line class="st13" x1="121.4" y1="125.8" x2="266.6" y2="39.9"/>
	<line class="st13" x1="162.9" y1="127.4" x2="255.4" y2="72.7"/>
	<line class="st13" x1="223.9" y1="22" x2="262.9" y2="53.2"/>
	<line class="st13" x1="182.9" y1="22.1" x2="252.8" y2="77.6"/>
	<line class="st13" x1="142.2" y1="22.1" x2="238" y2="98.2"/>
	<line class="st13" x1="96.4" y1="20.6" x2="215.8" y2="115.5"/>
	<line class="st13" x1="51.6" y1="20" x2="185.6" y2="126.4"/>
	<line class="st13" x1="38.4" y1="42.2" x2="145.6" y2="127.4"/>
	<line class="st13" x1="51" y1="77.6" x2="107.3" y2="122.3"/>
	<path class="st23" d="M109.5-9.7c1.9,4.9-3.3,6.7-9.3,23.7c-4,11.2-5.2,25.9-7.4,55.1c-0.8,10.8-1.6,21.2-2,35.5
		c0,1.8-0.8,18.3,0.2,36.9c1.6,30,3.6,63.5,12.6,107.8c6.5,31.6,14.5,58.5,21.9,80l9,19.7c-3-2.9-7.4-7-12.7-12
		c-16.5-15.3-20.7-19.2-21.6-18.4c-1.3,1.1,5.6,9.4,10.7,24.7c3.1,9.4,5.6,21.7,3.4,22.6c-2.2,0.9-7.2-10.6-19.9-26
		c-9.7-11.8-22.9-24.7-26-22.6c-2.8,1.9,6.1,13.6,4.7,32.2c-0.6,8.6-3.2,18.4-6.2,18.5c-3.4,0.1-3.3-13.2-12.5-28.4
		c-6.1-10-18.3-24.3-26.6-21.6c-6.5,2.1-8,13.9-8.4,16.5c-2.4,18.3,9.7,31.4,7.6,32.8c-2.4,1.6-18.8-10.7-24.6-29.7
		c-2.6-8.4-2.4-15.8-5.1-16.1c-2.8-0.4-4.3,7.6-11.9,17c-6.6,8.2-15.9,15.1-17.8,13.6c-2.3-1.8,5.5-14.7,9.7-22.6
		c10.5-19.8,13.1-40.1,20.8-80.3c2.3-12.2,4.1-23.6,5.5-34.3c1.9-14.7,5.4-41.3,5.6-73.6C9.4,88.6,1.1,26.2-1.9,14
		c-3-12.2-8.2-22.3-9.7-23.5l0,0C-11.7-11.7,100.8-32,109.5-9.7z"/>
	<path class="st24" d="M207.8-58.5c-0.7-5.8-2.3-19-12.2-30.6c-9.7-11.4-22.6-15.6-31.6-18.5c-12.1-3.9-21.7-4.2-21.7-5.9
		s8.7-1.3,17.3-4.4c14.3-5.1,25.5-18.4,30.2-31.7c9.5-26.9-8.4-51.2-11.8-55.8c-15.9-21.6-39.3-26.6-48.3-27.9
		c-1.2-0.2-2.1-0.3-2.9-0.4c-6.8-0.7-37.4-4.1-47.8,10.5c-5.5,7.7-3.6,16.4-6.5,16.7c-3.1,0.3-4.8-10.5-9.6-18.5
		c-13.7-22.6-56.5-28.5-86.8-16.1c-6.9,2.8-20.6,8.7-28.6,22.9c-2.3,4.2-8.7,15.6-5.3,27.1c1.9,6.3,5.5,8.4,4.3,10.7
		c-2.6,5.1-20.8-5.5-42.6,0c-4.7,1.1-13.7,3.4-21.6,10.8c-12.8,11.8-19.2,33.2-12,50.7c7.8,18.8,28.3,25.8,33.6,27.6
		c9.4,3.2,18.7,3.7,18.7,5.2c-0.1,1.8-12.8-0.8-23.9,6c-11.4,6.9-17,21.3-17.2,33.6c0,3.2,0.1,15.7,9,26.9
		c10.9,13.8,29.9,17.9,44,16.4c16.2-1.7,22.2-10.6,41.4-9.3c8.8,0.6,12.4,2.8,14.5,4.5c4.8,4,112.7,5.4,121,0.1
		c11.5-7.3,24.1,8,47.7,6.5c17.3-1.1,36.9-11,45.1-27.9C209.8-40.9,208.5-52.4,207.8-58.5z"/>
	<g class="st2">
		<path class="st5" d="M80.4-10.5c-3.7-0.3-4-4.5-8.5-5.2c-4.9-0.8-9.2,3-10.9,6.9c-1.3,3.1-1.4,6.6-0.7,10c0.6,3.2,2,6.2,3.1,9.3
			c0.9,2.3,2.1,4.6,4.7,5.7c2.8,1.2,5.9,0.2,8.9,0c3.3-0.2,6,1.7,9.3,0.7c5.6-1.6,7.8-6.1,9.6-10.8c2.5-6.4,4.7-13.4-0.7-19.2
			c-1.1-1.2-2.5-2.1-4.2-2.3C86.4-16,84.8-10.2,80.4-10.5z"/>
		<path class="st5" d="M80.2-24c0.7,1.1,1.7,3.1,1.8,5.8c0.2,3.3-1,5.9-1.6,7"/>
	</g>
</g>
<g id="Layer_7_copy_2" class="st0">
	<path class="st12" d="M267.6,22.1c0,10.7-1.6,32.6-14.7,55.5c-3.9,6.8-12.9,22-30.6,34c-23.6,15.9-47.8,15.9-68,15.9
		c-20.5,0-53.2-0.1-80.4-22.7C60.6,93.7,53.5,81.3,50.1,75.4c-12.6-22.5-14.6-44-14.7-55.3L267.6,22.1z"/>
	<path class="st13" d="M35.1,22.3c1.5-12.7,7.4-47.4,35.9-73c41.6-37.3,110.1-35.9,153.1-1.9c32.7,25.8,41.1,62.8,43.4,75.6"/>
	<line class="st13" x1="40.7" y1="49.9" x2="91.2" y2="20"/>
	<line class="st13" x1="50.1" y1="73.7" x2="139.3" y2="21"/>
	<line class="st13" x1="63.1" y1="95.7" x2="187.8" y2="22"/>
	<line class="st13" x1="86.8" y1="113.5" x2="241.7" y2="21.9"/>
	<line class="st13" x1="121.4" y1="125.8" x2="266.6" y2="39.9"/>
	<line class="st13" x1="162.9" y1="127.4" x2="255.4" y2="72.7"/>
	<line class="st13" x1="223.9" y1="22" x2="262.9" y2="53.2"/>
	<line class="st13" x1="182.9" y1="22.1" x2="252.8" y2="77.6"/>
	<line class="st13" x1="142.2" y1="22.1" x2="238" y2="98.2"/>
	<line class="st13" x1="96.4" y1="20.6" x2="215.8" y2="115.5"/>
	<line class="st13" x1="51.6" y1="20" x2="185.6" y2="126.4"/>
	<line class="st13" x1="38.4" y1="42.2" x2="145.6" y2="127.4"/>
	<line class="st13" x1="51" y1="77.6" x2="107.3" y2="122.3"/>
	<g class="st2">
		<path class="st5" d="M80.4-10.5c-3.7-0.3-4-4.5-8.5-5.2c-4.9-0.8-9.2,3-10.9,6.9c-1.3,3.1-1.4,6.6-0.7,10c0.6,3.2,2,6.2,3.1,9.3
			c0.9,2.3,2.1,4.6,4.7,5.7c2.8,1.2,5.9,0.2,8.9,0c3.3-0.2,6,1.7,9.3,0.7c5.6-1.6,7.8-6.1,9.6-10.8c2.5-6.4,4.7-13.4-0.7-19.2
			c-1.1-1.2-2.5-2.1-4.2-2.3C86.4-16,84.8-10.2,80.4-10.5z"/>
		<path class="st5" d="M80.2-24c0.7,1.1,1.7,3.1,1.8,5.8c0.2,3.3-1,5.9-1.6,7"/>
	</g>
	<g class="st2">
		<path class="st5" d="M126.6-10.5c-3.7-0.3-4-4.5-8.5-5.2c-4.9-0.8-9.2,3-10.9,6.9c-1.3,3.1-1.4,6.6-0.7,10c0.6,3.2,2,6.2,3.1,9.3
			c0.9,2.3,2.1,4.6,4.7,5.7c2.8,1.2,5.9,0.2,8.9,0c3.3-0.2,6,1.7,9.3,0.7c5.6-1.6,7.8-6.1,9.6-10.8c2.5-6.4,4.7-13.4-0.7-19.2
			c-1.1-1.2-2.5-2.1-4.2-2.3C132.7-16,131.1-10.2,126.6-10.5z"/>
		<path class="st5" d="M126.5-24c0.7,1.1,1.7,3.1,1.8,5.8c0.2,3.3-1,5.9-1.6,7"/>
	</g>
</g>
<g id="Layer_7_copy_3" class="st0">
	<path class="st12" d="M267.6,22.1c0,10.7-1.6,32.6-14.7,55.5c-3.9,6.8-12.9,22-30.6,34c-23.6,15.9-47.8,15.9-68,15.9
		c-20.5,0-53.2-0.1-80.4-22.7C60.6,93.7,53.5,81.3,50.1,75.4c-12.6-22.5-14.6-44-14.7-55.3L267.6,22.1z"/>
	<path class="st13" d="M35.1,22.3c1.5-12.7,7.4-47.4,35.9-73c41.6-37.3,110.1-35.9,153.1-1.9c32.7,25.8,41.1,62.8,43.4,75.6"/>
	<line class="st13" x1="40.7" y1="49.9" x2="91.2" y2="20"/>
	<line class="st13" x1="50.1" y1="73.7" x2="139.3" y2="21"/>
	<line class="st13" x1="63.1" y1="95.7" x2="187.8" y2="22"/>
	<line class="st13" x1="86.8" y1="113.5" x2="241.7" y2="21.9"/>
	<line class="st13" x1="121.4" y1="125.8" x2="266.6" y2="39.9"/>
	<line class="st13" x1="162.9" y1="127.4" x2="255.4" y2="72.7"/>
	<line class="st13" x1="223.9" y1="22" x2="262.9" y2="53.2"/>
	<line class="st13" x1="182.9" y1="22.1" x2="252.8" y2="77.6"/>
	<line class="st13" x1="142.2" y1="22.1" x2="238" y2="98.2"/>
	<line class="st13" x1="96.4" y1="20.6" x2="215.8" y2="115.5"/>
	<line class="st13" x1="51.6" y1="20" x2="185.6" y2="126.4"/>
	<line class="st13" x1="38.4" y1="42.2" x2="145.6" y2="127.4"/>
	<line class="st13" x1="51" y1="77.6" x2="107.3" y2="122.3"/>
	<g class="st2">
		<path class="st5" d="M80.4-10.5c-3.7-0.3-4-4.5-8.5-5.2c-4.9-0.8-9.2,3-10.9,6.9c-1.3,3.1-1.4,6.6-0.7,10c0.6,3.2,2,6.2,3.1,9.3
			c0.9,2.3,2.1,4.6,4.7,5.7c2.8,1.2,5.9,0.2,8.9,0c3.3-0.2,6,1.7,9.3,0.7c5.6-1.6,7.8-6.1,9.6-10.8c2.5-6.4,4.7-13.4-0.7-19.2
			c-1.1-1.2-2.5-2.1-4.2-2.3C86.4-16,84.8-10.2,80.4-10.5z"/>
		<path class="st5" d="M80.2-24c0.7,1.1,1.7,3.1,1.8,5.8c0.2,3.3-1,5.9-1.6,7"/>
	</g>
	<g class="st2">
		<path class="st5" d="M126.6-10.5c-3.7-0.3-4-4.5-8.5-5.2c-4.9-0.8-9.2,3-10.9,6.9c-1.3,3.1-1.4,6.6-0.7,10c0.6,3.2,2,6.2,3.1,9.3
			c0.9,2.3,2.1,4.6,4.7,5.7c2.8,1.2,5.9,0.2,8.9,0c3.3-0.2,6,1.7,9.3,0.7c5.6-1.6,7.8-6.1,9.6-10.8c2.5-6.4,4.7-13.4-0.7-19.2
			c-1.1-1.2-2.5-2.1-4.2-2.3C132.7-16,131.1-10.2,126.6-10.5z"/>
		<path class="st5" d="M126.5-24c0.7,1.1,1.7,3.1,1.8,5.8c0.2,3.3-1,5.9-1.6,7"/>
	</g>
	<g class="st2">
		<path class="st5" d="M171.8-10.5c-3.7-0.3-4-4.5-8.5-5.2c-4.9-0.8-9.2,3-10.9,6.9c-1.3,3.1-1.4,6.6-0.7,10c0.6,3.2,2,6.2,3.1,9.3
			c0.9,2.3,2.1,4.6,4.7,5.7c2.8,1.2,5.9,0.2,8.9,0c3.3-0.2,6,1.7,9.3,0.7c5.6-1.6,7.8-6.1,9.6-10.8c2.5-6.4,4.7-13.4-0.7-19.2
			c-1.1-1.2-2.5-2.1-4.2-2.3C177.9-16,176.3-10.2,171.8-10.5z"/>
		<path class="st5" d="M171.7-24c0.7,1.1,1.7,3.1,1.8,5.8c0.2,3.3-1,5.9-1.6,7"/>
	</g>
</g>
<g id="Layer_7_copy_4" class="st0">
	<path class="st12" d="M267.6,22.1c0,10.7-1.6,32.6-14.7,55.5c-3.9,6.8-12.9,22-30.6,34c-23.6,15.9-47.8,15.9-68,15.9
		c-20.5,0-53.2-0.1-80.4-22.7C60.6,93.7,53.5,81.3,50.1,75.4c-12.6-22.5-14.6-44-14.7-55.3L267.6,22.1z"/>
	<path class="st13" d="M35.1,22.3c1.5-12.7,7.4-47.4,35.9-73c41.6-37.3,110.1-35.9,153.1-1.9c32.7,25.8,41.1,62.8,43.4,75.6"/>
	<line class="st13" x1="40.7" y1="49.9" x2="91.2" y2="20"/>
	<line class="st13" x1="50.1" y1="73.7" x2="139.3" y2="21"/>
	<line class="st13" x1="63.1" y1="95.7" x2="187.8" y2="22"/>
	<line class="st13" x1="86.8" y1="113.5" x2="241.7" y2="21.9"/>
	<line class="st13" x1="121.4" y1="125.8" x2="266.6" y2="39.9"/>
	<line class="st13" x1="162.9" y1="127.4" x2="255.4" y2="72.7"/>
	<line class="st13" x1="223.9" y1="22" x2="262.9" y2="53.2"/>
	<line class="st13" x1="182.9" y1="22.1" x2="252.8" y2="77.6"/>
	<line class="st13" x1="142.2" y1="22.1" x2="238" y2="98.2"/>
	<line class="st13" x1="96.4" y1="20.6" x2="215.8" y2="115.5"/>
	<line class="st13" x1="51.6" y1="20" x2="185.6" y2="126.4"/>
	<line class="st13" x1="38.4" y1="42.2" x2="145.6" y2="127.4"/>
	<line class="st13" x1="51" y1="77.6" x2="107.3" y2="122.3"/>
	<g class="st2">
		<path class="st5" d="M81.4-10.5c-3.7-0.3-4-4.5-8.5-5.2c-4.9-0.8-9.2,3-10.9,6.9c-1.3,3.1-1.4,6.6-0.7,10c0.6,3.2,2,6.2,3.1,9.3
			c0.9,2.3,2.1,4.6,4.7,5.7c2.8,1.2,5.9,0.2,8.9,0c3.3-0.2,6,1.7,9.3,0.7c5.6-1.6,7.8-6.1,9.6-10.8c2.5-6.4,4.7-13.4-0.7-19.2
			c-1.1-1.2-2.5-2.1-4.2-2.3C87.5-16,85.9-10.2,81.4-10.5z"/>
		<path class="st5" d="M81.3-24c0.7,1.1,1.7,3.1,1.8,5.8c0.2,3.3-1,5.9-1.6,7"/>
	</g>
	<g class="st2">
		<path class="st5" d="M126.5-9.8c-3.7-0.3-4-4.5-8.5-5.2c-4.9-0.8-9.2,3-10.9,6.9c-1.3,3.1-1.4,6.6-0.7,10c0.6,3.2,2,6.2,3.1,9.3
			c0.9,2.3,2.1,4.6,4.7,5.7c2.8,1.2,5.9,0.2,8.9,0c3.3-0.2,6,1.7,9.3,0.7c5.6-1.6,7.8-6.1,9.6-10.8c2.5-6.4,4.7-13.4-0.7-19.2
			c-1.1-1.2-2.5-2.1-4.2-2.3C132.6-15.3,131-9.5,126.5-9.8z"/>
		<path class="st5" d="M126.4-23.4c0.7,1.1,1.7,3.1,1.8,5.8c0.2,3.3-1,5.9-1.6,7"/>
	</g>
	<g class="st2">
		<path class="st5" d="M171.7-9.8c-3.7-0.3-4-4.5-8.5-5.2c-4.9-0.8-9.2,3-10.9,6.9c-1.3,3.1-1.4,6.6-0.7,10c0.6,3.2,2,6.2,3.1,9.3
			c0.9,2.3,2.1,4.6,4.7,5.7c2.8,1.2,5.9,0.2,8.9,0c3.3-0.2,6,1.7,9.3,0.7c5.6-1.6,7.8-6.1,9.6-10.8c2.5-6.4,4.7-13.4-0.7-19.2
			c-1.1-1.2-2.5-2.1-4.2-2.3C177.7-15.3,176.2-9.5,171.7-9.8z"/>
		<path class="st5" d="M171.6-23.4c0.7,1.1,1.7,3.1,1.8,5.8c0.2,3.3-1,5.9-1.6,7"/>
	</g>
	<g class="st2">
		<path class="st5" d="M214.5-9.5c-3.7-0.3-4-4.5-8.5-5.2c-4.9-0.8-9.2,3-10.9,6.9c-1.3,3.1-1.4,6.6-0.7,10c0.6,3.2,2,6.2,3.1,9.3
			c0.9,2.3,2.1,4.6,4.7,5.7c2.8,1.2,5.9,0.2,8.9,0c3.3-0.2,6,1.7,9.3,0.7c5.6-1.6,7.8-6.1,9.6-10.8c2.5-6.4,4.7-13.4-0.7-19.2
			c-1.1-1.2-2.5-2.1-4.2-2.3C220.5-15,219-9.2,214.5-9.5z"/>
		<path class="st5" d="M214.3-23c0.7,1.1,1.7,3.1,1.8,5.8c0.2,3.3-1,5.9-1.6,7"/>
	</g>
</g>
</svg>
