<?xml version="1.0" encoding="utf-8"?>
<!-- Generator: Adobe Illustrator 21.1.0, SVG Export Plug-In . SVG Version: 6.00 Build 0)  -->
<svg version="1.1" xmlns="http://www.w3.org/2000/svg" xmlns:xlink="http://www.w3.org/1999/xlink" x="0px" y="0px"
	 viewBox="0 0 612 792" style="enable-background:new 0 0 612 792;" xml:space="preserve">
<style type="text/css">
	.st0{display:none;}
	.st1{display:inline;fill:#FFFFFF;stroke:#000000;stroke-miterlimit:10;}
	.st2{display:inline;fill:#8C6E53;stroke:#603913;stroke-width:2;stroke-linejoin:round;stroke-miterlimit:10;}
	.st3{display:inline;fill:#76C378;stroke:#009444;stroke-width:2;stroke-linejoin:round;stroke-miterlimit:10;}
	.st4{display:inline;}
	.st5{fill:#E7503F;stroke:#931A1D;stroke-width:2;stroke-linejoin:round;stroke-miterlimit:10;}
	.st6{display:inline;fill:#E7503F;stroke:#931A1D;stroke-width:2;stroke-linejoin:round;stroke-miterlimit:10;}
	.st7{fill:#8C6E53;stroke:#603913;stroke-width:2;stroke-linejoin:round;stroke-miterlimit:10;}
	.st8{fill:#76C378;stroke:#009444;stroke-width:2;stroke-linejoin:round;stroke-miterlimit:10;}
	.st9{fill:#605D5C;stroke:#3A3636;stroke-width:2;stroke-linejoin:round;stroke-miterlimit:10;}
	.st10{fill:#E8E352;stroke:#B5BA4E;stroke-width:6;stroke-linejoin:round;stroke-miterlimit:10;}
	.st11{display:inline;fill:#90CB7F;stroke:#61995C;stroke-width:6;stroke-linejoin:round;stroke-miterlimit:10;}
	.st12{display:inline;fill:none;stroke:#B5BA4E;stroke-width:6;stroke-linejoin:round;stroke-miterlimit:10;}
	.st13{display:inline;fill:#C08C49;stroke:#A56928;stroke-width:4;stroke-linejoin:round;stroke-miterlimit:10;}
	.st14{display:inline;fill:none;stroke:#A56928;stroke-width:4;stroke-linejoin:round;stroke-miterlimit:10;}
	.st15{fill:#F1EB67;stroke:#E8E491;stroke-miterlimit:10;}
	.st16{fill:#846628;}
	.st17{fill:#662C90;}
	.st18{fill:#2D6733;}
	.st19{fill:#E12C26;}
	.st20{fill:#F9A51B;}
	.st21{fill:#5FC6D1;stroke:#5F7EAA;stroke-width:4;stroke-miterlimit:10;}
	.st22{fill:#5EC6D1;stroke:#5F7EAA;stroke-width:4;stroke-linejoin:round;stroke-miterlimit:10;}
</style>
<g id="Layer_1_copy" class="st0">
	<path class="st1" d="M433.9,454.9"/>
</g>
<g id="Layer_3" class="st0">
	<g>
		<path class="st2" d="M321.5,315.2c1.9,4.9-3.3,6.7-9.3,23.7c-4,11.2-5.2,25.9-7.4,55.1c-0.8,10.8-1.6,21.2-2,35.5
			c0,1.8-0.8,18.3,0.2,36.9c1.6,30,3.6,63.5,12.6,107.8c6.5,31.6,14.5,58.5,21.9,80l9,19.7c-3-2.9-7.4-7-12.7-12
			c-16.5-15.3-20.7-19.2-21.6-18.4c-1.3,1.1,5.6,9.4,10.7,24.7c3.1,9.4,5.6,21.7,3.4,22.6c-2.2,0.9-7.2-10.6-19.9-26
			c-9.7-11.8-22.9-24.7-26-22.6c-2.8,1.9,6.1,13.6,4.7,32.2c-0.6,8.6-3.2,18.4-6.2,18.5c-3.4,0.1-3.3-13.2-12.5-28.4
			c-6.1-10-18.3-24.3-26.6-21.6c-6.5,2.1-8,13.9-8.4,16.5c-2.4,18.3,9.7,31.4,7.6,32.8c-2.4,1.6-18.8-10.7-24.6-29.7
			c-2.6-8.4-2.4-15.8-5.1-16.1c-2.8-0.4-4.3,7.6-11.9,17c-6.6,8.2-15.9,15.1-17.8,13.6c-2.3-1.8,5.5-14.7,9.7-22.6
			c10.5-19.8,13.1-40.1,20.8-80.3c2.3-12.2,4.1-23.6,5.5-34.3c1.9-14.7,5.4-41.3,5.6-73.6c0.2-52.7-8.1-115.1-11.1-127.3
			c-3-12.2-8.2-22.3-9.7-23.5c0,0,0,0,0,0C200.3,313.2,312.9,292.9,321.5,315.2z"/>
		<path class="st3" d="M419.8,266.4c-0.7-5.8-2.3-19-12.2-30.6c-9.7-11.4-22.6-15.6-31.6-18.5c-12.1-3.9-21.7-4.2-21.7-5.9
			c0-1.7,8.7-1.3,17.3-4.4c14.3-5.1,25.5-18.4,30.2-31.7c9.5-26.9-8.4-51.2-11.8-55.8c-15.9-21.6-39.3-26.6-48.3-27.9
			c-1.2-0.2-2.1-0.3-2.9-0.4c-6.8-0.7-37.4-4.1-47.8,10.5c-5.5,7.7-3.6,16.4-6.5,16.7c-3.1,0.3-4.8-10.5-9.6-18.5
			c-13.7-22.6-56.5-28.5-86.8-16.1c-6.9,2.8-20.6,8.7-28.6,22.9c-2.3,4.2-8.7,15.6-5.3,27.1c1.9,6.3,5.5,8.4,4.3,10.7
			c-2.6,5.1-20.8-5.5-42.6,0c-4.9,1.2-13.9,3.6-21.9,10.9c-12.8,11.8-19.2,33.2-11.9,50.7c7.8,18.8,28.3,25.8,33.6,27.6
			c9.4,3.2,18.7,3.7,18.7,5.2c-0.1,1.8-12.8-0.8-23.9,6c-11.4,6.9-17,21.3-17.2,33.6c0,3.2,0.1,15.7,9,26.9
			c10.9,13.8,29.9,17.9,44,16.4c16.2-1.7,22.2-10.6,41.4-9.3c8.8,0.6,12.4,2.8,14.5,4.5c4.8,4,112.7,5.4,121,0.1
			c11.5-7.3,24.1,8,47.7,6.5c17.3-1.1,36.9-11,45.1-27.9C421.8,284,420.5,272.5,419.8,266.4z"/>
		<g class="st4">
			<path class="st5" d="M543.7,247.5c-1.9-0.1-2.1-2.6-4.5-3c-2.6-0.4-4.9,1.7-5.8,4c-0.7,1.8-0.7,3.8-0.4,5.7
				c0.3,1.9,1,3.6,1.7,5.3c0.5,1.3,1.1,2.6,2.5,3.3c1.5,0.7,3.1,0.1,4.7,0c1.7-0.1,3.2,1,4.9,0.4c2.9-0.9,4.1-3.5,5.1-6.2
				c1.3-3.7,2.5-7.7-0.3-11c-0.6-0.7-1.3-1.2-2.2-1.3C546.9,244.4,546.1,247.7,543.7,247.5z"/>
			<path class="st5" d="M543.7,239.7c0.3,0.6,0.9,1.8,1,3.3c0.1,1.9-0.5,3.4-0.8,4"/>
		</g>
		<g>
			<path class="st6" d="M563.2,404.7c-1.9-0.1-2.1-2.6-4.5-3c-2.6-0.4-4.9,1.7-5.8,4c-0.7,1.8-0.7,3.8-0.4,5.7
				c0.3,1.9,1,3.6,1.7,5.3c0.5,1.3,1.1,2.6,2.5,3.3c1.5,0.7,3.1,0.1,4.7,0c1.7-0.1,3.2,1,4.9,0.4c2.9-0.9,4.1-3.5,5.1-6.2
				c1.3-3.7,2.5-7.7-0.3-11c-0.6-0.7-1.3-1.2-2.2-1.3C566.4,401.6,565.5,404.9,563.2,404.7z"/>
			<path class="st6" d="M563.1,397c0.3,0.6,0.9,1.8,1,3.3c0.1,1.9-0.5,3.4-0.8,4"/>
		</g>
		<g>
			<path class="st6" d="M542.9,204.9c-1.9-0.1-2.1-2.6-4.5-3c-2.6-0.4-4.9,1.7-5.8,4c-0.7,1.8-0.7,3.8-0.4,5.7
				c0.3,1.9,1,3.6,1.7,5.3c0.5,1.3,1.1,2.6,2.5,3.3c1.5,0.7,3.1,0.1,4.7,0c1.7-0.1,3.2,1,4.9,0.4c2.9-0.9,4.1-3.5,5.1-6.2
				c1.3-3.7,2.5-7.7-0.3-11c-0.6-0.7-1.3-1.2-2.2-1.3C546.1,201.7,545.2,205,542.9,204.9z"/>
			<path class="st6" d="M542.8,197.1c0.3,0.6,0.9,1.8,1,3.3c0.1,1.9-0.5,3.4-0.8,4"/>
		</g>
		<g>
			<path class="st6" d="M555.9,311.1c-1.9-0.1-2.1-2.6-4.5-3c-2.6-0.4-4.9,1.7-5.8,4c-0.7,1.8-0.7,3.8-0.4,5.7
				c0.3,1.9,1,3.6,1.7,5.3c0.5,1.3,1.1,2.6,2.5,3.3c1.5,0.7,3.1,0.1,4.7,0c1.7-0.1,3.2,1,4.9,0.4c2.9-0.9,4.1-3.5,5.1-6.2
				c1.3-3.7,2.5-7.7-0.3-11c-0.6-0.7-1.3-1.2-2.2-1.3C559.1,308,558.3,311.3,555.9,311.1z"/>
			<path class="st6" d="M555.8,303.3c0.3,0.6,0.9,1.8,1,3.3c0.1,1.9-0.5,3.4-0.8,4"/>
		</g>
		<g>
			<path class="st6" d="M532.5,143.9c-1.9-0.1-2.1-2.6-4.5-3c-2.6-0.4-4.9,1.7-5.8,4c-0.7,1.8-0.7,3.8-0.4,5.7
				c0.3,1.9,1,3.6,1.7,5.3c0.5,1.3,1.1,2.6,2.5,3.3c1.5,0.7,3.1,0.1,4.7,0c1.7-0.1,3.2,1,4.9,0.4c2.9-0.9,4.1-3.5,5.1-6.2
				c1.3-3.7,2.5-7.7-0.3-11c-0.6-0.7-1.3-1.2-2.2-1.3C535.7,140.8,534.9,144.1,532.5,143.9z"/>
			<path class="st6" d="M532.4,136.1c0.3,0.6,0.9,1.8,1,3.3c0.1,1.9-0.5,3.4-0.8,4"/>
		</g>
		<g>
			<path class="st6" d="M547.6,280.5c-1.9-0.1-2.1-2.6-4.5-3c-2.6-0.4-4.9,1.7-5.8,4c-0.7,1.8-0.7,3.8-0.4,5.7
				c0.3,1.9,1,3.6,1.7,5.3c0.5,1.3,1.1,2.6,2.5,3.3c1.5,0.7,3.1,0.1,4.7,0c1.7-0.1,3.2,1,4.9,0.4c2.9-0.9,4.1-3.5,5.1-6.2
				c1.3-3.7,2.5-7.7-0.3-11c-0.6-0.7-1.3-1.2-2.2-1.3C550.8,277.3,550,280.6,547.6,280.5z"/>
			<path class="st6" d="M547.5,272.7c0.3,0.6,0.9,1.8,1,3.3c0.1,1.9-0.5,3.4-0.8,4"/>
		</g>
		<g>
			<path class="st6" d="M546.1,176.7c-1.9-0.1-2.1-2.6-4.5-3c-2.6-0.4-4.9,1.7-5.8,4c-0.7,1.8-0.7,3.8-0.4,5.7
				c0.3,1.9,1,3.6,1.7,5.3c0.5,1.3,1.1,2.6,2.5,3.3c1.5,0.7,3.1,0.1,4.7,0c1.7-0.1,3.2,1,4.9,0.4c2.9-0.9,4.1-3.5,5.1-6.2
				c1.3-3.7,2.5-7.7-0.3-11c-0.6-0.7-1.3-1.2-2.2-1.3C549.3,173.6,548.5,176.9,546.1,176.7z"/>
			<path class="st6" d="M546.1,168.9c0.3,0.6,0.9,1.8,1,3.3c0.1,1.9-0.5,3.4-0.8,4"/>
		</g>
		<g>
			<path class="st6" d="M587.9,174.4c-1.9-0.1-2.1-2.6-4.5-3c-2.6-0.4-4.9,1.7-5.8,4c-0.7,1.8-0.7,3.8-0.4,5.7
				c0.3,1.9,1,3.6,1.7,5.3c0.5,1.3,1.1,2.6,2.5,3.3c1.5,0.7,3.1,0.1,4.7,0c1.7-0.1,3.2,1,4.9,0.4c2.9-0.9,4.1-3.5,5.1-6.2
				c1.3-3.7,2.5-7.7-0.3-11c-0.6-0.7-1.3-1.2-2.2-1.3C591.1,171.3,590.3,174.6,587.9,174.4z"/>
			<path class="st6" d="M587.9,166.7c0.3,0.6,0.9,1.8,1,3.3c0.1,1.9-0.5,3.4-0.8,4"/>
		</g>
	</g>
	<g class="st4">
		<path class="st5" d="M328.8,361.3c-4.4-0.3-4.8-5.2-10.2-6c-5.9-0.9-11.1,3.4-13.1,8c-1.6,3.6-1.6,7.7-0.9,11.5
			c0.8,3.7,2.3,7.2,3.8,10.7c1.1,2.7,2.6,5.3,5.7,6.5c3.4,1.4,7.1,0.2,10.7,0c4-0.2,7.2,2,11.1,0.8c6.7-1.9,9.3-7,11.6-12.4
			c3-7.4,5.6-15.4-0.8-22.1c-1.3-1.3-3-2.4-5-2.7C336,355,334.1,361.7,328.8,361.3z"/>
		<path class="st5" d="M328.6,345.7c0.8,1.3,2,3.6,2.2,6.7c0.3,3.9-1.2,6.8-1.9,8.1"/>
	</g>
</g>
<g id="Layer_3_copy" class="st0">
	<g class="st4">
		<path class="st7" d="M310,313.8c1.9,4.9-3.3,6.7-9.3,23.7c-4,11.2-5.2,25.9-7.4,55.1c-0.8,10.8-1.6,21.2-2,35.5
			c0,1.8-0.8,18.3,0.2,36.9c1.6,30,3.6,63.5,12.6,107.8c6.5,31.6,14.5,58.5,21.9,80l9,19.7c-3-2.9-7.4-7-12.7-12
			c-16.5-15.3-20.7-19.2-21.6-18.4c-1.3,1.1,5.6,9.4,10.7,24.7c3.1,9.4,5.6,21.7,3.4,22.6c-2.2,0.9-7.2-10.6-19.9-26
			c-9.7-11.8-22.9-24.7-26-22.6c-2.8,1.9,6.1,13.6,4.7,32.2c-0.6,8.6-3.2,18.4-6.2,18.5c-3.4,0.1-3.3-13.2-12.5-28.4
			c-6.1-10-18.3-24.3-26.6-21.6c-6.5,2.1-8,13.9-8.4,16.5c-2.4,18.3,9.7,31.4,7.6,32.8c-2.4,1.6-18.8-10.7-24.6-29.7
			c-2.6-8.4-2.4-15.8-5.1-16.1c-2.8-0.4-4.3,7.6-11.9,17c-6.6,8.2-15.9,15.1-17.8,13.6c-2.3-1.8,5.5-14.7,9.7-22.6
			c10.5-19.8,13.1-40.1,20.8-80.3c2.3-12.2,4.1-23.6,5.5-34.3c1.9-14.7,5.4-41.3,5.6-73.6c0.2-52.7-8.1-115.1-11.1-127.3
			c-3-12.2-8.2-22.3-9.7-23.5c0,0,0,0,0,0C188.8,311.9,301.3,291.6,310,313.8z"/>
		<path class="st8" d="M408.2,265c-0.7-5.8-2.3-19-12.2-30.6c-9.7-11.4-22.6-15.6-31.6-18.5c-12.1-3.9-21.7-4.2-21.7-5.9
			c0-1.7,8.7-1.3,17.3-4.4c14.3-5.1,25.5-18.4,30.2-31.7c9.5-26.9-8.4-51.2-11.8-55.8c-15.9-21.6-39.3-26.6-48.3-27.9
			c-1.2-0.2-2.1-0.3-2.9-0.4c-6.8-0.7-37.4-4.1-47.8,10.5c-5.5,7.7-3.6,16.4-6.5,16.7c-3.1,0.3-4.8-10.5-9.6-18.5
			c-13.7-22.6-56.5-28.5-86.8-16.1c-6.9,2.8-20.6,8.7-28.6,22.9c-2.3,4.2-8.7,15.6-5.3,27.1c1.9,6.3,5.5,8.4,4.3,10.7
			c-2.6,5.1-20.8-5.5-42.6,0c-4.9,1.2-13.9,3.6-21.9,10.9c-12.8,11.8-19.2,33.2-11.9,50.7c7.8,18.8,28.3,25.8,33.6,27.6
			c9.4,3.2,18.7,3.7,18.7,5.2c-0.1,1.8-12.8-0.8-23.9,6c-11.4,6.9-17,21.3-17.2,33.6c0,3.2,0.1,15.7,9,26.9
			c10.9,13.8,29.9,17.9,44,16.4c16.2-1.7,22.2-10.6,41.4-9.3c8.8,0.6,12.4,2.8,14.5,4.5c4.8,4,112.7,5.4,121,0.1
			c11.5-7.3,24.1,8,47.7,6.5c17.3-1.1,36.9-11,45.1-27.9C410.2,282.7,408.9,271.1,408.2,265z"/>
		<g>
			<path class="st9" d="M153,284c-1.9-0.1-2.1-2.6-4.5-3c-2.6-0.4-4.9,1.7-5.8,4c-0.7,1.8-0.7,3.8-0.4,5.7c0.3,1.9,1,3.6,1.7,5.3
				c0.5,1.3,1.1,2.6,2.5,3.3c1.5,0.7,3.1,0.1,4.7,0c1.7-0.1,3.2,1,4.9,0.4c2.9-0.9,4.1-3.5,5.1-6.2c1.3-3.7,2.5-7.7-0.3-11
				c-0.6-0.7-1.3-1.2-2.2-1.3C156.2,280.8,155.4,284.2,153,284z"/>
			<path class="st9" d="M152.9,276.2c0.3,0.6,0.9,1.8,1,3.3c0.1,1.9-0.5,3.4-0.8,4"/>
		</g>
		<g>
			<path class="st5" d="M141.7,179.9c-1.9-0.1-2.1-2.6-4.5-3c-2.6-0.4-4.9,1.7-5.8,4c-0.7,1.8-0.7,3.8-0.4,5.7
				c0.3,1.9,1,3.6,1.7,5.3c0.5,1.3,1.1,2.6,2.5,3.3c1.5,0.7,3.1,0.1,4.7,0c1.7-0.1,3.2,1,4.9,0.4c2.9-0.9,4.1-3.5,5.1-6.2
				c1.3-3.7,2.5-7.7-0.3-11c-0.6-0.7-1.3-1.2-2.2-1.3C144.9,176.8,144,180.1,141.7,179.9z"/>
			<path class="st5" d="M141.6,172.1c0.3,0.6,0.9,1.8,1,3.3c0.1,1.9-0.5,3.4-0.8,4"/>
		</g>
		<g>
			<path class="st5" d="M211.8,222.7c-1.9-0.1-2.1-2.6-4.5-3c-2.6-0.4-4.9,1.7-5.8,4c-0.7,1.8-0.7,3.8-0.4,5.7
				c0.3,1.9,1,3.6,1.7,5.3c0.5,1.3,1.1,2.6,2.5,3.3c1.5,0.7,3.1,0.1,4.7,0c1.7-0.1,3.2,1,4.9,0.4c2.9-0.9,4.1-3.5,5.1-6.2
				c1.3-3.7,2.5-7.7-0.3-11c-0.6-0.7-1.3-1.2-2.2-1.3C214.9,219.6,214.1,222.9,211.8,222.7z"/>
			<path class="st5" d="M211.7,214.9c0.3,0.6,0.9,1.8,1,3.3c0.1,1.9-0.5,3.4-0.8,4"/>
		</g>
		<g>
			<path class="st5" d="M272.9,281c-1.9-0.1-2.1-2.6-4.5-3c-2.6-0.4-4.9,1.7-5.8,4c-0.7,1.8-0.7,3.8-0.4,5.7c0.3,1.9,1,3.6,1.7,5.3
				c0.5,1.3,1.1,2.6,2.5,3.3c1.5,0.7,3.1,0.1,4.7,0c1.7-0.1,3.2,1,4.9,0.4c2.9-0.9,4.1-3.5,5.1-6.2c1.3-3.7,2.5-7.7-0.3-11
				c-0.6-0.7-1.3-1.2-2.2-1.3C276.1,277.8,275.3,281.1,272.9,281z"/>
			<path class="st5" d="M272.8,273.2c0.3,0.6,0.9,1.8,1,3.3c0.1,1.9-0.5,3.4-0.8,4"/>
		</g>
		<g>
			<path class="st5" d="M334.5,137.6c-1.9-0.1-2.1-2.6-4.5-3c-2.6-0.4-4.9,1.7-5.8,4c-0.7,1.8-0.7,3.8-0.4,5.7
				c0.3,1.9,1,3.6,1.7,5.3c0.5,1.3,1.1,2.6,2.5,3.3c1.5,0.7,3.1,0.1,4.7,0c1.7-0.1,3.2,1,4.9,0.4c2.9-0.9,4.1-3.5,5.1-6.2
				c1.3-3.7,2.5-7.7-0.3-11c-0.6-0.7-1.3-1.2-2.2-1.3C337.7,134.4,336.8,137.7,334.5,137.6z"/>
			<path class="st5" d="M334.4,129.8c0.3,0.6,0.9,1.8,1,3.3c0.1,1.9-0.5,3.4-0.8,4"/>
		</g>
		<g>
			<path class="st5" d="M363.1,262.7c-1.9-0.1-2.1-2.6-4.5-3c-2.6-0.4-4.9,1.7-5.8,4c-0.7,1.8-0.7,3.8-0.4,5.7
				c0.3,1.9,1,3.6,1.7,5.3c0.5,1.3,1.1,2.6,2.5,3.3c1.5,0.7,3.1,0.1,4.7,0c1.7-0.1,3.2,1,4.9,0.4c2.9-0.9,4.1-3.5,5.1-6.2
				c1.3-3.7,2.5-7.7-0.3-11c-0.6-0.7-1.3-1.2-2.2-1.3C366.3,259.6,365.5,262.9,363.1,262.7z"/>
			<path class="st5" d="M363,255c0.3,0.6,0.9,1.8,1,3.3c0.1,1.9-0.5,3.4-0.8,4"/>
		</g>
		<g>
			<path class="st5" d="M291.2,201.7c-1.9-0.1-2.1-2.6-4.5-3c-2.6-0.4-4.9,1.7-5.8,4c-0.7,1.8-0.7,3.8-0.4,5.7
				c0.3,1.9,1,3.6,1.7,5.3c0.5,1.3,1.1,2.6,2.5,3.3c1.5,0.7,3.1,0.1,4.7,0c1.7-0.1,3.2,1,4.9,0.4c2.9-0.9,4.1-3.5,5.1-6.2
				c1.3-3.7,2.5-7.7-0.3-11c-0.6-0.7-1.3-1.2-2.2-1.3C294.4,198.5,293.5,201.9,291.2,201.7z"/>
			<path class="st5" d="M291.1,193.9c0.3,0.6,0.9,1.8,1,3.3c0.1,1.9-0.5,3.4-0.8,4"/>
		</g>
		<g>
			<path class="st5" d="M201.6,130.8c-1.9-0.1-2.1-2.6-4.5-3c-2.6-0.4-4.9,1.7-5.8,4c-0.7,1.8-0.7,3.8-0.4,5.7
				c0.3,1.9,1,3.6,1.7,5.3c0.5,1.3,1.1,2.6,2.5,3.3c1.5,0.7,3.1,0.1,4.7,0c1.7-0.1,3.2,1,4.9,0.4c2.9-0.9,4.1-3.5,5.1-6.2
				c1.3-3.7,2.5-7.7-0.3-11c-0.6-0.7-1.3-1.2-2.2-1.3C204.7,127.7,203.9,131,201.6,130.8z"/>
			<path class="st5" d="M201.5,123c0.3,0.6,0.9,1.8,1,3.3c0.1,1.9-0.5,3.4-0.8,4"/>
		</g>
		<g>
			<path class="st9" d="M291.2,201.7c-1.9-0.1-2.1-2.6-4.5-3c-2.6-0.4-4.9,1.7-5.8,4c-0.7,1.8-0.7,3.8-0.4,5.7
				c0.3,1.9,1,3.6,1.7,5.3c0.5,1.3,1.1,2.6,2.5,3.3c1.5,0.7,3.1,0.1,4.7,0c1.7-0.1,3.2,1,4.9,0.4c2.9-0.9,4.1-3.5,5.1-6.2
				c1.3-3.7,2.5-7.7-0.3-11c-0.6-0.7-1.3-1.2-2.2-1.3C294.4,198.5,293.5,201.9,291.2,201.7z"/>
			<path class="st9" d="M291.1,193.9c0.3,0.6,0.9,1.8,1,3.3c0.1,1.9-0.5,3.4-0.8,4"/>
		</g>
		<g>
			<path class="st9" d="M211.8,222.7c-1.9-0.1-2.1-2.6-4.5-3c-2.6-0.4-4.9,1.7-5.8,4c-0.7,1.8-0.7,3.8-0.4,5.7
				c0.3,1.9,1,3.6,1.7,5.3c0.5,1.3,1.1,2.6,2.5,3.3c1.5,0.7,3.1,0.1,4.7,0c1.7-0.1,3.2,1,4.9,0.4c2.9-0.9,4.1-3.5,5.1-6.2
				c1.3-3.7,2.5-7.7-0.3-11c-0.6-0.7-1.3-1.2-2.2-1.3C214.9,219.6,214.1,222.9,211.8,222.7z"/>
			<path class="st9" d="M211.7,214.9c0.3,0.6,0.9,1.8,1,3.3c0.1,1.9-0.5,3.4-0.8,4"/>
		</g>
		<g>
			<path class="st9" d="M272.9,281c-1.9-0.1-2.1-2.6-4.5-3c-2.6-0.4-4.9,1.7-5.8,4c-0.7,1.8-0.7,3.8-0.4,5.7c0.3,1.9,1,3.6,1.7,5.3
				c0.5,1.3,1.1,2.6,2.5,3.3c1.5,0.7,3.1,0.1,4.7,0c1.7-0.1,3.2,1,4.9,0.4c2.9-0.9,4.1-3.5,5.1-6.2c1.3-3.7,2.5-7.7-0.3-11
				c-0.6-0.7-1.3-1.2-2.2-1.3C276.1,277.8,275.3,281.1,272.9,281z"/>
			<path class="st9" d="M272.8,273.2c0.3,0.6,0.9,1.8,1,3.3c0.1,1.9-0.5,3.4-0.8,4"/>
		</g>
	</g>
</g>
<g id="Layer_4" class="st0">
</g>
<g id="Layer_5" class="st0">
	<ellipse class="st10" cx="283.3" cy="407.1" rx="119.8" ry="146.8"/>
	<path class="st11" d="M205.4,175.3c-4.4-0.1-14-16.3-16-18.9c-9.5-12-17.8-24.9-29.4-36.2c3.4,3.2,51.7,18.3,53.3,18.1
		c10.4-1,17-20.2,21.8-25.2c-2.8,2.9,34.5,24.4,39.1,27.8c0.1,0.1,34.1-21.4,36.6-24.3c8.6,9.3,17.3,18.5,25.9,27.8
		c-1.6-2.4,41.7-20.7,46.7-23.2c-5.3,2.7-23.1,46.1-29.6,59C304.3,178.5,254.8,176.9,205.4,175.3z"/>
	<path class="st11" d="M226.1,214.6c-3.4-0.1-10.5-16.1-12.1-18.7c-7.1-11.8-13.3-24.6-22.1-35.8c2.5,3.2,39.6,17.5,40.8,17.3
		c8-1.1,13.4-20.5,17.1-25.5c-2.2,2.9,26.2,23.9,29.7,27.2c0.1,0.1,26.6-21.9,28.5-24.8c6.5,9.1,13.1,18.2,19.6,27.4
		c-1.2-2.4,32.4-21.3,36.3-23.9c-4.2,2.7-18.5,46.4-23.6,59.4C302.3,216.4,264.2,215.5,226.1,214.6z"/>
	<path class="st11" d="M239.1,245.9c-2.7,0-8.2-16-9.4-18.5c-5.6-11.7-10.4-24.5-17.3-35.5c2,3.2,31.5,17,32.5,16.8
		c6.4-1.2,11-20.6,14-25.7c-1.8,2.9,20.7,23.6,23.5,26.8c0,0.1,21.6-22.2,23.2-25.2c5.1,9,10.2,18.1,15.3,27.1
		c-1-2.4,26.2-21.7,29.4-24.3c-3.4,2.8-15.4,46.6-19.7,59.6C300.1,246.7,269.6,246.3,239.1,245.9z"/>
</g>
<g id="Layer_6" class="st0">
	<line class="st12" x1="163.5" y1="413.4" x2="303.3" y2="262.4"/>
	<line class="st12" x1="172.2" y1="457.5" x2="339.6" y2="276.6"/>
	<line class="st12" x1="188.5" y1="493.8" x2="365.6" y2="302.5"/>
	<line class="st12" x1="210" y1="524.6" x2="387.1" y2="333.3"/>
	<line class="st12" x1="240.6" y1="543.9" x2="399.8" y2="372.9"/>
	<line class="st12" x1="288.8" y1="554.4" x2="401.8" y2="429"/>
	<line class="st12" x1="390.9" y1="476.3" x2="206.3" y2="297.1"/>
	<line class="st12" x1="367.4" y1="511.6" x2="181.2" y2="331.9"/>
	<line class="st12" x1="335.9" y1="542.5" x2="166" y2="377.5"/>
	<line class="st12" x1="402.8" y1="430" x2="236.2" y2="270"/>
	<line class="st12" x1="399.8" y1="372.9" x2="289.7" y2="260.8"/>
	<line class="st12" x1="288.8" y1="554.4" x2="163.5" y2="429"/>
	<line class="st12" x1="170.1" y1="357.7" x2="257" y2="263.9"/>
</g>
<g id="Layer_7" class="st0">
	<path class="st13" d="M396.4,281c0,10.7-1.6,32.6-14.7,55.5c-3.9,6.8-12.9,22-30.6,34c-23.6,15.9-47.8,15.9-68,15.9
		c-20.5,0-53.2-0.1-80.4-22.7c-13.3-11.1-20.4-23.5-23.8-29.4c-12.6-22.5-14.6-44-14.7-55.3L396.4,281z"/>
	<path class="st14" d="M163.9,281.2c1.5-12.7,7.4-47.4,35.9-73c41.6-37.3,110.1-35.9,153.1-1.9c32.7,25.8,41.1,62.8,43.4,75.6"/>
	<line class="st14" x1="169.5" y1="308.8" x2="220" y2="278.9"/>
	<line class="st14" x1="178.9" y1="332.6" x2="268.1" y2="279.9"/>
	<line class="st14" x1="191.9" y1="354.6" x2="316.6" y2="280.9"/>
	<line class="st14" x1="215.6" y1="372.4" x2="370.5" y2="280.8"/>
	<line class="st14" x1="250.2" y1="384.7" x2="395.4" y2="298.8"/>
	<line class="st14" x1="291.7" y1="386.3" x2="384.2" y2="331.6"/>
	<line class="st14" x1="352.7" y1="280.9" x2="391.7" y2="312.1"/>
	<line class="st14" x1="311.7" y1="281" x2="381.6" y2="336.5"/>
	<line class="st14" x1="271" y1="281" x2="366.8" y2="357.1"/>
	<line class="st14" x1="225.2" y1="279.5" x2="344.6" y2="374.4"/>
	<line class="st14" x1="180.4" y1="278.9" x2="314.4" y2="385.3"/>
	<line class="st14" x1="167.2" y1="301.1" x2="274.4" y2="386.3"/>
	<line class="st14" x1="179.8" y1="336.5" x2="236.1" y2="381.2"/>
</g>
<g id="Layer_7_copy_5">
	<path class="st15" d="M305.1,274.7c4.4-6,14.8-16.4,15.2-23.6c0.4-7.3,0.8-30.8,2-35.6c1.2-4.8,9.4,7.8,10.2,12.6
		c0.8,4.8,3.9,19.9,2.5,25.2c-1.4,5.3-6.5,15.7-9.7,18.5c-3.2,2.8-7.3,8-13.2,12c-6.1,2.4-10,6.6-16.1,6.6
		C289.9,290.5,300.7,280.8,305.1,274.7z"/>
	<path class="st15" d="M327.5,276.3c2.5-6.8,9.5-19.2,7.8-25.9s-8-28.2-8.2-32.8c-0.2-4.7,11.2,4.3,13.3,8.4
		c2.1,4.1,9.4,16.9,9.5,22.1c0.1,5.2-1.8,16.2-4,19.7c-2.2,3.5-4.7,9.4-9.2,14.8c-5.1,4-7.7,8.9-13.5,10.8
		C317.5,295.1,325.1,283,327.5,276.3z"/>
	<path class="st15" d="M284.4,260.5c6.2-3.6,19.6-8.7,22.6-15c3-6.2,11.9-26.7,14.7-30.5c2.8-3.7,5.9,10.5,4.9,15
		c-1,4.5-3.6,19-6.8,23.1c-3.2,4.1-11.7,11.3-15.7,12.6c-3.9,1.3-9.6,4.3-16.5,5.5c-6.5-0.3-11.6,2-17.3-0.4
		S278.2,264.1,284.4,260.5z"/>
	<path class="st16" d="M321,217.6c0.2-3.8,0-15,0-18.5c0-3.5,10.5-3.5,10.5,0c0,3.5,2.4,15,0,18.5
		C329.2,221.1,320.8,221.4,321,217.6z"/>
	<g>
		
			<ellipse transform="matrix(0.8054 -0.5928 0.5928 0.8054 -122.483 152.5988)" class="st17" cx="171.1" cy="262.8" rx="8.5" ry="8.9"/>
		
			<ellipse transform="matrix(0.8054 -0.5928 0.5928 0.8054 -113.8728 158.7334)" class="st17" cx="184.8" cy="252.8" rx="8.5" ry="8.9"/>
		
			<ellipse transform="matrix(0.8054 -0.5928 0.5928 0.8054 -105.2625 164.868)" class="st17" cx="198.4" cy="242.7" rx="8.5" ry="8.9"/>
		
			<ellipse transform="matrix(0.8054 -0.5928 0.5928 0.8054 -96.6522 171.0026)" class="st17" cx="212.1" cy="232.7" rx="8.5" ry="8.9"/>
		
			<ellipse transform="matrix(0.8054 -0.5928 0.5928 0.8054 -123.7466 163.4821)" class="st17" cx="187.1" cy="270.2" rx="8.5" ry="8.9"/>
		
			<ellipse transform="matrix(0.8054 -0.5928 0.5928 0.8054 -115.1363 169.6167)" class="st17" cx="200.7" cy="260.1" rx="8.5" ry="8.9"/>
		
			<ellipse transform="matrix(0.8054 -0.5928 0.5928 0.8054 -106.526 175.7513)" class="st17" cx="214.4" cy="250.1" rx="8.5" ry="8.9"/>
		
			<ellipse transform="matrix(0.8054 -0.5928 0.5928 0.8054 -125.1148 174.5124)" class="st17" cx="203.2" cy="277.8" rx="8.5" ry="8.9"/>
		
			<ellipse transform="matrix(0.8054 -0.5928 0.5928 0.8054 -116.5046 180.647)" class="st17" cx="216.8" cy="267.7" rx="8.5" ry="8.9"/>
		
			<ellipse transform="matrix(0.8054 -0.5928 0.5928 0.8054 -126.4082 185.4375)" class="st17" cx="219.2" cy="285.2" rx="8.5" ry="8.9"/>
		<path class="st18" d="M185,242.7c-0.3,1.4-9.6,2.2-10.9,1.8c-1.9,0.2-11.3-4.7-10.8-7.2c0.5-2.5,10.2-3.1,11.9-2.6
			S185.3,241.2,185,242.7z"/>
		<path class="st18" d="M187.7,217.4c2.9,0.8,4.4,12.7,4.5,14.7c0.1,2-6.9,11.3-8.1,11.3c-1.2,0-6.4-11.1-5.3-14.9
			C180,224.7,184.9,216.6,187.7,217.4z"/>
	</g>
	<g>
		<path class="st16" d="M253.7,256c0,0,1.1-13.5,0.8-18.9c-0.3-5.4-2.2-6.1-2.5-10.5c-1.5-3,5.2-1,6.7,0.3c1.5,1.3,3.3,8.9,3.1,14.8
			c-0.2,5.9-0.6,14.7-0.6,14.7L253.7,256z"/>
		
			<ellipse transform="matrix(0.1431 -0.9897 0.9897 0.1431 -50.2613 483.7549)" class="st19" cx="254.2" cy="270.9" rx="26" ry="26"/>
	</g>
	<ellipse transform="matrix(0.1431 -0.9897 0.9897 0.1431 56.1319 595.8367)" class="st20" cx="372.2" cy="265.5" rx="26" ry="26"/>
	<g>
		<path class="st21" d="M250,413.7c-1.6,0.9-3,5.3-1.6,6.8c1.4,1.5,68.9,2.5,70.2,0.5c1.3-2,0.3-4.9-2.1-6.7
			C314.1,412.4,251.6,412.9,250,413.7z"/>
		<path class="st21" d="M138.3,294.5c0.1,2,6.3,3.5,18.6,6.6c35.3,8.8,63.2,8.2,83.5,7.8c78.2-1.5,61.8,0.1,92.1-1.4
			c45.5-2.2,92.1-4.4,92.5-10.9c0-0.7-0.4-4-22.3-9.2C309.2,264.9,137.4,280.9,138.3,294.5z"/>
		<path class="st22" d="M397.4,305c0,10.7-1.6,32.6-14.7,55.5c-3.9,6.8-12.9,22-30.6,34c-23.6,15.9-47.8,15.9-68,15.9
			c-20.5,0-53.2-0.1-80.4-22.7c-13.3-11.1-20.4-23.5-23.8-29.4c-12.6-22.5-14.6-44-14.7-55.3L397.4,305z"/>
	</g>
</g>
<g id="Layer_7_copy" class="st0">
	<path class="st13" d="M396.4,281c0,10.7-1.6,32.6-14.7,55.5c-3.9,6.8-12.9,22-30.6,34c-23.6,15.9-47.8,15.9-68,15.9
		c-20.5,0-53.2-0.1-80.4-22.7c-13.3-11.1-20.4-23.5-23.8-29.4c-12.6-22.5-14.6-44-14.7-55.3L396.4,281z"/>
	<path class="st14" d="M163.9,281.2c1.5-12.7,7.4-47.4,35.9-73c41.6-37.3,110.1-35.9,153.1-1.9c32.7,25.8,41.1,62.8,43.4,75.6"/>
	<line class="st14" x1="169.5" y1="308.8" x2="220" y2="278.9"/>
	<line class="st14" x1="178.9" y1="332.6" x2="268.1" y2="279.9"/>
	<line class="st14" x1="191.9" y1="354.6" x2="316.6" y2="280.9"/>
	<line class="st14" x1="215.6" y1="372.4" x2="370.5" y2="280.8"/>
	<line class="st14" x1="250.2" y1="384.7" x2="395.4" y2="298.8"/>
	<line class="st14" x1="291.7" y1="386.3" x2="384.2" y2="331.6"/>
	<line class="st14" x1="352.7" y1="280.9" x2="391.7" y2="312.1"/>
	<line class="st14" x1="311.7" y1="281" x2="381.6" y2="336.5"/>
	<line class="st14" x1="271" y1="281" x2="366.8" y2="357.1"/>
	<line class="st14" x1="225.2" y1="279.5" x2="344.6" y2="374.4"/>
	<line class="st14" x1="180.4" y1="278.9" x2="314.4" y2="385.3"/>
	<line class="st14" x1="167.2" y1="301.1" x2="274.4" y2="386.3"/>
	<line class="st14" x1="179.8" y1="336.5" x2="236.1" y2="381.2"/>
	<path class="st7" d="M238.3,249.2c1.9,4.9-3.3,6.7-9.3,23.7c-4,11.2-5.2,25.9-7.4,55.1c-0.8,10.8-1.6,21.2-2,35.5
		c0,1.8-0.8,18.3,0.2,36.9c1.6,30,3.6,63.5,12.6,107.8c6.5,31.6,14.5,58.5,21.9,80l9,19.7c-3-2.9-7.4-7-12.7-12
		c-16.5-15.3-20.7-19.2-21.6-18.4c-1.3,1.1,5.6,9.4,10.7,24.7c3.1,9.4,5.6,21.7,3.4,22.6c-2.2,0.9-7.2-10.6-19.9-26
		c-9.7-11.8-22.9-24.7-26-22.6c-2.8,1.9,6.1,13.6,4.7,32.2c-0.6,8.6-3.2,18.4-6.2,18.5c-3.4,0.1-3.3-13.2-12.5-28.4
		c-6.1-10-18.3-24.3-26.6-21.6c-6.5,2.1-8,13.9-8.4,16.5c-2.4,18.3,9.7,31.4,7.6,32.8c-2.4,1.6-18.8-10.7-24.6-29.7
		c-2.6-8.4-2.4-15.8-5.1-16.1c-2.8-0.4-4.3,7.6-11.9,17c-6.6,8.2-15.9,15.1-17.8,13.6c-2.3-1.8,5.5-14.7,9.7-22.6
		c10.5-19.8,13.1-40.1,20.8-80.3c2.3-12.2,4.1-23.6,5.5-34.3c1.9-14.7,5.4-41.3,5.6-73.6c0.2-52.7-8.1-115.1-11.1-127.3
		c-3-12.2-8.2-22.3-9.7-23.5c0,0,0,0,0,0C117.1,247.2,229.6,226.9,238.3,249.2z"/>
	<path class="st8" d="M336.6,200.4c-0.7-5.8-2.3-19-12.2-30.6c-9.7-11.4-22.6-15.6-31.6-18.5c-12.1-3.9-21.7-4.2-21.7-5.9
		c0-1.7,8.7-1.3,17.3-4.4c14.3-5.1,25.5-18.4,30.2-31.7c9.5-26.9-8.4-51.2-11.8-55.8c-15.9-21.6-39.3-26.6-48.3-27.9
		c-1.2-0.2-2.1-0.3-2.9-0.4c-6.8-0.7-37.4-4.1-47.8,10.5c-5.5,7.7-3.6,16.4-6.5,16.7c-3.1,0.3-4.8-10.5-9.6-18.5
		c-13.7-22.6-56.5-28.5-86.8-16.1c-6.9,2.8-20.6,8.7-28.6,22.9c-2.3,4.2-8.7,15.6-5.3,27.1c1.9,6.3,5.5,8.4,4.3,10.7
		c-2.6,5.1-20.8-5.5-42.6,0C28,79.6,19,81.9,11.1,89.3C-1.7,101.1-8.1,122.5-0.9,140c7.8,18.8,28.3,25.8,33.6,27.6
		c9.4,3.2,18.7,3.7,18.7,5.2c-0.1,1.8-12.8-0.8-23.9,6c-11.4,6.9-17,21.3-17.2,33.6c0,3.2,0.1,15.7,9,26.9
		c10.9,13.8,29.9,17.9,44,16.4c16.2-1.7,22.2-10.6,41.4-9.3c8.8,0.6,12.4,2.8,14.5,4.5c4.8,4,112.7,5.4,121,0.1
		c11.5-7.3,24.1,8,47.7,6.5c17.3-1.1,36.9-11,45.1-27.9C338.6,218,337.3,206.5,336.6,200.4z"/>
	<g class="st4">
		<path class="st5" d="M209.2,248.4c-3.7-0.3-4-4.5-8.5-5.2c-4.9-0.8-9.2,3-10.9,6.9c-1.3,3.1-1.4,6.6-0.7,10c0.6,3.2,2,6.2,3.1,9.3
			c0.9,2.3,2.1,4.6,4.7,5.7c2.8,1.2,5.9,0.2,8.9,0c3.3-0.2,6,1.7,9.3,0.7c5.6-1.6,7.8-6.1,9.6-10.8c2.5-6.4,4.7-13.4-0.7-19.2
			c-1.1-1.2-2.5-2.1-4.2-2.3C215.2,242.9,213.6,248.7,209.2,248.4z"/>
		<path class="st5" d="M209,234.9c0.7,1.1,1.7,3.1,1.8,5.8c0.2,3.3-1,5.9-1.6,7"/>
	</g>
</g>
<g id="Layer_7_copy_2" class="st0">
	<path class="st13" d="M396.4,281c0,10.7-1.6,32.6-14.7,55.5c-3.9,6.8-12.9,22-30.6,34c-23.6,15.9-47.8,15.9-68,15.9
		c-20.5,0-53.2-0.1-80.4-22.7c-13.3-11.1-20.4-23.5-23.8-29.4c-12.6-22.5-14.6-44-14.7-55.3L396.4,281z"/>
	<path class="st14" d="M163.9,281.2c1.5-12.7,7.4-47.4,35.9-73c41.6-37.3,110.1-35.9,153.1-1.9c32.7,25.8,41.1,62.8,43.4,75.6"/>
	<line class="st14" x1="169.5" y1="308.8" x2="220" y2="278.9"/>
	<line class="st14" x1="178.9" y1="332.6" x2="268.1" y2="279.9"/>
	<line class="st14" x1="191.9" y1="354.6" x2="316.6" y2="280.9"/>
	<line class="st14" x1="215.6" y1="372.4" x2="370.5" y2="280.8"/>
	<line class="st14" x1="250.2" y1="384.7" x2="395.4" y2="298.8"/>
	<line class="st14" x1="291.7" y1="386.3" x2="384.2" y2="331.6"/>
	<line class="st14" x1="352.7" y1="280.9" x2="391.7" y2="312.1"/>
	<line class="st14" x1="311.7" y1="281" x2="381.6" y2="336.5"/>
	<line class="st14" x1="271" y1="281" x2="366.8" y2="357.1"/>
	<line class="st14" x1="225.2" y1="279.5" x2="344.6" y2="374.4"/>
	<line class="st14" x1="180.4" y1="278.9" x2="314.4" y2="385.3"/>
	<line class="st14" x1="167.2" y1="301.1" x2="274.4" y2="386.3"/>
	<line class="st14" x1="179.8" y1="336.5" x2="236.1" y2="381.2"/>
	<g class="st4">
		<path class="st5" d="M209.2,248.4c-3.7-0.3-4-4.5-8.5-5.2c-4.9-0.8-9.2,3-10.9,6.9c-1.3,3.1-1.4,6.6-0.7,10c0.6,3.2,2,6.2,3.1,9.3
			c0.9,2.3,2.1,4.6,4.7,5.7c2.8,1.2,5.9,0.2,8.9,0c3.3-0.2,6,1.7,9.3,0.7c5.6-1.6,7.8-6.1,9.6-10.8c2.5-6.4,4.7-13.4-0.7-19.2
			c-1.1-1.2-2.5-2.1-4.2-2.3C215.2,242.9,213.6,248.7,209.2,248.4z"/>
		<path class="st5" d="M209,234.9c0.7,1.1,1.7,3.1,1.8,5.8c0.2,3.3-1,5.9-1.6,7"/>
	</g>
	<g class="st4">
		<path class="st5" d="M255.4,248.4c-3.7-0.3-4-4.5-8.5-5.2c-4.9-0.8-9.2,3-10.9,6.9c-1.3,3.1-1.4,6.6-0.7,10c0.6,3.2,2,6.2,3.1,9.3
			c0.9,2.3,2.1,4.6,4.7,5.7c2.8,1.2,5.9,0.2,8.9,0c3.3-0.2,6,1.7,9.3,0.7c5.6-1.6,7.8-6.1,9.6-10.8c2.5-6.4,4.7-13.4-0.7-19.2
			c-1.1-1.2-2.5-2.1-4.2-2.3C261.5,242.9,259.9,248.7,255.4,248.4z"/>
		<path class="st5" d="M255.3,234.9c0.7,1.1,1.7,3.1,1.8,5.8c0.2,3.3-1,5.9-1.6,7"/>
	</g>
</g>
<g id="Layer_7_copy_3" class="st0">
	<path class="st13" d="M396.4,281c0,10.7-1.6,32.6-14.7,55.5c-3.9,6.8-12.9,22-30.6,34c-23.6,15.9-47.8,15.9-68,15.9
		c-20.5,0-53.2-0.1-80.4-22.7c-13.3-11.1-20.4-23.5-23.8-29.4c-12.6-22.5-14.6-44-14.7-55.3L396.4,281z"/>
	<path class="st14" d="M163.9,281.2c1.5-12.7,7.4-47.4,35.9-73c41.6-37.3,110.1-35.9,153.1-1.9c32.7,25.8,41.1,62.8,43.4,75.6"/>
	<line class="st14" x1="169.5" y1="308.8" x2="220" y2="278.9"/>
	<line class="st14" x1="178.9" y1="332.6" x2="268.1" y2="279.9"/>
	<line class="st14" x1="191.9" y1="354.6" x2="316.6" y2="280.9"/>
	<line class="st14" x1="215.6" y1="372.4" x2="370.5" y2="280.8"/>
	<line class="st14" x1="250.2" y1="384.7" x2="395.4" y2="298.8"/>
	<line class="st14" x1="291.7" y1="386.3" x2="384.2" y2="331.6"/>
	<line class="st14" x1="352.7" y1="280.9" x2="391.7" y2="312.1"/>
	<line class="st14" x1="311.7" y1="281" x2="381.6" y2="336.5"/>
	<line class="st14" x1="271" y1="281" x2="366.8" y2="357.1"/>
	<line class="st14" x1="225.2" y1="279.5" x2="344.6" y2="374.4"/>
	<line class="st14" x1="180.4" y1="278.9" x2="314.4" y2="385.3"/>
	<line class="st14" x1="167.2" y1="301.1" x2="274.4" y2="386.3"/>
	<line class="st14" x1="179.8" y1="336.5" x2="236.1" y2="381.2"/>
	<g class="st4">
		<path class="st5" d="M209.2,248.4c-3.7-0.3-4-4.5-8.5-5.2c-4.9-0.8-9.2,3-10.9,6.9c-1.3,3.1-1.4,6.6-0.7,10c0.6,3.2,2,6.2,3.1,9.3
			c0.9,2.3,2.1,4.6,4.7,5.7c2.8,1.2,5.9,0.2,8.9,0c3.3-0.2,6,1.7,9.3,0.7c5.6-1.6,7.8-6.1,9.6-10.8c2.5-6.4,4.7-13.4-0.7-19.2
			c-1.1-1.2-2.5-2.1-4.2-2.3C215.2,242.9,213.6,248.7,209.2,248.4z"/>
		<path class="st5" d="M209,234.9c0.7,1.1,1.7,3.1,1.8,5.8c0.2,3.3-1,5.9-1.6,7"/>
	</g>
	<g class="st4">
		<path class="st5" d="M255.4,248.4c-3.7-0.3-4-4.5-8.5-5.2c-4.9-0.8-9.2,3-10.9,6.9c-1.3,3.1-1.4,6.6-0.7,10c0.6,3.2,2,6.2,3.1,9.3
			c0.9,2.3,2.1,4.6,4.7,5.7c2.8,1.2,5.9,0.2,8.9,0c3.3-0.2,6,1.7,9.3,0.7c5.6-1.6,7.8-6.1,9.6-10.8c2.5-6.4,4.7-13.4-0.7-19.2
			c-1.1-1.2-2.5-2.1-4.2-2.3C261.5,242.9,259.9,248.7,255.4,248.4z"/>
		<path class="st5" d="M255.3,234.9c0.7,1.1,1.7,3.1,1.8,5.8c0.2,3.3-1,5.9-1.6,7"/>
	</g>
	<g class="st4">
		<path class="st5" d="M300.6,248.4c-3.7-0.3-4-4.5-8.5-5.2c-4.9-0.8-9.2,3-10.9,6.9c-1.3,3.1-1.4,6.6-0.7,10c0.6,3.2,2,6.2,3.1,9.3
			c0.9,2.3,2.1,4.6,4.7,5.7c2.8,1.2,5.9,0.2,8.9,0c3.3-0.2,6,1.7,9.3,0.7c5.6-1.6,7.8-6.1,9.6-10.8c2.5-6.4,4.7-13.4-0.7-19.2
			c-1.1-1.2-2.5-2.1-4.2-2.3C306.7,242.9,305.1,248.7,300.6,248.4z"/>
		<path class="st5" d="M300.5,234.9c0.7,1.1,1.7,3.1,1.8,5.8c0.2,3.3-1,5.9-1.6,7"/>
	</g>
</g>
<g id="Layer_7_copy_4" class="st0">
	<path class="st13" d="M396.4,281c0,10.7-1.6,32.6-14.7,55.5c-3.9,6.8-12.9,22-30.6,34c-23.6,15.9-47.8,15.9-68,15.9
		c-20.5,0-53.2-0.1-80.4-22.7c-13.3-11.1-20.4-23.5-23.8-29.4c-12.6-22.5-14.6-44-14.7-55.3L396.4,281z"/>
	<path class="st14" d="M163.9,281.2c1.5-12.7,7.4-47.4,35.9-73c41.6-37.3,110.1-35.9,153.1-1.9c32.7,25.8,41.1,62.8,43.4,75.6"/>
	<line class="st14" x1="169.5" y1="308.8" x2="220" y2="278.9"/>
	<line class="st14" x1="178.9" y1="332.6" x2="268.1" y2="279.9"/>
	<line class="st14" x1="191.9" y1="354.6" x2="316.6" y2="280.9"/>
	<line class="st14" x1="215.6" y1="372.4" x2="370.5" y2="280.8"/>
	<line class="st14" x1="250.2" y1="384.7" x2="395.4" y2="298.8"/>
	<line class="st14" x1="291.7" y1="386.3" x2="384.2" y2="331.6"/>
	<line class="st14" x1="352.7" y1="280.9" x2="391.7" y2="312.1"/>
	<line class="st14" x1="311.7" y1="281" x2="381.6" y2="336.5"/>
	<line class="st14" x1="271" y1="281" x2="366.8" y2="357.1"/>
	<line class="st14" x1="225.2" y1="279.5" x2="344.6" y2="374.4"/>
	<line class="st14" x1="180.4" y1="278.9" x2="314.4" y2="385.3"/>
	<line class="st14" x1="167.2" y1="301.1" x2="274.4" y2="386.3"/>
	<line class="st14" x1="179.8" y1="336.5" x2="236.1" y2="381.2"/>
	<g class="st4">
		<path class="st5" d="M210.2,248.4c-3.7-0.3-4-4.5-8.5-5.2c-4.9-0.8-9.2,3-10.9,6.9c-1.3,3.1-1.4,6.6-0.7,10c0.6,3.2,2,6.2,3.1,9.3
			c0.9,2.3,2.1,4.6,4.7,5.7c2.8,1.2,5.9,0.2,8.9,0c3.3-0.2,6,1.7,9.3,0.7c5.6-1.6,7.8-6.1,9.6-10.8c2.5-6.4,4.7-13.4-0.7-19.2
			c-1.1-1.2-2.5-2.1-4.2-2.3C216.3,242.9,214.7,248.7,210.2,248.4z"/>
		<path class="st5" d="M210.1,234.9c0.7,1.1,1.7,3.1,1.8,5.8c0.2,3.3-1,5.9-1.6,7"/>
	</g>
	<g class="st4">
		<path class="st5" d="M255.3,249.1c-3.7-0.3-4-4.5-8.5-5.2c-4.9-0.8-9.2,3-10.9,6.9c-1.3,3.1-1.4,6.6-0.7,10c0.6,3.2,2,6.2,3.1,9.3
			c0.9,2.3,2.1,4.6,4.7,5.7c2.8,1.2,5.9,0.2,8.9,0c3.3-0.2,6,1.7,9.3,0.7c5.6-1.6,7.8-6.1,9.6-10.8c2.5-6.4,4.7-13.4-0.7-19.2
			c-1.1-1.2-2.5-2.1-4.2-2.3C261.4,243.6,259.8,249.4,255.3,249.1z"/>
		<path class="st5" d="M255.2,235.5c0.7,1.1,1.7,3.1,1.8,5.8c0.2,3.3-1,5.9-1.6,7"/>
	</g>
	<g class="st4">
		<path class="st5" d="M300.5,249.1c-3.7-0.3-4-4.5-8.5-5.2c-4.9-0.8-9.2,3-10.9,6.9c-1.3,3.1-1.4,6.6-0.7,10c0.6,3.2,2,6.2,3.1,9.3
			c0.9,2.3,2.1,4.6,4.7,5.7c2.8,1.2,5.9,0.2,8.9,0c3.3-0.2,6,1.7,9.3,0.7c5.6-1.6,7.8-6.1,9.6-10.8c2.5-6.4,4.7-13.4-0.7-19.2
			c-1.1-1.2-2.5-2.1-4.2-2.3C306.5,243.6,305,249.4,300.5,249.1z"/>
		<path class="st5" d="M300.4,235.5c0.7,1.1,1.7,3.1,1.8,5.8c0.2,3.3-1,5.9-1.6,7"/>
	</g>
	<g class="st4">
		<path class="st5" d="M343.3,249.4c-3.7-0.3-4-4.5-8.5-5.2c-4.9-0.8-9.2,3-10.9,6.9c-1.3,3.1-1.4,6.6-0.7,10c0.6,3.2,2,6.2,3.1,9.3
			c0.9,2.3,2.1,4.6,4.7,5.7c2.8,1.2,5.9,0.2,8.9,0c3.3-0.2,6,1.7,9.3,0.7c5.6-1.6,7.8-6.1,9.6-10.8c2.5-6.4,4.7-13.4-0.7-19.2
			c-1.1-1.2-2.5-2.1-4.2-2.3C349.3,243.9,347.8,249.7,343.3,249.4z"/>
		<path class="st5" d="M343.1,235.9c0.7,1.1,1.7,3.1,1.8,5.8c0.2,3.3-1,5.9-1.6,7"/>
	</g>
</g>
</svg>
