<?xml version="1.0" encoding="utf-8"?>
<!-- Generator: Adobe Illustrator 21.1.0, SVG Export Plug-In . SVG Version: 6.00 Build 0)  -->
<svg version="1.1" id="Layer_1" xmlns="http://www.w3.org/2000/svg" xmlns:xlink="http://www.w3.org/1999/xlink" x="0px" y="0px"
	 viewBox="0 0 198.9 351.5" style="enable-background:new 0 0 198.9 351.5;" xml:space="preserve">
<style type="text/css">
	.st0{fill:#75461C;}
	.st1{fill:#EFE1BB;}
	.st2{fill:#EF4445;}
	.st3{fill:none;stroke:#000000;stroke-miterlimit:10;}
	.st4{fill:#35A0DA;}
	.st5{fill:#FFFFFF;}
	.st6{fill:#75471D;}
	.st7{fill:#CEEBF0;}
	.st8{fill:#070A0C;}
</style>
<path class="st0" d="M106.8,17.2c-2.7-1.7-15.9-9.7-29.8-5c-11.1,3.7-16.5,13.3-20.2,20.2c-16.1,29.9-6.7,65.6-2.7,78.3h106.3"/>
<path class="st0" d="M168.1,110.6c2.3-56-14.9-95.8-38.3-100.3c-4.9-0.9-13.4-1-25.7,6.9l50.7,93.5L168.1,110.6z"/>
<path class="st1" d="M150.3,32.4c6.4,22.3,1.1,45.2-13.8,58.5c-13.6,12-31.1,12.3-32.3,12.3c-4.4,0-14,0-23.1-6.2
	c-12.3-8.4-15.2-22.4-16.9-30.8c-2.8-13.5-0.6-25.1,1.5-32.3L150.3,32.4z"/>
<path class="st2" d="M116.3,83c-2.4,6.3-7.5,10-12.8,9.5C99,91.9,95,88.3,93,83H116.3z"/>
<path class="st3" d="M104.9,59c-2.1,1.4-3.3,3.8-3.1,6.3c0.3,3.8,3.6,5.6,3.8,5.7"/>
<g>
	<circle class="st4" cx="116.9" cy="49.2" r="3.8"/>
	<circle class="st5" cx="118" cy="47.5" r="0.6"/>
</g>
<g>
	<circle class="st4" cx="90.2" cy="49.6" r="3.8"/>
	<circle class="st5" cx="91.4" cy="47.8" r="0.6"/>
</g>
<path class="st1" d="M64.5,60.2c-2.6-1.9-5.3-2.8-6.7-1.8c-2.1,1.6-1.1,8.1,2.3,9.2c1.9,0.6,3.9-0.7,4.4-1.1"/>
<path class="st1" d="M150.9,57c2.2-2.3,4.8-3.6,6.3-2.8c2.4,1.2,2.4,7.9-0.8,9.5c-1.8,0.9-4-0.1-4.6-0.4"/>
<path class="st6" d="M61.3,44.5c2.9-0.3,3.4-4.8,7.9-8.2c5.2-3.9,9.8-2.1,10.6-4.3c0.9-2.3-3.2-7.1-8.1-7.2
	c-7.5-0.3-16.1,10.2-15,15.8C57.2,42.7,59.3,44.7,61.3,44.5z"/>
<path class="st6" d="M155.7,44.8c-2.1-0.3-6.2-9.7-12.4-13.4c-5.1-3-7.3,0.5-9-1.4c-1.8-2-1.8-8.6,2.4-9.3
	c3.9-0.7,10.7,3.7,15.1,9.7C156.9,37.4,157.6,45,155.7,44.8z"/>
<path class="st1" d="M103.7,100.3H92.4c0.9,1.7,2.1,4.5,2.5,8.2c0.4,3.8-0.1,6.9-0.6,8.8h12.5"/>
<path class="st1" d="M103.6,100.3l11.3,0c-0.9,1.7-2.1,4.5-2.5,8.2c-0.4,3.8,0.1,6.9,0.6,8.8l-12.5,0"/>
<path class="st1" d="M90.3,330l-4.7-0.2c-2.3-8.2-4.5-18.7-5.4-31.1c-1.8-24.6,2.2-44.8,5.5-56.8l7.5,0.2L88.7,286L90.3,330z"/>
<path class="st1" d="M139.5,332.9l-4.7,0.2c-2.9-8-6-18.2-7.9-30.5c-3.9-24.4-1.5-44.8,0.8-57.1l7.5-0.4l-0.8,44L139.5,332.9z"/>
<path class="st1" d="M79.9,153.3c-9.7-6.8-20.9-15.7-32-27.5c-7.4-7.8-13.6-15.5-18.6-22.5l-2.9,2.5c2.3,4.5,5.1,9.2,8.4,14
	c13.5,19.5,30.1,31.8,42.9,39.1L79.9,153.3z"/>
<path class="st1" d="M133.2,154.5c9.4,7.2,20.1,16.6,30.8,28.9c7.1,8.1,12.9,16.1,17.6,23.3l3-2.4c-2.1-4.6-4.7-9.4-7.8-14.3
	c-12.7-20.1-28.7-33-41.1-41L133.2,154.5z"/>
<path class="st7" d="M90.5,116.9c6.5-10.4-43,123.3-39.1,129.4c4.5,7,23.3,0.3,53.4-0.9c44.9-1.8,63.7,10.6,69.6,2.6
	c7.8-10.4-51.1-125.9-56.3-133.7"/>
<path class="st8" d="M83.2,321.9c0,0-10.1-0.3-15.6,4.9c-2.8,2.6-7,8.1-5.7,10.4c1.2,2,7.1,2.1,28.4-7.3"/>
<path class="st8" d="M132,325c0,0-10.1-0.3-15.6,4.9c-2.8,2.6-7,8.1-5.7,10.4c1.2,2,7.1,2.1,28.4-7.3"/>
<path class="st1" d="M32.6,95.6c0.3,1,1.1,6.9,0,8s-7,2.6-8.6,2.3c-1.9,0-7.4-5.1-7.4-5.1s-5.2-5.8-4.7-6.6s6.5,3.5,6.5,3.5
	s-6.5-5.8-6.5-7.6c0-1.7,8.7,5.5,8.7,5.5s-7.3-8.1-6.2-9.5s8.9,7.1,8.9,7.1s-4.5-5.3-4-7.1s8.2,7.1,8.2,7.1s-0.9-6.5,0.4-7.1
	S32.3,94.6,32.6,95.6z"/>
<path class="st1" d="M175.7,211.3c0-1,1-6.9,2.4-7.7c1.4-0.8,7.4-0.4,8.9,0.4c1.8,0.5,5.6,7.1,5.6,7.1s3.2,7.1,2.5,7.7
	s-5.1-5.3-5.1-5.3s4.4,7.5,3.9,9.1c-0.5,1.7-6.7-7.8-6.7-7.8s4.6,10,3.1,10.9c-1.4,1-6.4-9.4-6.4-9.4s2.7,6.4,1.7,8
	c-1,1.5-5.8-9.2-5.8-9.2s-1,6.4-2.5,6.6C175.8,221.9,175.7,212.3,175.7,211.3z"/>
</svg>
