<?xml version="1.0" encoding="utf-8"?>
<!-- Generator: Adobe Illustrator 21.1.0, SVG Export Plug-In . SVG Version: 6.00 Build 0)  -->
<svg version="1.1" xmlns="http://www.w3.org/2000/svg" xmlns:xlink="http://www.w3.org/1999/xlink" x="0px" y="0px"
	 viewBox="0 0 37.7 34.7" style="enable-background:new 0 0 37.7 34.7;" xml:space="preserve">
<style type="text/css">
	.st0{display:none;}
	.st1{fill:#AED693;}
	.st2{fill:#8E8D86;}
</style>
<g id="Layer_2" class="st0">
</g>
<g id="Layer_1">
	<path class="st1" d="M31.1,40.7H6.7c-6.6,0-12-5.4-12-12V8c0-6.6,5.4-12,12-12h24.4c6.6,0,12,5.4,12,12v20.7
		C43.1,35.3,37.7,40.7,31.1,40.7z"/>
	<path class="st2" d="M0,15.5C-0.8,13.5,16.4,0,19.1,0s18.6,13.8,18.6,15.5s-5.5,0.1-6.2,1.9c-0.7,1.7,1.4,14,0.4,15.7
		c-1.1,1.8-23.7,2.7-24.9,0S5.7,18.6,6,17C6.3,15.4,0.8,17.4,0,15.5z"/>
</g>
</svg>
