<?xml version="1.0" encoding="utf-8"?>
<!-- Generator: Adobe Illustrator 21.1.0, SVG Export Plug-In . SVG Version: 6.00 Build 0)  -->
<svg version="1.1" id="Layer_1" xmlns="http://www.w3.org/2000/svg" xmlns:xlink="http://www.w3.org/1999/xlink" x="0px" y="0px"
	 viewBox="0 0 246.9 155.3" style="enable-background:new 0 0 246.9 155.3;" xml:space="preserve">
<style type="text/css">
	.st0{display:none;}
	.st1{display:inline;fill:#FFFFFF;stroke:#000000;stroke-miterlimit:10;}
	.st2{display:inline;}
	.st3{fill:#8C6E53;stroke:#603913;stroke-width:2;stroke-linejoin:round;stroke-miterlimit:10;}
	.st4{fill:#76C378;stroke:#009444;stroke-width:2;stroke-linejoin:round;stroke-miterlimit:10;}
	.st5{fill:#E7503F;stroke:#931A1D;stroke-width:2;stroke-linejoin:round;stroke-miterlimit:10;}
	.st6{fill:#605D5C;stroke:#3A3636;stroke-width:2;stroke-linejoin:round;stroke-miterlimit:10;}
	.st7{display:none;fill:#E8E352;stroke:#B5BA4E;stroke-width:6;stroke-linejoin:round;stroke-miterlimit:10;}
	.st8{fill:#AED693;stroke:#79AA67;stroke-width:6;stroke-linejoin:round;stroke-miterlimit:10;}
	.st9{display:inline;fill:none;stroke:#B5BA4E;stroke-width:6;stroke-linejoin:round;stroke-miterlimit:10;}
	.st10{display:inline;fill:#C08C49;stroke:#A56928;stroke-width:4;stroke-linejoin:round;stroke-miterlimit:10;}
	.st11{display:inline;fill:none;stroke:#A56928;stroke-width:4;stroke-linejoin:round;stroke-miterlimit:10;}
	.st12{display:inline;fill:#F1EB67;stroke:#E8E491;stroke-miterlimit:10;}
	.st13{display:inline;fill:#846628;}
	.st14{fill:#662C90;}
	.st15{fill:#2D6733;}
	.st16{fill:#846628;}
	.st17{fill:#E12C26;}
	.st18{display:inline;fill:#F9A51B;}
	.st19{fill:#5FC6D1;stroke:#5F7EAA;stroke-width:4;stroke-miterlimit:10;}
	.st20{fill:#5EC6D1;stroke:#5F7EAA;stroke-width:4;stroke-linejoin:round;stroke-miterlimit:10;}
	.st21{display:inline;fill:#8C6E53;stroke:#603913;stroke-width:2;stroke-linejoin:round;stroke-miterlimit:10;}
	.st22{display:inline;fill:#76C378;stroke:#009444;stroke-width:2;stroke-linejoin:round;stroke-miterlimit:10;}
</style>
<g id="Layer_1_copy" class="st0">
	<path class="st1" d="M256.3,129.3"/>
</g>
<g id="Layer_3" class="st0">
	<g class="st2">
		<path class="st3" d="M143.9-10.4c1.9,4.9-3.3,6.7-9.3,23.7c-4,11.2-5.2,25.9-7.4,55.1c-0.8,10.8-1.6,21.2-2,35.5
			c0,1.8-0.8,18.3,0.2,36.9c1.6,30,3.6,63.5,12.6,107.8c6.5,31.6,14.5,58.5,21.9,80l9,19.7c-3-2.9-7.4-7-12.7-12
			c-16.5-15.3-20.7-19.2-21.6-18.4c-1.3,1.1,5.6,9.4,10.7,24.7c3.1,9.4,5.6,21.7,3.4,22.6c-2.2,0.9-7.2-10.6-19.9-26
			c-9.7-11.8-22.9-24.7-26-22.6c-2.8,1.9,6.1,13.6,4.7,32.2c-0.6,8.6-3.2,18.4-6.2,18.5c-3.4,0.1-3.3-13.2-12.5-28.4
			c-6.1-10-18.3-24.3-26.6-21.6c-6.5,2.1-8,13.9-8.4,16.5c-2.4,18.3,9.7,31.4,7.6,32.8c-2.4,1.6-18.8-10.7-24.6-29.7
			c-2.6-8.4-2.4-15.8-5.1-16.1c-2.8-0.4-4.3,7.6-11.9,17C13.2,346,3.9,352.9,2,351.4c-2.3-1.8,5.5-14.7,9.7-22.6
			c10.5-19.8,13.1-40.1,20.8-80.3c2.3-12.2,4.1-23.6,5.5-34.3c1.9-14.7,5.4-41.3,5.6-73.6c0.2-52.7-8.1-115.1-11.1-127.3
			S24.3-9,22.8-10.2l0,0C22.7-12.4,135.3-32.7,143.9-10.4z"/>
		<path class="st4" d="M242.2-59.2c-0.7-5.8-2.3-19-12.2-30.6c-9.7-11.4-22.6-15.6-31.6-18.5c-12.1-3.9-21.7-4.2-21.7-5.9
			s8.7-1.3,17.3-4.4c14.3-5.1,25.5-18.4,30.2-31.7c9.5-26.9-8.4-51.2-11.8-55.8c-15.9-21.6-39.3-26.6-48.3-27.9
			c-1.2-0.2-2.1-0.3-2.9-0.4c-6.8-0.7-37.4-4.1-47.8,10.5c-5.5,7.7-3.6,16.4-6.5,16.7c-3.1,0.3-4.8-10.5-9.6-18.5
			c-13.7-22.6-56.5-28.5-86.8-16.1c-6.9,2.8-20.6,8.7-28.6,22.9c-2.3,4.2-8.7,15.6-5.3,27.1c1.9,6.3,5.5,8.4,4.3,10.7
			c-2.6,5.1-20.8-5.5-42.6,0c-4.9,1.2-13.9,3.6-21.9,10.9c-12.8,11.8-19.2,33.2-11.9,50.7c7.8,18.8,28.3,25.8,33.6,27.6
			c9.4,3.2,18.7,3.7,18.7,5.2c-0.1,1.8-12.8-0.8-23.9,6c-11.4,6.9-17,21.3-17.2,33.6c0,3.2,0.1,15.7,9,26.9
			c10.9,13.8,29.9,17.9,44,16.4c16.2-1.7,22.2-10.6,41.4-9.3c8.8,0.6,12.4,2.8,14.5,4.5c4.8,4,112.7,5.4,121,0.1
			c11.5-7.3,24.1,8,47.7,6.5c17.3-1.1,36.9-11,45.1-27.9C244.2-41.6,242.9-53.1,242.2-59.2z"/>
		<g>
			<path class="st5" d="M366.1-78.1c-1.9-0.1-2.1-2.6-4.5-3c-2.6-0.4-4.9,1.7-5.8,4c-0.7,1.8-0.7,3.8-0.4,5.7c0.3,1.9,1,3.6,1.7,5.3
				c0.5,1.3,1.1,2.6,2.5,3.3c1.5,0.7,3.1,0.1,4.7,0c1.7-0.1,3.2,1,4.9,0.4c2.9-0.9,4.1-3.5,5.1-6.2c1.3-3.7,2.5-7.7-0.3-11
				c-0.6-0.7-1.3-1.2-2.2-1.3C369.3-81.2,368.5-77.9,366.1-78.1z"/>
			<path class="st5" d="M366.1-85.9c0.3,0.6,0.9,1.8,1,3.3c0.1,1.9-0.5,3.4-0.8,4"/>
		</g>
		<g>
			<path class="st5" d="M385.6,79.1c-1.9-0.1-2.1-2.6-4.5-3c-2.6-0.4-4.9,1.7-5.8,4c-0.7,1.8-0.7,3.8-0.4,5.7c0.3,1.9,1,3.6,1.7,5.3
				c0.5,1.3,1.1,2.6,2.5,3.3c1.5,0.7,3.1,0.1,4.7,0c1.7-0.1,3.2,1,4.9,0.4c2.9-0.9,4.1-3.5,5.1-6.2c1.3-3.7,2.5-7.7-0.3-11
				c-0.6-0.7-1.3-1.2-2.2-1.3C388.8,76,387.9,79.3,385.6,79.1z"/>
			<path class="st5" d="M385.5,71.4c0.3,0.6,0.9,1.8,1,3.3c0.1,1.9-0.5,3.4-0.8,4"/>
		</g>
		<g>
			<path class="st5" d="M365.3-120.7c-1.9-0.1-2.1-2.6-4.5-3c-2.6-0.4-4.9,1.7-5.8,4c-0.7,1.8-0.7,3.8-0.4,5.7s1,3.6,1.7,5.3
				c0.5,1.3,1.1,2.6,2.5,3.3c1.5,0.7,3.1,0.1,4.7,0c1.7-0.1,3.2,1,4.9,0.4c2.9-0.9,4.1-3.5,5.1-6.2c1.3-3.7,2.5-7.7-0.3-11
				c-0.6-0.7-1.3-1.2-2.2-1.3C368.5-123.9,367.6-120.6,365.3-120.7z"/>
			<path class="st5" d="M365.2-128.5c0.3,0.6,0.9,1.8,1,3.3c0.1,1.9-0.5,3.4-0.8,4"/>
		</g>
		<g>
			<path class="st5" d="M378.3-14.5c-1.9-0.1-2.1-2.6-4.5-3c-2.6-0.4-4.9,1.7-5.8,4c-0.7,1.8-0.7,3.8-0.4,5.7c0.3,1.9,1,3.6,1.7,5.3
				c0.5,1.3,1.1,2.6,2.5,3.3c1.5,0.7,3.1,0.1,4.7,0c1.7-0.1,3.2,1,4.9,0.4c2.9-0.9,4.1-3.5,5.1-6.2c1.3-3.7,2.5-7.7-0.3-11
				c-0.6-0.7-1.3-1.2-2.2-1.3C381.5-17.6,380.7-14.3,378.3-14.5z"/>
			<path class="st5" d="M378.2-22.3c0.3,0.6,0.9,1.8,1,3.3c0.1,1.9-0.5,3.4-0.8,4"/>
		</g>
		<g>
			<path class="st5" d="M354.9-181.7c-1.9-0.1-2.1-2.6-4.5-3c-2.6-0.4-4.9,1.7-5.8,4c-0.7,1.8-0.7,3.8-0.4,5.7s1,3.6,1.7,5.3
				c0.5,1.3,1.1,2.6,2.5,3.3c1.5,0.7,3.1,0.1,4.7,0c1.7-0.1,3.2,1,4.9,0.4c2.9-0.9,4.1-3.5,5.1-6.2c1.3-3.7,2.5-7.7-0.3-11
				c-0.6-0.7-1.3-1.2-2.2-1.3C358.1-184.8,357.3-181.5,354.9-181.7z"/>
			<path class="st5" d="M354.8-189.5c0.3,0.6,0.9,1.8,1,3.3c0.1,1.9-0.5,3.4-0.8,4"/>
		</g>
		<g>
			<path class="st5" d="M370-45.1c-1.9-0.1-2.1-2.6-4.5-3c-2.6-0.4-4.9,1.7-5.8,4c-0.7,1.8-0.7,3.8-0.4,5.7c0.3,1.9,1,3.6,1.7,5.3
				c0.5,1.3,1.1,2.6,2.5,3.3c1.5,0.7,3.1,0.1,4.7,0c1.7-0.1,3.2,1,4.9,0.4c2.9-0.9,4.1-3.5,5.1-6.2c1.3-3.7,2.5-7.7-0.3-11
				c-0.6-0.7-1.3-1.2-2.2-1.3C373.2-48.3,372.4-45,370-45.1z"/>
			<path class="st5" d="M369.9-52.9c0.3,0.6,0.9,1.8,1,3.3c0.1,1.9-0.5,3.4-0.8,4"/>
		</g>
		<g>
			<path class="st5" d="M368.5-148.9c-1.9-0.1-2.1-2.6-4.5-3c-2.6-0.4-4.9,1.7-5.8,4c-0.7,1.8-0.7,3.8-0.4,5.7s1,3.6,1.7,5.3
				c0.5,1.3,1.1,2.6,2.5,3.3c1.5,0.7,3.1,0.1,4.7,0c1.7-0.1,3.2,1,4.9,0.4c2.9-0.9,4.1-3.5,5.1-6.2c1.3-3.7,2.5-7.7-0.3-11
				c-0.6-0.7-1.3-1.2-2.2-1.3C371.7-152,370.9-148.7,368.5-148.9z"/>
			<path class="st5" d="M368.5-156.7c0.3,0.6,0.9,1.8,1,3.3c0.1,1.9-0.5,3.4-0.8,4"/>
		</g>
		<g>
			<path class="st5" d="M410.3-151.2c-1.9-0.1-2.1-2.6-4.5-3c-2.6-0.4-4.9,1.7-5.8,4c-0.7,1.8-0.7,3.8-0.4,5.7s1,3.6,1.7,5.3
				c0.5,1.3,1.1,2.6,2.5,3.3c1.5,0.7,3.1,0.1,4.7,0c1.7-0.1,3.2,1,4.9,0.4c2.9-0.9,4.1-3.5,5.1-6.2c1.3-3.7,2.5-7.7-0.3-11
				c-0.6-0.7-1.3-1.2-2.2-1.3C413.5-154.3,412.7-151,410.3-151.2z"/>
			<path class="st5" d="M410.3-158.9c0.3,0.6,0.9,1.8,1,3.3c0.1,1.9-0.5,3.4-0.8,4"/>
		</g>
	</g>
	<g class="st2">
		<path class="st5" d="M151.2,35.7c-4.4-0.3-4.8-5.2-10.2-6c-5.9-0.9-11.1,3.4-13.1,8c-1.6,3.6-1.6,7.7-0.9,11.5
			c0.8,3.7,2.3,7.2,3.8,10.7c1.1,2.7,2.6,5.3,5.7,6.5c3.4,1.4,7.1,0.2,10.7,0c4-0.2,7.2,2,11.1,0.8c6.7-1.9,9.3-7,11.6-12.4
			c3-7.4,5.6-15.4-0.8-22.1c-1.3-1.3-3-2.4-5-2.7C158.4,29.4,156.5,36.1,151.2,35.7z"/>
		<path class="st5" d="M151,20.1c0.8,1.3,2,3.6,2.2,6.7c0.3,3.9-1.2,6.8-1.9,8.1"/>
	</g>
</g>
<g id="Layer_3_copy" class="st0">
	<g class="st2">
		<path class="st3" d="M132.4-11.8c1.9,4.9-3.3,6.7-9.3,23.7c-4,11.2-5.2,25.9-7.4,55.1c-0.8,10.8-1.6,21.2-2,35.5
			c0,1.8-0.8,18.3,0.2,36.9c1.6,30,3.6,63.5,12.6,107.8c6.5,31.6,14.5,58.5,21.9,80l9,19.7c-3-2.9-7.4-7-12.7-12
			c-16.5-15.3-20.7-19.2-21.6-18.4c-1.3,1.1,5.6,9.4,10.7,24.7c3.1,9.4,5.6,21.7,3.4,22.6c-2.2,0.9-7.2-10.6-19.9-26
			c-9.7-11.8-22.9-24.7-26-22.6c-2.8,1.9,6.1,13.6,4.7,32.2c-0.6,8.6-3.2,18.4-6.2,18.5c-3.4,0.1-3.3-13.2-12.5-28.4
			c-6.1-10-18.3-24.3-26.6-21.6c-6.5,2.1-8,13.9-8.4,16.5c-2.4,18.3,9.7,31.4,7.6,32.8c-2.4,1.6-18.8-10.7-24.6-29.7
			c-2.6-8.4-2.4-15.8-5.1-16.1c-2.8-0.4-4.3,7.6-11.9,17C1.7,344.6-7.6,351.5-9.5,350c-2.3-1.8,5.5-14.7,9.7-22.6
			c10.5-19.8,13.1-40.1,20.8-80.3c2.3-12.2,4.1-23.6,5.5-34.3c1.9-14.7,5.4-41.3,5.6-73.6C32.3,86.5,24,24.1,21,11.9
			s-8.2-22.3-9.7-23.5l0,0C11.2-13.7,123.7-34,132.4-11.8z"/>
		<path class="st4" d="M230.6-60.6c-0.7-5.8-2.3-19-12.2-30.6c-9.7-11.4-22.6-15.6-31.6-18.5c-12.1-3.9-21.7-4.2-21.7-5.9
			s8.7-1.3,17.3-4.4c14.3-5.1,25.5-18.4,30.2-31.7c9.5-26.9-8.4-51.2-11.8-55.8c-15.9-21.6-39.3-26.6-48.3-27.9
			c-1.2-0.2-2.1-0.3-2.9-0.4c-6.8-0.7-37.4-4.1-47.8,10.5c-5.5,7.7-3.6,16.4-6.5,16.7c-3.1,0.3-4.8-10.5-9.6-18.5
			C72-249.7,29.2-255.6-1.1-243.2c-6.9,2.8-20.6,8.7-28.6,22.9c-2.3,4.2-8.7,15.6-5.3,27.1c1.9,6.3,5.5,8.4,4.3,10.7
			c-2.6,5.1-20.8-5.5-42.6,0c-4.9,1.2-13.9,3.6-21.9,10.9c-12.8,11.8-19.2,33.2-11.9,50.7c7.8,18.8,28.3,25.8,33.6,27.6
			c9.4,3.2,18.7,3.7,18.7,5.2c-0.1,1.8-12.8-0.8-23.9,6c-11.4,6.9-17,21.3-17.2,33.6c0,3.2,0.1,15.7,9,26.9C-76-7.8-57-3.7-42.9-5.2
			c16.2-1.7,22.2-10.6,41.4-9.3C7.3-13.9,10.9-11.7,13-10c4.8,4,112.7,5.4,121,0.1c11.5-7.3,24.1,8,47.7,6.5
			c17.3-1.1,36.9-11,45.1-27.9C232.6-42.9,231.3-54.5,230.6-60.6z"/>
		<g>
			<path class="st6" d="M-24.6-41.6c-1.9-0.1-2.1-2.6-4.5-3c-2.6-0.4-4.9,1.7-5.8,4c-0.7,1.8-0.7,3.8-0.4,5.7c0.3,1.9,1,3.6,1.7,5.3
				c0.5,1.3,1.1,2.6,2.5,3.3c1.5,0.7,3.1,0.1,4.7,0c1.7-0.1,3.2,1,4.9,0.4c2.9-0.9,4.1-3.5,5.1-6.2c1.3-3.7,2.5-7.7-0.3-11
				c-0.6-0.7-1.3-1.2-2.2-1.3C-21.4-44.8-22.2-41.4-24.6-41.6z"/>
			<path class="st6" d="M-24.7-49.4c0.3,0.6,0.9,1.8,1,3.3c0.1,1.9-0.5,3.4-0.8,4"/>
		</g>
		<g>
			<path class="st5" d="M-35.9-145.7c-1.9-0.1-2.1-2.6-4.5-3c-2.6-0.4-4.9,1.7-5.8,4c-0.7,1.8-0.7,3.8-0.4,5.7s1,3.6,1.7,5.3
				c0.5,1.3,1.1,2.6,2.5,3.3c1.5,0.7,3.1,0.1,4.7,0c1.7-0.1,3.2,1,4.9,0.4c2.9-0.9,4.1-3.5,5.1-6.2c1.3-3.7,2.5-7.7-0.3-11
				c-0.6-0.7-1.3-1.2-2.2-1.3C-32.7-148.8-33.6-145.5-35.9-145.7z"/>
			<path class="st5" d="M-36-153.5c0.3,0.6,0.9,1.8,1,3.3c0.1,1.9-0.5,3.4-0.8,4"/>
		</g>
		<g>
			<path class="st5" d="M34.2-102.9c-1.9-0.1-2.1-2.6-4.5-3c-2.6-0.4-4.9,1.7-5.8,4c-0.7,1.8-0.7,3.8-0.4,5.7s1,3.6,1.7,5.3
				c0.5,1.3,1.1,2.6,2.5,3.3c1.5,0.7,3.1,0.1,4.7,0c1.7-0.1,3.2,1,4.9,0.4c2.9-0.9,4.1-3.5,5.1-6.2c1.3-3.7,2.5-7.7-0.3-11
				c-0.6-0.7-1.3-1.2-2.2-1.3C37.3-106,36.5-102.7,34.2-102.9z"/>
			<path class="st5" d="M34.1-110.7c0.3,0.6,0.9,1.8,1,3.3c0.1,1.9-0.5,3.4-0.8,4"/>
		</g>
		<g>
			<path class="st5" d="M95.3-44.6c-1.9-0.1-2.1-2.6-4.5-3c-2.6-0.4-4.9,1.7-5.8,4c-0.7,1.8-0.7,3.8-0.4,5.7c0.3,1.9,1,3.6,1.7,5.3
				c0.5,1.3,1.1,2.6,2.5,3.3c1.5,0.7,3.1,0.1,4.7,0c1.7-0.1,3.2,1,4.9,0.4c2.9-0.9,4.1-3.5,5.1-6.2c1.3-3.7,2.5-7.7-0.3-11
				c-0.6-0.7-1.3-1.2-2.2-1.3C98.5-47.8,97.7-44.5,95.3-44.6z"/>
			<path class="st5" d="M95.2-52.4c0.3,0.6,0.9,1.8,1,3.3c0.1,1.9-0.5,3.4-0.8,4"/>
		</g>
		<g>
			<path class="st5" d="M156.9-188c-1.9-0.1-2.1-2.6-4.5-3c-2.6-0.4-4.9,1.7-5.8,4c-0.7,1.8-0.7,3.8-0.4,5.7c0.3,1.9,1,3.6,1.7,5.3
				c0.5,1.3,1.1,2.6,2.5,3.3c1.5,0.7,3.1,0.1,4.7,0c1.7-0.1,3.2,1,4.9,0.4c2.9-0.9,4.1-3.5,5.1-6.2c1.3-3.7,2.5-7.7-0.3-11
				c-0.6-0.7-1.3-1.2-2.2-1.3C160.1-191.2,159.2-187.9,156.9-188z"/>
			<path class="st5" d="M156.8-195.8c0.3,0.6,0.9,1.8,1,3.3c0.1,1.9-0.5,3.4-0.8,4"/>
		</g>
		<g>
			<path class="st5" d="M185.5-62.9c-1.9-0.1-2.1-2.6-4.5-3c-2.6-0.4-4.9,1.7-5.8,4c-0.7,1.8-0.7,3.8-0.4,5.7c0.3,1.9,1,3.6,1.7,5.3
				c0.5,1.3,1.1,2.6,2.5,3.3c1.5,0.7,3.1,0.1,4.7,0c1.7-0.1,3.2,1,4.9,0.4c2.9-0.9,4.1-3.5,5.1-6.2c1.3-3.7,2.5-7.7-0.3-11
				c-0.6-0.7-1.3-1.2-2.2-1.3C188.7-66,187.9-62.7,185.5-62.9z"/>
			<path class="st5" d="M185.4-70.6c0.3,0.6,0.9,1.8,1,3.3c0.1,1.9-0.5,3.4-0.8,4"/>
		</g>
		<g>
			<path class="st5" d="M113.6-123.9c-1.9-0.1-2.1-2.6-4.5-3c-2.6-0.4-4.9,1.7-5.8,4c-0.7,1.8-0.7,3.8-0.4,5.7
				c0.3,1.9,1,3.6,1.7,5.3c0.5,1.3,1.1,2.6,2.5,3.3c1.5,0.7,3.1,0.1,4.7,0c1.7-0.1,3.2,1,4.9,0.4c2.9-0.9,4.1-3.5,5.1-6.2
				c1.3-3.7,2.5-7.7-0.3-11c-0.6-0.7-1.3-1.2-2.2-1.3C116.8-127.1,115.9-123.7,113.6-123.9z"/>
			<path class="st5" d="M113.5-131.7c0.3,0.6,0.9,1.8,1,3.3c0.1,1.9-0.5,3.4-0.8,4"/>
		</g>
		<g>
			<path class="st5" d="M24-194.8c-1.9-0.1-2.1-2.6-4.5-3c-2.6-0.4-4.9,1.7-5.8,4c-0.7,1.8-0.7,3.8-0.4,5.7s1,3.6,1.7,5.3
				c0.5,1.3,1.1,2.6,2.5,3.3c1.5,0.7,3.1,0.1,4.7,0c1.7-0.1,3.2,1,4.9,0.4c2.9-0.9,4.1-3.5,5.1-6.2c1.3-3.7,2.5-7.7-0.3-11
				c-0.6-0.7-1.3-1.2-2.2-1.3C27.1-197.9,26.3-194.6,24-194.8z"/>
			<path class="st5" d="M23.9-202.6c0.3,0.6,0.9,1.8,1,3.3c0.1,1.9-0.5,3.4-0.8,4"/>
		</g>
		<g>
			<path class="st6" d="M113.6-123.9c-1.9-0.1-2.1-2.6-4.5-3c-2.6-0.4-4.9,1.7-5.8,4c-0.7,1.8-0.7,3.8-0.4,5.7
				c0.3,1.9,1,3.6,1.7,5.3c0.5,1.3,1.1,2.6,2.5,3.3c1.5,0.7,3.1,0.1,4.7,0c1.7-0.1,3.2,1,4.9,0.4c2.9-0.9,4.1-3.5,5.1-6.2
				c1.3-3.7,2.5-7.7-0.3-11c-0.6-0.7-1.3-1.2-2.2-1.3C116.8-127.1,115.9-123.7,113.6-123.9z"/>
			<path class="st6" d="M113.5-131.7c0.3,0.6,0.9,1.8,1,3.3c0.1,1.9-0.5,3.4-0.8,4"/>
		</g>
		<g>
			<path class="st6" d="M34.2-102.9c-1.9-0.1-2.1-2.6-4.5-3c-2.6-0.4-4.9,1.7-5.8,4c-0.7,1.8-0.7,3.8-0.4,5.7s1,3.6,1.7,5.3
				c0.5,1.3,1.1,2.6,2.5,3.3c1.5,0.7,3.1,0.1,4.7,0c1.7-0.1,3.2,1,4.9,0.4c2.9-0.9,4.1-3.5,5.1-6.2c1.3-3.7,2.5-7.7-0.3-11
				c-0.6-0.7-1.3-1.2-2.2-1.3C37.3-106,36.5-102.7,34.2-102.9z"/>
			<path class="st6" d="M34.1-110.7c0.3,0.6,0.9,1.8,1,3.3c0.1,1.9-0.5,3.4-0.8,4"/>
		</g>
		<g>
			<path class="st6" d="M95.3-44.6c-1.9-0.1-2.1-2.6-4.5-3c-2.6-0.4-4.9,1.7-5.8,4c-0.7,1.8-0.7,3.8-0.4,5.7c0.3,1.9,1,3.6,1.7,5.3
				c0.5,1.3,1.1,2.6,2.5,3.3c1.5,0.7,3.1,0.1,4.7,0c1.7-0.1,3.2,1,4.9,0.4c2.9-0.9,4.1-3.5,5.1-6.2c1.3-3.7,2.5-7.7-0.3-11
				c-0.6-0.7-1.3-1.2-2.2-1.3C98.5-47.8,97.7-44.5,95.3-44.6z"/>
			<path class="st6" d="M95.2-52.4c0.3,0.6,0.9,1.8,1,3.3c0.1,1.9-0.5,3.4-0.8,4"/>
		</g>
	</g>
</g>
<g id="Layer_5">
	<ellipse class="st7" cx="105.7" cy="81.5" rx="119.8" ry="146.8"/>
	<path class="st8" d="M56.7,72.9c-4.4-0.1-14-16.3-16-18.9c-9.5-12-17.8-24.9-29.4-36.2C14.7,21,63,36.1,64.6,35.9
		c10.4-1,17-20.2,21.8-25.2c-2.8,2.9,34.5,24.4,39.1,27.8c0.1,0.1,34.1-21.4,36.6-24.3c8.6,9.3,17.3,18.5,25.9,27.8
		c-1.6-2.4,41.7-20.7,46.7-23.2c-5.3,2.7-23.1,46.1-29.6,59C155.6,76.1,106.2,74.5,56.7,72.9z"/>
	<path class="st8" d="M77.5,112.3c-3.4-0.1-10.5-16.1-12.1-18.7C58.3,81.8,52.1,69,43.3,57.8c2.5,3.2,39.6,17.5,40.8,17.3
		c8-1.1,13.4-20.5,17.1-25.5c-2.2,2.9,26.2,23.9,29.7,27.2c0.1,0.1,26.6-21.9,28.5-24.8c6.5,9.1,13.1,18.2,19.6,27.4
		c-1.2-2.4,32.4-21.3,36.3-23.9c-4.2,2.7-18.5,46.4-23.6,59.4C153.6,114.1,115.6,113.2,77.5,112.3z"/>
	<path class="st8" d="M90.5,143.6c-2.7,0-8.2-16-9.4-18.5c-5.6-11.7-10.4-24.5-17.3-35.5c2,3.2,31.5,17,32.5,16.8
		c6.4-1.2,11-20.6,14-25.7c-1.8,2.9,20.7,23.6,23.5,26.8c0,0.1,21.6-22.2,23.2-25.2c5.1,9,10.2,18.1,15.3,27.1
		c-1-2.4,26.2-21.7,29.4-24.3c-3.4,2.8-15.4,46.6-19.7,59.6C151.4,144.4,120.9,144,90.5,143.6z"/>
</g>
<g id="Layer_6" class="st0">
	<line class="st9" x1="-14.1" y1="87.8" x2="125.7" y2="-63.2"/>
	<line class="st9" x1="-5.4" y1="131.9" x2="162" y2="-49"/>
	<line class="st9" x1="10.9" y1="168.2" x2="188" y2="-23.1"/>
	<line class="st9" x1="32.4" y1="199" x2="209.5" y2="7.7"/>
	<line class="st9" x1="63" y1="218.3" x2="222.2" y2="47.3"/>
	<line class="st9" x1="111.2" y1="228.8" x2="224.2" y2="103.4"/>
	<line class="st9" x1="213.3" y1="150.7" x2="28.7" y2="-28.5"/>
	<line class="st9" x1="189.8" y1="186" x2="3.6" y2="6.3"/>
	<line class="st9" x1="158.3" y1="216.9" x2="-11.6" y2="51.9"/>
	<line class="st9" x1="225.2" y1="104.4" x2="58.6" y2="-55.6"/>
	<line class="st9" x1="222.2" y1="47.3" x2="112.1" y2="-64.8"/>
	<line class="st9" x1="111.2" y1="228.8" x2="-14.1" y2="103.4"/>
	<line class="st9" x1="-7.5" y1="32.1" x2="79.4" y2="-61.7"/>
</g>
<g id="Layer_7" class="st0">
	<path class="st10" d="M218.8-44.6c0,10.7-1.6,32.6-14.7,55.5c-3.9,6.8-12.9,22-30.6,34c-23.6,15.9-47.8,15.9-68,15.9
		c-20.5,0-53.2-0.1-80.4-22.7C11.8,27,4.7,14.6,1.3,8.7c-12.6-22.5-14.6-44-14.7-55.3L218.8-44.6z"/>
	<path class="st11" d="M-13.7-44.4c1.5-12.7,7.4-47.4,35.9-73c41.6-37.3,110.1-35.9,153.1-1.9c32.7,25.8,41.1,62.8,43.4,75.6"/>
	<line class="st11" x1="-8.1" y1="-16.8" x2="42.4" y2="-46.7"/>
	<line class="st11" x1="1.3" y1="7" x2="90.5" y2="-45.7"/>
	<line class="st11" x1="14.3" y1="29" x2="139" y2="-44.7"/>
	<line class="st11" x1="38" y1="46.8" x2="192.9" y2="-44.8"/>
	<line class="st11" x1="72.6" y1="59.1" x2="217.8" y2="-26.8"/>
	<line class="st11" x1="114.1" y1="60.7" x2="206.6" y2="6"/>
	<line class="st11" x1="175.1" y1="-44.7" x2="214.1" y2="-13.5"/>
	<line class="st11" x1="134.1" y1="-44.6" x2="204" y2="10.9"/>
	<line class="st11" x1="93.4" y1="-44.6" x2="189.2" y2="31.5"/>
	<line class="st11" x1="47.6" y1="-46.1" x2="167" y2="48.8"/>
	<line class="st11" x1="2.8" y1="-46.7" x2="136.8" y2="59.7"/>
	<line class="st11" x1="-10.4" y1="-24.5" x2="96.8" y2="60.7"/>
	<line class="st11" x1="2.2" y1="10.9" x2="58.5" y2="55.6"/>
</g>
<g id="Layer_7_copy_5" class="st0">
	<path class="st12" d="M127.5-50.9c4.4-6,14.8-16.4,15.2-23.6c0.4-7.3,0.8-30.8,2-35.6s9.4,7.8,10.2,12.6c0.8,4.8,3.9,19.9,2.5,25.2
		s-6.5,15.7-9.7,18.5s-7.3,8-13.2,12c-6.1,2.4-10,6.6-16.1,6.6C112.3-35.1,123.1-44.8,127.5-50.9z"/>
	<path class="st12" d="M149.9-49.3c2.5-6.8,9.5-19.2,7.8-25.9s-8-28.2-8.2-32.8c-0.2-4.7,11.2,4.3,13.3,8.4
		c2.1,4.1,9.4,16.9,9.5,22.1c0.1,5.2-1.8,16.2-4,19.7s-4.7,9.4-9.2,14.8c-5.1,4-7.7,8.9-13.5,10.8C139.9-30.5,147.5-42.6,149.9-49.3
		z"/>
	<path class="st12" d="M106.8-65.1c6.2-3.6,19.6-8.7,22.6-15c3-6.2,11.9-26.7,14.7-30.5c2.8-3.7,5.9,10.5,4.9,15s-3.6,19-6.8,23.1
		c-3.2,4.1-11.7,11.3-15.7,12.6c-3.9,1.3-9.6,4.3-16.5,5.5c-6.5-0.3-11.6,2-17.3-0.4S100.6-61.5,106.8-65.1z"/>
	<path class="st13" d="M143.4-108c0.2-3.8,0-15,0-18.5s10.5-3.5,10.5,0s2.4,15,0,18.5C151.6-104.5,143.2-104.2,143.4-108z"/>
	<g class="st2">
		
			<ellipse transform="matrix(0.8054 -0.5928 0.5928 0.8054 35.9578 -16.0506)" class="st14" cx="-6.5" cy="-62.8" rx="8.5" ry="8.9"/>
		<ellipse transform="matrix(0.8054 -0.5928 0.5928 0.8054 44.5793 -9.8742)" class="st14" cx="7.3" cy="-72.8" rx="8.5" ry="8.9"/>
		
			<ellipse transform="matrix(0.8054 -0.5928 0.5928 0.8054 53.1863 -3.7848)" class="st14" cx="20.8" cy="-82.9" rx="8.5" ry="8.9"/>
		<ellipse transform="matrix(0.8054 -0.5928 0.5928 0.8054 61.8079 2.3916)" class="st14" cx="34.5" cy="-92.9" rx="8.5" ry="8.9"/>
		<ellipse transform="matrix(0.8054 -0.5928 0.5928 0.8054 34.7119 -5.1283)" class="st14" cx="9.5" cy="-55.4" rx="8.5" ry="8.9"/>
		<ellipse transform="matrix(0.8054 -0.5928 0.5928 0.8054 43.3188 0.9611)" class="st14" cx="23.1" cy="-65.5" rx="8.5" ry="8.9"/>
		<ellipse transform="matrix(0.8054 -0.5928 0.5928 0.8054 51.9404 7.1375)" class="st14" cx="36.8" cy="-75.5" rx="8.5" ry="8.9"/>
		<ellipse transform="matrix(0.8054 -0.5928 0.5928 0.8054 33.3368 5.8983)" class="st14" cx="25.7" cy="-47.8" rx="8.5" ry="8.9"/>
		
			<ellipse transform="matrix(0.8054 -0.5928 0.5928 0.8054 41.9438 11.9877)" class="st14" cx="39.2" cy="-57.9" rx="8.5" ry="8.9"/>
		
			<ellipse transform="matrix(0.8054 -0.5928 0.5928 0.8054 32.0603 16.8111)" class="st14" cx="41.6" cy="-40.4" rx="8.5" ry="8.9"/>
		<path class="st15" d="M7.4-82.9c-0.3,1.4-9.6,2.2-10.9,1.8c-1.9,0.2-11.3-4.7-10.8-7.2s10.2-3.1,11.9-2.6S7.7-84.4,7.4-82.9z"/>
		<path class="st15" d="M10.1-108.2c2.9,0.8,4.4,12.7,4.5,14.7S7.7-82.2,6.5-82.2c-1.2,0-6.4-11.1-5.3-14.9
			C2.4-100.9,7.3-109,10.1-108.2z"/>
	</g>
	<g class="st2">
		<path class="st16" d="M76.1-69.6c0,0,1.1-13.5,0.8-18.9s-2.2-6.1-2.5-10.5c-1.5-3,5.2-1,6.7,0.3s3.3,8.9,3.1,14.8
			C84-78,83.6-69.2,83.6-69.2L76.1-69.6z"/>
		<ellipse transform="matrix(0.1431 -0.9897 0.9897 0.1431 119.7938 29.0145)" class="st17" cx="76.7" cy="-54.7" rx="26" ry="26"/>
	</g>
	
		<ellipse transform="matrix(0.1431 -0.9897 0.9897 0.1431 226.2711 141.0433)" class="st18" cx="194.6" cy="-60.1" rx="26" ry="26"/>
	<g class="st2">
		<path class="st19" d="M72.4,88.1c-1.6,0.9-3,5.3-1.6,6.8s68.9,2.5,70.2,0.5s0.3-4.9-2.1-6.7C136.5,86.8,74,87.3,72.4,88.1z"/>
		<path class="st19" d="M-39.3-31.1c0.1,2,6.3,3.5,18.6,6.6c35.3,8.8,63.2,8.2,83.5,7.8c78.2-1.5,61.8,0.1,92.1-1.4
			c45.5-2.2,92.1-4.4,92.5-10.9c0-0.7-0.4-4-22.3-9.2C131.6-60.7-40.2-44.7-39.3-31.1z"/>
		<path class="st20" d="M219.8-20.6c0,10.7-1.6,32.6-14.7,55.5c-3.9,6.8-12.9,22-30.6,34c-23.6,15.9-47.8,15.9-68,15.9
			c-20.5,0-53.2-0.1-80.4-22.7C12.8,51,5.7,38.6,2.3,32.7c-12.6-22.5-14.6-44-14.7-55.3L219.8-20.6z"/>
	</g>
</g>
<g id="Layer_7_copy" class="st0">
	<path class="st10" d="M218.8-44.6c0,10.7-1.6,32.6-14.7,55.5c-3.9,6.8-12.9,22-30.6,34c-23.6,15.9-47.8,15.9-68,15.9
		c-20.5,0-53.2-0.1-80.4-22.7C11.8,27,4.7,14.6,1.3,8.7c-12.6-22.5-14.6-44-14.7-55.3L218.8-44.6z"/>
	<path class="st11" d="M-13.7-44.4c1.5-12.7,7.4-47.4,35.9-73c41.6-37.3,110.1-35.9,153.1-1.9c32.7,25.8,41.1,62.8,43.4,75.6"/>
	<line class="st11" x1="-8.1" y1="-16.8" x2="42.4" y2="-46.7"/>
	<line class="st11" x1="1.3" y1="7" x2="90.5" y2="-45.7"/>
	<line class="st11" x1="14.3" y1="29" x2="139" y2="-44.7"/>
	<line class="st11" x1="38" y1="46.8" x2="192.9" y2="-44.8"/>
	<line class="st11" x1="72.6" y1="59.1" x2="217.8" y2="-26.8"/>
	<line class="st11" x1="114.1" y1="60.7" x2="206.6" y2="6"/>
	<line class="st11" x1="175.1" y1="-44.7" x2="214.1" y2="-13.5"/>
	<line class="st11" x1="134.1" y1="-44.6" x2="204" y2="10.9"/>
	<line class="st11" x1="93.4" y1="-44.6" x2="189.2" y2="31.5"/>
	<line class="st11" x1="47.6" y1="-46.1" x2="167" y2="48.8"/>
	<line class="st11" x1="2.8" y1="-46.7" x2="136.8" y2="59.7"/>
	<line class="st11" x1="-10.4" y1="-24.5" x2="96.8" y2="60.7"/>
	<line class="st11" x1="2.2" y1="10.9" x2="58.5" y2="55.6"/>
	<path class="st21" d="M60.7-76.4c1.9,4.9-3.3,6.7-9.3,23.7c-4,11.2-5.2,25.9-7.4,55.1c-0.8,10.8-1.6,21.2-2,35.5
		c0,1.8-0.8,18.3,0.2,36.9c1.6,30,3.6,63.5,12.6,107.8c6.5,31.6,14.5,58.5,21.9,80l9,19.7c-3-2.9-7.4-7-12.7-12
		c-16.5-15.3-20.7-19.2-21.6-18.4c-1.3,1.1,5.6,9.4,10.7,24.7c3.1,9.4,5.6,21.7,3.4,22.6c-2.2,0.9-7.2-10.6-19.9-26
		c-9.7-11.8-22.9-24.7-26-22.6c-2.8,1.9,6.1,13.6,4.7,32.2c-0.6,8.6-3.2,18.4-6.2,18.5c-3.4,0.1-3.3-13.2-12.5-28.4
		c-6.1-10-18.3-24.3-26.6-21.6c-6.5,2.1-8,13.9-8.4,16.5c-2.4,18.3,9.7,31.4,7.6,32.8c-2.4,1.6-18.8-10.7-24.6-29.7
		c-2.6-8.4-2.4-15.8-5.1-16.1c-2.8-0.4-4.3,7.6-11.9,17c-6.6,8.2-15.9,15.1-17.8,13.6c-2.3-1.8,5.5-14.7,9.7-22.6
		c10.5-19.8,13.1-40.1,20.8-80.3c2.3-12.2,4.1-23.6,5.5-34.3c1.9-14.7,5.4-41.3,5.6-73.6c0.2-52.7-8.1-115.1-11.1-127.3
		c-3-12.2-8.2-22.3-9.7-23.5l0,0C-60.5-78.4,52-98.7,60.7-76.4z"/>
	<path class="st22" d="M159-125.2c-0.7-5.8-2.3-19-12.2-30.6c-9.7-11.4-22.6-15.6-31.6-18.5c-12.1-3.9-21.7-4.2-21.7-5.9
		s8.7-1.3,17.3-4.4c14.3-5.1,25.5-18.4,30.2-31.7c9.5-26.9-8.4-51.2-11.8-55.8c-15.9-21.6-39.3-26.6-48.3-27.9
		c-1.2-0.2-2.1-0.3-2.9-0.4c-6.8-0.7-37.4-4.1-47.8,10.5c-5.5,7.7-3.6,16.4-6.5,16.7c-3.1,0.3-4.8-10.5-9.6-18.5
		c-13.7-22.6-56.5-28.5-86.8-16.1c-6.9,2.8-20.6,8.7-28.6,22.9c-2.3,4.2-8.7,15.6-5.3,27.1c1.9,6.3,5.5,8.4,4.3,10.7
		c-2.6,5.1-20.8-5.5-42.6,0c-4.7,1.1-13.7,3.4-21.6,10.8c-12.8,11.8-19.2,33.2-12,50.7c7.8,18.8,28.3,25.8,33.6,27.6
		c9.4,3.2,18.7,3.7,18.7,5.2c-0.1,1.8-12.8-0.8-23.9,6c-11.4,6.9-17,21.3-17.2,33.6c0,3.2,0.1,15.7,9,26.9
		c10.9,13.8,29.9,17.9,44,16.4c16.2-1.7,22.2-10.6,41.4-9.3c8.8,0.6,12.4,2.8,14.5,4.5c4.8,4,112.7,5.4,121,0.1
		c11.5-7.3,24.1,8,47.7,6.5c17.3-1.1,36.9-11,45.1-27.9C161-107.6,159.7-119.1,159-125.2z"/>
	<g class="st2">
		<path class="st5" d="M31.6-77.2c-3.7-0.3-4-4.5-8.5-5.2c-4.9-0.8-9.2,3-10.9,6.9c-1.3,3.1-1.4,6.6-0.7,10c0.6,3.2,2,6.2,3.1,9.3
			c0.9,2.3,2.1,4.6,4.7,5.7c2.8,1.2,5.9,0.2,8.9,0c3.3-0.2,6,1.7,9.3,0.7c5.6-1.6,7.8-6.1,9.6-10.8c2.5-6.4,4.7-13.4-0.7-19.2
			c-1.1-1.2-2.5-2.1-4.2-2.3C37.6-82.7,36-76.9,31.6-77.2z"/>
		<path class="st5" d="M31.4-90.7c0.7,1.1,1.7,3.1,1.8,5.8c0.2,3.3-1,5.9-1.6,7"/>
	</g>
</g>
<g id="Layer_7_copy_2" class="st0">
	<path class="st10" d="M218.8-44.6c0,10.7-1.6,32.6-14.7,55.5c-3.9,6.8-12.9,22-30.6,34c-23.6,15.9-47.8,15.9-68,15.9
		c-20.5,0-53.2-0.1-80.4-22.7C11.8,27,4.7,14.6,1.3,8.7c-12.6-22.5-14.6-44-14.7-55.3L218.8-44.6z"/>
	<path class="st11" d="M-13.7-44.4c1.5-12.7,7.4-47.4,35.9-73c41.6-37.3,110.1-35.9,153.1-1.9c32.7,25.8,41.1,62.8,43.4,75.6"/>
	<line class="st11" x1="-8.1" y1="-16.8" x2="42.4" y2="-46.7"/>
	<line class="st11" x1="1.3" y1="7" x2="90.5" y2="-45.7"/>
	<line class="st11" x1="14.3" y1="29" x2="139" y2="-44.7"/>
	<line class="st11" x1="38" y1="46.8" x2="192.9" y2="-44.8"/>
	<line class="st11" x1="72.6" y1="59.1" x2="217.8" y2="-26.8"/>
	<line class="st11" x1="114.1" y1="60.7" x2="206.6" y2="6"/>
	<line class="st11" x1="175.1" y1="-44.7" x2="214.1" y2="-13.5"/>
	<line class="st11" x1="134.1" y1="-44.6" x2="204" y2="10.9"/>
	<line class="st11" x1="93.4" y1="-44.6" x2="189.2" y2="31.5"/>
	<line class="st11" x1="47.6" y1="-46.1" x2="167" y2="48.8"/>
	<line class="st11" x1="2.8" y1="-46.7" x2="136.8" y2="59.7"/>
	<line class="st11" x1="-10.4" y1="-24.5" x2="96.8" y2="60.7"/>
	<line class="st11" x1="2.2" y1="10.9" x2="58.5" y2="55.6"/>
	<g class="st2">
		<path class="st5" d="M31.6-77.2c-3.7-0.3-4-4.5-8.5-5.2c-4.9-0.8-9.2,3-10.9,6.9c-1.3,3.1-1.4,6.6-0.7,10c0.6,3.2,2,6.2,3.1,9.3
			c0.9,2.3,2.1,4.6,4.7,5.7c2.8,1.2,5.9,0.2,8.9,0c3.3-0.2,6,1.7,9.3,0.7c5.6-1.6,7.8-6.1,9.6-10.8c2.5-6.4,4.7-13.4-0.7-19.2
			c-1.1-1.2-2.5-2.1-4.2-2.3C37.6-82.7,36-76.9,31.6-77.2z"/>
		<path class="st5" d="M31.4-90.7c0.7,1.1,1.7,3.1,1.8,5.8c0.2,3.3-1,5.9-1.6,7"/>
	</g>
	<g class="st2">
		<path class="st5" d="M77.8-77.2c-3.7-0.3-4-4.5-8.5-5.2c-4.9-0.8-9.2,3-10.9,6.9c-1.3,3.1-1.4,6.6-0.7,10c0.6,3.2,2,6.2,3.1,9.3
			c0.9,2.3,2.1,4.6,4.7,5.7c2.8,1.2,5.9,0.2,8.9,0c3.3-0.2,6,1.7,9.3,0.7c5.6-1.6,7.8-6.1,9.6-10.8C95.8-67,98-74,92.6-79.8
			c-1.1-1.2-2.5-2.1-4.2-2.3C83.9-82.7,82.3-76.9,77.8-77.2z"/>
		<path class="st5" d="M77.7-90.7c0.7,1.1,1.7,3.1,1.8,5.8c0.2,3.3-1,5.9-1.6,7"/>
	</g>
</g>
<g id="Layer_7_copy_3" class="st0">
	<path class="st10" d="M218.8-44.6c0,10.7-1.6,32.6-14.7,55.5c-3.9,6.8-12.9,22-30.6,34c-23.6,15.9-47.8,15.9-68,15.9
		c-20.5,0-53.2-0.1-80.4-22.7C11.8,27,4.7,14.6,1.3,8.7c-12.6-22.5-14.6-44-14.7-55.3L218.8-44.6z"/>
	<path class="st11" d="M-13.7-44.4c1.5-12.7,7.4-47.4,35.9-73c41.6-37.3,110.1-35.9,153.1-1.9c32.7,25.8,41.1,62.8,43.4,75.6"/>
	<line class="st11" x1="-8.1" y1="-16.8" x2="42.4" y2="-46.7"/>
	<line class="st11" x1="1.3" y1="7" x2="90.5" y2="-45.7"/>
	<line class="st11" x1="14.3" y1="29" x2="139" y2="-44.7"/>
	<line class="st11" x1="38" y1="46.8" x2="192.9" y2="-44.8"/>
	<line class="st11" x1="72.6" y1="59.1" x2="217.8" y2="-26.8"/>
	<line class="st11" x1="114.1" y1="60.7" x2="206.6" y2="6"/>
	<line class="st11" x1="175.1" y1="-44.7" x2="214.1" y2="-13.5"/>
	<line class="st11" x1="134.1" y1="-44.6" x2="204" y2="10.9"/>
	<line class="st11" x1="93.4" y1="-44.6" x2="189.2" y2="31.5"/>
	<line class="st11" x1="47.6" y1="-46.1" x2="167" y2="48.8"/>
	<line class="st11" x1="2.8" y1="-46.7" x2="136.8" y2="59.7"/>
	<line class="st11" x1="-10.4" y1="-24.5" x2="96.8" y2="60.7"/>
	<line class="st11" x1="2.2" y1="10.9" x2="58.5" y2="55.6"/>
	<g class="st2">
		<path class="st5" d="M31.6-77.2c-3.7-0.3-4-4.5-8.5-5.2c-4.9-0.8-9.2,3-10.9,6.9c-1.3,3.1-1.4,6.6-0.7,10c0.6,3.2,2,6.2,3.1,9.3
			c0.9,2.3,2.1,4.6,4.7,5.7c2.8,1.2,5.9,0.2,8.9,0c3.3-0.2,6,1.7,9.3,0.7c5.6-1.6,7.8-6.1,9.6-10.8c2.5-6.4,4.7-13.4-0.7-19.2
			c-1.1-1.2-2.5-2.1-4.2-2.3C37.6-82.7,36-76.9,31.6-77.2z"/>
		<path class="st5" d="M31.4-90.7c0.7,1.1,1.7,3.1,1.8,5.8c0.2,3.3-1,5.9-1.6,7"/>
	</g>
	<g class="st2">
		<path class="st5" d="M77.8-77.2c-3.7-0.3-4-4.5-8.5-5.2c-4.9-0.8-9.2,3-10.9,6.9c-1.3,3.1-1.4,6.6-0.7,10c0.6,3.2,2,6.2,3.1,9.3
			c0.9,2.3,2.1,4.6,4.7,5.7c2.8,1.2,5.9,0.2,8.9,0c3.3-0.2,6,1.7,9.3,0.7c5.6-1.6,7.8-6.1,9.6-10.8C95.8-67,98-74,92.6-79.8
			c-1.1-1.2-2.5-2.1-4.2-2.3C83.9-82.7,82.3-76.9,77.8-77.2z"/>
		<path class="st5" d="M77.7-90.7c0.7,1.1,1.7,3.1,1.8,5.8c0.2,3.3-1,5.9-1.6,7"/>
	</g>
	<g class="st2">
		<path class="st5" d="M123-77.2c-3.7-0.3-4-4.5-8.5-5.2c-4.9-0.8-9.2,3-10.9,6.9c-1.3,3.1-1.4,6.6-0.7,10c0.6,3.2,2,6.2,3.1,9.3
			c0.9,2.3,2.1,4.6,4.7,5.7c2.8,1.2,5.9,0.2,8.9,0c3.3-0.2,6,1.7,9.3,0.7c5.6-1.6,7.8-6.1,9.6-10.8c2.5-6.4,4.7-13.4-0.7-19.2
			c-1.1-1.2-2.5-2.1-4.2-2.3C129.1-82.7,127.5-76.9,123-77.2z"/>
		<path class="st5" d="M122.9-90.7c0.7,1.1,1.7,3.1,1.8,5.8c0.2,3.3-1,5.9-1.6,7"/>
	</g>
</g>
<g id="Layer_7_copy_4" class="st0">
	<path class="st10" d="M218.8-44.6c0,10.7-1.6,32.6-14.7,55.5c-3.9,6.8-12.9,22-30.6,34c-23.6,15.9-47.8,15.9-68,15.9
		c-20.5,0-53.2-0.1-80.4-22.7C11.8,27,4.7,14.6,1.3,8.7c-12.6-22.5-14.6-44-14.7-55.3L218.8-44.6z"/>
	<path class="st11" d="M-13.7-44.4c1.5-12.7,7.4-47.4,35.9-73c41.6-37.3,110.1-35.9,153.1-1.9c32.7,25.8,41.1,62.8,43.4,75.6"/>
	<line class="st11" x1="-8.1" y1="-16.8" x2="42.4" y2="-46.7"/>
	<line class="st11" x1="1.3" y1="7" x2="90.5" y2="-45.7"/>
	<line class="st11" x1="14.3" y1="29" x2="139" y2="-44.7"/>
	<line class="st11" x1="38" y1="46.8" x2="192.9" y2="-44.8"/>
	<line class="st11" x1="72.6" y1="59.1" x2="217.8" y2="-26.8"/>
	<line class="st11" x1="114.1" y1="60.7" x2="206.6" y2="6"/>
	<line class="st11" x1="175.1" y1="-44.7" x2="214.1" y2="-13.5"/>
	<line class="st11" x1="134.1" y1="-44.6" x2="204" y2="10.9"/>
	<line class="st11" x1="93.4" y1="-44.6" x2="189.2" y2="31.5"/>
	<line class="st11" x1="47.6" y1="-46.1" x2="167" y2="48.8"/>
	<line class="st11" x1="2.8" y1="-46.7" x2="136.8" y2="59.7"/>
	<line class="st11" x1="-10.4" y1="-24.5" x2="96.8" y2="60.7"/>
	<line class="st11" x1="2.2" y1="10.9" x2="58.5" y2="55.6"/>
	<g class="st2">
		<path class="st5" d="M32.6-77.2c-3.7-0.3-4-4.5-8.5-5.2c-4.9-0.8-9.2,3-10.9,6.9c-1.3,3.1-1.4,6.6-0.7,10c0.6,3.2,2,6.2,3.1,9.3
			c0.9,2.3,2.1,4.6,4.7,5.7c2.8,1.2,5.9,0.2,8.9,0c3.3-0.2,6,1.7,9.3,0.7c5.6-1.6,7.8-6.1,9.6-10.8c2.5-6.4,4.7-13.4-0.7-19.2
			c-1.1-1.2-2.5-2.1-4.2-2.3C38.7-82.7,37.1-76.9,32.6-77.2z"/>
		<path class="st5" d="M32.5-90.7c0.7,1.1,1.7,3.1,1.8,5.8c0.2,3.3-1,5.9-1.6,7"/>
	</g>
	<g class="st2">
		<path class="st5" d="M77.7-76.5c-3.7-0.3-4-4.5-8.5-5.2c-4.9-0.8-9.2,3-10.9,6.9c-1.3,3.1-1.4,6.6-0.7,10c0.6,3.2,2,6.2,3.1,9.3
			c0.9,2.3,2.1,4.6,4.7,5.7c2.8,1.2,5.9,0.2,8.9,0c3.3-0.2,6,1.7,9.3,0.7c5.6-1.6,7.8-6.1,9.6-10.8c2.5-6.4,4.7-13.4-0.7-19.2
			c-1.1-1.2-2.5-2.1-4.2-2.3C83.8-82,82.2-76.2,77.7-76.5z"/>
		<path class="st5" d="M77.6-90.1c0.7,1.1,1.7,3.1,1.8,5.8c0.2,3.3-1,5.9-1.6,7"/>
	</g>
	<g class="st2">
		<path class="st5" d="M122.9-76.5c-3.7-0.3-4-4.5-8.5-5.2c-4.9-0.8-9.2,3-10.9,6.9c-1.3,3.1-1.4,6.6-0.7,10c0.6,3.2,2,6.2,3.1,9.3
			c0.9,2.3,2.1,4.6,4.7,5.7c2.8,1.2,5.9,0.2,8.9,0c3.3-0.2,6,1.7,9.3,0.7c5.6-1.6,7.8-6.1,9.6-10.8c2.5-6.4,4.7-13.4-0.7-19.2
			c-1.1-1.2-2.5-2.1-4.2-2.3C128.9-82,127.4-76.2,122.9-76.5z"/>
		<path class="st5" d="M122.8-90.1c0.7,1.1,1.7,3.1,1.8,5.8c0.2,3.3-1,5.9-1.6,7"/>
	</g>
	<g class="st2">
		<path class="st5" d="M165.7-76.2c-3.7-0.3-4-4.5-8.5-5.2c-4.9-0.8-9.2,3-10.9,6.9c-1.3,3.1-1.4,6.6-0.7,10c0.6,3.2,2,6.2,3.1,9.3
			c0.9,2.3,2.1,4.6,4.7,5.7c2.8,1.2,5.9,0.2,8.9,0c3.3-0.2,6,1.7,9.3,0.7c5.6-1.6,7.8-6.1,9.6-10.8c2.5-6.4,4.7-13.4-0.7-19.2
			c-1.1-1.2-2.5-2.1-4.2-2.3C171.7-81.7,170.2-75.9,165.7-76.2z"/>
		<path class="st5" d="M165.5-89.7c0.7,1.1,1.7,3.1,1.8,5.8c0.2,3.3-1,5.9-1.6,7"/>
	</g>
</g>
</svg>
