<?xml version="1.0" encoding="utf-8"?>
<!-- Generator: Adobe Illustrator 21.1.0, SVG Export Plug-In . SVG Version: 6.00 Build 0)  -->
<svg version="1.1" id="Layer_1" xmlns="http://www.w3.org/2000/svg" xmlns:xlink="http://www.w3.org/1999/xlink" x="0px" y="0px"
	 viewBox="0 0 145 136.3" style="enable-background:new 0 0 145 136.3;" xml:space="preserve">
<style type="text/css">
	.st0{display:none;}
	.st1{display:inline;fill:#FFFFFF;stroke:#000000;stroke-miterlimit:10;}
	.st2{display:inline;}
	.st3{fill:#8C6E53;stroke:#603913;stroke-width:2;stroke-linejoin:round;stroke-miterlimit:10;}
	.st4{fill:#76C378;stroke:#009444;stroke-width:2;stroke-linejoin:round;stroke-miterlimit:10;}
	.st5{fill:#E7503F;stroke:#931A1D;stroke-width:2;stroke-linejoin:round;stroke-miterlimit:10;}
	.st6{fill:#605D5C;stroke:#3A3636;stroke-width:2;stroke-linejoin:round;stroke-miterlimit:10;}
	.st7{display:inline;fill:#E8E352;stroke:#B5BA4E;stroke-width:6;stroke-linejoin:round;stroke-miterlimit:10;}
	.st8{display:inline;fill:#AED693;stroke:#79AA67;stroke-width:6;stroke-linejoin:round;stroke-miterlimit:10;}
	.st9{display:inline;fill:#E8E552;stroke:#E4C74A;stroke-width:6;stroke-linejoin:round;stroke-miterlimit:10;}
	.st10{display:inline;fill:none;stroke:#E4C74A;stroke-width:6;stroke-linejoin:round;stroke-miterlimit:10;}
	.st11{fill:#E8E552;stroke:#E4C74A;stroke-width:6;stroke-linejoin:round;stroke-miterlimit:10;}
	.st12{fill:none;stroke:#E4C74A;stroke-width:6;stroke-linejoin:round;stroke-miterlimit:10;}
	.st13{display:inline;fill:none;stroke:#B5BA4E;stroke-width:6;stroke-linejoin:round;stroke-miterlimit:10;}
	.st14{display:inline;fill:#C08C49;stroke:#A56928;stroke-width:4;stroke-linejoin:round;stroke-miterlimit:10;}
	.st15{display:inline;fill:none;stroke:#A56928;stroke-width:4;stroke-linejoin:round;stroke-miterlimit:10;}
	.st16{display:inline;fill:#F1EB67;stroke:#E8E491;stroke-miterlimit:10;}
	.st17{display:inline;fill:#846628;}
	.st18{fill:#662C90;}
	.st19{fill:#2D6733;}
	.st20{fill:#846628;}
	.st21{fill:#E12C26;}
	.st22{display:inline;fill:#F9A51B;}
	.st23{fill:#5FC6D1;stroke:#5F7EAA;stroke-width:4;stroke-miterlimit:10;}
	.st24{fill:#5EC6D1;stroke:#5F7EAA;stroke-width:4;stroke-linejoin:round;stroke-miterlimit:10;}
	.st25{display:inline;fill:#8C6E53;stroke:#603913;stroke-width:2;stroke-linejoin:round;stroke-miterlimit:10;}
	.st26{display:inline;fill:#76C378;stroke:#009444;stroke-width:2;stroke-linejoin:round;stroke-miterlimit:10;}
</style>
<g id="Layer_1_copy" class="st0">
	<path class="st1" d="M177.9,131.7"/>
</g>
<g id="Layer_3" class="st0">
	<g class="st2">
		<path class="st3" d="M65.5-8c1.9,4.9-3.3,6.7-9.3,23.7c-4,11.2-5.2,25.9-7.4,55.1c-0.8,10.8-1.6,21.2-2,35.5
			c0,1.8-0.8,18.3,0.2,36.9c1.6,30,3.6,63.5,12.6,107.8c6.5,31.6,14.5,58.5,21.9,80l9,19.7c-3-2.9-7.4-7-12.7-12
			c-16.5-15.3-20.7-19.2-21.6-18.4c-1.3,1.1,5.6,9.4,10.7,24.7c3.1,9.4,5.6,21.7,3.4,22.6c-2.2,0.9-7.2-10.6-19.9-26
			c-9.7-11.8-22.9-24.7-26-22.6c-2.8,1.9,6.1,13.6,4.7,32.2c-0.6,8.6-3.2,18.4-6.2,18.5c-3.4,0.1-3.3-13.2-12.5-28.4
			c-6.1-10-18.3-24.3-26.6-21.6c-6.5,2.1-8,13.9-8.4,16.5c-2.4,18.3,9.7,31.4,7.6,32.8c-2.4,1.6-18.8-10.7-24.6-29.7
			c-2.6-8.4-2.4-15.8-5.1-16.1c-2.8-0.4-4.3,7.6-11.9,17c-6.6,8.2-15.9,15.1-17.8,13.6c-2.3-1.8,5.5-14.7,9.7-22.6
			c10.5-19.8,13.1-40.1,20.8-80.3c2.3-12.2,4.1-23.6,5.5-34.3c1.9-14.7,5.4-41.3,5.6-73.6c0.2-52.7-8.1-115.1-11.1-127.3
			s-8.2-22.3-9.7-23.5l0,0C-55.7-10,56.9-30.3,65.5-8z"/>
		<path class="st4" d="M163.8-56.8c-0.7-5.8-2.3-19-12.2-30.6C141.9-98.8,129-103,120-105.9c-12.1-3.9-21.7-4.2-21.7-5.9
			s8.7-1.3,17.3-4.4c14.3-5.1,25.5-18.4,30.2-31.7c9.5-26.9-8.4-51.2-11.8-55.8c-15.9-21.6-39.3-26.6-48.3-27.9
			c-1.2-0.2-2.1-0.3-2.9-0.4c-6.8-0.7-37.4-4.1-47.8,10.5c-5.5,7.7-3.6,16.4-6.5,16.7c-3.1,0.3-4.8-10.5-9.6-18.5
			c-13.7-22.6-56.5-28.5-86.8-16.1c-6.9,2.8-20.6,8.7-28.6,22.9c-2.3,4.2-8.7,15.6-5.3,27.1c1.9,6.3,5.5,8.4,4.3,10.7
			c-2.6,5.1-20.8-5.5-42.6,0c-4.9,1.2-13.9,3.6-21.9,10.9c-12.8,11.8-19.2,33.2-11.9,50.7c7.8,18.8,28.3,25.8,33.6,27.6
			c9.4,3.2,18.7,3.7,18.7,5.2c-0.1,1.8-12.8-0.8-23.9,6c-11.4,6.9-17,21.3-17.2,33.6c0,3.2,0.1,15.7,9,26.9
			c10.9,13.8,29.9,17.9,44,16.4c16.2-1.7,22.2-10.6,41.4-9.3c8.8,0.6,12.4,2.8,14.5,4.5c4.8,4,112.7,5.4,121,0.1
			c11.5-7.3,24.1,8,47.7,6.5c17.3-1.1,36.9-11,45.1-27.9C165.8-39.2,164.5-50.7,163.8-56.8z"/>
		<g>
			<path class="st5" d="M287.7-75.7c-1.9-0.1-2.1-2.6-4.5-3c-2.6-0.4-4.9,1.7-5.8,4c-0.7,1.8-0.7,3.8-0.4,5.7c0.3,1.9,1,3.6,1.7,5.3
				c0.5,1.3,1.1,2.6,2.5,3.3c1.5,0.7,3.1,0.1,4.7,0c1.7-0.1,3.2,1,4.9,0.4c2.9-0.9,4.1-3.5,5.1-6.2c1.3-3.7,2.5-7.7-0.3-11
				c-0.6-0.7-1.3-1.2-2.2-1.3C290.9-78.8,290.1-75.5,287.7-75.7z"/>
			<path class="st5" d="M287.7-83.5c0.3,0.6,0.9,1.8,1,3.3c0.1,1.9-0.5,3.4-0.8,4"/>
		</g>
		<g>
			<path class="st5" d="M307.2,81.5c-1.9-0.1-2.1-2.6-4.5-3c-2.6-0.4-4.9,1.7-5.8,4c-0.7,1.8-0.7,3.8-0.4,5.7c0.3,1.9,1,3.6,1.7,5.3
				c0.5,1.3,1.1,2.6,2.5,3.3c1.5,0.7,3.1,0.1,4.7,0c1.7-0.1,3.2,1,4.9,0.4c2.9-0.9,4.1-3.5,5.1-6.2c1.3-3.7,2.5-7.7-0.3-11
				c-0.6-0.7-1.3-1.2-2.2-1.3C310.4,78.4,309.5,81.7,307.2,81.5z"/>
			<path class="st5" d="M307.1,73.8c0.3,0.6,0.9,1.8,1,3.3c0.1,1.9-0.5,3.4-0.8,4"/>
		</g>
		<g>
			<path class="st5" d="M286.9-118.3c-1.9-0.1-2.1-2.6-4.5-3c-2.6-0.4-4.9,1.7-5.8,4c-0.7,1.8-0.7,3.8-0.4,5.7s1,3.6,1.7,5.3
				c0.5,1.3,1.1,2.6,2.5,3.3c1.5,0.7,3.1,0.1,4.7,0c1.7-0.1,3.2,1,4.9,0.4c2.9-0.9,4.1-3.5,5.1-6.2c1.3-3.7,2.5-7.7-0.3-11
				c-0.6-0.7-1.3-1.2-2.2-1.3C290.1-121.5,289.2-118.2,286.9-118.3z"/>
			<path class="st5" d="M286.8-126.1c0.3,0.6,0.9,1.8,1,3.3c0.1,1.9-0.5,3.4-0.8,4"/>
		</g>
		<g>
			<path class="st5" d="M299.9-12.1c-1.9-0.1-2.1-2.6-4.5-3c-2.6-0.4-4.9,1.7-5.8,4c-0.7,1.8-0.7,3.8-0.4,5.7c0.3,1.9,1,3.6,1.7,5.3
				c0.5,1.3,1.1,2.6,2.5,3.3c1.5,0.7,3.1,0.1,4.7,0c1.7-0.1,3.2,1,4.9,0.4c2.9-0.9,4.1-3.5,5.1-6.2c1.3-3.7,2.5-7.7-0.3-11
				c-0.6-0.7-1.3-1.2-2.2-1.3C303.1-15.2,302.3-11.9,299.9-12.1z"/>
			<path class="st5" d="M299.8-19.9c0.3,0.6,0.9,1.8,1,3.3c0.1,1.9-0.5,3.4-0.8,4"/>
		</g>
		<g>
			<path class="st5" d="M276.5-179.3c-1.9-0.1-2.1-2.6-4.5-3c-2.6-0.4-4.9,1.7-5.8,4c-0.7,1.8-0.7,3.8-0.4,5.7s1,3.6,1.7,5.3
				c0.5,1.3,1.1,2.6,2.5,3.3c1.5,0.7,3.1,0.1,4.7,0c1.7-0.1,3.2,1,4.9,0.4c2.9-0.9,4.1-3.5,5.1-6.2c1.3-3.7,2.5-7.7-0.3-11
				c-0.6-0.7-1.3-1.2-2.2-1.3C279.7-182.4,278.9-179.1,276.5-179.3z"/>
			<path class="st5" d="M276.4-187.1c0.3,0.6,0.9,1.8,1,3.3c0.1,1.9-0.5,3.4-0.8,4"/>
		</g>
		<g>
			<path class="st5" d="M291.6-42.7c-1.9-0.1-2.1-2.6-4.5-3c-2.6-0.4-4.9,1.7-5.8,4c-0.7,1.8-0.7,3.8-0.4,5.7c0.3,1.9,1,3.6,1.7,5.3
				c0.5,1.3,1.1,2.6,2.5,3.3c1.5,0.7,3.1,0.1,4.7,0c1.7-0.1,3.2,1,4.9,0.4c2.9-0.9,4.1-3.5,5.1-6.2c1.3-3.7,2.5-7.7-0.3-11
				c-0.6-0.7-1.3-1.2-2.2-1.3C294.8-45.9,294-42.6,291.6-42.7z"/>
			<path class="st5" d="M291.5-50.5c0.3,0.6,0.9,1.8,1,3.3c0.1,1.9-0.5,3.4-0.8,4"/>
		</g>
		<g>
			<path class="st5" d="M290.1-146.5c-1.9-0.1-2.1-2.6-4.5-3c-2.6-0.4-4.9,1.7-5.8,4c-0.7,1.8-0.7,3.8-0.4,5.7s1,3.6,1.7,5.3
				c0.5,1.3,1.1,2.6,2.5,3.3c1.5,0.7,3.1,0.1,4.7,0c1.7-0.1,3.2,1,4.9,0.4c2.9-0.9,4.1-3.5,5.1-6.2c1.3-3.7,2.5-7.7-0.3-11
				c-0.6-0.7-1.3-1.2-2.2-1.3C293.3-149.6,292.5-146.3,290.1-146.5z"/>
			<path class="st5" d="M290.1-154.3c0.3,0.6,0.9,1.8,1,3.3c0.1,1.9-0.5,3.4-0.8,4"/>
		</g>
		<g>
			<path class="st5" d="M331.9-148.8c-1.9-0.1-2.1-2.6-4.5-3c-2.6-0.4-4.9,1.7-5.8,4c-0.7,1.8-0.7,3.8-0.4,5.7s1,3.6,1.7,5.3
				c0.5,1.3,1.1,2.6,2.5,3.3c1.5,0.7,3.1,0.1,4.7,0c1.7-0.1,3.2,1,4.9,0.4c2.9-0.9,4.1-3.5,5.1-6.2c1.3-3.7,2.5-7.7-0.3-11
				c-0.6-0.7-1.3-1.2-2.2-1.3C335.1-151.9,334.3-148.6,331.9-148.8z"/>
			<path class="st5" d="M331.9-156.5c0.3,0.6,0.9,1.8,1,3.3c0.1,1.9-0.5,3.4-0.8,4"/>
		</g>
	</g>
	<g class="st2">
		<path class="st5" d="M72.8,38.1c-4.4-0.3-4.8-5.2-10.2-6c-5.9-0.9-11.1,3.4-13.1,8c-1.6,3.6-1.6,7.7-0.9,11.5
			c0.8,3.7,2.3,7.2,3.8,10.7c1.1,2.7,2.6,5.3,5.7,6.5c3.4,1.4,7.1,0.2,10.7,0c4-0.2,7.2,2,11.1,0.8c6.7-1.9,9.3-7,11.6-12.4
			c3-7.4,5.6-15.4-0.8-22.1c-1.3-1.3-3-2.4-5-2.7C80,31.8,78.1,38.5,72.8,38.1z"/>
		<path class="st5" d="M72.6,22.5c0.8,1.3,2,3.6,2.2,6.7c0.3,3.9-1.2,6.8-1.9,8.1"/>
	</g>
</g>
<g id="Layer_3_copy" class="st0">
	<g class="st2">
		<path class="st3" d="M54-9.4c1.9,4.9-3.3,6.7-9.3,23.7c-4,11.2-5.2,25.9-7.4,55.1c-0.8,10.8-1.6,21.2-2,35.5
			c0,1.8-0.8,18.3,0.2,36.9c1.6,30,3.6,63.5,12.6,107.8c6.5,31.6,14.5,58.5,21.9,80l9,19.7c-3-2.9-7.4-7-12.7-12
			c-16.5-15.3-20.7-19.2-21.6-18.4c-1.3,1.1,5.6,9.4,10.7,24.7c3.1,9.4,5.6,21.7,3.4,22.6c-2.2,0.9-7.2-10.6-19.9-26
			c-9.7-11.8-22.9-24.7-26-22.6c-2.8,1.9,6.1,13.6,4.7,32.2c-0.6,8.6-3.2,18.4-6.2,18.5c-3.4,0.1-3.3-13.2-12.5-28.4
			c-6.1-10-18.3-24.3-26.6-21.6c-6.5,2.1-8,13.9-8.4,16.5c-2.4,18.3,9.7,31.4,7.6,32.8c-2.4,1.6-18.8-10.7-24.6-29.7
			c-2.6-8.4-2.4-15.8-5.1-16.1c-2.8-0.4-4.3,7.6-11.9,17c-6.6,8.2-15.9,15.1-17.8,13.6c-2.3-1.8,5.5-14.7,9.7-22.6
			c10.5-19.8,13.1-40.1,20.8-80.3c2.3-12.2,4.1-23.6,5.5-34.3c1.9-14.7,5.4-41.3,5.6-73.6c0.2-52.7-8.1-115.1-11.1-127.3
			S-65.6-8-67.1-9.2l0,0C-67.2-11.3,45.3-31.6,54-9.4z"/>
		<path class="st4" d="M152.2-58.2c-0.7-5.8-2.3-19-12.2-30.6c-9.7-11.4-22.6-15.6-31.6-18.5c-12.1-3.9-21.7-4.2-21.7-5.9
			s8.7-1.3,17.3-4.4c14.3-5.1,25.5-18.4,30.2-31.7c9.5-26.9-8.4-51.2-11.8-55.8c-15.9-21.6-39.3-26.6-48.3-27.9
			c-1.2-0.2-2.1-0.3-2.9-0.4c-6.8-0.7-37.4-4.1-47.8,10.5c-5.5,7.7-3.6,16.4-6.5,16.7c-3.1,0.3-4.8-10.5-9.6-18.5
			c-13.7-22.6-56.5-28.5-86.8-16.1c-6.9,2.8-20.6,8.7-28.6,22.9c-2.3,4.2-8.7,15.6-5.3,27.1c1.9,6.3,5.5,8.4,4.3,10.7
			c-2.6,5.1-20.8-5.5-42.6,0c-4.9,1.2-13.9,3.6-21.9,10.9c-12.8,11.8-19.2,33.2-11.9,50.7c7.8,18.8,28.3,25.8,33.6,27.6
			c9.4,3.2,18.7,3.7,18.7,5.2c-0.1,1.8-12.8-0.8-23.9,6c-11.4,6.9-17,21.3-17.2,33.6c0,3.2,0.1,15.7,9,26.9
			c10.9,13.8,29.9,17.9,44,16.4c16.2-1.7,22.2-10.6,41.4-9.3c8.8,0.6,12.4,2.8,14.5,4.5c4.8,4,112.7,5.4,121,0.1
			c11.5-7.3,24.1,8,47.7,6.5c17.3-1.1,36.9-11,45.1-27.9C154.2-40.5,152.9-52.1,152.2-58.2z"/>
		<g>
			<path class="st6" d="M-103-39.2c-1.9-0.1-2.1-2.6-4.5-3c-2.6-0.4-4.9,1.7-5.8,4c-0.7,1.8-0.7,3.8-0.4,5.7c0.3,1.9,1,3.6,1.7,5.3
				c0.5,1.3,1.1,2.6,2.5,3.3c1.5,0.7,3.1,0.1,4.7,0c1.7-0.1,3.2,1,4.9,0.4c2.9-0.9,4.1-3.5,5.1-6.2c1.3-3.7,2.5-7.7-0.3-11
				c-0.6-0.7-1.3-1.2-2.2-1.3C-99.8-42.4-100.6-39-103-39.2z"/>
			<path class="st6" d="M-103.1-47c0.3,0.6,0.9,1.8,1,3.3c0.1,1.9-0.5,3.4-0.8,4"/>
		</g>
		<g>
			<path class="st5" d="M-114.3-143.3c-1.9-0.1-2.1-2.6-4.5-3c-2.6-0.4-4.9,1.7-5.8,4c-0.7,1.8-0.7,3.8-0.4,5.7s1,3.6,1.7,5.3
				c0.5,1.3,1.1,2.6,2.5,3.3c1.5,0.7,3.1,0.1,4.7,0c1.7-0.1,3.2,1,4.9,0.4c2.9-0.9,4.1-3.5,5.1-6.2c1.3-3.7,2.5-7.7-0.3-11
				c-0.6-0.7-1.3-1.2-2.2-1.3C-111.1-146.4-112-143.1-114.3-143.3z"/>
			<path class="st5" d="M-114.4-151.1c0.3,0.6,0.9,1.8,1,3.3c0.1,1.9-0.5,3.4-0.8,4"/>
		</g>
		<g>
			<path class="st5" d="M-44.2-100.5c-1.9-0.1-2.1-2.6-4.5-3c-2.6-0.4-4.9,1.7-5.8,4c-0.7,1.8-0.7,3.8-0.4,5.7s1,3.6,1.7,5.3
				c0.5,1.3,1.1,2.6,2.5,3.3c1.5,0.7,3.1,0.1,4.7,0c1.7-0.1,3.2,1,4.9,0.4c2.9-0.9,4.1-3.5,5.1-6.2c1.3-3.7,2.5-7.7-0.3-11
				c-0.6-0.7-1.3-1.2-2.2-1.3C-41.1-103.6-41.9-100.3-44.2-100.5z"/>
			<path class="st5" d="M-44.3-108.3c0.3,0.6,0.9,1.8,1,3.3c0.1,1.9-0.5,3.4-0.8,4"/>
		</g>
		<g>
			<path class="st5" d="M16.9-42.2c-1.9-0.1-2.1-2.6-4.5-3c-2.6-0.4-4.9,1.7-5.8,4c-0.7,1.8-0.7,3.8-0.4,5.7c0.3,1.9,1,3.6,1.7,5.3
				c0.5,1.3,1.1,2.6,2.5,3.3c1.5,0.7,3.1,0.1,4.7,0c1.7-0.1,3.2,1,4.9,0.4c2.9-0.9,4.1-3.5,5.1-6.2c1.3-3.7,2.5-7.7-0.3-11
				c-0.6-0.7-1.3-1.2-2.2-1.3C20.1-45.4,19.3-42.1,16.9-42.2z"/>
			<path class="st5" d="M16.8-50c0.3,0.6,0.9,1.8,1,3.3c0.1,1.9-0.5,3.4-0.8,4"/>
		</g>
		<g>
			<path class="st5" d="M78.5-185.6c-1.9-0.1-2.1-2.6-4.5-3c-2.6-0.4-4.9,1.7-5.8,4c-0.7,1.8-0.7,3.8-0.4,5.7c0.3,1.9,1,3.6,1.7,5.3
				c0.5,1.3,1.1,2.6,2.5,3.3c1.5,0.7,3.1,0.1,4.7,0c1.7-0.1,3.2,1,4.9,0.4c2.9-0.9,4.1-3.5,5.1-6.2c1.3-3.7,2.5-7.7-0.3-11
				c-0.6-0.7-1.3-1.2-2.2-1.3C81.7-188.8,80.8-185.5,78.5-185.6z"/>
			<path class="st5" d="M78.4-193.4c0.3,0.6,0.9,1.8,1,3.3c0.1,1.9-0.5,3.4-0.8,4"/>
		</g>
		<g>
			<path class="st5" d="M107.1-60.5c-1.9-0.1-2.1-2.6-4.5-3c-2.6-0.4-4.9,1.7-5.8,4c-0.7,1.8-0.7,3.8-0.4,5.7c0.3,1.9,1,3.6,1.7,5.3
				c0.5,1.3,1.1,2.6,2.5,3.3c1.5,0.7,3.1,0.1,4.7,0c1.7-0.1,3.2,1,4.9,0.4c2.9-0.9,4.1-3.5,5.1-6.2c1.3-3.7,2.5-7.7-0.3-11
				c-0.6-0.7-1.3-1.2-2.2-1.3C110.3-63.6,109.5-60.3,107.1-60.5z"/>
			<path class="st5" d="M107-68.2c0.3,0.6,0.9,1.8,1,3.3c0.1,1.9-0.5,3.4-0.8,4"/>
		</g>
		<g>
			<path class="st5" d="M35.2-121.5c-1.9-0.1-2.1-2.6-4.5-3c-2.6-0.4-4.9,1.7-5.8,4c-0.7,1.8-0.7,3.8-0.4,5.7c0.3,1.9,1,3.6,1.7,5.3
				c0.5,1.3,1.1,2.6,2.5,3.3c1.5,0.7,3.1,0.1,4.7,0c1.7-0.1,3.2,1,4.9,0.4c2.9-0.9,4.1-3.5,5.1-6.2c1.3-3.7,2.5-7.7-0.3-11
				c-0.6-0.7-1.3-1.2-2.2-1.3C38.4-124.7,37.5-121.3,35.2-121.5z"/>
			<path class="st5" d="M35.1-129.3c0.3,0.6,0.9,1.8,1,3.3c0.1,1.9-0.5,3.4-0.8,4"/>
		</g>
		<g>
			<path class="st5" d="M-54.4-192.4c-1.9-0.1-2.1-2.6-4.5-3c-2.6-0.4-4.9,1.7-5.8,4c-0.7,1.8-0.7,3.8-0.4,5.7s1,3.6,1.7,5.3
				c0.5,1.3,1.1,2.6,2.5,3.3c1.5,0.7,3.1,0.1,4.7,0c1.7-0.1,3.2,1,4.9,0.4c2.9-0.9,4.1-3.5,5.1-6.2c1.3-3.7,2.5-7.7-0.3-11
				c-0.6-0.7-1.3-1.2-2.2-1.3C-51.3-195.5-52.1-192.2-54.4-192.4z"/>
			<path class="st5" d="M-54.5-200.2c0.3,0.6,0.9,1.8,1,3.3c0.1,1.9-0.5,3.4-0.8,4"/>
		</g>
		<g>
			<path class="st6" d="M35.2-121.5c-1.9-0.1-2.1-2.6-4.5-3c-2.6-0.4-4.9,1.7-5.8,4c-0.7,1.8-0.7,3.8-0.4,5.7c0.3,1.9,1,3.6,1.7,5.3
				c0.5,1.3,1.1,2.6,2.5,3.3c1.5,0.7,3.1,0.1,4.7,0c1.7-0.1,3.2,1,4.9,0.4c2.9-0.9,4.1-3.5,5.1-6.2c1.3-3.7,2.5-7.7-0.3-11
				c-0.6-0.7-1.3-1.2-2.2-1.3C38.4-124.7,37.5-121.3,35.2-121.5z"/>
			<path class="st6" d="M35.1-129.3c0.3,0.6,0.9,1.8,1,3.3c0.1,1.9-0.5,3.4-0.8,4"/>
		</g>
		<g>
			<path class="st6" d="M-44.2-100.5c-1.9-0.1-2.1-2.6-4.5-3c-2.6-0.4-4.9,1.7-5.8,4c-0.7,1.8-0.7,3.8-0.4,5.7s1,3.6,1.7,5.3
				c0.5,1.3,1.1,2.6,2.5,3.3c1.5,0.7,3.1,0.1,4.7,0c1.7-0.1,3.2,1,4.9,0.4c2.9-0.9,4.1-3.5,5.1-6.2c1.3-3.7,2.5-7.7-0.3-11
				c-0.6-0.7-1.3-1.2-2.2-1.3C-41.1-103.6-41.9-100.3-44.2-100.5z"/>
			<path class="st6" d="M-44.3-108.3c0.3,0.6,0.9,1.8,1,3.3c0.1,1.9-0.5,3.4-0.8,4"/>
		</g>
		<g>
			<path class="st6" d="M16.9-42.2c-1.9-0.1-2.1-2.6-4.5-3c-2.6-0.4-4.9,1.7-5.8,4c-0.7,1.8-0.7,3.8-0.4,5.7c0.3,1.9,1,3.6,1.7,5.3
				c0.5,1.3,1.1,2.6,2.5,3.3c1.5,0.7,3.1,0.1,4.7,0c1.7-0.1,3.2,1,4.9,0.4c2.9-0.9,4.1-3.5,5.1-6.2c1.3-3.7,2.5-7.7-0.3-11
				c-0.6-0.7-1.3-1.2-2.2-1.3C20.1-45.4,19.3-42.1,16.9-42.2z"/>
			<path class="st6" d="M16.8-50c0.3,0.6,0.9,1.8,1,3.3c0.1,1.9-0.5,3.4-0.8,4"/>
		</g>
	</g>
</g>
<g id="Layer_5" class="st0">
	<ellipse class="st7" cx="27.3" cy="83.9" rx="119.8" ry="146.8"/>
	<path class="st8" d="M-21.7,75.3c-4.4-0.1-14-16.3-16-18.9c-9.5-12-17.8-24.9-29.4-36.2c3.4,3.2,51.7,18.3,53.3,18.1
		c10.4-1,17-20.2,21.8-25.2C5.2,16,42.5,37.5,47.1,40.9c0.1,0.1,34.1-21.4,36.6-24.3c8.6,9.3,17.3,18.5,25.9,27.8
		c-1.6-2.4,41.7-20.7,46.7-23.2c-5.3,2.7-23.1,46.1-29.6,59C77.2,78.5,27.8,76.9-21.7,75.3z"/>
	<path class="st8" d="M-0.9,114.7C-4.3,114.6-11.4,98.6-13,96c-7.1-11.8-13.3-24.6-22.1-35.8c2.5,3.2,39.6,17.5,40.8,17.3
		c8-1.1,13.4-20.5,17.1-25.5C20.6,54.9,49,75.9,52.5,79.2c0.1,0.1,26.6-21.9,28.5-24.8c6.5,9.1,13.1,18.2,19.6,27.4
		c-1.2-2.4,32.4-21.3,36.3-23.9c-4.2,2.7-18.5,46.4-23.6,59.4C75.2,116.5,37.2,115.6-0.9,114.7z"/>
	<path class="st8" d="M12.1,146c-2.7,0-8.2-16-9.4-18.5C-2.9,115.8-7.7,103-14.6,92c2,3.2,31.5,17,32.5,16.8
		c6.4-1.2,11-20.6,14-25.7c-1.8,2.9,20.7,23.6,23.5,26.8c0,0.1,21.6-22.2,23.2-25.2c5.1,9,10.2,18.1,15.3,27.1
		c-1-2.4,26.2-21.7,29.4-24.3c-3.4,2.8-15.4,46.6-19.7,59.6C73,146.8,42.5,146.4,12.1,146z"/>
</g>
<g id="Layer_12" class="st0">
	<path class="st9" d="M96.4-69c0,0-56-2.9-73.1,2.8C6.1-60.4-19.8-31.5-24-17.1c-4.2,14.3-3.2,62-3.2,62l122.3-0.1L96.4-69z"/>
	<line class="st10" x1="-23.6" y1="0" x2="61.8" y2="-70.3"/>
	<line class="st10" x1="-26.3" y1="39.3" x2="94.1" y2="-55.4"/>
	<line class="st10" x1="30.6" y1="43.3" x2="94.1" y2="-8.1"/>
	<line class="st10" x1="-24.3" y1="-23.3" x2="67.7" y2="41.6"/>
	<line class="st10" x1="-4.6" y1="-48.7" x2="94.1" y2="21.7"/>
	<line class="st10" x1="23.3" y1="-66.2" x2="95.5" y2="-24.3"/>
	<line class="st10" x1="-29" y1="16.3" x2="15.2" y2="43.8"/>
</g>
<g id="Layer_13" class="st0">
	<path class="st9" d="M-5.2-61c0,0,56-1.7,73.1,4.4c17,6.1,38.9,35.1,45.2,46.1c6.3,11,4.8,63,4.8,63L-4.4,52.8L-5.2-61z"/>
	<line class="st10" x1="6" y1="-60.3" x2="117.9" y2="44.5"/>
	<line class="st10" x1="42" y1="-59.5" x2="119.1" y2="10.8"/>
	<line class="st10" x1="-6" y1="7.4" x2="41.6" y2="51.8"/>
	<line class="st10" x1="-4.4" y1="-30.7" x2="79.3" y2="50.7"/>
	<line class="st10" x1="51.4" y1="-58.2" x2="-6.8" y2="-16.2"/>
	<line class="st10" x1="92" y1="-39.2" x2="-2.7" y2="44.7"/>
	<line class="st10" x1="45.7" y1="52.4" x2="115" y2="-4"/>
</g>
<g id="Layer_14" class="st0">
	<path class="st9" d="M101.3,16.4c0,0,3,26.5,2.7,43.4c0.3,16.3-4,40.9-4,40.9l-123.3-1.4l0.6-82.6L101.3,16.4z"/>
	<line class="st10" x1="30.4" y1="98.4" x2="103.9" y2="59.8"/>
	<line class="st10" x1="-22.1" y1="87.7" x2="102.2" y2="23.6"/>
	<line class="st10" x1="-23.1" y1="46.9" x2="42" y2="16.8"/>
	<line class="st10" x1="-6.5" y1="16.8" x2="102.2" y2="82.9"/>
	<line class="st10" x1="55.6" y1="14.9" x2="105.2" y2="45"/>
	<line class="st10" x1="-23.1" y1="46.9" x2="72.5" y2="101"/>
	<line class="st10" x1="-23.1" y1="75.1" x2="19.7" y2="98.4"/>
</g>
<g id="Layer_15">
	<path class="st11" d="M130.7,125.4c0,0-56,2.3-73.1-3.6S14.9,86.6,10.8,72.2c-4.1-14.4-2.6-62-2.6-62l122.3,1.4L130.7,125.4z"/>
	<line class="st12" x1="32.8" y1="101.9" x2="130.5" y2="11.6"/>
	<line class="st12" x1="9.5" y1="66.9" x2="73.6" y2="10.5"/>
	<line class="st12" x1="80.4" y1="124.2" x2="129.9" y2="78.6"/>
	<line class="st12" x1="36.7" y1="10.5" x2="130" y2="61.1"/>
	<line class="st12" x1="8.5" y1="35.8" x2="130.9" y2="99.9"/>
	<line class="st12" x1="17.3" y1="82.4" x2="114.4" y2="126.1"/>
	<line class="st12" x1="96.9" y1="9.6" x2="129" y2="27.1"/>
</g>
<g id="Layer_16" class="st0">
</g>
<g id="Layer_17" class="st0">
	<path class="st9" d="M-15.4-21.9c0,0-3.1,26.5-2.7,43.4c-0.3,16.3,4,40.9,4,40.9l123.3-1.2l-1.5-82.6L-15.4-21.9z"/>
	<line class="st10" x1="-17.1" y1="12.1" x2="42.1" y2="-19.9"/>
	<line class="st10" x1="-16.1" y1="47.1" x2="105.3" y2="-17"/>
	<line class="st10" x1="28.6" y1="60.7" x2="108.2" y2="21.8"/>
	<line class="st10" x1="-19" y1="2.4" x2="68.4" y2="60.7"/>
	<line class="st10" x1="8.2" y1="-21.9" x2="110.1" y2="47.1"/>
	<line class="st10" x1="69.3" y1="-20.9" x2="109.2" y2="1.4"/>
	<line class="st10" x1="-17.1" y1="32.5" x2="28.6" y2="60.7"/>
</g>
<g id="Layer_6" class="st0">
	<line class="st13" x1="-92.5" y1="90.2" x2="47.3" y2="-60.8"/>
	<line class="st13" x1="-83.8" y1="134.3" x2="83.6" y2="-46.6"/>
	<line class="st13" x1="-67.5" y1="170.6" x2="109.6" y2="-20.7"/>
	<line class="st13" x1="-46" y1="201.4" x2="131.1" y2="10.1"/>
	<line class="st13" x1="-15.4" y1="220.7" x2="143.8" y2="49.7"/>
	<line class="st13" x1="32.8" y1="231.2" x2="145.8" y2="105.8"/>
	<line class="st13" x1="134.9" y1="153.1" x2="-49.7" y2="-26.1"/>
	<line class="st13" x1="111.4" y1="188.4" x2="-74.8" y2="8.7"/>
	<line class="st13" x1="79.9" y1="219.3" x2="-90" y2="54.3"/>
	<line class="st13" x1="146.8" y1="106.8" x2="-19.8" y2="-53.2"/>
	<line class="st13" x1="143.8" y1="49.7" x2="33.7" y2="-62.4"/>
	<line class="st13" x1="32.8" y1="231.2" x2="-92.5" y2="105.8"/>
	<line class="st13" x1="-85.9" y1="34.5" x2="1" y2="-59.3"/>
</g>
<g id="Layer_7" class="st0">
	<path class="st14" d="M140.4-42.2c0,10.7-1.6,32.6-14.7,55.5c-3.9,6.8-12.9,22-30.6,34c-23.6,15.9-47.8,15.9-68,15.9
		c-20.5,0-53.2-0.1-80.4-22.7C-66.6,29.4-73.7,17-77.1,11.1c-12.6-22.5-14.6-44-14.7-55.3L140.4-42.2z"/>
	<path class="st15" d="M-92.1-42c1.5-12.7,7.4-47.4,35.9-73c41.6-37.3,110.1-35.9,153.1-1.9c32.7,25.8,41.1,62.8,43.4,75.6"/>
	<line class="st15" x1="-86.5" y1="-14.4" x2="-36" y2="-44.3"/>
	<line class="st15" x1="-77.1" y1="9.4" x2="12.1" y2="-43.3"/>
	<line class="st15" x1="-64.1" y1="31.4" x2="60.6" y2="-42.3"/>
	<line class="st15" x1="-40.4" y1="49.2" x2="114.5" y2="-42.4"/>
	<line class="st15" x1="-5.8" y1="61.5" x2="139.4" y2="-24.4"/>
	<line class="st15" x1="35.7" y1="63.1" x2="128.2" y2="8.4"/>
	<line class="st15" x1="96.7" y1="-42.3" x2="135.7" y2="-11.1"/>
	<line class="st15" x1="55.7" y1="-42.2" x2="125.6" y2="13.3"/>
	<line class="st15" x1="15" y1="-42.2" x2="110.8" y2="33.9"/>
	<line class="st15" x1="-30.8" y1="-43.7" x2="88.6" y2="51.2"/>
	<line class="st15" x1="-75.6" y1="-44.3" x2="58.4" y2="62.1"/>
	<line class="st15" x1="-88.8" y1="-22.1" x2="18.4" y2="63.1"/>
	<line class="st15" x1="-76.2" y1="13.3" x2="-19.9" y2="58"/>
</g>
<g id="Layer_7_copy_5" class="st0">
	<path class="st16" d="M49.1-48.5c4.4-6,14.8-16.4,15.2-23.6c0.4-7.3,0.8-30.8,2-35.6s9.4,7.8,10.2,12.6c0.8,4.8,3.9,19.9,2.5,25.2
		s-6.5,15.7-9.7,18.5s-7.3,8-13.2,12C50-37,46.1-32.8,40-32.8C33.9-32.7,44.7-42.4,49.1-48.5z"/>
	<path class="st16" d="M71.5-46.9c2.5-6.8,9.5-19.2,7.8-25.9s-8-28.2-8.2-32.8c-0.2-4.7,11.2,4.3,13.3,8.4
		c2.1,4.1,9.4,16.9,9.5,22.1c0.1,5.2-1.8,16.2-4,19.7s-4.7,9.4-9.2,14.8c-5.1,4-7.7,8.9-13.5,10.8C61.5-28.1,69.1-40.2,71.5-46.9z"
		/>
	<path class="st16" d="M28.4-62.7c6.2-3.6,19.6-8.7,22.6-15c3-6.2,11.9-26.7,14.7-30.5c2.8-3.7,5.9,10.5,4.9,15s-3.6,19-6.8,23.1
		C60.6-66,52.1-58.8,48.1-57.5c-3.9,1.3-9.6,4.3-16.5,5.5c-6.5-0.3-11.6,2-17.3-0.4S22.2-59.1,28.4-62.7z"/>
	<path class="st17" d="M65-105.6c0.2-3.8,0-15,0-18.5s10.5-3.5,10.5,0s2.4,15,0,18.5C73.2-102.1,64.8-101.8,65-105.6z"/>
	<g class="st2">
		
			<ellipse transform="matrix(0.8054 -0.5928 0.5928 0.8054 19.2917 -62.0808)" class="st18" cx="-84.9" cy="-60.4" rx="8.5" ry="8.9"/>
		
			<ellipse transform="matrix(0.8054 -0.5928 0.5928 0.8054 27.9132 -55.9044)" class="st18" cx="-71.2" cy="-70.5" rx="8.5" ry="8.9"/>
		
			<ellipse transform="matrix(0.8054 -0.5928 0.5928 0.8054 36.5202 -49.815)" class="st18" cx="-57.6" cy="-80.5" rx="8.5" ry="8.9"/>
		
			<ellipse transform="matrix(0.8054 -0.5928 0.5928 0.8054 45.1417 -43.6386)" class="st18" cx="-43.9" cy="-90.6" rx="8.5" ry="8.9"/>
		
			<ellipse transform="matrix(0.8054 -0.5928 0.5928 0.8054 18.0457 -51.1585)" class="st18" cx="-68.9" cy="-53.1" rx="8.5" ry="8.9"/>
		
			<ellipse transform="matrix(0.8054 -0.5928 0.5928 0.8054 26.6527 -45.0691)" class="st18" cx="-55.3" cy="-63.1" rx="8.5" ry="8.9"/>
		
			<ellipse transform="matrix(0.8054 -0.5928 0.5928 0.8054 35.2742 -38.8927)" class="st18" cx="-41.6" cy="-73.2" rx="8.5" ry="8.9"/>
		
			<ellipse transform="matrix(0.8054 -0.5928 0.5928 0.8054 16.6707 -40.1318)" class="st18" cx="-52.8" cy="-45.5" rx="8.5" ry="8.9"/>
		
			<ellipse transform="matrix(0.8054 -0.5928 0.5928 0.8054 25.2776 -34.0425)" class="st18" cx="-39.2" cy="-55.5" rx="8.5" ry="8.9"/>
		
			<ellipse transform="matrix(0.8054 -0.5928 0.5928 0.8054 15.3942 -29.2191)" class="st18" cx="-36.8" cy="-38.1" rx="8.5" ry="8.9"/>
		<path class="st19" d="M-71-80.5c-0.3,1.4-9.6,2.2-10.9,1.8c-1.9,0.2-11.3-4.7-10.8-7.2s10.2-3.1,11.9-2.6S-70.7-82-71-80.5z"/>
		<path class="st19" d="M-68.3-105.8c2.9,0.8,4.4,12.7,4.5,14.7s-6.9,11.3-8.1,11.3c-1.2,0-6.4-11.1-5.3-14.9
			C-76-98.5-71.1-106.6-68.3-105.8z"/>
	</g>
	<g class="st2">
		<path class="st20" d="M-2.3-67.2c0,0,1.1-13.5,0.8-18.9S-3.7-92.2-4-96.6c-1.5-3,5.2-1,6.7,0.3S6-87.4,5.8-81.5
			c-0.2,5.9-0.6,14.7-0.6,14.7L-2.3-67.2z"/>
		<ellipse transform="matrix(0.1431 -0.9897 0.9897 0.1431 50.249 -46.5806)" class="st21" cx="-1.8" cy="-52.3" rx="26" ry="26"/>
	</g>
	<ellipse transform="matrix(0.1431 -0.9897 0.9897 0.1431 156.7262 65.4482)" class="st22" cx="116.2" cy="-57.8" rx="26" ry="26"/>
	<g class="st2">
		<path class="st23" d="M-6,90.5c-1.6,0.9-3,5.3-1.6,6.8s68.9,2.5,70.2,0.5s0.3-4.9-2.1-6.7C58.1,89.2-4.4,89.7-6,90.5z"/>
		<path class="st23" d="M-117.7-28.7c0.1,2,6.3,3.5,18.6,6.6c35.3,8.8,63.2,8.2,83.5,7.8c78.2-1.5,61.8,0.1,92.1-1.4
			c45.5-2.2,92.1-4.4,92.5-10.9c0-0.7-0.4-4-22.3-9.2C53.2-58.3-118.6-42.3-117.7-28.7z"/>
		<path class="st24" d="M141.4-18.2c0,10.7-1.6,32.6-14.7,55.5c-3.9,6.8-12.9,22-30.6,34c-23.6,15.9-47.8,15.9-68,15.9
			c-20.5,0-53.2-0.1-80.4-22.7C-65.6,53.4-72.7,41-76.1,35.1c-12.6-22.5-14.6-44-14.7-55.3L141.4-18.2z"/>
	</g>
</g>
<g id="Layer_7_copy" class="st0">
	<path class="st14" d="M140.4-42.2c0,10.7-1.6,32.6-14.7,55.5c-3.9,6.8-12.9,22-30.6,34c-23.6,15.9-47.8,15.9-68,15.9
		c-20.5,0-53.2-0.1-80.4-22.7C-66.6,29.4-73.7,17-77.1,11.1c-12.6-22.5-14.6-44-14.7-55.3L140.4-42.2z"/>
	<path class="st15" d="M-92.1-42c1.5-12.7,7.4-47.4,35.9-73c41.6-37.3,110.1-35.9,153.1-1.9c32.7,25.8,41.1,62.8,43.4,75.6"/>
	<line class="st15" x1="-86.5" y1="-14.4" x2="-36" y2="-44.3"/>
	<line class="st15" x1="-77.1" y1="9.4" x2="12.1" y2="-43.3"/>
	<line class="st15" x1="-64.1" y1="31.4" x2="60.6" y2="-42.3"/>
	<line class="st15" x1="-40.4" y1="49.2" x2="114.5" y2="-42.4"/>
	<line class="st15" x1="-5.8" y1="61.5" x2="139.4" y2="-24.4"/>
	<line class="st15" x1="35.7" y1="63.1" x2="128.2" y2="8.4"/>
	<line class="st15" x1="96.7" y1="-42.3" x2="135.7" y2="-11.1"/>
	<line class="st15" x1="55.7" y1="-42.2" x2="125.6" y2="13.3"/>
	<line class="st15" x1="15" y1="-42.2" x2="110.8" y2="33.9"/>
	<line class="st15" x1="-30.8" y1="-43.7" x2="88.6" y2="51.2"/>
	<line class="st15" x1="-75.6" y1="-44.3" x2="58.4" y2="62.1"/>
	<line class="st15" x1="-88.8" y1="-22.1" x2="18.4" y2="63.1"/>
	<line class="st15" x1="-76.2" y1="13.3" x2="-19.9" y2="58"/>
	<path class="st25" d="M-17.7-74c1.9,4.9-3.3,6.7-9.3,23.7c-4,11.2-5.2,25.9-7.4,55.1c-0.8,10.8-1.6,21.2-2,35.5
		c0,1.8-0.8,18.3,0.2,36.9c1.6,30,3.6,63.5,12.6,107.8c6.5,31.6,14.5,58.5,21.9,80l9,19.7c-3-2.9-7.4-7-12.7-12
		c-16.5-15.3-20.7-19.2-21.6-18.4c-1.3,1.1,5.6,9.4,10.7,24.7c3.1,9.4,5.6,21.7,3.4,22.6c-2.2,0.9-7.2-10.6-19.9-26
		c-9.7-11.8-22.9-24.7-26-22.6c-2.8,1.9,6.1,13.6,4.7,32.2c-0.6,8.6-3.2,18.4-6.2,18.5c-3.4,0.1-3.3-13.2-12.5-28.4
		c-6.1-10-18.3-24.3-26.6-21.6c-6.5,2.1-8,13.9-8.4,16.5c-2.4,18.3,9.7,31.4,7.6,32.8c-2.4,1.6-18.8-10.7-24.6-29.7
		c-2.6-8.4-2.4-15.8-5.1-16.1c-2.8-0.4-4.3,7.6-11.9,17c-6.6,8.2-15.9,15.1-17.8,13.6c-2.3-1.8,5.5-14.7,9.7-22.6
		c10.5-19.8,13.1-40.1,20.8-80.3c2.3-12.2,4.1-23.6,5.5-34.3c1.9-14.7,5.4-41.3,5.6-73.6c0.2-52.7-8.1-115.1-11.1-127.3
		c-3-12.2-8.2-22.3-9.7-23.5l0,0C-138.9-76-26.4-96.3-17.7-74z"/>
	<path class="st26" d="M80.6-122.8c-0.7-5.8-2.3-19-12.2-30.6c-9.7-11.4-22.6-15.6-31.6-18.5c-12.1-3.9-21.7-4.2-21.7-5.9
		s8.7-1.3,17.3-4.4c14.3-5.1,25.5-18.4,30.2-31.7c9.5-26.9-8.4-51.2-11.8-55.8c-15.9-21.6-39.3-26.6-48.3-27.9
		c-1.2-0.2-2.1-0.3-2.9-0.4c-6.8-0.7-37.4-4.1-47.8,10.5c-5.5,7.7-3.6,16.4-6.5,16.7c-3.1,0.3-4.8-10.5-9.6-18.5
		c-13.7-22.6-56.5-28.5-86.8-16.1c-6.9,2.8-20.6,8.7-28.6,22.9c-2.3,4.2-8.7,15.6-5.3,27.1c1.9,6.3,5.5,8.4,4.3,10.7
		c-2.6,5.1-20.8-5.5-42.6,0c-4.7,1.1-13.7,3.4-21.6,10.8c-12.8,11.8-19.2,33.2-12,50.7c7.8,18.8,28.3,25.8,33.6,27.6
		c9.4,3.2,18.7,3.7,18.7,5.2c-0.1,1.8-12.8-0.8-23.9,6c-11.4,6.9-17,21.3-17.2,33.6c0,3.2,0.1,15.7,9,26.9
		c10.9,13.8,29.9,17.9,44,16.4c16.2-1.7,22.2-10.6,41.4-9.3c8.8,0.6,12.4,2.8,14.5,4.5c4.8,4,112.7,5.4,121,0.1
		c11.5-7.3,24.1,8,47.7,6.5c17.3-1.1,36.9-11,45.1-27.9C82.6-105.2,81.3-116.7,80.6-122.8z"/>
	<g class="st2">
		<path class="st5" d="M-46.8-74.8c-3.7-0.3-4-4.5-8.5-5.2c-4.9-0.8-9.2,3-10.9,6.9c-1.3,3.1-1.4,6.6-0.7,10c0.6,3.2,2,6.2,3.1,9.3
			c0.9,2.3,2.1,4.6,4.7,5.7c2.8,1.2,5.9,0.2,8.9,0c3.3-0.2,6,1.7,9.3,0.7c5.6-1.6,7.8-6.1,9.6-10.8c2.5-6.4,4.7-13.4-0.7-19.2
			c-1.1-1.2-2.5-2.1-4.2-2.3C-40.8-80.3-42.4-74.5-46.8-74.8z"/>
		<path class="st5" d="M-47-88.3c0.7,1.1,1.7,3.1,1.8,5.8c0.2,3.3-1,5.9-1.6,7"/>
	</g>
</g>
<g id="Layer_7_copy_2" class="st0">
	<path class="st14" d="M140.4-42.2c0,10.7-1.6,32.6-14.7,55.5c-3.9,6.8-12.9,22-30.6,34c-23.6,15.9-47.8,15.9-68,15.9
		c-20.5,0-53.2-0.1-80.4-22.7C-66.6,29.4-73.7,17-77.1,11.1c-12.6-22.5-14.6-44-14.7-55.3L140.4-42.2z"/>
	<path class="st15" d="M-92.1-42c1.5-12.7,7.4-47.4,35.9-73c41.6-37.3,110.1-35.9,153.1-1.9c32.7,25.8,41.1,62.8,43.4,75.6"/>
	<line class="st15" x1="-86.5" y1="-14.4" x2="-36" y2="-44.3"/>
	<line class="st15" x1="-77.1" y1="9.4" x2="12.1" y2="-43.3"/>
	<line class="st15" x1="-64.1" y1="31.4" x2="60.6" y2="-42.3"/>
	<line class="st15" x1="-40.4" y1="49.2" x2="114.5" y2="-42.4"/>
	<line class="st15" x1="-5.8" y1="61.5" x2="139.4" y2="-24.4"/>
	<line class="st15" x1="35.7" y1="63.1" x2="128.2" y2="8.4"/>
	<line class="st15" x1="96.7" y1="-42.3" x2="135.7" y2="-11.1"/>
	<line class="st15" x1="55.7" y1="-42.2" x2="125.6" y2="13.3"/>
	<line class="st15" x1="15" y1="-42.2" x2="110.8" y2="33.9"/>
	<line class="st15" x1="-30.8" y1="-43.7" x2="88.6" y2="51.2"/>
	<line class="st15" x1="-75.6" y1="-44.3" x2="58.4" y2="62.1"/>
	<line class="st15" x1="-88.8" y1="-22.1" x2="18.4" y2="63.1"/>
	<line class="st15" x1="-76.2" y1="13.3" x2="-19.9" y2="58"/>
	<g class="st2">
		<path class="st5" d="M-46.8-74.8c-3.7-0.3-4-4.5-8.5-5.2c-4.9-0.8-9.2,3-10.9,6.9c-1.3,3.1-1.4,6.6-0.7,10c0.6,3.2,2,6.2,3.1,9.3
			c0.9,2.3,2.1,4.6,4.7,5.7c2.8,1.2,5.9,0.2,8.9,0c3.3-0.2,6,1.7,9.3,0.7c5.6-1.6,7.8-6.1,9.6-10.8c2.5-6.4,4.7-13.4-0.7-19.2
			c-1.1-1.2-2.5-2.1-4.2-2.3C-40.8-80.3-42.4-74.5-46.8-74.8z"/>
		<path class="st5" d="M-47-88.3c0.7,1.1,1.7,3.1,1.8,5.8c0.2,3.3-1,5.9-1.6,7"/>
	</g>
	<g class="st2">
		<path class="st5" d="M-0.6-74.8c-3.7-0.3-4-4.5-8.5-5.2c-4.9-0.8-9.2,3-10.9,6.9c-1.3,3.1-1.4,6.6-0.7,10c0.6,3.2,2,6.2,3.1,9.3
			c0.9,2.3,2.1,4.6,4.7,5.7c2.8,1.2,5.9,0.2,8.9,0c3.3-0.2,6,1.7,9.3,0.7c5.6-1.6,7.8-6.1,9.6-10.8c2.5-6.4,4.7-13.4-0.7-19.2
			c-1.1-1.2-2.5-2.1-4.2-2.3C5.5-80.3,3.9-74.5-0.6-74.8z"/>
		<path class="st5" d="M-0.7-88.3C0-87.2,1-85.2,1.1-82.5c0.2,3.3-1,5.9-1.6,7"/>
	</g>
</g>
<g id="Layer_7_copy_3" class="st0">
	<path class="st14" d="M140.4-42.2c0,10.7-1.6,32.6-14.7,55.5c-3.9,6.8-12.9,22-30.6,34c-23.6,15.9-47.8,15.9-68,15.9
		c-20.5,0-53.2-0.1-80.4-22.7C-66.6,29.4-73.7,17-77.1,11.1c-12.6-22.5-14.6-44-14.7-55.3L140.4-42.2z"/>
	<path class="st15" d="M-92.1-42c1.5-12.7,7.4-47.4,35.9-73c41.6-37.3,110.1-35.9,153.1-1.9c32.7,25.8,41.1,62.8,43.4,75.6"/>
	<line class="st15" x1="-86.5" y1="-14.4" x2="-36" y2="-44.3"/>
	<line class="st15" x1="-77.1" y1="9.4" x2="12.1" y2="-43.3"/>
	<line class="st15" x1="-64.1" y1="31.4" x2="60.6" y2="-42.3"/>
	<line class="st15" x1="-40.4" y1="49.2" x2="114.5" y2="-42.4"/>
	<line class="st15" x1="-5.8" y1="61.5" x2="139.4" y2="-24.4"/>
	<line class="st15" x1="35.7" y1="63.1" x2="128.2" y2="8.4"/>
	<line class="st15" x1="96.7" y1="-42.3" x2="135.7" y2="-11.1"/>
	<line class="st15" x1="55.7" y1="-42.2" x2="125.6" y2="13.3"/>
	<line class="st15" x1="15" y1="-42.2" x2="110.8" y2="33.9"/>
	<line class="st15" x1="-30.8" y1="-43.7" x2="88.6" y2="51.2"/>
	<line class="st15" x1="-75.6" y1="-44.3" x2="58.4" y2="62.1"/>
	<line class="st15" x1="-88.8" y1="-22.1" x2="18.4" y2="63.1"/>
	<line class="st15" x1="-76.2" y1="13.3" x2="-19.9" y2="58"/>
	<g class="st2">
		<path class="st5" d="M-46.8-74.8c-3.7-0.3-4-4.5-8.5-5.2c-4.9-0.8-9.2,3-10.9,6.9c-1.3,3.1-1.4,6.6-0.7,10c0.6,3.2,2,6.2,3.1,9.3
			c0.9,2.3,2.1,4.6,4.7,5.7c2.8,1.2,5.9,0.2,8.9,0c3.3-0.2,6,1.7,9.3,0.7c5.6-1.6,7.8-6.1,9.6-10.8c2.5-6.4,4.7-13.4-0.7-19.2
			c-1.1-1.2-2.5-2.1-4.2-2.3C-40.8-80.3-42.4-74.5-46.8-74.8z"/>
		<path class="st5" d="M-47-88.3c0.7,1.1,1.7,3.1,1.8,5.8c0.2,3.3-1,5.9-1.6,7"/>
	</g>
	<g class="st2">
		<path class="st5" d="M-0.6-74.8c-3.7-0.3-4-4.5-8.5-5.2c-4.9-0.8-9.2,3-10.9,6.9c-1.3,3.1-1.4,6.6-0.7,10c0.6,3.2,2,6.2,3.1,9.3
			c0.9,2.3,2.1,4.6,4.7,5.7c2.8,1.2,5.9,0.2,8.9,0c3.3-0.2,6,1.7,9.3,0.7c5.6-1.6,7.8-6.1,9.6-10.8c2.5-6.4,4.7-13.4-0.7-19.2
			c-1.1-1.2-2.5-2.1-4.2-2.3C5.5-80.3,3.9-74.5-0.6-74.8z"/>
		<path class="st5" d="M-0.7-88.3C0-87.2,1-85.2,1.1-82.5c0.2,3.3-1,5.9-1.6,7"/>
	</g>
	<g class="st2">
		<path class="st5" d="M44.6-74.8c-3.7-0.3-4-4.5-8.5-5.2c-4.9-0.8-9.2,3-10.9,6.9c-1.3,3.1-1.4,6.6-0.7,10c0.6,3.2,2,6.2,3.1,9.3
			c0.9,2.3,2.1,4.6,4.7,5.7c2.8,1.2,5.9,0.2,8.9,0c3.3-0.2,6,1.7,9.3,0.7c5.6-1.6,7.8-6.1,9.6-10.8c2.5-6.4,4.7-13.4-0.7-19.2
			c-1.1-1.2-2.5-2.1-4.2-2.3C50.7-80.3,49.1-74.5,44.6-74.8z"/>
		<path class="st5" d="M44.5-88.3c0.7,1.1,1.7,3.1,1.8,5.8c0.2,3.3-1,5.9-1.6,7"/>
	</g>
</g>
<g id="Layer_7_copy_4" class="st0">
	<path class="st14" d="M140.4-42.2c0,10.7-1.6,32.6-14.7,55.5c-3.9,6.8-12.9,22-30.6,34c-23.6,15.9-47.8,15.9-68,15.9
		c-20.5,0-53.2-0.1-80.4-22.7C-66.6,29.4-73.7,17-77.1,11.1c-12.6-22.5-14.6-44-14.7-55.3L140.4-42.2z"/>
	<path class="st15" d="M-92.1-42c1.5-12.7,7.4-47.4,35.9-73c41.6-37.3,110.1-35.9,153.1-1.9c32.7,25.8,41.1,62.8,43.4,75.6"/>
	<line class="st15" x1="-86.5" y1="-14.4" x2="-36" y2="-44.3"/>
	<line class="st15" x1="-77.1" y1="9.4" x2="12.1" y2="-43.3"/>
	<line class="st15" x1="-64.1" y1="31.4" x2="60.6" y2="-42.3"/>
	<line class="st15" x1="-40.4" y1="49.2" x2="114.5" y2="-42.4"/>
	<line class="st15" x1="-5.8" y1="61.5" x2="139.4" y2="-24.4"/>
	<line class="st15" x1="35.7" y1="63.1" x2="128.2" y2="8.4"/>
	<line class="st15" x1="96.7" y1="-42.3" x2="135.7" y2="-11.1"/>
	<line class="st15" x1="55.7" y1="-42.2" x2="125.6" y2="13.3"/>
	<line class="st15" x1="15" y1="-42.2" x2="110.8" y2="33.9"/>
	<line class="st15" x1="-30.8" y1="-43.7" x2="88.6" y2="51.2"/>
	<line class="st15" x1="-75.6" y1="-44.3" x2="58.4" y2="62.1"/>
	<line class="st15" x1="-88.8" y1="-22.1" x2="18.4" y2="63.1"/>
	<line class="st15" x1="-76.2" y1="13.3" x2="-19.9" y2="58"/>
	<g class="st2">
		<path class="st5" d="M-45.8-74.8c-3.7-0.3-4-4.5-8.5-5.2c-4.9-0.8-9.2,3-10.9,6.9c-1.3,3.1-1.4,6.6-0.7,10c0.6,3.2,2,6.2,3.1,9.3
			c0.9,2.3,2.1,4.6,4.7,5.7c2.8,1.2,5.9,0.2,8.9,0c3.3-0.2,6,1.7,9.3,0.7c5.6-1.6,7.8-6.1,9.6-10.8c2.5-6.4,4.7-13.4-0.7-19.2
			c-1.1-1.2-2.5-2.1-4.2-2.3C-39.7-80.3-41.3-74.5-45.8-74.8z"/>
		<path class="st5" d="M-45.9-88.3c0.7,1.1,1.7,3.1,1.8,5.8c0.2,3.3-1,5.9-1.6,7"/>
	</g>
	<g class="st2">
		<path class="st5" d="M-0.7-74.1c-3.7-0.3-4-4.5-8.5-5.2c-4.9-0.8-9.2,3-10.9,6.9c-1.3,3.1-1.4,6.6-0.7,10c0.6,3.2,2,6.2,3.1,9.3
			c0.9,2.3,2.1,4.6,4.7,5.7c2.8,1.2,5.9,0.2,8.9,0c3.3-0.2,6,1.7,9.3,0.7c5.6-1.6,7.8-6.1,9.6-10.8c2.5-6.4,4.7-13.4-0.7-19.2
			c-1.1-1.2-2.5-2.1-4.2-2.3C5.4-79.6,3.8-73.8-0.7-74.1z"/>
		<path class="st5" d="M-0.8-87.7c0.7,1.1,1.7,3.1,1.8,5.8c0.2,3.3-1,5.9-1.6,7"/>
	</g>
	<g class="st2">
		<path class="st5" d="M44.5-74.1c-3.7-0.3-4-4.5-8.5-5.2c-4.9-0.8-9.2,3-10.9,6.9c-1.3,3.1-1.4,6.6-0.7,10c0.6,3.2,2,6.2,3.1,9.3
			c0.9,2.3,2.1,4.6,4.7,5.7c2.8,1.2,5.9,0.2,8.9,0c3.3-0.2,6,1.7,9.3,0.7c5.6-1.6,7.8-6.1,9.6-10.8c2.5-6.4,4.7-13.4-0.7-19.2
			c-1.1-1.2-2.5-2.1-4.2-2.3C50.5-79.6,49-73.8,44.5-74.1z"/>
		<path class="st5" d="M44.4-87.7c0.7,1.1,1.7,3.1,1.8,5.8c0.2,3.3-1,5.9-1.6,7"/>
	</g>
	<g class="st2">
		<path class="st5" d="M87.3-73.8c-3.7-0.3-4-4.5-8.5-5.2c-4.9-0.8-9.2,3-10.9,6.9c-1.3,3.1-1.4,6.6-0.7,10c0.6,3.2,2,6.2,3.1,9.3
			c0.9,2.3,2.1,4.6,4.7,5.7c2.8,1.2,5.9,0.2,8.9,0c3.3-0.2,6,1.7,9.3,0.7c5.6-1.6,7.8-6.1,9.6-10.8c2.5-6.4,4.7-13.4-0.7-19.2
			c-1.1-1.2-2.5-2.1-4.2-2.3C93.3-79.3,91.8-73.5,87.3-73.8z"/>
		<path class="st5" d="M87.1-87.3c0.7,1.1,1.7,3.1,1.8,5.8c0.2,3.3-1,5.9-1.6,7"/>
	</g>
</g>
</svg>
