<?xml version="1.0" encoding="utf-8"?>
<!-- Generator: Adobe Illustrator 21.1.0, SVG Export Plug-In . SVG Version: 6.00 Build 0)  -->
<svg version="1.1" id="Layer_1" xmlns="http://www.w3.org/2000/svg" xmlns:xlink="http://www.w3.org/1999/xlink" x="0px" y="0px"
	 viewBox="0 0 144.2 102.7" style="enable-background:new 0 0 144.2 102.7;" xml:space="preserve">
<style type="text/css">
	.st0{display:none;}
	.st1{display:inline;fill:#FFFFFF;stroke:#000000;stroke-miterlimit:10;}
	.st2{display:inline;}
	.st3{fill:#8C6E53;stroke:#603913;stroke-width:2;stroke-linejoin:round;stroke-miterlimit:10;}
	.st4{fill:#76C378;stroke:#009444;stroke-width:2;stroke-linejoin:round;stroke-miterlimit:10;}
	.st5{fill:#E7503F;stroke:#931A1D;stroke-width:2;stroke-linejoin:round;stroke-miterlimit:10;}
	.st6{fill:#605D5C;stroke:#3A3636;stroke-width:2;stroke-linejoin:round;stroke-miterlimit:10;}
	.st7{display:inline;fill:#E8E352;stroke:#B5BA4E;stroke-width:6;stroke-linejoin:round;stroke-miterlimit:10;}
	.st8{display:inline;fill:#AED693;stroke:#79AA67;stroke-width:6;stroke-linejoin:round;stroke-miterlimit:10;}
	.st9{display:inline;fill:#E8E552;stroke:#E4C74A;stroke-width:6;stroke-linejoin:round;stroke-miterlimit:10;}
	.st10{display:inline;fill:none;stroke:#E4C74A;stroke-width:6;stroke-linejoin:round;stroke-miterlimit:10;}
	.st11{fill:#E8E552;stroke:#E4C74A;stroke-width:6;stroke-linejoin:round;stroke-miterlimit:10;}
	.st12{fill:none;stroke:#E4C74A;stroke-width:6;stroke-linejoin:round;stroke-miterlimit:10;}
	.st13{display:inline;fill:none;stroke:#B5BA4E;stroke-width:6;stroke-linejoin:round;stroke-miterlimit:10;}
	.st14{display:inline;fill:#C08C49;stroke:#A56928;stroke-width:4;stroke-linejoin:round;stroke-miterlimit:10;}
	.st15{display:inline;fill:none;stroke:#A56928;stroke-width:4;stroke-linejoin:round;stroke-miterlimit:10;}
	.st16{display:inline;fill:#F1EB67;stroke:#E8E491;stroke-miterlimit:10;}
	.st17{display:inline;fill:#846628;}
	.st18{fill:#662C90;}
	.st19{fill:#2D6733;}
	.st20{fill:#846628;}
	.st21{fill:#E12C26;}
	.st22{display:inline;fill:#F9A51B;}
	.st23{fill:#5FC6D1;stroke:#5F7EAA;stroke-width:4;stroke-miterlimit:10;}
	.st24{fill:#5EC6D1;stroke:#5F7EAA;stroke-width:4;stroke-linejoin:round;stroke-miterlimit:10;}
	.st25{display:inline;fill:#8C6E53;stroke:#603913;stroke-width:2;stroke-linejoin:round;stroke-miterlimit:10;}
	.st26{display:inline;fill:#76C378;stroke:#009444;stroke-width:2;stroke-linejoin:round;stroke-miterlimit:10;}
</style>
<g id="Layer_1_copy" class="st0">
	<path class="st1" d="M209.5,123.5"/>
</g>
<g id="Layer_3" class="st0">
	<g class="st2">
		<path class="st3" d="M97.1-16.2c1.9,4.9-3.3,6.7-9.3,23.7c-4,11.2-5.2,25.9-7.4,55.1c-0.8,10.8-1.6,21.2-2,35.5
			c0,1.8-0.8,18.3,0.2,36.9c1.6,30,3.6,63.5,12.6,107.8c6.5,31.6,14.5,58.5,21.9,80l9,19.7c-3-2.9-7.4-7-12.7-12
			c-16.5-15.3-20.7-19.2-21.6-18.4c-1.3,1.1,5.6,9.4,10.7,24.7c3.1,9.4,5.6,21.7,3.4,22.6c-2.2,0.9-7.2-10.6-19.9-26
			c-9.7-11.8-22.9-24.7-26-22.6c-2.8,1.9,6.1,13.6,4.7,32.2c-0.6,8.6-3.2,18.4-6.2,18.5c-3.4,0.1-3.3-13.2-12.5-28.4
			c-6.1-10-18.3-24.3-26.6-21.6c-6.5,2.1-8,13.9-8.4,16.5c-2.4,18.3,9.7,31.4,7.6,32.8c-2.4,1.6-18.8-10.7-24.6-29.7
			c-2.6-8.4-2.4-15.8-5.1-16.1c-2.8-0.4-4.3,7.6-11.9,17c-6.6,8.2-15.9,15.1-17.8,13.6c-2.3-1.8,5.5-14.7,9.7-22.6
			c10.5-19.8,13.1-40.1,20.8-80.3c2.3-12.2,4.1-23.6,5.5-34.3c1.9-14.7,5.4-41.3,5.6-73.6C-3,82.1-11.3,19.7-14.3,7.5
			S-22.5-14.8-24-16l0,0C-24.1-18.2,88.5-38.5,97.1-16.2z"/>
		<path class="st4" d="M195.4-65c-0.7-5.8-2.3-19-12.2-30.6c-9.7-11.4-22.6-15.6-31.6-18.5c-12.1-3.9-21.7-4.2-21.7-5.9
			s8.7-1.3,17.3-4.4c14.3-5.1,25.5-18.4,30.2-31.7c9.5-26.9-8.4-51.2-11.8-55.8c-15.9-21.6-39.3-26.6-48.3-27.9
			c-1.2-0.2-2.1-0.3-2.9-0.4c-6.8-0.7-37.4-4.1-47.8,10.5c-5.5,7.7-3.6,16.4-6.5,16.7c-3.1,0.3-4.8-10.5-9.6-18.5
			C36.8-254.1-6-260-36.3-247.6c-6.9,2.8-20.6,8.7-28.6,22.9c-2.3,4.2-8.7,15.6-5.3,27.1c1.9,6.3,5.5,8.4,4.3,10.7
			c-2.6,5.1-20.8-5.5-42.6,0c-4.9,1.2-13.9,3.6-21.9,10.9c-12.8,11.8-19.2,33.2-11.9,50.7c7.8,18.8,28.3,25.8,33.6,27.6
			C-99.3-94.5-90-94-90-92.5c-0.1,1.8-12.8-0.8-23.9,6c-11.4,6.9-17,21.3-17.2,33.6c0,3.2,0.1,15.7,9,26.9
			c10.9,13.8,29.9,17.9,44,16.4c16.2-1.7,22.2-10.6,41.4-9.3c8.8,0.6,12.4,2.8,14.5,4.5c4.8,4,112.7,5.4,121,0.1
			c11.5-7.3,24.1,8,47.7,6.5c17.3-1.1,36.9-11,45.1-27.9C197.4-47.4,196.1-58.9,195.4-65z"/>
		<g>
			<path class="st5" d="M319.3-83.9c-1.9-0.1-2.1-2.6-4.5-3c-2.6-0.4-4.9,1.7-5.8,4c-0.7,1.8-0.7,3.8-0.4,5.7c0.3,1.9,1,3.6,1.7,5.3
				c0.5,1.3,1.1,2.6,2.5,3.3c1.5,0.7,3.1,0.1,4.7,0c1.7-0.1,3.2,1,4.9,0.4c2.9-0.9,4.1-3.5,5.1-6.2c1.3-3.7,2.5-7.7-0.3-11
				c-0.6-0.7-1.3-1.2-2.2-1.3C322.5-87,321.7-83.7,319.3-83.9z"/>
			<path class="st5" d="M319.3-91.7c0.3,0.6,0.9,1.8,1,3.3c0.1,1.9-0.5,3.4-0.8,4"/>
		</g>
		<g>
			<path class="st5" d="M338.8,73.3c-1.9-0.1-2.1-2.6-4.5-3c-2.6-0.4-4.9,1.7-5.8,4c-0.7,1.8-0.7,3.8-0.4,5.7c0.3,1.9,1,3.6,1.7,5.3
				c0.5,1.3,1.1,2.6,2.5,3.3c1.5,0.7,3.1,0.1,4.7,0c1.7-0.1,3.2,1,4.9,0.4c2.9-0.9,4.1-3.5,5.1-6.2c1.3-3.7,2.5-7.7-0.3-11
				c-0.6-0.7-1.3-1.2-2.2-1.3C342,70.2,341.1,73.5,338.8,73.3z"/>
			<path class="st5" d="M338.7,65.6c0.3,0.6,0.9,1.8,1,3.3c0.1,1.9-0.5,3.4-0.8,4"/>
		</g>
		<g>
			<path class="st5" d="M318.5-126.5c-1.9-0.1-2.1-2.6-4.5-3c-2.6-0.4-4.9,1.7-5.8,4c-0.7,1.8-0.7,3.8-0.4,5.7s1,3.6,1.7,5.3
				c0.5,1.3,1.1,2.6,2.5,3.3c1.5,0.7,3.1,0.1,4.7,0c1.7-0.1,3.2,1,4.9,0.4c2.9-0.9,4.1-3.5,5.1-6.2c1.3-3.7,2.5-7.7-0.3-11
				c-0.6-0.7-1.3-1.2-2.2-1.3C321.7-129.7,320.8-126.4,318.5-126.5z"/>
			<path class="st5" d="M318.4-134.3c0.3,0.6,0.9,1.8,1,3.3c0.1,1.9-0.5,3.4-0.8,4"/>
		</g>
		<g>
			<path class="st5" d="M331.5-20.3c-1.9-0.1-2.1-2.6-4.5-3c-2.6-0.4-4.9,1.7-5.8,4c-0.7,1.8-0.7,3.8-0.4,5.7c0.3,1.9,1,3.6,1.7,5.3
				C323-7,323.6-5.7,325-5c1.5,0.7,3.1,0.1,4.7,0c1.7-0.1,3.2,1,4.9,0.4c2.9-0.9,4.1-3.5,5.1-6.2c1.3-3.7,2.5-7.7-0.3-11
				c-0.6-0.7-1.3-1.2-2.2-1.3C334.7-23.4,333.9-20.1,331.5-20.3z"/>
			<path class="st5" d="M331.4-28.1c0.3,0.6,0.9,1.8,1,3.3c0.1,1.9-0.5,3.4-0.8,4"/>
		</g>
		<g>
			<path class="st5" d="M308.1-187.5c-1.9-0.1-2.1-2.6-4.5-3c-2.6-0.4-4.9,1.7-5.8,4c-0.7,1.8-0.7,3.8-0.4,5.7s1,3.6,1.7,5.3
				c0.5,1.3,1.1,2.6,2.5,3.3c1.5,0.7,3.1,0.1,4.7,0c1.7-0.1,3.2,1,4.9,0.4c2.9-0.9,4.1-3.5,5.1-6.2c1.3-3.7,2.5-7.7-0.3-11
				c-0.6-0.7-1.3-1.2-2.2-1.3C311.3-190.6,310.5-187.3,308.1-187.5z"/>
			<path class="st5" d="M308-195.3c0.3,0.6,0.9,1.8,1,3.3c0.1,1.9-0.5,3.4-0.8,4"/>
		</g>
		<g>
			<path class="st5" d="M323.2-50.9c-1.9-0.1-2.1-2.6-4.5-3c-2.6-0.4-4.9,1.7-5.8,4c-0.7,1.8-0.7,3.8-0.4,5.7c0.3,1.9,1,3.6,1.7,5.3
				c0.5,1.3,1.1,2.6,2.5,3.3c1.5,0.7,3.1,0.1,4.7,0c1.7-0.1,3.2,1,4.9,0.4c2.9-0.9,4.1-3.5,5.1-6.2c1.3-3.7,2.5-7.7-0.3-11
				c-0.6-0.7-1.3-1.2-2.2-1.3C326.4-54.1,325.6-50.8,323.2-50.9z"/>
			<path class="st5" d="M323.1-58.7c0.3,0.6,0.9,1.8,1,3.3c0.1,1.9-0.5,3.4-0.8,4"/>
		</g>
		<g>
			<path class="st5" d="M321.7-154.7c-1.9-0.1-2.1-2.6-4.5-3c-2.6-0.4-4.9,1.7-5.8,4c-0.7,1.8-0.7,3.8-0.4,5.7s1,3.6,1.7,5.3
				c0.5,1.3,1.1,2.6,2.5,3.3c1.5,0.7,3.1,0.1,4.7,0c1.7-0.1,3.2,1,4.9,0.4c2.9-0.9,4.1-3.5,5.1-6.2c1.3-3.7,2.5-7.7-0.3-11
				c-0.6-0.7-1.3-1.2-2.2-1.3C324.9-157.8,324.1-154.5,321.7-154.7z"/>
			<path class="st5" d="M321.7-162.5c0.3,0.6,0.9,1.8,1,3.3c0.1,1.9-0.5,3.4-0.8,4"/>
		</g>
		<g>
			<path class="st5" d="M363.5-157c-1.9-0.1-2.1-2.6-4.5-3c-2.6-0.4-4.9,1.7-5.8,4c-0.7,1.8-0.7,3.8-0.4,5.7s1,3.6,1.7,5.3
				c0.5,1.3,1.1,2.6,2.5,3.3c1.5,0.7,3.1,0.1,4.7,0c1.7-0.1,3.2,1,4.9,0.4c2.9-0.9,4.1-3.5,5.1-6.2c1.3-3.7,2.5-7.7-0.3-11
				c-0.6-0.7-1.3-1.2-2.2-1.3C366.7-160.1,365.9-156.8,363.5-157z"/>
			<path class="st5" d="M363.5-164.7c0.3,0.6,0.9,1.8,1,3.3c0.1,1.9-0.5,3.4-0.8,4"/>
		</g>
	</g>
	<g class="st2">
		<path class="st5" d="M104.4,29.9c-4.4-0.3-4.8-5.2-10.2-6c-5.9-0.9-11.1,3.4-13.1,8c-1.6,3.6-1.6,7.7-0.9,11.5
			c0.8,3.7,2.3,7.2,3.8,10.7c1.1,2.7,2.6,5.3,5.7,6.5c3.4,1.4,7.1,0.2,10.7,0c4-0.2,7.2,2,11.1,0.8c6.7-1.9,9.3-7,11.6-12.4
			c3-7.4,5.6-15.4-0.8-22.1c-1.3-1.3-3-2.4-5-2.7C111.6,23.6,109.7,30.3,104.4,29.9z"/>
		<path class="st5" d="M104.2,14.3c0.8,1.3,2,3.6,2.2,6.7c0.3,3.9-1.2,6.8-1.9,8.1"/>
	</g>
</g>
<g id="Layer_3_copy" class="st0">
	<g class="st2">
		<path class="st3" d="M85.6-17.6c1.9,4.9-3.3,6.7-9.3,23.7c-4,11.2-5.2,25.9-7.4,55.1c-0.8,10.8-1.6,21.2-2,35.5
			c0,1.8-0.8,18.3,0.2,36.9c1.6,30,3.6,63.5,12.6,107.8c6.5,31.6,14.5,58.5,21.9,80l9,19.7c-3-2.9-7.4-7-12.7-12
			c-16.5-15.3-20.7-19.2-21.6-18.4c-1.3,1.1,5.6,9.4,10.7,24.7c3.1,9.4,5.6,21.7,3.4,22.6c-2.2,0.9-7.2-10.6-19.9-26
			c-9.7-11.8-22.9-24.7-26-22.6c-2.8,1.9,6.1,13.6,4.7,32.2c-0.6,8.6-3.2,18.4-6.2,18.5c-3.4,0.1-3.3-13.2-12.5-28.4
			c-6.1-10-18.3-24.3-26.6-21.6c-6.5,2.1-8,13.9-8.4,16.5c-2.4,18.3,9.7,31.4,7.6,32.8c-2.4,1.6-18.8-10.7-24.6-29.7
			c-2.6-8.4-2.4-15.8-5.1-16.1c-2.8-0.4-4.3,7.6-11.9,17c-6.6,8.2-15.9,15.1-17.8,13.6c-2.3-1.8,5.5-14.7,9.7-22.6
			c10.5-19.8,13.1-40.1,20.8-80.3c2.3-12.2,4.1-23.6,5.5-34.3c1.9-14.7,5.4-41.3,5.6-73.6c0.2-52.7-8.1-115.1-11.1-127.3
			s-8.2-22.3-9.7-23.5l0,0C-35.6-19.5,76.9-39.8,85.6-17.6z"/>
		<path class="st4" d="M183.8-66.4c-0.7-5.8-2.3-19-12.2-30.6c-9.7-11.4-22.6-15.6-31.6-18.5c-12.1-3.9-21.7-4.2-21.7-5.9
			s8.7-1.3,17.3-4.4c14.3-5.1,25.5-18.4,30.2-31.7c9.5-26.9-8.4-51.2-11.8-55.8c-15.9-21.6-39.3-26.6-48.3-27.9
			c-1.2-0.2-2.1-0.3-2.9-0.4c-6.8-0.7-37.4-4.1-47.8,10.5c-5.5,7.7-3.6,16.4-6.5,16.7c-3.1,0.3-4.8-10.5-9.6-18.5
			c-13.7-22.6-56.5-28.5-86.8-16.1c-6.9,2.8-20.6,8.7-28.6,22.9c-2.3,4.2-8.7,15.6-5.3,27.1c1.9,6.3,5.5,8.4,4.3,10.7
			c-2.6,5.1-20.8-5.5-42.6,0c-4.9,1.2-13.9,3.6-21.9,10.9c-12.8,11.8-19.2,33.2-11.9,50.7c7.8,18.8,28.3,25.8,33.6,27.6
			c9.4,3.2,18.7,3.7,18.7,5.2c-0.1,1.8-12.8-0.8-23.9,6c-11.4,6.9-17,21.3-17.2,33.6c0,3.2,0.1,15.7,9,26.9
			c10.9,13.8,29.9,17.9,44,16.4c16.2-1.7,22.2-10.6,41.4-9.3c8.8,0.6,12.4,2.8,14.5,4.5c4.8,4,112.7,5.4,121,0.1
			c11.5-7.3,24.1,8,47.7,6.5c17.3-1.1,36.9-11,45.1-27.9C185.8-48.7,184.5-60.3,183.8-66.4z"/>
		<g>
			<path class="st6" d="M-71.4-47.4c-1.9-0.1-2.1-2.6-4.5-3c-2.6-0.4-4.9,1.7-5.8,4c-0.7,1.8-0.7,3.8-0.4,5.7c0.3,1.9,1,3.6,1.7,5.3
				c0.5,1.3,1.1,2.6,2.5,3.3c1.5,0.7,3.1,0.1,4.7,0c1.7-0.1,3.2,1,4.9,0.4c2.9-0.9,4.1-3.5,5.1-6.2c1.3-3.7,2.5-7.7-0.3-11
				c-0.6-0.7-1.3-1.2-2.2-1.3C-68.2-50.6-69-47.2-71.4-47.4z"/>
			<path class="st6" d="M-71.5-55.2c0.3,0.6,0.9,1.8,1,3.3c0.1,1.9-0.5,3.4-0.8,4"/>
		</g>
		<g>
			<path class="st5" d="M-82.7-151.5c-1.9-0.1-2.1-2.6-4.5-3c-2.6-0.4-4.9,1.7-5.8,4c-0.7,1.8-0.7,3.8-0.4,5.7s1,3.6,1.7,5.3
				c0.5,1.3,1.1,2.6,2.5,3.3c1.5,0.7,3.1,0.1,4.7,0c1.7-0.1,3.2,1,4.9,0.4c2.9-0.9,4.1-3.5,5.1-6.2c1.3-3.7,2.5-7.7-0.3-11
				c-0.6-0.7-1.3-1.2-2.2-1.3C-79.5-154.6-80.4-151.3-82.7-151.5z"/>
			<path class="st5" d="M-82.8-159.3c0.3,0.6,0.9,1.8,1,3.3c0.1,1.9-0.5,3.4-0.8,4"/>
		</g>
		<g>
			<path class="st5" d="M-12.6-108.7c-1.9-0.1-2.1-2.6-4.5-3c-2.6-0.4-4.9,1.7-5.8,4c-0.7,1.8-0.7,3.8-0.4,5.7s1,3.6,1.7,5.3
				c0.5,1.3,1.1,2.6,2.5,3.3c1.5,0.7,3.1,0.1,4.7,0c1.7-0.1,3.2,1,4.9,0.4c2.9-0.9,4.1-3.5,5.1-6.2c1.3-3.7,2.5-7.7-0.3-11
				c-0.6-0.7-1.3-1.2-2.2-1.3C-9.5-111.8-10.3-108.5-12.6-108.7z"/>
			<path class="st5" d="M-12.7-116.5c0.3,0.6,0.9,1.8,1,3.3c0.1,1.9-0.5,3.4-0.8,4"/>
		</g>
		<g>
			<path class="st5" d="M48.5-50.4c-1.9-0.1-2.1-2.6-4.5-3c-2.6-0.4-4.9,1.7-5.8,4c-0.7,1.8-0.7,3.8-0.4,5.7c0.3,1.9,1,3.6,1.7,5.3
				c0.5,1.3,1.1,2.6,2.5,3.3c1.5,0.7,3.1,0.1,4.7,0c1.7-0.1,3.2,1,4.9,0.4c2.9-0.9,4.1-3.5,5.1-6.2c1.3-3.7,2.5-7.7-0.3-11
				c-0.6-0.7-1.3-1.2-2.2-1.3C51.7-53.6,50.9-50.3,48.5-50.4z"/>
			<path class="st5" d="M48.4-58.2c0.3,0.6,0.9,1.8,1,3.3c0.1,1.9-0.5,3.4-0.8,4"/>
		</g>
		<g>
			<path class="st5" d="M110.1-193.8c-1.9-0.1-2.1-2.6-4.5-3c-2.6-0.4-4.9,1.7-5.8,4c-0.7,1.8-0.7,3.8-0.4,5.7
				c0.3,1.9,1,3.6,1.7,5.3c0.5,1.3,1.1,2.6,2.5,3.3c1.5,0.7,3.1,0.1,4.7,0c1.7-0.1,3.2,1,4.9,0.4c2.9-0.9,4.1-3.5,5.1-6.2
				c1.3-3.7,2.5-7.7-0.3-11c-0.6-0.7-1.3-1.2-2.2-1.3C113.3-197,112.4-193.7,110.1-193.8z"/>
			<path class="st5" d="M110-201.6c0.3,0.6,0.9,1.8,1,3.3c0.1,1.9-0.5,3.4-0.8,4"/>
		</g>
		<g>
			<path class="st5" d="M138.7-68.7c-1.9-0.1-2.1-2.6-4.5-3c-2.6-0.4-4.9,1.7-5.8,4c-0.7,1.8-0.7,3.8-0.4,5.7c0.3,1.9,1,3.6,1.7,5.3
				c0.5,1.3,1.1,2.6,2.5,3.3c1.5,0.7,3.1,0.1,4.7,0c1.7-0.1,3.2,1,4.9,0.4c2.9-0.9,4.1-3.5,5.1-6.2c1.3-3.7,2.5-7.7-0.3-11
				c-0.6-0.7-1.3-1.2-2.2-1.3C141.9-71.8,141.1-68.5,138.7-68.7z"/>
			<path class="st5" d="M138.6-76.4c0.3,0.6,0.9,1.8,1,3.3c0.1,1.9-0.5,3.4-0.8,4"/>
		</g>
		<g>
			<path class="st5" d="M66.8-129.7c-1.9-0.1-2.1-2.6-4.5-3c-2.6-0.4-4.9,1.7-5.8,4c-0.7,1.8-0.7,3.8-0.4,5.7c0.3,1.9,1,3.6,1.7,5.3
				c0.5,1.3,1.1,2.6,2.5,3.3c1.5,0.7,3.1,0.1,4.7,0c1.7-0.1,3.2,1,4.9,0.4c2.9-0.9,4.1-3.5,5.1-6.2c1.3-3.7,2.5-7.7-0.3-11
				c-0.6-0.7-1.3-1.2-2.2-1.3C70-132.9,69.1-129.5,66.8-129.7z"/>
			<path class="st5" d="M66.7-137.5c0.3,0.6,0.9,1.8,1,3.3c0.1,1.9-0.5,3.4-0.8,4"/>
		</g>
		<g>
			<path class="st5" d="M-22.8-200.6c-1.9-0.1-2.1-2.6-4.5-3c-2.6-0.4-4.9,1.7-5.8,4c-0.7,1.8-0.7,3.8-0.4,5.7s1,3.6,1.7,5.3
				c0.5,1.3,1.1,2.6,2.5,3.3c1.5,0.7,3.1,0.1,4.7,0c1.7-0.1,3.2,1,4.9,0.4c2.9-0.9,4.1-3.5,5.1-6.2c1.3-3.7,2.5-7.7-0.3-11
				c-0.6-0.7-1.3-1.2-2.2-1.3C-19.7-203.7-20.5-200.4-22.8-200.6z"/>
			<path class="st5" d="M-22.9-208.4c0.3,0.6,0.9,1.8,1,3.3c0.1,1.9-0.5,3.4-0.8,4"/>
		</g>
		<g>
			<path class="st6" d="M66.8-129.7c-1.9-0.1-2.1-2.6-4.5-3c-2.6-0.4-4.9,1.7-5.8,4c-0.7,1.8-0.7,3.8-0.4,5.7c0.3,1.9,1,3.6,1.7,5.3
				c0.5,1.3,1.1,2.6,2.5,3.3c1.5,0.7,3.1,0.1,4.7,0c1.7-0.1,3.2,1,4.9,0.4c2.9-0.9,4.1-3.5,5.1-6.2c1.3-3.7,2.5-7.7-0.3-11
				c-0.6-0.7-1.3-1.2-2.2-1.3C70-132.9,69.1-129.5,66.8-129.7z"/>
			<path class="st6" d="M66.7-137.5c0.3,0.6,0.9,1.8,1,3.3c0.1,1.9-0.5,3.4-0.8,4"/>
		</g>
		<g>
			<path class="st6" d="M-12.6-108.7c-1.9-0.1-2.1-2.6-4.5-3c-2.6-0.4-4.9,1.7-5.8,4c-0.7,1.8-0.7,3.8-0.4,5.7s1,3.6,1.7,5.3
				c0.5,1.3,1.1,2.6,2.5,3.3c1.5,0.7,3.1,0.1,4.7,0c1.7-0.1,3.2,1,4.9,0.4c2.9-0.9,4.1-3.5,5.1-6.2c1.3-3.7,2.5-7.7-0.3-11
				c-0.6-0.7-1.3-1.2-2.2-1.3C-9.5-111.8-10.3-108.5-12.6-108.7z"/>
			<path class="st6" d="M-12.7-116.5c0.3,0.6,0.9,1.8,1,3.3c0.1,1.9-0.5,3.4-0.8,4"/>
		</g>
		<g>
			<path class="st6" d="M48.5-50.4c-1.9-0.1-2.1-2.6-4.5-3c-2.6-0.4-4.9,1.7-5.8,4c-0.7,1.8-0.7,3.8-0.4,5.7c0.3,1.9,1,3.6,1.7,5.3
				c0.5,1.3,1.1,2.6,2.5,3.3c1.5,0.7,3.1,0.1,4.7,0c1.7-0.1,3.2,1,4.9,0.4c2.9-0.9,4.1-3.5,5.1-6.2c1.3-3.7,2.5-7.7-0.3-11
				c-0.6-0.7-1.3-1.2-2.2-1.3C51.7-53.6,50.9-50.3,48.5-50.4z"/>
			<path class="st6" d="M48.4-58.2c0.3,0.6,0.9,1.8,1,3.3c0.1,1.9-0.5,3.4-0.8,4"/>
		</g>
	</g>
</g>
<g id="Layer_5" class="st0">
	<ellipse class="st7" cx="58.9" cy="75.7" rx="119.8" ry="146.8"/>
	<path class="st8" d="M9.9,67.1c-4.4-0.1-14-16.3-16-18.9c-9.5-12-17.8-24.9-29.4-36.2c3.4,3.2,51.7,18.3,53.3,18.1
		c10.4-1,17-20.2,21.8-25.2c-2.8,2.9,34.5,24.4,39.1,27.8c0.1,0.1,34.1-21.4,36.6-24.3c8.6,9.3,17.3,18.5,25.9,27.8
		c-1.6-2.4,41.7-20.7,46.7-23.2c-5.3,2.7-23.1,46.1-29.6,59C108.8,70.3,59.4,68.7,9.9,67.1z"/>
	<path class="st8" d="M30.7,106.5c-3.4-0.1-10.5-16.1-12.1-18.7C11.5,76,5.3,63.2-3.5,52c2.5,3.2,39.6,17.5,40.8,17.3
		c8-1.1,13.4-20.5,17.1-25.5C52.2,46.7,80.6,67.7,84.1,71c0.1,0.1,26.6-21.9,28.5-24.8c6.5,9.1,13.1,18.2,19.6,27.4
		c-1.2-2.4,32.4-21.3,36.3-23.9c-4.2,2.7-18.5,46.4-23.6,59.4C106.8,108.3,68.8,107.4,30.7,106.5z"/>
	<path class="st8" d="M43.7,137.8c-2.7,0-8.2-16-9.4-18.5C28.7,107.6,23.9,94.8,17,83.8c2,3.2,31.5,17,32.5,16.8
		c6.4-1.2,11-20.6,14-25.7c-1.8,2.9,20.7,23.6,23.5,26.8c0,0.1,21.6-22.2,23.2-25.2c5.1,9,10.2,18.1,15.3,27.1
		c-1-2.4,26.2-21.7,29.4-24.3c-3.4,2.8-15.4,46.6-19.7,59.6C104.6,138.6,74.1,138.2,43.7,137.8z"/>
</g>
<g id="Layer_12" class="st0">
	<path class="st9" d="M128-77.2c0,0-56-2.9-73.1,2.8C37.7-68.6,11.8-39.7,7.6-25.3c-4.2,14.3-3.2,62-3.2,62l122.3-0.1L128-77.2z"/>
	<line class="st10" x1="8" y1="-8.2" x2="93.4" y2="-78.5"/>
	<line class="st10" x1="5.3" y1="31.1" x2="125.7" y2="-63.6"/>
	<line class="st10" x1="62.2" y1="35.1" x2="125.7" y2="-16.3"/>
	<line class="st10" x1="7.3" y1="-31.5" x2="99.3" y2="33.4"/>
	<line class="st10" x1="27" y1="-56.9" x2="125.7" y2="13.5"/>
	<line class="st10" x1="54.9" y1="-74.4" x2="127.1" y2="-32.5"/>
	<line class="st10" x1="2.6" y1="8.1" x2="46.8" y2="35.6"/>
</g>
<g id="Layer_13" class="st0">
	<path class="st9" d="M26.4-69.2c0,0,56-1.7,73.1,4.4c17,6.1,38.9,35.1,45.2,46.1c6.3,11,4.8,63,4.8,63L27.2,44.6L26.4-69.2z"/>
	<line class="st10" x1="37.6" y1="-68.5" x2="149.5" y2="36.3"/>
	<line class="st10" x1="73.6" y1="-67.7" x2="150.7" y2="2.6"/>
	<line class="st10" x1="25.6" y1="-0.8" x2="73.2" y2="43.6"/>
	<line class="st10" x1="27.2" y1="-38.9" x2="110.9" y2="42.5"/>
	<line class="st10" x1="83" y1="-66.4" x2="24.8" y2="-24.4"/>
	<line class="st10" x1="123.6" y1="-47.4" x2="28.9" y2="36.5"/>
	<line class="st10" x1="77.3" y1="44.2" x2="146.6" y2="-12.2"/>
</g>
<g id="Layer_14">
	<path class="st11" d="M132.9,8.2c0,0,3,26.5,2.7,43.4c0.3,16.3-4,40.9-4,40.9L8.3,91.1L8.9,8.5L132.9,8.2z"/>
	<line class="st12" x1="62" y1="90.2" x2="135.5" y2="51.6"/>
	<line class="st12" x1="9.5" y1="79.5" x2="133.8" y2="15.4"/>
	<line class="st12" x1="8.5" y1="38.7" x2="73.6" y2="8.6"/>
	<line class="st12" x1="25.1" y1="8.6" x2="133.8" y2="74.7"/>
	<line class="st12" x1="87.2" y1="6.7" x2="136.8" y2="36.8"/>
	<line class="st12" x1="8.5" y1="38.7" x2="104.1" y2="92.8"/>
	<line class="st12" x1="8.5" y1="66.9" x2="51.3" y2="90.2"/>
</g>
<g id="Layer_15" class="st0">
</g>
<g id="Layer_16" class="st0">
</g>
<g id="Layer_17" class="st0">
	<path class="st9" d="M16.2-30.1c0,0-3.1,26.5-2.7,43.4c-0.3,16.3,4,40.9,4,40.9L140.8,53l-1.5-82.6L16.2-30.1z"/>
	<line class="st10" x1="14.5" y1="3.9" x2="73.7" y2="-28.1"/>
	<line class="st10" x1="15.5" y1="38.9" x2="136.9" y2="-25.2"/>
	<line class="st10" x1="60.2" y1="52.5" x2="139.8" y2="13.6"/>
	<line class="st10" x1="12.6" y1="-5.8" x2="100" y2="52.5"/>
	<line class="st10" x1="39.8" y1="-30.1" x2="141.7" y2="38.9"/>
	<line class="st10" x1="100.9" y1="-29.1" x2="140.8" y2="-6.8"/>
	<line class="st10" x1="14.5" y1="24.3" x2="60.2" y2="52.5"/>
</g>
<g id="Layer_6" class="st0">
	<line class="st13" x1="-60.9" y1="82" x2="78.9" y2="-69"/>
	<line class="st13" x1="-52.2" y1="126.1" x2="115.2" y2="-54.8"/>
	<line class="st13" x1="-35.9" y1="162.4" x2="141.2" y2="-28.9"/>
	<line class="st13" x1="-14.4" y1="193.2" x2="162.7" y2="1.9"/>
	<line class="st13" x1="16.2" y1="212.5" x2="175.4" y2="41.5"/>
	<line class="st13" x1="64.4" y1="223" x2="177.4" y2="97.6"/>
	<line class="st13" x1="166.5" y1="144.9" x2="-18.1" y2="-34.3"/>
	<line class="st13" x1="143" y1="180.2" x2="-43.2" y2="0.5"/>
	<line class="st13" x1="111.5" y1="211.1" x2="-58.4" y2="46.1"/>
	<line class="st13" x1="178.4" y1="98.6" x2="11.8" y2="-61.4"/>
	<line class="st13" x1="175.4" y1="41.5" x2="65.3" y2="-70.6"/>
	<line class="st13" x1="64.4" y1="223" x2="-60.9" y2="97.6"/>
	<line class="st13" x1="-54.3" y1="26.3" x2="32.6" y2="-67.5"/>
</g>
<g id="Layer_7" class="st0">
	<path class="st14" d="M172-50.4c0,10.7-1.6,32.6-14.7,55.5c-3.9,6.8-12.9,22-30.6,34C103.1,55,78.9,55,58.7,55
		c-20.5,0-53.2-0.1-80.4-22.7C-35,21.2-42.1,8.8-45.5,2.9c-12.6-22.5-14.6-44-14.7-55.3L172-50.4z"/>
	<path class="st15" d="M-60.5-50.2c1.5-12.7,7.4-47.4,35.9-73c41.6-37.3,110.1-35.9,153.1-1.9c32.7,25.8,41.1,62.8,43.4,75.6"/>
	<line class="st15" x1="-54.9" y1="-22.6" x2="-4.4" y2="-52.5"/>
	<line class="st15" x1="-45.5" y1="1.2" x2="43.7" y2="-51.5"/>
	<line class="st15" x1="-32.5" y1="23.2" x2="92.2" y2="-50.5"/>
	<line class="st15" x1="-8.8" y1="41" x2="146.1" y2="-50.6"/>
	<line class="st15" x1="25.8" y1="53.3" x2="171" y2="-32.6"/>
	<line class="st15" x1="67.3" y1="54.9" x2="159.8" y2="0.2"/>
	<line class="st15" x1="128.3" y1="-50.5" x2="167.3" y2="-19.3"/>
	<line class="st15" x1="87.3" y1="-50.4" x2="157.2" y2="5.1"/>
	<line class="st15" x1="46.6" y1="-50.4" x2="142.4" y2="25.7"/>
	<line class="st15" x1="0.8" y1="-51.9" x2="120.2" y2="43"/>
	<line class="st15" x1="-44" y1="-52.5" x2="90" y2="53.9"/>
	<line class="st15" x1="-57.2" y1="-30.3" x2="50" y2="54.9"/>
	<line class="st15" x1="-44.6" y1="5.1" x2="11.7" y2="49.8"/>
</g>
<g id="Layer_7_copy_5" class="st0">
	<path class="st16" d="M80.7-56.7c4.4-6,14.8-16.4,15.2-23.6c0.4-7.3,0.8-30.8,2-35.6s9.4,7.8,10.2,12.6c0.8,4.8,3.9,19.9,2.5,25.2
		s-6.5,15.7-9.7,18.5s-7.3,8-13.2,12c-6.1,2.4-10,6.6-16.1,6.6C65.5-40.9,76.3-50.6,80.7-56.7z"/>
	<path class="st16" d="M103.1-55.1c2.5-6.8,9.5-19.2,7.8-25.9s-8-28.2-8.2-32.8c-0.2-4.7,11.2,4.3,13.3,8.4
		c2.1,4.1,9.4,16.9,9.5,22.1c0.1,5.2-1.8,16.2-4,19.7s-4.7,9.4-9.2,14.8c-5.1,4-7.7,8.9-13.5,10.8C93.1-36.3,100.7-48.4,103.1-55.1z
		"/>
	<path class="st16" d="M60-70.9c6.2-3.6,19.6-8.7,22.6-15c3-6.2,11.9-26.7,14.7-30.5c2.8-3.7,5.9,10.5,4.9,15s-3.6,19-6.8,23.1
		C92.2-74.2,83.7-67,79.7-65.7c-3.9,1.3-9.6,4.3-16.5,5.5c-6.5-0.3-11.6,2-17.3-0.4S53.8-67.3,60-70.9z"/>
	<path class="st17" d="M96.6-113.8c0.2-3.8,0-15,0-18.5s10.5-3.5,10.5,0s2.4,15,0,18.5C104.8-110.3,96.4-110,96.6-113.8z"/>
	<g class="st2">
		
			<ellipse transform="matrix(0.8054 -0.5928 0.5928 0.8054 30.2603 -44.9175)" class="st18" cx="-53.3" cy="-68.5" rx="8.5" ry="8.9"/>
		
			<ellipse transform="matrix(0.8054 -0.5928 0.5928 0.8054 38.8818 -38.7411)" class="st18" cx="-39.6" cy="-78.6" rx="8.5" ry="8.9"/>
		
			<ellipse transform="matrix(0.8054 -0.5928 0.5928 0.8054 47.4888 -32.6517)" class="st18" cx="-26" cy="-88.6" rx="8.5" ry="8.9"/>
		
			<ellipse transform="matrix(0.8054 -0.5928 0.5928 0.8054 56.1103 -26.4753)" class="st18" cx="-12.3" cy="-98.7" rx="8.5" ry="8.9"/>
		
			<ellipse transform="matrix(0.8054 -0.5928 0.5928 0.8054 29.0143 -33.9952)" class="st18" cx="-37.3" cy="-61.2" rx="8.5" ry="8.9"/>
		
			<ellipse transform="matrix(0.8054 -0.5928 0.5928 0.8054 37.6213 -27.9058)" class="st18" cx="-23.7" cy="-71.2" rx="8.5" ry="8.9"/>
		
			<ellipse transform="matrix(0.8054 -0.5928 0.5928 0.8054 46.2428 -21.7294)" class="st18" cx="-10" cy="-81.3" rx="8.5" ry="8.9"/>
		
			<ellipse transform="matrix(0.8054 -0.5928 0.5928 0.8054 27.6393 -22.9685)" class="st18" cx="-21.2" cy="-53.6" rx="8.5" ry="8.9"/>
		
			<ellipse transform="matrix(0.8054 -0.5928 0.5928 0.8054 36.2462 -16.8792)" class="st18" cx="-7.6" cy="-63.6" rx="8.5" ry="8.9"/>
		
			<ellipse transform="matrix(0.8054 -0.5928 0.5928 0.8054 26.3628 -12.0558)" class="st18" cx="-5.2" cy="-46.2" rx="8.5" ry="8.9"/>
		<path class="st19" d="M-39.4-88.7c-0.3,1.4-9.6,2.2-10.9,1.8c-1.9,0.2-11.3-4.7-10.8-7.2s10.2-3.1,11.9-2.6S-39.1-90.2-39.4-88.7z
			"/>
		<path class="st19" d="M-36.7-114c2.9,0.8,4.4,12.7,4.5,14.7S-39.1-88-40.3-88c-1.2,0-6.4-11.1-5.3-14.9
			C-44.4-106.7-39.5-114.8-36.7-114z"/>
	</g>
	<g class="st2">
		<path class="st20" d="M29.3-75.4c0,0,1.1-13.5,0.8-18.9s-2.2-6.1-2.5-10.5c-1.5-3,5.2-1,6.7,0.3s3.3,8.9,3.1,14.8
			C37.2-83.8,36.8-75,36.8-75L29.3-75.4z"/>
		<ellipse transform="matrix(0.1431 -0.9897 0.9897 0.1431 85.3825 -22.2446)" class="st21" cx="29.8" cy="-60.4" rx="26" ry="26"/>
	</g>
	<ellipse transform="matrix(0.1431 -0.9897 0.9897 0.1431 191.8598 89.7842)" class="st22" cx="147.8" cy="-65.9" rx="26" ry="26"/>
	<g class="st2">
		<path class="st23" d="M25.6,82.3c-1.6,0.9-3,5.3-1.6,6.8s68.9,2.5,70.2,0.5s0.3-4.9-2.1-6.7C89.7,81,27.2,81.5,25.6,82.3z"/>
		<path class="st23" d="M-86.1-36.9c0.1,2,6.3,3.5,18.6,6.6c35.3,8.8,63.2,8.2,83.5,7.8c78.2-1.5,61.8,0.1,92.1-1.4
			c45.5-2.2,92.1-4.4,92.5-10.9c0-0.7-0.4-4-22.3-9.2C84.8-66.5-87-50.5-86.1-36.9z"/>
		<path class="st24" d="M173-26.4c0,10.7-1.6,32.6-14.7,55.5c-3.9,6.8-12.9,22-30.6,34C104.1,79,79.9,79,59.7,79
			c-20.5,0-53.2-0.1-80.4-22.7C-34,45.2-41.1,32.8-44.5,26.9c-12.6-22.5-14.6-44-14.7-55.3L173-26.4z"/>
	</g>
</g>
<g id="Layer_7_copy" class="st0">
	<path class="st14" d="M172-50.4c0,10.7-1.6,32.6-14.7,55.5c-3.9,6.8-12.9,22-30.6,34C103.1,55,78.9,55,58.7,55
		c-20.5,0-53.2-0.1-80.4-22.7C-35,21.2-42.1,8.8-45.5,2.9c-12.6-22.5-14.6-44-14.7-55.3L172-50.4z"/>
	<path class="st15" d="M-60.5-50.2c1.5-12.7,7.4-47.4,35.9-73c41.6-37.3,110.1-35.9,153.1-1.9c32.7,25.8,41.1,62.8,43.4,75.6"/>
	<line class="st15" x1="-54.9" y1="-22.6" x2="-4.4" y2="-52.5"/>
	<line class="st15" x1="-45.5" y1="1.2" x2="43.7" y2="-51.5"/>
	<line class="st15" x1="-32.5" y1="23.2" x2="92.2" y2="-50.5"/>
	<line class="st15" x1="-8.8" y1="41" x2="146.1" y2="-50.6"/>
	<line class="st15" x1="25.8" y1="53.3" x2="171" y2="-32.6"/>
	<line class="st15" x1="67.3" y1="54.9" x2="159.8" y2="0.2"/>
	<line class="st15" x1="128.3" y1="-50.5" x2="167.3" y2="-19.3"/>
	<line class="st15" x1="87.3" y1="-50.4" x2="157.2" y2="5.1"/>
	<line class="st15" x1="46.6" y1="-50.4" x2="142.4" y2="25.7"/>
	<line class="st15" x1="0.8" y1="-51.9" x2="120.2" y2="43"/>
	<line class="st15" x1="-44" y1="-52.5" x2="90" y2="53.9"/>
	<line class="st15" x1="-57.2" y1="-30.3" x2="50" y2="54.9"/>
	<line class="st15" x1="-44.6" y1="5.1" x2="11.7" y2="49.8"/>
	<path class="st25" d="M13.9-82.2c1.9,4.9-3.3,6.7-9.3,23.7c-4,11.2-5.2,25.9-7.4,55.1c-0.8,10.8-1.6,21.2-2,35.5
		c0,1.8-0.8,18.3,0.2,36.9C-3,99-1,132.5,8,176.8c6.5,31.6,14.5,58.5,21.9,80l9,19.7c-3-2.9-7.4-7-12.7-12
		C9.7,249.2,5.5,245.3,4.6,246.1c-1.3,1.1,5.6,9.4,10.7,24.7c3.1,9.4,5.6,21.7,3.4,22.6c-2.2,0.9-7.2-10.6-19.9-26
		c-9.7-11.8-22.9-24.7-26-22.6c-2.8,1.9,6.1,13.6,4.7,32.2c-0.6,8.6-3.2,18.4-6.2,18.5c-3.4,0.1-3.3-13.2-12.5-28.4
		c-6.1-10-18.3-24.3-26.6-21.6c-6.5,2.1-8,13.9-8.4,16.5c-2.4,18.3,9.7,31.4,7.6,32.8c-2.4,1.6-18.8-10.7-24.6-29.7
		c-2.6-8.4-2.4-15.8-5.1-16.1c-2.8-0.4-4.3,7.6-11.9,17c-6.6,8.2-15.9,15.1-17.8,13.6c-2.3-1.8,5.5-14.7,9.7-22.6
		c10.5-19.8,13.1-40.1,20.8-80.3c2.3-12.2,4.1-23.6,5.5-34.3c1.9-14.7,5.4-41.3,5.6-73.6c0.2-52.7-8.1-115.1-11.1-127.3
		c-3-12.2-8.2-22.3-9.7-23.5l0,0C-107.3-84.2,5.2-104.5,13.9-82.2z"/>
	<path class="st26" d="M112.2-131c-0.7-5.8-2.3-19-12.2-30.6c-9.7-11.4-22.6-15.6-31.6-18.5c-12.1-3.9-21.7-4.2-21.7-5.9
		s8.7-1.3,17.3-4.4c14.3-5.1,25.5-18.4,30.2-31.7c9.5-26.9-8.4-51.2-11.8-55.8c-15.9-21.6-39.3-26.6-48.3-27.9
		c-1.2-0.2-2.1-0.3-2.9-0.4c-6.8-0.7-37.4-4.1-47.8,10.5c-5.5,7.7-3.6,16.4-6.5,16.7c-3.1,0.3-4.8-10.5-9.6-18.5
		c-13.7-22.6-56.5-28.5-86.8-16.1c-6.9,2.8-20.6,8.7-28.6,22.9c-2.3,4.2-8.7,15.6-5.3,27.1c1.9,6.3,5.5,8.4,4.3,10.7
		c-2.6,5.1-20.8-5.5-42.6,0c-4.7,1.1-13.7,3.4-21.6,10.8c-12.8,11.8-19.2,33.2-12,50.7c7.8,18.8,28.3,25.8,33.6,27.6
		c9.4,3.2,18.7,3.7,18.7,5.2c-0.1,1.8-12.8-0.8-23.9,6c-11.4,6.9-17,21.3-17.2,33.6c0,3.2,0.1,15.7,9,26.9
		c10.9,13.8,29.9,17.9,44,16.4c16.2-1.7,22.2-10.6,41.4-9.3c8.8,0.6,12.4,2.8,14.5,4.5c4.8,4,112.7,5.4,121,0.1
		c11.5-7.3,24.1,8,47.7,6.5c17.3-1.1,36.9-11,45.1-27.9C114.2-113.4,112.9-124.9,112.2-131z"/>
	<g class="st2">
		<path class="st5" d="M-15.2-83c-3.7-0.3-4-4.5-8.5-5.2c-4.9-0.8-9.2,3-10.9,6.9c-1.3,3.1-1.4,6.6-0.7,10c0.6,3.2,2,6.2,3.1,9.3
			c0.9,2.3,2.1,4.6,4.7,5.7c2.8,1.2,5.9,0.2,8.9,0c3.3-0.2,6,1.7,9.3,0.7c5.6-1.6,7.8-6.1,9.6-10.8C2.8-72.8,5-79.8-0.4-85.6
			c-1.1-1.2-2.5-2.1-4.2-2.3C-9.2-88.5-10.8-82.7-15.2-83z"/>
		<path class="st5" d="M-15.4-96.5c0.7,1.1,1.7,3.1,1.8,5.8c0.2,3.3-1,5.9-1.6,7"/>
	</g>
</g>
<g id="Layer_7_copy_2" class="st0">
	<path class="st14" d="M172-50.4c0,10.7-1.6,32.6-14.7,55.5c-3.9,6.8-12.9,22-30.6,34C103.1,55,78.9,55,58.7,55
		c-20.5,0-53.2-0.1-80.4-22.7C-35,21.2-42.1,8.8-45.5,2.9c-12.6-22.5-14.6-44-14.7-55.3L172-50.4z"/>
	<path class="st15" d="M-60.5-50.2c1.5-12.7,7.4-47.4,35.9-73c41.6-37.3,110.1-35.9,153.1-1.9c32.7,25.8,41.1,62.8,43.4,75.6"/>
	<line class="st15" x1="-54.9" y1="-22.6" x2="-4.4" y2="-52.5"/>
	<line class="st15" x1="-45.5" y1="1.2" x2="43.7" y2="-51.5"/>
	<line class="st15" x1="-32.5" y1="23.2" x2="92.2" y2="-50.5"/>
	<line class="st15" x1="-8.8" y1="41" x2="146.1" y2="-50.6"/>
	<line class="st15" x1="25.8" y1="53.3" x2="171" y2="-32.6"/>
	<line class="st15" x1="67.3" y1="54.9" x2="159.8" y2="0.2"/>
	<line class="st15" x1="128.3" y1="-50.5" x2="167.3" y2="-19.3"/>
	<line class="st15" x1="87.3" y1="-50.4" x2="157.2" y2="5.1"/>
	<line class="st15" x1="46.6" y1="-50.4" x2="142.4" y2="25.7"/>
	<line class="st15" x1="0.8" y1="-51.9" x2="120.2" y2="43"/>
	<line class="st15" x1="-44" y1="-52.5" x2="90" y2="53.9"/>
	<line class="st15" x1="-57.2" y1="-30.3" x2="50" y2="54.9"/>
	<line class="st15" x1="-44.6" y1="5.1" x2="11.7" y2="49.8"/>
	<g class="st2">
		<path class="st5" d="M-15.2-83c-3.7-0.3-4-4.5-8.5-5.2c-4.9-0.8-9.2,3-10.9,6.9c-1.3,3.1-1.4,6.6-0.7,10c0.6,3.2,2,6.2,3.1,9.3
			c0.9,2.3,2.1,4.6,4.7,5.7c2.8,1.2,5.9,0.2,8.9,0c3.3-0.2,6,1.7,9.3,0.7c5.6-1.6,7.8-6.1,9.6-10.8C2.8-72.8,5-79.8-0.4-85.6
			c-1.1-1.2-2.5-2.1-4.2-2.3C-9.2-88.5-10.8-82.7-15.2-83z"/>
		<path class="st5" d="M-15.4-96.5c0.7,1.1,1.7,3.1,1.8,5.8c0.2,3.3-1,5.9-1.6,7"/>
	</g>
	<g class="st2">
		<path class="st5" d="M31-83c-3.7-0.3-4-4.5-8.5-5.2c-4.9-0.8-9.2,3-10.9,6.9c-1.3,3.1-1.4,6.6-0.7,10c0.6,3.2,2,6.2,3.1,9.3
			c0.9,2.3,2.1,4.6,4.7,5.7c2.8,1.2,5.9,0.2,8.9,0c3.3-0.2,6,1.7,9.3,0.7c5.6-1.6,7.8-6.1,9.6-10.8c2.5-6.4,4.7-13.4-0.7-19.2
			c-1.1-1.2-2.5-2.1-4.2-2.3C37.1-88.5,35.5-82.7,31-83z"/>
		<path class="st5" d="M30.9-96.5c0.7,1.1,1.7,3.1,1.8,5.8c0.2,3.3-1,5.9-1.6,7"/>
	</g>
</g>
<g id="Layer_7_copy_3" class="st0">
	<path class="st14" d="M172-50.4c0,10.7-1.6,32.6-14.7,55.5c-3.9,6.8-12.9,22-30.6,34C103.1,55,78.9,55,58.7,55
		c-20.5,0-53.2-0.1-80.4-22.7C-35,21.2-42.1,8.8-45.5,2.9c-12.6-22.5-14.6-44-14.7-55.3L172-50.4z"/>
	<path class="st15" d="M-60.5-50.2c1.5-12.7,7.4-47.4,35.9-73c41.6-37.3,110.1-35.9,153.1-1.9c32.7,25.8,41.1,62.8,43.4,75.6"/>
	<line class="st15" x1="-54.9" y1="-22.6" x2="-4.4" y2="-52.5"/>
	<line class="st15" x1="-45.5" y1="1.2" x2="43.7" y2="-51.5"/>
	<line class="st15" x1="-32.5" y1="23.2" x2="92.2" y2="-50.5"/>
	<line class="st15" x1="-8.8" y1="41" x2="146.1" y2="-50.6"/>
	<line class="st15" x1="25.8" y1="53.3" x2="171" y2="-32.6"/>
	<line class="st15" x1="67.3" y1="54.9" x2="159.8" y2="0.2"/>
	<line class="st15" x1="128.3" y1="-50.5" x2="167.3" y2="-19.3"/>
	<line class="st15" x1="87.3" y1="-50.4" x2="157.2" y2="5.1"/>
	<line class="st15" x1="46.6" y1="-50.4" x2="142.4" y2="25.7"/>
	<line class="st15" x1="0.8" y1="-51.9" x2="120.2" y2="43"/>
	<line class="st15" x1="-44" y1="-52.5" x2="90" y2="53.9"/>
	<line class="st15" x1="-57.2" y1="-30.3" x2="50" y2="54.9"/>
	<line class="st15" x1="-44.6" y1="5.1" x2="11.7" y2="49.8"/>
	<g class="st2">
		<path class="st5" d="M-15.2-83c-3.7-0.3-4-4.5-8.5-5.2c-4.9-0.8-9.2,3-10.9,6.9c-1.3,3.1-1.4,6.6-0.7,10c0.6,3.2,2,6.2,3.1,9.3
			c0.9,2.3,2.1,4.6,4.7,5.7c2.8,1.2,5.9,0.2,8.9,0c3.3-0.2,6,1.7,9.3,0.7c5.6-1.6,7.8-6.1,9.6-10.8C2.8-72.8,5-79.8-0.4-85.6
			c-1.1-1.2-2.5-2.1-4.2-2.3C-9.2-88.5-10.8-82.7-15.2-83z"/>
		<path class="st5" d="M-15.4-96.5c0.7,1.1,1.7,3.1,1.8,5.8c0.2,3.3-1,5.9-1.6,7"/>
	</g>
	<g class="st2">
		<path class="st5" d="M31-83c-3.7-0.3-4-4.5-8.5-5.2c-4.9-0.8-9.2,3-10.9,6.9c-1.3,3.1-1.4,6.6-0.7,10c0.6,3.2,2,6.2,3.1,9.3
			c0.9,2.3,2.1,4.6,4.7,5.7c2.8,1.2,5.9,0.2,8.9,0c3.3-0.2,6,1.7,9.3,0.7c5.6-1.6,7.8-6.1,9.6-10.8c2.5-6.4,4.7-13.4-0.7-19.2
			c-1.1-1.2-2.5-2.1-4.2-2.3C37.1-88.5,35.5-82.7,31-83z"/>
		<path class="st5" d="M30.9-96.5c0.7,1.1,1.7,3.1,1.8,5.8c0.2,3.3-1,5.9-1.6,7"/>
	</g>
	<g class="st2">
		<path class="st5" d="M76.2-83c-3.7-0.3-4-4.5-8.5-5.2c-4.9-0.8-9.2,3-10.9,6.9c-1.3,3.1-1.4,6.6-0.7,10c0.6,3.2,2,6.2,3.1,9.3
			c0.9,2.3,2.1,4.6,4.7,5.7c2.8,1.2,5.9,0.2,8.9,0c3.3-0.2,6,1.7,9.3,0.7c5.6-1.6,7.8-6.1,9.6-10.8c2.5-6.4,4.7-13.4-0.7-19.2
			c-1.1-1.2-2.5-2.1-4.2-2.3C82.3-88.5,80.7-82.7,76.2-83z"/>
		<path class="st5" d="M76.1-96.5c0.7,1.1,1.7,3.1,1.8,5.8c0.2,3.3-1,5.9-1.6,7"/>
	</g>
</g>
<g id="Layer_7_copy_4" class="st0">
	<path class="st14" d="M172-50.4c0,10.7-1.6,32.6-14.7,55.5c-3.9,6.8-12.9,22-30.6,34C103.1,55,78.9,55,58.7,55
		c-20.5,0-53.2-0.1-80.4-22.7C-35,21.2-42.1,8.8-45.5,2.9c-12.6-22.5-14.6-44-14.7-55.3L172-50.4z"/>
	<path class="st15" d="M-60.5-50.2c1.5-12.7,7.4-47.4,35.9-73c41.6-37.3,110.1-35.9,153.1-1.9c32.7,25.8,41.1,62.8,43.4,75.6"/>
	<line class="st15" x1="-54.9" y1="-22.6" x2="-4.4" y2="-52.5"/>
	<line class="st15" x1="-45.5" y1="1.2" x2="43.7" y2="-51.5"/>
	<line class="st15" x1="-32.5" y1="23.2" x2="92.2" y2="-50.5"/>
	<line class="st15" x1="-8.8" y1="41" x2="146.1" y2="-50.6"/>
	<line class="st15" x1="25.8" y1="53.3" x2="171" y2="-32.6"/>
	<line class="st15" x1="67.3" y1="54.9" x2="159.8" y2="0.2"/>
	<line class="st15" x1="128.3" y1="-50.5" x2="167.3" y2="-19.3"/>
	<line class="st15" x1="87.3" y1="-50.4" x2="157.2" y2="5.1"/>
	<line class="st15" x1="46.6" y1="-50.4" x2="142.4" y2="25.7"/>
	<line class="st15" x1="0.8" y1="-51.9" x2="120.2" y2="43"/>
	<line class="st15" x1="-44" y1="-52.5" x2="90" y2="53.9"/>
	<line class="st15" x1="-57.2" y1="-30.3" x2="50" y2="54.9"/>
	<line class="st15" x1="-44.6" y1="5.1" x2="11.7" y2="49.8"/>
	<g class="st2">
		<path class="st5" d="M-14.2-83c-3.7-0.3-4-4.5-8.5-5.2c-4.9-0.8-9.2,3-10.9,6.9c-1.3,3.1-1.4,6.6-0.7,10c0.6,3.2,2,6.2,3.1,9.3
			c0.9,2.3,2.1,4.6,4.7,5.7c2.8,1.2,5.9,0.2,8.9,0c3.3-0.2,6,1.7,9.3,0.7c5.6-1.6,7.8-6.1,9.6-10.8C3.8-72.8,6-79.8,0.6-85.6
			c-1.1-1.2-2.5-2.1-4.2-2.3C-8.1-88.5-9.7-82.7-14.2-83z"/>
		<path class="st5" d="M-14.3-96.5c0.7,1.1,1.7,3.1,1.8,5.8c0.2,3.3-1,5.9-1.6,7"/>
	</g>
	<g class="st2">
		<path class="st5" d="M30.9-82.3c-3.7-0.3-4-4.5-8.5-5.2c-4.9-0.8-9.2,3-10.9,6.9c-1.3,3.1-1.4,6.6-0.7,10c0.6,3.2,2,6.2,3.1,9.3
			c0.9,2.3,2.1,4.6,4.7,5.7c2.8,1.2,5.9,0.2,8.9,0c3.3-0.2,6,1.7,9.3,0.7c5.6-1.6,7.8-6.1,9.6-10.8c2.5-6.4,4.7-13.4-0.7-19.2
			c-1.1-1.2-2.5-2.1-4.2-2.3C37-87.8,35.4-82,30.9-82.3z"/>
		<path class="st5" d="M30.8-95.9c0.7,1.1,1.7,3.1,1.8,5.8c0.2,3.3-1,5.9-1.6,7"/>
	</g>
	<g class="st2">
		<path class="st5" d="M76.1-82.3c-3.7-0.3-4-4.5-8.5-5.2c-4.9-0.8-9.2,3-10.9,6.9c-1.3,3.1-1.4,6.6-0.7,10c0.6,3.2,2,6.2,3.1,9.3
			c0.9,2.3,2.1,4.6,4.7,5.7c2.8,1.2,5.9,0.2,8.9,0c3.3-0.2,6,1.7,9.3,0.7c5.6-1.6,7.8-6.1,9.6-10.8c2.5-6.4,4.7-13.4-0.7-19.2
			c-1.1-1.2-2.5-2.1-4.2-2.3C82.1-87.8,80.6-82,76.1-82.3z"/>
		<path class="st5" d="M76-95.9c0.7,1.1,1.7,3.1,1.8,5.8c0.2,3.3-1,5.9-1.6,7"/>
	</g>
	<g class="st2">
		<path class="st5" d="M118.9-82c-3.7-0.3-4-4.5-8.5-5.2c-4.9-0.8-9.2,3-10.9,6.9c-1.3,3.1-1.4,6.6-0.7,10c0.6,3.2,2,6.2,3.1,9.3
			c0.9,2.3,2.1,4.6,4.7,5.7c2.8,1.2,5.9,0.2,8.9,0c3.3-0.2,6,1.7,9.3,0.7c5.6-1.6,7.8-6.1,9.6-10.8c2.5-6.4,4.7-13.4-0.7-19.2
			c-1.1-1.2-2.5-2.1-4.2-2.3C124.9-87.5,123.4-81.7,118.9-82z"/>
		<path class="st5" d="M118.7-95.5c0.7,1.1,1.7,3.1,1.8,5.8c0.2,3.3-1,5.9-1.6,7"/>
	</g>
</g>
</svg>
