<?xml version="1.0" encoding="utf-8"?>
<!-- Generator: Adobe Illustrator 21.1.0, SVG Export Plug-In . SVG Version: 6.00 Build 0)  -->
<svg version="1.1" id="Layer_1" xmlns="http://www.w3.org/2000/svg" xmlns:xlink="http://www.w3.org/1999/xlink" x="0px" y="0px"
	 viewBox="0 0 142.4 130.6" style="enable-background:new 0 0 142.4 130.6;" xml:space="preserve">
<style type="text/css">
	.st0{display:none;}
	.st1{display:inline;fill:#FFFFFF;stroke:#000000;stroke-miterlimit:10;}
	.st2{display:inline;}
	.st3{fill:#8C6E53;stroke:#603913;stroke-width:2;stroke-linejoin:round;stroke-miterlimit:10;}
	.st4{fill:#76C378;stroke:#009444;stroke-width:2;stroke-linejoin:round;stroke-miterlimit:10;}
	.st5{fill:#E7503F;stroke:#931A1D;stroke-width:2;stroke-linejoin:round;stroke-miterlimit:10;}
	.st6{fill:#605D5C;stroke:#3A3636;stroke-width:2;stroke-linejoin:round;stroke-miterlimit:10;}
	.st7{display:inline;fill:#E8E352;stroke:#B5BA4E;stroke-width:6;stroke-linejoin:round;stroke-miterlimit:10;}
	.st8{display:inline;fill:#AED693;stroke:#79AA67;stroke-width:6;stroke-linejoin:round;stroke-miterlimit:10;}
	.st9{display:inline;fill:#E8E552;stroke:#E4C74A;stroke-width:6;stroke-linejoin:round;stroke-miterlimit:10;}
	.st10{display:inline;fill:none;stroke:#E4C74A;stroke-width:6;stroke-linejoin:round;stroke-miterlimit:10;}
	.st11{fill:#E8E552;stroke:#E4C74A;stroke-width:6;stroke-linejoin:round;stroke-miterlimit:10;}
	.st12{fill:none;stroke:#E4C74A;stroke-width:6;stroke-linejoin:round;stroke-miterlimit:10;}
	.st13{display:inline;fill:none;stroke:#B5BA4E;stroke-width:6;stroke-linejoin:round;stroke-miterlimit:10;}
	.st14{display:inline;fill:#C08C49;stroke:#A56928;stroke-width:4;stroke-linejoin:round;stroke-miterlimit:10;}
	.st15{display:inline;fill:none;stroke:#A56928;stroke-width:4;stroke-linejoin:round;stroke-miterlimit:10;}
	.st16{display:inline;fill:#F1EB67;stroke:#E8E491;stroke-miterlimit:10;}
	.st17{display:inline;fill:#846628;}
	.st18{fill:#662C90;}
	.st19{fill:#2D6733;}
	.st20{fill:#846628;}
	.st21{fill:#E12C26;}
	.st22{display:inline;fill:#F9A51B;}
	.st23{fill:#5FC6D1;stroke:#5F7EAA;stroke-width:4;stroke-miterlimit:10;}
	.st24{fill:#5EC6D1;stroke:#5F7EAA;stroke-width:4;stroke-linejoin:round;stroke-miterlimit:10;}
	.st25{display:inline;fill:#8C6E53;stroke:#603913;stroke-width:2;stroke-linejoin:round;stroke-miterlimit:10;}
	.st26{display:inline;fill:#76C378;stroke:#009444;stroke-width:2;stroke-linejoin:round;stroke-miterlimit:10;}
</style>
<g id="Layer_1_copy" class="st0">
	<path class="st1" d="M194.3,201.9"/>
</g>
<g id="Layer_3" class="st0">
	<g class="st2">
		<path class="st3" d="M81.9,62.2c1.9,4.9-3.3,6.7-9.3,23.7c-4,11.2-5.2,25.9-7.4,55.1c-0.8,10.8-1.6,21.2-2,35.5
			c0,1.8-0.8,18.3,0.2,36.9c1.6,30,3.6,63.5,12.6,107.8c6.5,31.6,14.5,58.5,21.9,80l9,19.7c-3-2.9-7.4-7-12.7-12
			c-16.5-15.3-20.7-19.2-21.6-18.4c-1.3,1.1,5.6,9.4,10.7,24.7c3.1,9.4,5.6,21.7,3.4,22.6c-2.2,0.9-7.2-10.6-19.9-26
			c-9.7-11.8-22.9-24.7-26-22.6c-2.8,1.9,6.1,13.6,4.7,32.2c-0.6,8.6-3.2,18.4-6.2,18.5c-3.4,0.1-3.3-13.2-12.5-28.4
			c-6.1-10-18.3-24.3-26.6-21.6c-6.5,2.1-8,13.9-8.4,16.5c-2.4,18.3,9.7,31.4,7.6,32.8c-2.4,1.6-18.8-10.7-24.6-29.7
			c-2.6-8.4-2.4-15.8-5.1-16.1c-2.8-0.4-4.3,7.6-11.9,17c-6.6,8.2-15.9,15.1-17.8,13.6c-2.3-1.8,5.5-14.7,9.7-22.6
			c10.5-19.8,13.1-40.1,20.8-80.3c2.3-12.2,4.1-23.6,5.5-34.3c1.9-14.7,5.4-41.3,5.6-73.6c0.2-52.7-8.1-115.1-11.1-127.3
			s-8.2-22.3-9.7-23.5l0,0C-39.3,60.2,73.3,39.9,81.9,62.2z"/>
		<path class="st4" d="M180.2,13.4c-0.7-5.8-2.3-19-12.2-30.6c-9.7-11.4-22.6-15.6-31.6-18.5c-12.1-3.9-21.7-4.2-21.7-5.9
			s8.7-1.3,17.3-4.4c14.3-5.1,25.5-18.4,30.2-31.7c9.5-26.9-8.4-51.2-11.8-55.8c-15.9-21.6-39.3-26.6-48.3-27.9
			c-1.2-0.2-2.1-0.3-2.9-0.4c-6.8-0.7-37.4-4.1-47.8,10.5c-5.5,7.7-3.6,16.4-6.5,16.7c-3.1,0.3-4.8-10.5-9.6-18.5
			c-13.7-22.6-56.5-28.5-86.8-16.1c-6.9,2.8-20.6,8.7-28.6,22.9c-2.3,4.2-8.7,15.6-5.3,27.1c1.9,6.3,5.5,8.4,4.3,10.7
			c-2.6,5.1-20.8-5.5-42.6,0c-4.9,1.2-13.9,3.6-21.9,10.9c-12.8,11.8-19.2,33.2-11.9,50.7c7.8,18.8,28.3,25.8,33.6,27.6
			c9.4,3.2,18.7,3.7,18.7,5.2c-0.1,1.8-12.8-0.8-23.9,6c-11.4,6.9-17,21.3-17.2,33.6c0,3.2,0.1,15.7,9,26.9
			c10.9,13.8,29.9,17.9,44,16.4c16.2-1.7,22.2-10.6,41.4-9.3c8.8,0.6,12.4,2.8,14.5,4.5c4.8,4,112.7,5.4,121,0.1
			c11.5-7.3,24.1,8,47.7,6.5c17.3-1.1,36.9-11,45.1-27.9C182.2,31,180.9,19.5,180.2,13.4z"/>
		<g>
			<path class="st5" d="M304.1-5.5c-1.9-0.1-2.1-2.6-4.5-3c-2.6-0.4-4.9,1.7-5.8,4c-0.7,1.8-0.7,3.8-0.4,5.7c0.3,1.9,1,3.6,1.7,5.3
				c0.5,1.3,1.1,2.6,2.5,3.3c1.5,0.7,3.1,0.1,4.7,0c1.7-0.1,3.2,1,4.9,0.4c2.9-0.9,4.1-3.5,5.1-6.2c1.3-3.7,2.5-7.7-0.3-11
				c-0.6-0.7-1.3-1.2-2.2-1.3C307.3-8.6,306.5-5.3,304.1-5.5z"/>
			<path class="st5" d="M304.1-13.3c0.3,0.6,0.9,1.8,1,3.3c0.1,1.9-0.5,3.4-0.8,4"/>
		</g>
		<g>
			<path class="st5" d="M323.6,151.7c-1.9-0.1-2.1-2.6-4.5-3c-2.6-0.4-4.9,1.7-5.8,4c-0.7,1.8-0.7,3.8-0.4,5.7
				c0.3,1.9,1,3.6,1.7,5.3c0.5,1.3,1.1,2.6,2.5,3.3c1.5,0.7,3.1,0.1,4.7,0c1.7-0.1,3.2,1,4.9,0.4c2.9-0.9,4.1-3.5,5.1-6.2
				c1.3-3.7,2.5-7.7-0.3-11c-0.6-0.7-1.3-1.2-2.2-1.3C326.8,148.6,325.9,151.9,323.6,151.7z"/>
			<path class="st5" d="M323.5,144c0.3,0.6,0.9,1.8,1,3.3c0.1,1.9-0.5,3.4-0.8,4"/>
		</g>
		<g>
			<path class="st5" d="M303.3-48.1c-1.9-0.1-2.1-2.6-4.5-3c-2.6-0.4-4.9,1.7-5.8,4c-0.7,1.8-0.7,3.8-0.4,5.7s1,3.6,1.7,5.3
				c0.5,1.3,1.1,2.6,2.5,3.3c1.5,0.7,3.1,0.1,4.7,0c1.7-0.1,3.2,1,4.9,0.4c2.9-0.9,4.1-3.5,5.1-6.2c1.3-3.7,2.5-7.7-0.3-11
				c-0.6-0.7-1.3-1.2-2.2-1.3C306.5-51.3,305.6-48,303.3-48.1z"/>
			<path class="st5" d="M303.2-55.9c0.3,0.6,0.9,1.8,1,3.3c0.1,1.9-0.5,3.4-0.8,4"/>
		</g>
		<g>
			<path class="st5" d="M316.3,58.1c-1.9-0.1-2.1-2.6-4.5-3c-2.6-0.4-4.9,1.7-5.8,4c-0.7,1.8-0.7,3.8-0.4,5.7c0.3,1.9,1,3.6,1.7,5.3
				c0.5,1.3,1.1,2.6,2.5,3.3c1.5,0.7,3.1,0.1,4.7,0c1.7-0.1,3.2,1,4.9,0.4c2.9-0.9,4.1-3.5,5.1-6.2c1.3-3.7,2.5-7.7-0.3-11
				c-0.6-0.7-1.3-1.2-2.2-1.3C319.5,55,318.7,58.3,316.3,58.1z"/>
			<path class="st5" d="M316.2,50.3c0.3,0.6,0.9,1.8,1,3.3c0.1,1.9-0.5,3.4-0.8,4"/>
		</g>
		<g>
			<path class="st5" d="M292.9-109.1c-1.9-0.1-2.1-2.6-4.5-3c-2.6-0.4-4.9,1.7-5.8,4c-0.7,1.8-0.7,3.8-0.4,5.7s1,3.6,1.7,5.3
				c0.5,1.3,1.1,2.6,2.5,3.3c1.5,0.7,3.1,0.1,4.7,0c1.7-0.1,3.2,1,4.9,0.4c2.9-0.9,4.1-3.5,5.1-6.2c1.3-3.7,2.5-7.7-0.3-11
				c-0.6-0.7-1.3-1.2-2.2-1.3C296.1-112.2,295.3-108.9,292.9-109.1z"/>
			<path class="st5" d="M292.8-116.9c0.3,0.6,0.9,1.8,1,3.3c0.1,1.9-0.5,3.4-0.8,4"/>
		</g>
		<g>
			<path class="st5" d="M308,27.5c-1.9-0.1-2.1-2.6-4.5-3c-2.6-0.4-4.9,1.7-5.8,4c-0.7,1.8-0.7,3.8-0.4,5.7c0.3,1.9,1,3.6,1.7,5.3
				c0.5,1.3,1.1,2.6,2.5,3.3c1.5,0.7,3.1,0.1,4.7,0c1.7-0.1,3.2,1,4.9,0.4c2.9-0.9,4.1-3.5,5.1-6.2c1.3-3.7,2.5-7.7-0.3-11
				c-0.6-0.7-1.3-1.2-2.2-1.3C311.2,24.3,310.4,27.6,308,27.5z"/>
			<path class="st5" d="M307.9,19.7c0.3,0.6,0.9,1.8,1,3.3c0.1,1.9-0.5,3.4-0.8,4"/>
		</g>
		<g>
			<path class="st5" d="M306.5-76.3c-1.9-0.1-2.1-2.6-4.5-3c-2.6-0.4-4.9,1.7-5.8,4c-0.7,1.8-0.7,3.8-0.4,5.7s1,3.6,1.7,5.3
				c0.5,1.3,1.1,2.6,2.5,3.3c1.5,0.7,3.1,0.1,4.7,0c1.7-0.1,3.2,1,4.9,0.4c2.9-0.9,4.1-3.5,5.1-6.2c1.3-3.7,2.5-7.7-0.3-11
				c-0.6-0.7-1.3-1.2-2.2-1.3C309.7-79.4,308.9-76.1,306.5-76.3z"/>
			<path class="st5" d="M306.5-84.1c0.3,0.6,0.9,1.8,1,3.3c0.1,1.9-0.5,3.4-0.8,4"/>
		</g>
		<g>
			<path class="st5" d="M348.3-78.6c-1.9-0.1-2.1-2.6-4.5-3c-2.6-0.4-4.9,1.7-5.8,4c-0.7,1.8-0.7,3.8-0.4,5.7s1,3.6,1.7,5.3
				c0.5,1.3,1.1,2.6,2.5,3.3c1.5,0.7,3.1,0.1,4.7,0c1.7-0.1,3.2,1,4.9,0.4c2.9-0.9,4.1-3.5,5.1-6.2c1.3-3.7,2.5-7.7-0.3-11
				c-0.6-0.7-1.3-1.2-2.2-1.3C351.5-81.7,350.7-78.4,348.3-78.6z"/>
			<path class="st5" d="M348.3-86.3c0.3,0.6,0.9,1.8,1,3.3c0.1,1.9-0.5,3.4-0.8,4"/>
		</g>
	</g>
	<g class="st2">
		<path class="st5" d="M89.2,108.3c-4.4-0.3-4.8-5.2-10.2-6c-5.9-0.9-11.1,3.4-13.1,8c-1.6,3.6-1.6,7.7-0.9,11.5
			c0.8,3.7,2.3,7.2,3.8,10.7c1.1,2.7,2.6,5.3,5.7,6.5c3.4,1.4,7.1,0.2,10.7,0c4-0.2,7.2,2,11.1,0.8c6.7-1.9,9.3-7,11.6-12.4
			c3-7.4,5.6-15.4-0.8-22.1c-1.3-1.3-3-2.4-5-2.7C96.4,102,94.5,108.7,89.2,108.3z"/>
		<path class="st5" d="M89,92.7c0.8,1.3,2,3.6,2.2,6.7c0.3,3.9-1.2,6.8-1.9,8.1"/>
	</g>
</g>
<g id="Layer_3_copy" class="st0">
	<g class="st2">
		<path class="st3" d="M70.4,60.8c1.9,4.9-3.3,6.7-9.3,23.7c-4,11.2-5.2,25.9-7.4,55.1c-0.8,10.8-1.6,21.2-2,35.5
			c0,1.8-0.8,18.3,0.2,36.9c1.6,30,3.6,63.5,12.6,107.8c6.5,31.6,14.5,58.5,21.9,80l9,19.7c-3-2.9-7.4-7-12.7-12
			c-16.5-15.3-20.7-19.2-21.6-18.4c-1.3,1.1,5.6,9.4,10.7,24.7c3.1,9.4,5.6,21.7,3.4,22.6c-2.2,0.9-7.2-10.6-19.9-26
			c-9.7-11.8-22.9-24.7-26-22.6c-2.8,1.9,6.1,13.6,4.7,32.2c-0.6,8.6-3.2,18.4-6.2,18.5c-3.4,0.1-3.3-13.2-12.5-28.4
			c-6.1-10-18.3-24.3-26.6-21.6c-6.5,2.1-8,13.9-8.4,16.5c-2.4,18.3,9.7,31.4,7.6,32.8c-2.4,1.6-18.8-10.7-24.6-29.7
			c-2.6-8.4-2.4-15.8-5.1-16.1c-2.8-0.4-4.3,7.6-11.9,17c-6.6,8.2-15.9,15.1-17.8,13.6c-2.3-1.8,5.5-14.7,9.7-22.6
			c10.5-19.8,13.1-40.1,20.8-80.3c2.3-12.2,4.1-23.6,5.5-34.3c1.9-14.7,5.4-41.3,5.6-73.6C-29.7,159.1-38,96.7-41,84.5
			s-8.2-22.3-9.7-23.5l0,0C-50.8,58.9,61.7,38.6,70.4,60.8z"/>
		<path class="st4" d="M168.6,12c-0.7-5.8-2.3-19-12.2-30.6c-9.7-11.4-22.6-15.6-31.6-18.5c-12.1-3.9-21.7-4.2-21.7-5.9
			s8.7-1.3,17.3-4.4c14.3-5.1,25.5-18.4,30.2-31.7c9.5-26.9-8.4-51.2-11.8-55.8c-15.9-21.6-39.3-26.6-48.3-27.9
			c-1.2-0.2-2.1-0.3-2.9-0.4c-6.8-0.7-37.4-4.1-47.8,10.5c-5.5,7.7-3.6,16.4-6.5,16.7c-3.1,0.3-4.8-10.5-9.6-18.5
			C10-177.1-32.8-183-63.1-170.6c-6.9,2.8-20.6,8.7-28.6,22.9c-2.3,4.2-8.7,15.6-5.3,27.1c1.9,6.3,5.5,8.4,4.3,10.7
			c-2.6,5.1-20.8-5.5-42.6,0c-4.9,1.2-13.9,3.6-21.9,10.9c-12.8,11.8-19.2,33.2-11.9,50.7c7.8,18.8,28.3,25.8,33.6,27.6
			c9.4,3.2,18.7,3.7,18.7,5.2c-0.1,1.8-12.8-0.8-23.9,6c-11.4,6.9-17,21.3-17.2,33.6c0,3.2,0.1,15.7,9,26.9
			c10.9,13.8,29.9,17.9,44,16.4c16.2-1.7,22.2-10.6,41.4-9.3c8.8,0.6,12.4,2.8,14.5,4.5c4.8,4,112.7,5.4,121,0.1
			c11.5-7.3,24.1,8,47.7,6.5c17.3-1.1,36.9-11,45.1-27.9C170.6,29.7,169.3,18.1,168.6,12z"/>
		<g>
			<path class="st6" d="M-86.6,31c-1.9-0.1-2.1-2.6-4.5-3c-2.6-0.4-4.9,1.7-5.8,4c-0.7,1.8-0.7,3.8-0.4,5.7c0.3,1.9,1,3.6,1.7,5.3
				c0.5,1.3,1.1,2.6,2.5,3.3c1.5,0.7,3.1,0.1,4.7,0c1.7-0.1,3.2,1,4.9,0.4c2.9-0.9,4.1-3.5,5.1-6.2c1.3-3.7,2.5-7.7-0.3-11
				c-0.6-0.7-1.3-1.2-2.2-1.3C-83.4,27.8-84.2,31.2-86.6,31z"/>
			<path class="st6" d="M-86.7,23.2c0.3,0.6,0.9,1.8,1,3.3c0.1,1.9-0.5,3.4-0.8,4"/>
		</g>
		<g>
			<path class="st5" d="M-97.9-73.1c-1.9-0.1-2.1-2.6-4.5-3c-2.6-0.4-4.9,1.7-5.8,4c-0.7,1.8-0.7,3.8-0.4,5.7s1,3.6,1.7,5.3
				c0.5,1.3,1.1,2.6,2.5,3.3c1.5,0.7,3.1,0.1,4.7,0c1.7-0.1,3.2,1,4.9,0.4c2.9-0.9,4.1-3.5,5.1-6.2c1.3-3.7,2.5-7.7-0.3-11
				c-0.6-0.7-1.3-1.2-2.2-1.3C-94.7-76.2-95.6-72.9-97.9-73.1z"/>
			<path class="st5" d="M-98-80.9c0.3,0.6,0.9,1.8,1,3.3c0.1,1.9-0.5,3.4-0.8,4"/>
		</g>
		<g>
			<path class="st5" d="M-27.8-30.3c-1.9-0.1-2.1-2.6-4.5-3c-2.6-0.4-4.9,1.7-5.8,4c-0.7,1.8-0.7,3.8-0.4,5.7s1,3.6,1.7,5.3
				c0.5,1.3,1.1,2.6,2.5,3.3c1.5,0.7,3.1,0.1,4.7,0c1.7-0.1,3.2,1,4.9,0.4c2.9-0.9,4.1-3.5,5.1-6.2c1.3-3.7,2.5-7.7-0.3-11
				c-0.6-0.7-1.3-1.2-2.2-1.3C-24.7-33.4-25.5-30.1-27.8-30.3z"/>
			<path class="st5" d="M-27.9-38.1c0.3,0.6,0.9,1.8,1,3.3c0.1,1.9-0.5,3.4-0.8,4"/>
		</g>
		<g>
			<path class="st5" d="M33.3,28c-1.9-0.1-2.1-2.6-4.5-3c-2.6-0.4-4.9,1.7-5.8,4c-0.7,1.8-0.7,3.8-0.4,5.7c0.3,1.9,1,3.6,1.7,5.3
				c0.5,1.3,1.1,2.6,2.5,3.3c1.5,0.7,3.1,0.1,4.7,0c1.7-0.1,3.2,1,4.9,0.4c2.9-0.9,4.1-3.5,5.1-6.2c1.3-3.7,2.5-7.7-0.3-11
				c-0.6-0.7-1.3-1.2-2.2-1.3C36.5,24.8,35.7,28.1,33.3,28z"/>
			<path class="st5" d="M33.2,20.2c0.3,0.6,0.9,1.8,1,3.3c0.1,1.9-0.5,3.4-0.8,4"/>
		</g>
		<g>
			<path class="st5" d="M94.9-115.4c-1.9-0.1-2.1-2.6-4.5-3c-2.6-0.4-4.9,1.7-5.8,4c-0.7,1.8-0.7,3.8-0.4,5.7c0.3,1.9,1,3.6,1.7,5.3
				c0.5,1.3,1.1,2.6,2.5,3.3c1.5,0.7,3.1,0.1,4.7,0c1.7-0.1,3.2,1,4.9,0.4c2.9-0.9,4.1-3.5,5.1-6.2c1.3-3.7,2.5-7.7-0.3-11
				c-0.6-0.7-1.3-1.2-2.2-1.3C98.1-118.6,97.2-115.3,94.9-115.4z"/>
			<path class="st5" d="M94.8-123.2c0.3,0.6,0.9,1.8,1,3.3c0.1,1.9-0.5,3.4-0.8,4"/>
		</g>
		<g>
			<path class="st5" d="M123.5,9.7c-1.9-0.1-2.1-2.6-4.5-3c-2.6-0.4-4.9,1.7-5.8,4c-0.7,1.8-0.7,3.8-0.4,5.7c0.3,1.9,1,3.6,1.7,5.3
				c0.5,1.3,1.1,2.6,2.5,3.3c1.5,0.7,3.1,0.1,4.7,0c1.7-0.1,3.2,1,4.9,0.4c2.9-0.9,4.1-3.5,5.1-6.2c1.3-3.7,2.5-7.7-0.3-11
				c-0.6-0.7-1.3-1.2-2.2-1.3C126.7,6.6,125.9,9.9,123.5,9.7z"/>
			<path class="st5" d="M123.4,2c0.3,0.6,0.9,1.8,1,3.3c0.1,1.9-0.5,3.4-0.8,4"/>
		</g>
		<g>
			<path class="st5" d="M51.6-51.3c-1.9-0.1-2.1-2.6-4.5-3c-2.6-0.4-4.9,1.7-5.8,4c-0.7,1.8-0.7,3.8-0.4,5.7c0.3,1.9,1,3.6,1.7,5.3
				c0.5,1.3,1.1,2.6,2.5,3.3c1.5,0.7,3.1,0.1,4.7,0c1.7-0.1,3.2,1,4.9,0.4c2.9-0.9,4.1-3.5,5.1-6.2c1.3-3.7,2.5-7.7-0.3-11
				c-0.6-0.7-1.3-1.2-2.2-1.3C54.8-54.5,53.9-51.1,51.6-51.3z"/>
			<path class="st5" d="M51.5-59.1c0.3,0.6,0.9,1.8,1,3.3c0.1,1.9-0.5,3.4-0.8,4"/>
		</g>
		<g>
			<path class="st5" d="M-38-122.2c-1.9-0.1-2.1-2.6-4.5-3c-2.6-0.4-4.9,1.7-5.8,4c-0.7,1.8-0.7,3.8-0.4,5.7s1,3.6,1.7,5.3
				c0.5,1.3,1.1,2.6,2.5,3.3c1.5,0.7,3.1,0.1,4.7,0c1.7-0.1,3.2,1,4.9,0.4c2.9-0.9,4.1-3.5,5.1-6.2c1.3-3.7,2.5-7.7-0.3-11
				c-0.6-0.7-1.3-1.2-2.2-1.3C-34.9-125.3-35.7-122-38-122.2z"/>
			<path class="st5" d="M-38.1-130c0.3,0.6,0.9,1.8,1,3.3c0.1,1.9-0.5,3.4-0.8,4"/>
		</g>
		<g>
			<path class="st6" d="M51.6-51.3c-1.9-0.1-2.1-2.6-4.5-3c-2.6-0.4-4.9,1.7-5.8,4c-0.7,1.8-0.7,3.8-0.4,5.7c0.3,1.9,1,3.6,1.7,5.3
				c0.5,1.3,1.1,2.6,2.5,3.3c1.5,0.7,3.1,0.1,4.7,0c1.7-0.1,3.2,1,4.9,0.4c2.9-0.9,4.1-3.5,5.1-6.2c1.3-3.7,2.5-7.7-0.3-11
				c-0.6-0.7-1.3-1.2-2.2-1.3C54.8-54.5,53.9-51.1,51.6-51.3z"/>
			<path class="st6" d="M51.5-59.1c0.3,0.6,0.9,1.8,1,3.3c0.1,1.9-0.5,3.4-0.8,4"/>
		</g>
		<g>
			<path class="st6" d="M-27.8-30.3c-1.9-0.1-2.1-2.6-4.5-3c-2.6-0.4-4.9,1.7-5.8,4c-0.7,1.8-0.7,3.8-0.4,5.7s1,3.6,1.7,5.3
				c0.5,1.3,1.1,2.6,2.5,3.3c1.5,0.7,3.1,0.1,4.7,0c1.7-0.1,3.2,1,4.9,0.4c2.9-0.9,4.1-3.5,5.1-6.2c1.3-3.7,2.5-7.7-0.3-11
				c-0.6-0.7-1.3-1.2-2.2-1.3C-24.7-33.4-25.5-30.1-27.8-30.3z"/>
			<path class="st6" d="M-27.9-38.1c0.3,0.6,0.9,1.8,1,3.3c0.1,1.9-0.5,3.4-0.8,4"/>
		</g>
		<g>
			<path class="st6" d="M33.3,28c-1.9-0.1-2.1-2.6-4.5-3c-2.6-0.4-4.9,1.7-5.8,4c-0.7,1.8-0.7,3.8-0.4,5.7c0.3,1.9,1,3.6,1.7,5.3
				c0.5,1.3,1.1,2.6,2.5,3.3c1.5,0.7,3.1,0.1,4.7,0c1.7-0.1,3.2,1,4.9,0.4c2.9-0.9,4.1-3.5,5.1-6.2c1.3-3.7,2.5-7.7-0.3-11
				c-0.6-0.7-1.3-1.2-2.2-1.3C36.5,24.8,35.7,28.1,33.3,28z"/>
			<path class="st6" d="M33.2,20.2c0.3,0.6,0.9,1.8,1,3.3c0.1,1.9-0.5,3.4-0.8,4"/>
		</g>
	</g>
</g>
<g id="Layer_5" class="st0">
	<ellipse class="st7" cx="43.7" cy="154.1" rx="119.8" ry="146.8"/>
	<path class="st8" d="M-5.3,145.5c-4.4-0.1-14-16.3-16-18.9c-9.5-12-17.8-24.9-29.4-36.2c3.4,3.2,51.7,18.3,53.3,18.1
		c10.4-1,17-20.2,21.8-25.2c-2.8,2.9,34.5,24.4,39.1,27.8c0.1,0.1,34.1-21.4,36.6-24.3c8.6,9.3,17.3,18.5,25.9,27.8
		c-1.6-2.4,41.7-20.7,46.7-23.2c-5.3,2.7-23.1,46.1-29.6,59C93.6,148.7,44.2,147.1-5.3,145.5z"/>
	<path class="st8" d="M15.5,184.9c-3.4-0.1-10.5-16.1-12.1-18.7c-7.1-11.8-13.3-24.6-22.1-35.8c2.5,3.2,39.6,17.5,40.8,17.3
		c8-1.1,13.4-20.5,17.1-25.5c-2.2,2.9,26.2,23.9,29.7,27.2c0.1,0.1,26.6-21.9,28.5-24.8c6.5,9.1,13.1,18.2,19.6,27.4
		c-1.2-2.4,32.4-21.3,36.3-23.9c-4.2,2.7-18.5,46.4-23.6,59.4C91.6,186.7,53.6,185.8,15.5,184.9z"/>
	<path class="st8" d="M28.5,216.2c-2.7,0-8.2-16-9.4-18.5C13.5,186,8.7,173.2,1.8,162.2c2,3.2,31.5,17,32.5,16.8
		c6.4-1.2,11-20.6,14-25.7c-1.8,2.9,20.7,23.6,23.5,26.8c0,0.1,21.6-22.2,23.2-25.2c5.1,9,10.2,18.1,15.3,27.1
		c-1-2.4,26.2-21.7,29.4-24.3c-3.4,2.8-15.4,46.6-19.7,59.6C89.4,217,58.9,216.6,28.5,216.2z"/>
</g>
<g id="Layer_12" class="st0">
	<path class="st9" d="M112.8,1.2c0,0-56-2.9-73.1,2.8C22.5,9.8-3.4,38.7-7.6,53.1c-4.2,14.3-3.2,62-3.2,62l122.3-0.1L112.8,1.2z"/>
	<line class="st10" x1="-7.2" y1="70.2" x2="78.2" y2="-0.1"/>
	<line class="st10" x1="-9.9" y1="109.5" x2="110.5" y2="14.8"/>
	<line class="st10" x1="47" y1="113.5" x2="110.5" y2="62.1"/>
	<line class="st10" x1="-7.9" y1="46.9" x2="84.1" y2="111.8"/>
	<line class="st10" x1="11.8" y1="21.5" x2="110.5" y2="91.9"/>
	<line class="st10" x1="39.7" y1="4" x2="111.9" y2="45.9"/>
	<line class="st10" x1="-12.6" y1="86.5" x2="31.6" y2="114"/>
</g>
<g id="Layer_13">
	<path class="st11" d="M11.2,9.2c0,0,56-1.7,73.1,4.4c17,6.1,38.9,35.1,45.2,46.1c6.3,11,4.8,63,4.8,63L12,123L11.2,9.2z"/>
	<line class="st12" x1="22.4" y1="9.9" x2="134.3" y2="114.7"/>
	<line class="st12" x1="58.4" y1="10.7" x2="135.5" y2="81"/>
	<line class="st12" x1="10.4" y1="77.6" x2="58" y2="122"/>
	<line class="st12" x1="12" y1="39.5" x2="95.7" y2="120.9"/>
	<line class="st12" x1="67.8" y1="12" x2="9.6" y2="54"/>
	<line class="st12" x1="108.4" y1="31" x2="13.7" y2="114.9"/>
	<line class="st12" x1="62.1" y1="122.6" x2="131.4" y2="66.2"/>
</g>
<g id="Layer_6" class="st0">
	<line class="st13" x1="-76.1" y1="160.4" x2="63.7" y2="9.4"/>
	<line class="st13" x1="-67.4" y1="204.5" x2="100" y2="23.6"/>
	<line class="st13" x1="-51.1" y1="240.8" x2="126" y2="49.5"/>
	<line class="st13" x1="-29.6" y1="271.6" x2="147.5" y2="80.3"/>
	<line class="st13" x1="1" y1="290.9" x2="160.2" y2="119.9"/>
	<line class="st13" x1="49.2" y1="301.4" x2="162.2" y2="176"/>
	<line class="st13" x1="151.3" y1="223.3" x2="-33.3" y2="44.1"/>
	<line class="st13" x1="127.8" y1="258.6" x2="-58.4" y2="78.9"/>
	<line class="st13" x1="96.3" y1="289.5" x2="-73.6" y2="124.5"/>
	<line class="st13" x1="163.2" y1="177" x2="-3.4" y2="17"/>
	<line class="st13" x1="160.2" y1="119.9" x2="50.1" y2="7.8"/>
	<line class="st13" x1="49.2" y1="301.4" x2="-76.1" y2="176"/>
	<line class="st13" x1="-69.5" y1="104.7" x2="17.4" y2="10.9"/>
</g>
<g id="Layer_7" class="st0">
	<path class="st14" d="M156.8,28c0,10.7-1.6,32.6-14.7,55.5c-3.9,6.8-12.9,22-30.6,34c-23.6,15.9-47.8,15.9-68,15.9
		c-20.5,0-53.2-0.1-80.4-22.7c-13.3-11.1-20.4-23.5-23.8-29.4c-12.6-22.5-14.6-44-14.7-55.3L156.8,28z"/>
	<path class="st15" d="M-75.7,28.2c1.5-12.7,7.4-47.4,35.9-73C1.8-82.1,70.3-80.7,113.3-46.7c32.7,25.8,41.1,62.8,43.4,75.6"/>
	<line class="st15" x1="-70.1" y1="55.8" x2="-19.6" y2="25.9"/>
	<line class="st15" x1="-60.7" y1="79.6" x2="28.5" y2="26.9"/>
	<line class="st15" x1="-47.7" y1="101.6" x2="77" y2="27.9"/>
	<line class="st15" x1="-24" y1="119.4" x2="130.9" y2="27.8"/>
	<line class="st15" x1="10.6" y1="131.7" x2="155.8" y2="45.8"/>
	<line class="st15" x1="52.1" y1="133.3" x2="144.6" y2="78.6"/>
	<line class="st15" x1="113.1" y1="27.9" x2="152.1" y2="59.1"/>
	<line class="st15" x1="72.1" y1="28" x2="142" y2="83.5"/>
	<line class="st15" x1="31.4" y1="28" x2="127.2" y2="104.1"/>
	<line class="st15" x1="-14.4" y1="26.5" x2="105" y2="121.4"/>
	<line class="st15" x1="-59.2" y1="25.9" x2="74.8" y2="132.3"/>
	<line class="st15" x1="-72.4" y1="48.1" x2="34.8" y2="133.3"/>
	<line class="st15" x1="-59.8" y1="83.5" x2="-3.5" y2="128.2"/>
</g>
<g id="Layer_7_copy_5" class="st0">
	<path class="st16" d="M65.5,21.7c4.4-6,14.8-16.4,15.2-23.6c0.4-7.3,0.8-30.8,2-35.6s9.4,7.8,10.2,12.6c0.8,4.8,3.9,19.9,2.5,25.2
		S88.9,16,85.7,18.8s-7.3,8-13.2,12c-6.1,2.4-10,6.6-16.1,6.6C50.3,37.5,61.1,27.8,65.5,21.7z"/>
	<path class="st16" d="M87.9,23.3c2.5-6.8,9.5-19.2,7.8-25.9s-8-28.2-8.2-32.8c-0.2-4.7,11.2,4.3,13.3,8.4
		c2.1,4.1,9.4,16.9,9.5,22.1c0.1,5.2-1.8,16.2-4,19.7s-4.7,9.4-9.2,14.8c-5.1,4-7.7,8.9-13.5,10.8C77.9,42.1,85.5,30,87.9,23.3z"/>
	<path class="st16" d="M44.8,7.5c6.2-3.6,19.6-8.7,22.6-15c3-6.2,11.9-26.7,14.7-30.5c2.8-3.7,5.9,10.5,4.9,15S83.4-4,80.2,0.1
		C77,4.2,68.5,11.4,64.5,12.7C60.6,14,54.9,17,48,18.2c-6.5-0.3-11.6,2-17.3-0.4S38.6,11.1,44.8,7.5z"/>
	<path class="st17" d="M81.4-35.4c0.2-3.8,0-15,0-18.5s10.5-3.5,10.5,0s2.4,15,0,18.5C89.6-31.9,81.2-31.6,81.4-35.4z"/>
	<g class="st2">
		
			<ellipse transform="matrix(0.8054 -0.5928 0.5928 0.8054 -19.1402 -38.6836)" class="st18" cx="-68.5" cy="9.8" rx="8.5" ry="8.9"/>
		
			<ellipse transform="matrix(0.8054 -0.5928 0.5928 0.8054 -10.5187 -32.5072)" class="st18" cx="-54.8" cy="-0.2" rx="8.5" ry="8.9"/>
		
			<ellipse transform="matrix(0.8054 -0.5928 0.5928 0.8054 -1.9118 -26.4178)" class="st18" cx="-41.2" cy="-10.3" rx="8.5" ry="8.9"/>
		
			<ellipse transform="matrix(0.8054 -0.5928 0.5928 0.8054 6.7098 -20.2414)" class="st18" cx="-27.5" cy="-20.3" rx="8.5" ry="8.9"/>
		
			<ellipse transform="matrix(0.8054 -0.5928 0.5928 0.8054 -20.3862 -27.7613)" class="st18" cx="-52.5" cy="17.2" rx="8.5" ry="8.9"/>
		
			<ellipse transform="matrix(0.8054 -0.5928 0.5928 0.8054 -11.7792 -21.6719)" class="st18" cx="-38.9" cy="7.1" rx="8.5" ry="8.9"/>
		
			<ellipse transform="matrix(0.8054 -0.5928 0.5928 0.8054 -3.1577 -15.4955)" class="st18" cx="-25.2" cy="-2.9" rx="8.5" ry="8.9"/>
		
			<ellipse transform="matrix(0.8054 -0.5928 0.5928 0.8054 -21.7612 -16.7346)" class="st18" cx="-36.4" cy="24.8" rx="8.5" ry="8.9"/>
		
			<ellipse transform="matrix(0.8054 -0.5928 0.5928 0.8054 -13.1543 -10.6452)" class="st18" cx="-22.8" cy="14.7" rx="8.5" ry="8.9"/>
		
			<ellipse transform="matrix(0.8054 -0.5928 0.5928 0.8054 -23.0377 -5.8219)" class="st18" cx="-20.4" cy="32.2" rx="8.5" ry="8.9"/>
		<path class="st19" d="M-54.6-10.3c-0.3,1.4-9.6,2.2-10.9,1.8c-1.9,0.2-11.3-4.7-10.8-7.2s10.2-3.1,11.9-2.6S-54.3-11.8-54.6-10.3z
			"/>
		<path class="st19" d="M-51.9-35.6c2.9,0.8,4.4,12.7,4.5,14.7s-6.9,11.3-8.1,11.3c-1.2,0-6.4-11.1-5.3-14.9
			C-59.6-28.3-54.7-36.4-51.9-35.6z"/>
	</g>
	<g class="st2">
		<path class="st20" d="M14.1,3c0,0,1.1-13.5,0.8-18.9s-2.2-6.1-2.5-10.5c-1.5-3,5.2-1,6.7,0.3s3.3,8.9,3.1,14.8
			C22-5.4,21.6,3.4,21.6,3.4L14.1,3z"/>
		<ellipse transform="matrix(0.1431 -0.9897 0.9897 0.1431 -5.1866 29.838)" class="st21" cx="14.6" cy="17.9" rx="26" ry="26"/>
	</g>
	<ellipse transform="matrix(0.1431 -0.9897 0.9897 0.1431 101.2907 141.8668)" class="st22" cx="132.6" cy="12.4" rx="26" ry="26"/>
	<g class="st2">
		<path class="st23" d="M10.4,160.7c-1.6,0.9-3,5.3-1.6,6.8S77.7,170,79,168s0.3-4.9-2.1-6.7C74.5,159.4,12,159.9,10.4,160.7z"/>
		<path class="st23" d="M-101.3,41.5c0.1,2,6.3,3.5,18.6,6.6c35.3,8.8,63.2,8.2,83.5,7.8C79,54.4,62.6,56,92.9,54.5
			c45.5-2.2,92.1-4.4,92.5-10.9c0-0.7-0.4-4-22.3-9.2C69.6,11.9-102.2,27.9-101.3,41.5z"/>
		<path class="st24" d="M157.8,52c0,10.7-1.6,32.6-14.7,55.5c-3.9,6.8-12.9,22-30.6,34c-23.6,15.9-47.8,15.9-68,15.9
			c-20.5,0-53.2-0.1-80.4-22.7c-13.3-11.1-20.4-23.5-23.8-29.4c-12.6-22.5-14.6-44-14.7-55.3L157.8,52z"/>
	</g>
</g>
<g id="Layer_7_copy" class="st0">
	<path class="st14" d="M156.8,28c0,10.7-1.6,32.6-14.7,55.5c-3.9,6.8-12.9,22-30.6,34c-23.6,15.9-47.8,15.9-68,15.9
		c-20.5,0-53.2-0.1-80.4-22.7c-13.3-11.1-20.4-23.5-23.8-29.4c-12.6-22.5-14.6-44-14.7-55.3L156.8,28z"/>
	<path class="st15" d="M-75.7,28.2c1.5-12.7,7.4-47.4,35.9-73C1.8-82.1,70.3-80.7,113.3-46.7c32.7,25.8,41.1,62.8,43.4,75.6"/>
	<line class="st15" x1="-70.1" y1="55.8" x2="-19.6" y2="25.9"/>
	<line class="st15" x1="-60.7" y1="79.6" x2="28.5" y2="26.9"/>
	<line class="st15" x1="-47.7" y1="101.6" x2="77" y2="27.9"/>
	<line class="st15" x1="-24" y1="119.4" x2="130.9" y2="27.8"/>
	<line class="st15" x1="10.6" y1="131.7" x2="155.8" y2="45.8"/>
	<line class="st15" x1="52.1" y1="133.3" x2="144.6" y2="78.6"/>
	<line class="st15" x1="113.1" y1="27.9" x2="152.1" y2="59.1"/>
	<line class="st15" x1="72.1" y1="28" x2="142" y2="83.5"/>
	<line class="st15" x1="31.4" y1="28" x2="127.2" y2="104.1"/>
	<line class="st15" x1="-14.4" y1="26.5" x2="105" y2="121.4"/>
	<line class="st15" x1="-59.2" y1="25.9" x2="74.8" y2="132.3"/>
	<line class="st15" x1="-72.4" y1="48.1" x2="34.8" y2="133.3"/>
	<line class="st15" x1="-59.8" y1="83.5" x2="-3.5" y2="128.2"/>
	<path class="st25" d="M-1.3-3.8c1.9,4.9-3.3,6.7-9.3,23.7c-4,11.2-5.2,25.9-7.4,55.1c-0.8,10.8-1.6,21.2-2,35.5
		c0,1.8-0.8,18.3,0.2,36.9c1.6,30,3.6,63.5,12.6,107.8c6.5,31.6,14.5,58.5,21.9,80l9,19.7c-3-2.9-7.4-7-12.7-12
		c-16.5-15.3-20.7-19.2-21.6-18.4c-1.3,1.1,5.6,9.4,10.7,24.7c3.1,9.4,5.6,21.7,3.4,22.6c-2.2,0.9-7.2-10.6-19.9-26
		c-9.7-11.8-22.9-24.7-26-22.6c-2.8,1.9,6.1,13.6,4.7,32.2c-0.6,8.6-3.2,18.4-6.2,18.5c-3.4,0.1-3.3-13.2-12.5-28.4
		c-6.1-10-18.3-24.3-26.6-21.6c-6.5,2.1-8,13.9-8.4,16.5c-2.4,18.3,9.7,31.4,7.6,32.8c-2.4,1.6-18.8-10.7-24.6-29.7
		c-2.6-8.4-2.4-15.8-5.1-16.1c-2.8-0.4-4.3,7.6-11.9,17c-6.6,8.2-15.9,15.1-17.8,13.6c-2.3-1.8,5.5-14.7,9.7-22.6
		c10.5-19.8,13.1-40.1,20.8-80.3c2.3-12.2,4.1-23.6,5.5-34.3c1.9-14.7,5.4-41.3,5.6-73.6c0.2-52.7-8.1-115.1-11.1-127.3
		c-3-12.2-8.2-22.3-9.7-23.5l0,0C-122.5-5.8-10-26.1-1.3-3.8z"/>
	<path class="st26" d="M97-52.6c-0.7-5.8-2.3-19-12.2-30.6c-9.7-11.4-22.6-15.6-31.6-18.5c-12.1-3.9-21.7-4.2-21.7-5.9
		s8.7-1.3,17.3-4.4c14.3-5.1,25.5-18.4,30.2-31.7c9.5-26.9-8.4-51.2-11.8-55.8c-15.9-21.6-39.3-26.6-48.3-27.9
		c-1.2-0.2-2.1-0.3-2.9-0.4c-6.8-0.7-37.4-4.1-47.8,10.5c-5.5,7.7-3.6,16.4-6.5,16.7c-3.1,0.3-4.8-10.5-9.6-18.5
		c-13.7-22.6-56.5-28.5-86.8-16.1c-6.9,2.8-20.6,8.7-28.6,22.9c-2.3,4.2-8.7,15.6-5.3,27.1c1.9,6.3,5.5,8.4,4.3,10.7
		c-2.6,5.1-20.8-5.5-42.6,0c-4.7,1.1-13.7,3.4-21.6,10.8c-12.8,11.8-19.2,33.2-12,50.7c7.8,18.8,28.3,25.8,33.6,27.6
		c9.4,3.2,18.7,3.7,18.7,5.2c-0.1,1.8-12.8-0.8-23.9,6c-11.4,6.9-17,21.3-17.2,33.6c0,3.2,0.1,15.7,9,26.9
		c10.9,13.8,29.9,17.9,44,16.4c16.2-1.7,22.2-10.6,41.4-9.3c8.8,0.6,12.4,2.8,14.5,4.5c4.8,4,112.7,5.4,121,0.1
		c11.5-7.3,24.1,8,47.7,6.5c17.3-1.1,36.9-11,45.1-27.9C99-35,97.7-46.5,97-52.6z"/>
	<g class="st2">
		<path class="st5" d="M-30.4-4.6c-3.7-0.3-4-4.5-8.5-5.2c-4.9-0.8-9.2,3-10.9,6.9c-1.3,3.1-1.4,6.6-0.7,10c0.6,3.2,2,6.2,3.1,9.3
			c0.9,2.3,2.1,4.6,4.7,5.7c2.8,1.2,5.9,0.2,8.9,0c3.3-0.2,6,1.7,9.3,0.7c5.6-1.6,7.8-6.1,9.6-10.8c2.5-6.4,4.7-13.4-0.7-19.2
			c-1.1-1.2-2.5-2.1-4.2-2.3C-24.4-10.1-26-4.3-30.4-4.6z"/>
		<path class="st5" d="M-30.6-18.1c0.7,1.1,1.7,3.1,1.8,5.8c0.2,3.3-1,5.9-1.6,7"/>
	</g>
</g>
<g id="Layer_7_copy_2" class="st0">
	<path class="st14" d="M156.8,28c0,10.7-1.6,32.6-14.7,55.5c-3.9,6.8-12.9,22-30.6,34c-23.6,15.9-47.8,15.9-68,15.9
		c-20.5,0-53.2-0.1-80.4-22.7c-13.3-11.1-20.4-23.5-23.8-29.4c-12.6-22.5-14.6-44-14.7-55.3L156.8,28z"/>
	<path class="st15" d="M-75.7,28.2c1.5-12.7,7.4-47.4,35.9-73C1.8-82.1,70.3-80.7,113.3-46.7c32.7,25.8,41.1,62.8,43.4,75.6"/>
	<line class="st15" x1="-70.1" y1="55.8" x2="-19.6" y2="25.9"/>
	<line class="st15" x1="-60.7" y1="79.6" x2="28.5" y2="26.9"/>
	<line class="st15" x1="-47.7" y1="101.6" x2="77" y2="27.9"/>
	<line class="st15" x1="-24" y1="119.4" x2="130.9" y2="27.8"/>
	<line class="st15" x1="10.6" y1="131.7" x2="155.8" y2="45.8"/>
	<line class="st15" x1="52.1" y1="133.3" x2="144.6" y2="78.6"/>
	<line class="st15" x1="113.1" y1="27.9" x2="152.1" y2="59.1"/>
	<line class="st15" x1="72.1" y1="28" x2="142" y2="83.5"/>
	<line class="st15" x1="31.4" y1="28" x2="127.2" y2="104.1"/>
	<line class="st15" x1="-14.4" y1="26.5" x2="105" y2="121.4"/>
	<line class="st15" x1="-59.2" y1="25.9" x2="74.8" y2="132.3"/>
	<line class="st15" x1="-72.4" y1="48.1" x2="34.8" y2="133.3"/>
	<line class="st15" x1="-59.8" y1="83.5" x2="-3.5" y2="128.2"/>
	<g class="st2">
		<path class="st5" d="M-30.4-4.6c-3.7-0.3-4-4.5-8.5-5.2c-4.9-0.8-9.2,3-10.9,6.9c-1.3,3.1-1.4,6.6-0.7,10c0.6,3.2,2,6.2,3.1,9.3
			c0.9,2.3,2.1,4.6,4.7,5.7c2.8,1.2,5.9,0.2,8.9,0c3.3-0.2,6,1.7,9.3,0.7c5.6-1.6,7.8-6.1,9.6-10.8c2.5-6.4,4.7-13.4-0.7-19.2
			c-1.1-1.2-2.5-2.1-4.2-2.3C-24.4-10.1-26-4.3-30.4-4.6z"/>
		<path class="st5" d="M-30.6-18.1c0.7,1.1,1.7,3.1,1.8,5.8c0.2,3.3-1,5.9-1.6,7"/>
	</g>
	<g class="st2">
		<path class="st5" d="M15.8-4.6c-3.7-0.3-4-4.5-8.5-5.2c-4.9-0.8-9.2,3-10.9,6.9C-4.9,0.2-5,3.7-4.3,7.1c0.6,3.2,2,6.2,3.1,9.3
			c0.9,2.3,2.1,4.6,4.7,5.7c2.8,1.2,5.9,0.2,8.9,0c3.3-0.2,6,1.7,9.3,0.7c5.6-1.6,7.8-6.1,9.6-10.8C33.8,5.6,36-1.4,30.6-7.2
			c-1.1-1.2-2.5-2.1-4.2-2.3C21.9-10.1,20.3-4.3,15.8-4.6z"/>
		<path class="st5" d="M15.7-18.1c0.7,1.1,1.7,3.1,1.8,5.8c0.2,3.3-1,5.9-1.6,7"/>
	</g>
</g>
<g id="Layer_7_copy_3" class="st0">
	<path class="st14" d="M156.8,28c0,10.7-1.6,32.6-14.7,55.5c-3.9,6.8-12.9,22-30.6,34c-23.6,15.9-47.8,15.9-68,15.9
		c-20.5,0-53.2-0.1-80.4-22.7c-13.3-11.1-20.4-23.5-23.8-29.4c-12.6-22.5-14.6-44-14.7-55.3L156.8,28z"/>
	<path class="st15" d="M-75.7,28.2c1.5-12.7,7.4-47.4,35.9-73C1.8-82.1,70.3-80.7,113.3-46.7c32.7,25.8,41.1,62.8,43.4,75.6"/>
	<line class="st15" x1="-70.1" y1="55.8" x2="-19.6" y2="25.9"/>
	<line class="st15" x1="-60.7" y1="79.6" x2="28.5" y2="26.9"/>
	<line class="st15" x1="-47.7" y1="101.6" x2="77" y2="27.9"/>
	<line class="st15" x1="-24" y1="119.4" x2="130.9" y2="27.8"/>
	<line class="st15" x1="10.6" y1="131.7" x2="155.8" y2="45.8"/>
	<line class="st15" x1="52.1" y1="133.3" x2="144.6" y2="78.6"/>
	<line class="st15" x1="113.1" y1="27.9" x2="152.1" y2="59.1"/>
	<line class="st15" x1="72.1" y1="28" x2="142" y2="83.5"/>
	<line class="st15" x1="31.4" y1="28" x2="127.2" y2="104.1"/>
	<line class="st15" x1="-14.4" y1="26.5" x2="105" y2="121.4"/>
	<line class="st15" x1="-59.2" y1="25.9" x2="74.8" y2="132.3"/>
	<line class="st15" x1="-72.4" y1="48.1" x2="34.8" y2="133.3"/>
	<line class="st15" x1="-59.8" y1="83.5" x2="-3.5" y2="128.2"/>
	<g class="st2">
		<path class="st5" d="M-30.4-4.6c-3.7-0.3-4-4.5-8.5-5.2c-4.9-0.8-9.2,3-10.9,6.9c-1.3,3.1-1.4,6.6-0.7,10c0.6,3.2,2,6.2,3.1,9.3
			c0.9,2.3,2.1,4.6,4.7,5.7c2.8,1.2,5.9,0.2,8.9,0c3.3-0.2,6,1.7,9.3,0.7c5.6-1.6,7.8-6.1,9.6-10.8c2.5-6.4,4.7-13.4-0.7-19.2
			c-1.1-1.2-2.5-2.1-4.2-2.3C-24.4-10.1-26-4.3-30.4-4.6z"/>
		<path class="st5" d="M-30.6-18.1c0.7,1.1,1.7,3.1,1.8,5.8c0.2,3.3-1,5.9-1.6,7"/>
	</g>
	<g class="st2">
		<path class="st5" d="M15.8-4.6c-3.7-0.3-4-4.5-8.5-5.2c-4.9-0.8-9.2,3-10.9,6.9C-4.9,0.2-5,3.7-4.3,7.1c0.6,3.2,2,6.2,3.1,9.3
			c0.9,2.3,2.1,4.6,4.7,5.7c2.8,1.2,5.9,0.2,8.9,0c3.3-0.2,6,1.7,9.3,0.7c5.6-1.6,7.8-6.1,9.6-10.8C33.8,5.6,36-1.4,30.6-7.2
			c-1.1-1.2-2.5-2.1-4.2-2.3C21.9-10.1,20.3-4.3,15.8-4.6z"/>
		<path class="st5" d="M15.7-18.1c0.7,1.1,1.7,3.1,1.8,5.8c0.2,3.3-1,5.9-1.6,7"/>
	</g>
	<g class="st2">
		<path class="st5" d="M61-4.6c-3.7-0.3-4-4.5-8.5-5.2c-4.9-0.8-9.2,3-10.9,6.9c-1.3,3.1-1.4,6.6-0.7,10c0.6,3.2,2,6.2,3.1,9.3
			c0.9,2.3,2.1,4.6,4.7,5.7c2.8,1.2,5.9,0.2,8.9,0c3.3-0.2,6,1.7,9.3,0.7c5.6-1.6,7.8-6.1,9.6-10.8C79,5.6,81.2-1.4,75.8-7.2
			c-1.1-1.2-2.5-2.1-4.2-2.3C67.1-10.1,65.5-4.3,61-4.6z"/>
		<path class="st5" d="M60.9-18.1c0.7,1.1,1.7,3.1,1.8,5.8c0.2,3.3-1,5.9-1.6,7"/>
	</g>
</g>
<g id="Layer_7_copy_4" class="st0">
	<path class="st14" d="M156.8,28c0,10.7-1.6,32.6-14.7,55.5c-3.9,6.8-12.9,22-30.6,34c-23.6,15.9-47.8,15.9-68,15.9
		c-20.5,0-53.2-0.1-80.4-22.7c-13.3-11.1-20.4-23.5-23.8-29.4c-12.6-22.5-14.6-44-14.7-55.3L156.8,28z"/>
	<path class="st15" d="M-75.7,28.2c1.5-12.7,7.4-47.4,35.9-73C1.8-82.1,70.3-80.7,113.3-46.7c32.7,25.8,41.1,62.8,43.4,75.6"/>
	<line class="st15" x1="-70.1" y1="55.8" x2="-19.6" y2="25.9"/>
	<line class="st15" x1="-60.7" y1="79.6" x2="28.5" y2="26.9"/>
	<line class="st15" x1="-47.7" y1="101.6" x2="77" y2="27.9"/>
	<line class="st15" x1="-24" y1="119.4" x2="130.9" y2="27.8"/>
	<line class="st15" x1="10.6" y1="131.7" x2="155.8" y2="45.8"/>
	<line class="st15" x1="52.1" y1="133.3" x2="144.6" y2="78.6"/>
	<line class="st15" x1="113.1" y1="27.9" x2="152.1" y2="59.1"/>
	<line class="st15" x1="72.1" y1="28" x2="142" y2="83.5"/>
	<line class="st15" x1="31.4" y1="28" x2="127.2" y2="104.1"/>
	<line class="st15" x1="-14.4" y1="26.5" x2="105" y2="121.4"/>
	<line class="st15" x1="-59.2" y1="25.9" x2="74.8" y2="132.3"/>
	<line class="st15" x1="-72.4" y1="48.1" x2="34.8" y2="133.3"/>
	<line class="st15" x1="-59.8" y1="83.5" x2="-3.5" y2="128.2"/>
	<g class="st2">
		<path class="st5" d="M-29.4-4.6c-3.7-0.3-4-4.5-8.5-5.2c-4.9-0.8-9.2,3-10.9,6.9c-1.3,3.1-1.4,6.6-0.7,10c0.6,3.2,2,6.2,3.1,9.3
			c0.9,2.3,2.1,4.6,4.7,5.7c2.8,1.2,5.9,0.2,8.9,0c3.3-0.2,6,1.7,9.3,0.7c5.6-1.6,7.8-6.1,9.6-10.8c2.5-6.4,4.7-13.4-0.7-19.2
			c-1.1-1.2-2.5-2.1-4.2-2.3C-23.3-10.1-24.9-4.3-29.4-4.6z"/>
		<path class="st5" d="M-29.5-18.1c0.7,1.1,1.7,3.1,1.8,5.8c0.2,3.3-1,5.9-1.6,7"/>
	</g>
	<g class="st2">
		<path class="st5" d="M15.7-3.9c-3.7-0.3-4-4.5-8.5-5.2C2.3-9.9-2-6.1-3.7-2.2C-5,0.9-5.1,4.4-4.4,7.8c0.6,3.2,2,6.2,3.1,9.3
			c0.9,2.3,2.1,4.6,4.7,5.7c2.8,1.2,5.9,0.2,8.9,0c3.3-0.2,6,1.7,9.3,0.7c5.6-1.6,7.8-6.1,9.6-10.8c2.5-6.4,4.7-13.4-0.7-19.2
			c-1.1-1.2-2.5-2.1-4.2-2.3C21.8-9.4,20.2-3.6,15.7-3.9z"/>
		<path class="st5" d="M15.6-17.5c0.7,1.1,1.7,3.1,1.8,5.8c0.2,3.3-1,5.9-1.6,7"/>
	</g>
	<g class="st2">
		<path class="st5" d="M60.9-3.9c-3.7-0.3-4-4.5-8.5-5.2c-4.9-0.8-9.2,3-10.9,6.9c-1.3,3.1-1.4,6.6-0.7,10c0.6,3.2,2,6.2,3.1,9.3
			c0.9,2.3,2.1,4.6,4.7,5.7c2.8,1.2,5.9,0.2,8.9,0c3.3-0.2,6,1.7,9.3,0.7c5.6-1.6,7.8-6.1,9.6-10.8c2.5-6.4,4.7-13.4-0.7-19.2
			c-1.1-1.2-2.5-2.1-4.2-2.3C66.9-9.4,65.4-3.6,60.9-3.9z"/>
		<path class="st5" d="M60.8-17.5c0.7,1.1,1.7,3.1,1.8,5.8c0.2,3.3-1,5.9-1.6,7"/>
	</g>
	<g class="st2">
		<path class="st5" d="M103.7-3.6c-3.7-0.3-4-4.5-8.5-5.2c-4.9-0.8-9.2,3-10.9,6.9c-1.3,3.1-1.4,6.6-0.7,10c0.6,3.2,2,6.2,3.1,9.3
			c0.9,2.3,2.1,4.6,4.7,5.7c2.8,1.2,5.9,0.2,8.9,0c3.3-0.2,6,1.7,9.3,0.7c5.6-1.6,7.8-6.1,9.6-10.8c2.5-6.4,4.7-13.4-0.7-19.2
			c-1.1-1.2-2.5-2.1-4.2-2.3C109.7-9.1,108.2-3.3,103.7-3.6z"/>
		<path class="st5" d="M103.5-17.1c0.7,1.1,1.7,3.1,1.8,5.8c0.2,3.3-1,5.9-1.6,7"/>
	</g>
</g>
</svg>
