<?xml version="1.0" encoding="utf-8"?>
<!-- Generator: Adobe Illustrator 21.1.0, SVG Export Plug-In . SVG Version: 6.00 Build 0)  -->
<svg version="1.1" id="Layer_1" xmlns="http://www.w3.org/2000/svg" xmlns:xlink="http://www.w3.org/1999/xlink" x="0px" y="0px"
	 viewBox="0 0 139.1 133.4" style="enable-background:new 0 0 139.1 133.4;" xml:space="preserve">
<style type="text/css">
	.st0{display:none;}
	.st1{display:inline;fill:#FFFFFF;stroke:#000000;stroke-miterlimit:10;}
	.st2{display:inline;}
	.st3{fill:#8C6E53;stroke:#603913;stroke-width:2;stroke-linejoin:round;stroke-miterlimit:10;}
	.st4{fill:#76C378;stroke:#009444;stroke-width:2;stroke-linejoin:round;stroke-miterlimit:10;}
	.st5{fill:#E7503F;stroke:#931A1D;stroke-width:2;stroke-linejoin:round;stroke-miterlimit:10;}
	.st6{fill:#605D5C;stroke:#3A3636;stroke-width:2;stroke-linejoin:round;stroke-miterlimit:10;}
	.st7{display:inline;fill:#E8E352;stroke:#B5BA4E;stroke-width:6;stroke-linejoin:round;stroke-miterlimit:10;}
	.st8{display:inline;fill:#AED693;stroke:#79AA67;stroke-width:6;stroke-linejoin:round;stroke-miterlimit:10;}
	.st9{display:inline;fill:#E8E552;stroke:#E4C74A;stroke-width:6;stroke-linejoin:round;stroke-miterlimit:10;}
	.st10{display:inline;fill:none;stroke:#E4C74A;stroke-width:6;stroke-linejoin:round;stroke-miterlimit:10;}
	.st11{fill:#E8E552;stroke:#E4C74A;stroke-width:6;stroke-linejoin:round;stroke-miterlimit:10;}
	.st12{fill:none;stroke:#E4C74A;stroke-width:6;stroke-linejoin:round;stroke-miterlimit:10;}
	.st13{display:inline;fill:none;stroke:#B5BA4E;stroke-width:6;stroke-linejoin:round;stroke-miterlimit:10;}
	.st14{display:inline;fill:#C08C49;stroke:#A56928;stroke-width:4;stroke-linejoin:round;stroke-miterlimit:10;}
	.st15{display:inline;fill:none;stroke:#A56928;stroke-width:4;stroke-linejoin:round;stroke-miterlimit:10;}
	.st16{display:inline;fill:#F1EB67;stroke:#E8E491;stroke-miterlimit:10;}
	.st17{display:inline;fill:#846628;}
	.st18{fill:#662C90;}
	.st19{fill:#2D6733;}
	.st20{fill:#846628;}
	.st21{fill:#E12C26;}
	.st22{display:inline;fill:#F9A51B;}
	.st23{fill:#5FC6D1;stroke:#5F7EAA;stroke-width:4;stroke-miterlimit:10;}
	.st24{fill:#5EC6D1;stroke:#5F7EAA;stroke-width:4;stroke-linejoin:round;stroke-miterlimit:10;}
	.st25{display:inline;fill:#8C6E53;stroke:#603913;stroke-width:2;stroke-linejoin:round;stroke-miterlimit:10;}
	.st26{display:inline;fill:#76C378;stroke:#009444;stroke-width:2;stroke-linejoin:round;stroke-miterlimit:10;}
</style>
<g id="Layer_1_copy" class="st0">
	<path class="st1" d="M204.5,135.4"/>
</g>
<g id="Layer_3" class="st0">
	<g class="st2">
		<path class="st3" d="M92.1-4.3c1.9,4.9-3.3,6.7-9.3,23.7c-4,11.2-5.2,25.9-7.4,55.1c-0.8,10.8-1.6,21.2-2,35.5
			c0,1.8-0.8,18.3,0.2,36.9c1.6,30,3.6,63.5,12.6,107.8c6.5,31.6,14.5,58.5,21.9,80l9,19.7c-3-2.9-7.4-7-12.7-12
			c-16.5-15.3-20.7-19.2-21.6-18.4c-1.3,1.1,5.6,9.4,10.7,24.7c3.1,9.4,5.6,21.7,3.4,22.6c-2.2,0.9-7.2-10.6-19.9-26
			c-9.7-11.8-22.9-24.7-26-22.6c-2.8,1.9,6.1,13.6,4.7,32.2c-0.6,8.6-3.2,18.4-6.2,18.5c-3.4,0.1-3.3-13.2-12.5-28.4
			c-6.1-10-18.3-24.3-26.6-21.6c-6.5,2.1-8,13.9-8.4,16.5c-2.4,18.3,9.7,31.4,7.6,32.8C7.2,374.3-9.2,362-15,343
			c-2.6-8.4-2.4-15.8-5.1-16.1c-2.8-0.4-4.3,7.6-11.9,17c-6.6,8.2-15.9,15.1-17.8,13.6c-2.3-1.8,5.5-14.7,9.7-22.6
			c10.5-19.8,13.1-40.1,20.8-80.3c2.3-12.2,4.1-23.6,5.5-34.3c1.9-14.7,5.4-41.3,5.6-73.6C-8,94-16.3,31.6-19.3,19.4
			S-27.5-2.9-29-4.1l0,0C-29.1-6.3,83.5-26.6,92.1-4.3z"/>
		<path class="st4" d="M190.4-53.1c-0.7-5.8-2.3-19-12.2-30.6c-9.7-11.4-22.6-15.6-31.6-18.5c-12.1-3.9-21.7-4.2-21.7-5.9
			s8.7-1.3,17.3-4.4c14.3-5.1,25.5-18.4,30.2-31.7c9.5-26.9-8.4-51.2-11.8-55.8c-15.9-21.6-39.3-26.6-48.3-27.9
			c-1.2-0.2-2.1-0.3-2.9-0.4c-6.8-0.7-37.4-4.1-47.8,10.5c-5.5,7.7-3.6,16.4-6.5,16.7c-3.1,0.3-4.8-10.5-9.6-18.5
			c-13.7-22.6-56.5-28.5-86.8-16.1c-6.9,2.8-20.6,8.7-28.6,22.9c-2.3,4.2-8.7,15.6-5.3,27.1c1.9,6.3,5.5,8.4,4.3,10.7
			c-2.6,5.1-20.8-5.5-42.6,0c-4.9,1.2-13.9,3.6-21.9,10.9c-12.8,11.8-19.2,33.2-11.9,50.7c7.8,18.8,28.3,25.8,33.6,27.6
			c9.4,3.2,18.7,3.7,18.7,5.2c-0.1,1.8-12.8-0.8-23.9,6c-11.4,6.9-17,21.3-17.2,33.6c0,3.2,0.1,15.7,9,26.9
			c10.9,13.8,29.9,17.9,44,16.4C-66.9,0.6-60.9-8.3-41.7-7c8.8,0.6,12.4,2.8,14.5,4.5c4.8,4,112.7,5.4,121,0.1
			c11.5-7.3,24.1,8,47.7,6.5c17.3-1.1,36.9-11,45.1-27.9C192.4-35.5,191.1-47,190.4-53.1z"/>
		<g>
			<path class="st5" d="M314.3-72c-1.9-0.1-2.1-2.6-4.5-3c-2.6-0.4-4.9,1.7-5.8,4c-0.7,1.8-0.7,3.8-0.4,5.7c0.3,1.9,1,3.6,1.7,5.3
				c0.5,1.3,1.1,2.6,2.5,3.3c1.5,0.7,3.1,0.1,4.7,0c1.7-0.1,3.2,1,4.9,0.4c2.9-0.9,4.1-3.5,5.1-6.2c1.3-3.7,2.5-7.7-0.3-11
				c-0.6-0.7-1.3-1.2-2.2-1.3C317.5-75.1,316.7-71.8,314.3-72z"/>
			<path class="st5" d="M314.3-79.8c0.3,0.6,0.9,1.8,1,3.3c0.1,1.9-0.5,3.4-0.8,4"/>
		</g>
		<g>
			<path class="st5" d="M333.8,85.2c-1.9-0.1-2.1-2.6-4.5-3c-2.6-0.4-4.9,1.7-5.8,4c-0.7,1.8-0.7,3.8-0.4,5.7c0.3,1.9,1,3.6,1.7,5.3
				c0.5,1.3,1.1,2.6,2.5,3.3c1.5,0.7,3.1,0.1,4.7,0c1.7-0.1,3.2,1,4.9,0.4c2.9-0.9,4.1-3.5,5.1-6.2c1.3-3.7,2.5-7.7-0.3-11
				c-0.6-0.7-1.3-1.2-2.2-1.3C337,82.1,336.1,85.4,333.8,85.2z"/>
			<path class="st5" d="M333.7,77.5c0.3,0.6,0.9,1.8,1,3.3c0.1,1.9-0.5,3.4-0.8,4"/>
		</g>
		<g>
			<path class="st5" d="M313.5-114.6c-1.9-0.1-2.1-2.6-4.5-3c-2.6-0.4-4.9,1.7-5.8,4c-0.7,1.8-0.7,3.8-0.4,5.7s1,3.6,1.7,5.3
				c0.5,1.3,1.1,2.6,2.5,3.3c1.5,0.7,3.1,0.1,4.7,0c1.7-0.1,3.2,1,4.9,0.4c2.9-0.9,4.1-3.5,5.1-6.2c1.3-3.7,2.5-7.7-0.3-11
				c-0.6-0.7-1.3-1.2-2.2-1.3C316.7-117.8,315.8-114.5,313.5-114.6z"/>
			<path class="st5" d="M313.4-122.4c0.3,0.6,0.9,1.8,1,3.3c0.1,1.9-0.5,3.4-0.8,4"/>
		</g>
		<g>
			<path class="st5" d="M326.5-8.4c-1.9-0.1-2.1-2.6-4.5-3c-2.6-0.4-4.9,1.7-5.8,4c-0.7,1.8-0.7,3.8-0.4,5.7c0.3,1.9,1,3.6,1.7,5.3
				c0.5,1.3,1.1,2.6,2.5,3.3c1.5,0.7,3.1,0.1,4.7,0c1.7-0.1,3.2,1,4.9,0.4c2.9-0.9,4.1-3.5,5.1-6.2c1.3-3.7,2.5-7.7-0.3-11
				c-0.6-0.7-1.3-1.2-2.2-1.3C329.7-11.5,328.9-8.2,326.5-8.4z"/>
			<path class="st5" d="M326.4-16.2c0.3,0.6,0.9,1.8,1,3.3c0.1,1.9-0.5,3.4-0.8,4"/>
		</g>
		<g>
			<path class="st5" d="M303.1-175.6c-1.9-0.1-2.1-2.6-4.5-3c-2.6-0.4-4.9,1.7-5.8,4c-0.7,1.8-0.7,3.8-0.4,5.7s1,3.6,1.7,5.3
				c0.5,1.3,1.1,2.6,2.5,3.3c1.5,0.7,3.1,0.1,4.7,0c1.7-0.1,3.2,1,4.9,0.4c2.9-0.9,4.1-3.5,5.1-6.2c1.3-3.7,2.5-7.7-0.3-11
				c-0.6-0.7-1.3-1.2-2.2-1.3C306.3-178.7,305.5-175.4,303.1-175.6z"/>
			<path class="st5" d="M303-183.4c0.3,0.6,0.9,1.8,1,3.3c0.1,1.9-0.5,3.4-0.8,4"/>
		</g>
		<g>
			<path class="st5" d="M318.2-39c-1.9-0.1-2.1-2.6-4.5-3c-2.6-0.4-4.9,1.7-5.8,4c-0.7,1.8-0.7,3.8-0.4,5.7c0.3,1.9,1,3.6,1.7,5.3
				c0.5,1.3,1.1,2.6,2.5,3.3c1.5,0.7,3.1,0.1,4.7,0c1.7-0.1,3.2,1,4.9,0.4c2.9-0.9,4.1-3.5,5.1-6.2c1.3-3.7,2.5-7.7-0.3-11
				c-0.6-0.7-1.3-1.2-2.2-1.3C321.4-42.2,320.6-38.9,318.2-39z"/>
			<path class="st5" d="M318.1-46.8c0.3,0.6,0.9,1.8,1,3.3c0.1,1.9-0.5,3.4-0.8,4"/>
		</g>
		<g>
			<path class="st5" d="M316.7-142.8c-1.9-0.1-2.1-2.6-4.5-3c-2.6-0.4-4.9,1.7-5.8,4c-0.7,1.8-0.7,3.8-0.4,5.7s1,3.6,1.7,5.3
				c0.5,1.3,1.1,2.6,2.5,3.3c1.5,0.7,3.1,0.1,4.7,0c1.7-0.1,3.2,1,4.9,0.4c2.9-0.9,4.1-3.5,5.1-6.2c1.3-3.7,2.5-7.7-0.3-11
				c-0.6-0.7-1.3-1.2-2.2-1.3C319.9-145.9,319.1-142.6,316.7-142.8z"/>
			<path class="st5" d="M316.7-150.6c0.3,0.6,0.9,1.8,1,3.3c0.1,1.9-0.5,3.4-0.8,4"/>
		</g>
		<g>
			<path class="st5" d="M358.5-145.1c-1.9-0.1-2.1-2.6-4.5-3c-2.6-0.4-4.9,1.7-5.8,4c-0.7,1.8-0.7,3.8-0.4,5.7s1,3.6,1.7,5.3
				c0.5,1.3,1.1,2.6,2.5,3.3c1.5,0.7,3.1,0.1,4.7,0c1.7-0.1,3.2,1,4.9,0.4c2.9-0.9,4.1-3.5,5.1-6.2c1.3-3.7,2.5-7.7-0.3-11
				c-0.6-0.7-1.3-1.2-2.2-1.3C361.7-148.2,360.9-144.9,358.5-145.1z"/>
			<path class="st5" d="M358.5-152.8c0.3,0.6,0.9,1.8,1,3.3c0.1,1.9-0.5,3.4-0.8,4"/>
		</g>
	</g>
	<g class="st2">
		<path class="st5" d="M99.4,41.8c-4.4-0.3-4.8-5.2-10.2-6c-5.9-0.9-11.1,3.4-13.1,8c-1.6,3.6-1.6,7.7-0.9,11.5
			C76,59,77.5,62.5,79,66c1.1,2.7,2.6,5.3,5.7,6.5c3.4,1.4,7.1,0.2,10.7,0c4-0.2,7.2,2,11.1,0.8c6.7-1.9,9.3-7,11.6-12.4
			c3-7.4,5.6-15.4-0.8-22.1c-1.3-1.3-3-2.4-5-2.7C106.6,35.5,104.7,42.2,99.4,41.8z"/>
		<path class="st5" d="M99.2,26.2c0.8,1.3,2,3.6,2.2,6.7c0.3,3.9-1.2,6.8-1.9,8.1"/>
	</g>
</g>
<g id="Layer_3_copy" class="st0">
	<g class="st2">
		<path class="st3" d="M80.6-5.7C82.5-0.8,77.3,1,71.3,18c-4,11.2-5.2,25.9-7.4,55.1c-0.8,10.8-1.6,21.2-2,35.5
			c0,1.8-0.8,18.3,0.2,36.9c1.6,30,3.6,63.5,12.6,107.8c6.5,31.6,14.5,58.5,21.9,80l9,19.7c-3-2.9-7.4-7-12.7-12
			c-16.5-15.3-20.7-19.2-21.6-18.4c-1.3,1.1,5.6,9.4,10.7,24.7c3.1,9.4,5.6,21.7,3.4,22.6c-2.2,0.9-7.2-10.6-19.9-26
			c-9.7-11.8-22.9-24.7-26-22.6c-2.8,1.9,6.1,13.6,4.7,32.2c-0.6,8.6-3.2,18.4-6.2,18.5c-3.4,0.1-3.3-13.2-12.5-28.4
			c-6.1-10-18.3-24.3-26.6-21.6c-6.5,2.1-8,13.9-8.4,16.5c-2.4,18.3,9.7,31.4,7.6,32.8c-2.4,1.6-18.8-10.7-24.6-29.7
			c-2.6-8.4-2.4-15.8-5.1-16.1c-2.8-0.4-4.3,7.6-11.9,17c-6.6,8.2-15.9,15.1-17.8,13.6c-2.3-1.8,5.5-14.7,9.7-22.6
			c10.5-19.8,13.1-40.1,20.8-80.3c2.3-12.2,4.1-23.6,5.5-34.3c1.9-14.7,5.4-41.3,5.6-73.6C-19.5,92.6-27.8,30.2-30.8,18
			S-39-4.3-40.5-5.5l0,0C-40.6-7.6,71.9-27.9,80.6-5.7z"/>
		<path class="st4" d="M178.8-54.5c-0.7-5.8-2.3-19-12.2-30.6c-9.7-11.4-22.6-15.6-31.6-18.5c-12.1-3.9-21.7-4.2-21.7-5.9
			s8.7-1.3,17.3-4.4c14.3-5.1,25.5-18.4,30.2-31.7c9.5-26.9-8.4-51.2-11.8-55.8c-15.9-21.6-39.3-26.6-48.3-27.9
			c-1.2-0.2-2.1-0.3-2.9-0.4c-6.8-0.7-37.4-4.1-47.8,10.5c-5.5,7.7-3.6,16.4-6.5,16.7c-3.1,0.3-4.8-10.5-9.6-18.5
			c-13.7-22.6-56.5-28.5-86.8-16.1c-6.9,2.8-20.6,8.7-28.6,22.9c-2.3,4.2-8.7,15.6-5.3,27.1c1.9,6.3,5.5,8.4,4.3,10.7
			c-2.6,5.1-20.8-5.5-42.6,0c-4.9,1.2-13.9,3.6-21.9,10.9c-12.8,11.8-19.2,33.2-11.9,50.7c7.8,18.8,28.3,25.8,33.6,27.6
			c9.4,3.2,18.7,3.7,18.7,5.2c-0.1,1.8-12.8-0.8-23.9,6c-11.4,6.9-17,21.3-17.2,33.6c0,3.2,0.1,15.7,9,26.9
			c10.9,13.8,29.9,17.9,44,16.4c16.2-1.7,22.2-10.6,41.4-9.3c8.8,0.6,12.4,2.8,14.5,4.5c4.8,4,112.7,5.4,121,0.1
			c11.5-7.3,24.1,8,47.7,6.5c17.3-1.1,36.9-11,45.1-27.9C180.8-36.8,179.5-48.4,178.8-54.5z"/>
		<g>
			<path class="st6" d="M-76.4-35.5c-1.9-0.1-2.1-2.6-4.5-3c-2.6-0.4-4.9,1.7-5.8,4c-0.7,1.8-0.7,3.8-0.4,5.7c0.3,1.9,1,3.6,1.7,5.3
				c0.5,1.3,1.1,2.6,2.5,3.3c1.5,0.7,3.1,0.1,4.7,0c1.7-0.1,3.2,1,4.9,0.4c2.9-0.9,4.1-3.5,5.1-6.2c1.3-3.7,2.5-7.7-0.3-11
				c-0.6-0.7-1.3-1.2-2.2-1.3C-73.2-38.7-74-35.3-76.4-35.5z"/>
			<path class="st6" d="M-76.5-43.3c0.3,0.6,0.9,1.8,1,3.3c0.1,1.9-0.5,3.4-0.8,4"/>
		</g>
		<g>
			<path class="st5" d="M-87.7-139.6c-1.9-0.1-2.1-2.6-4.5-3c-2.6-0.4-4.9,1.7-5.8,4c-0.7,1.8-0.7,3.8-0.4,5.7s1,3.6,1.7,5.3
				c0.5,1.3,1.1,2.6,2.5,3.3c1.5,0.7,3.1,0.1,4.7,0c1.7-0.1,3.2,1,4.9,0.4c2.9-0.9,4.1-3.5,5.1-6.2c1.3-3.7,2.5-7.7-0.3-11
				c-0.6-0.7-1.3-1.2-2.2-1.3C-84.5-142.7-85.4-139.4-87.7-139.6z"/>
			<path class="st5" d="M-87.8-147.4c0.3,0.6,0.9,1.8,1,3.3c0.1,1.9-0.5,3.4-0.8,4"/>
		</g>
		<g>
			<path class="st5" d="M-17.6-96.8c-1.9-0.1-2.1-2.6-4.5-3c-2.6-0.4-4.9,1.7-5.8,4c-0.7,1.8-0.7,3.8-0.4,5.7s1,3.6,1.7,5.3
				c0.5,1.3,1.1,2.6,2.5,3.3c1.5,0.7,3.1,0.1,4.7,0c1.7-0.1,3.2,1,4.9,0.4c2.9-0.9,4.1-3.5,5.1-6.2c1.3-3.7,2.5-7.7-0.3-11
				c-0.6-0.7-1.3-1.2-2.2-1.3C-14.5-99.9-15.3-96.6-17.6-96.8z"/>
			<path class="st5" d="M-17.7-104.6c0.3,0.6,0.9,1.8,1,3.3c0.1,1.9-0.5,3.4-0.8,4"/>
		</g>
		<g>
			<path class="st5" d="M43.5-38.5c-1.9-0.1-2.1-2.6-4.5-3c-2.6-0.4-4.9,1.7-5.8,4c-0.7,1.8-0.7,3.8-0.4,5.7c0.3,1.9,1,3.6,1.7,5.3
				c0.5,1.3,1.1,2.6,2.5,3.3c1.5,0.7,3.1,0.1,4.7,0c1.7-0.1,3.2,1,4.9,0.4c2.9-0.9,4.1-3.5,5.1-6.2c1.3-3.7,2.5-7.7-0.3-11
				c-0.6-0.7-1.3-1.2-2.2-1.3C46.7-41.7,45.9-38.4,43.5-38.5z"/>
			<path class="st5" d="M43.4-46.3c0.3,0.6,0.9,1.8,1,3.3c0.1,1.9-0.5,3.4-0.8,4"/>
		</g>
		<g>
			<path class="st5" d="M105.1-181.9c-1.9-0.1-2.1-2.6-4.5-3c-2.6-0.4-4.9,1.7-5.8,4c-0.7,1.8-0.7,3.8-0.4,5.7
				c0.3,1.9,1,3.6,1.7,5.3c0.5,1.3,1.1,2.6,2.5,3.3c1.5,0.7,3.1,0.1,4.7,0c1.7-0.1,3.2,1,4.9,0.4c2.9-0.9,4.1-3.5,5.1-6.2
				c1.3-3.7,2.5-7.7-0.3-11c-0.6-0.7-1.3-1.2-2.2-1.3C108.3-185.1,107.4-181.8,105.1-181.9z"/>
			<path class="st5" d="M105-189.7c0.3,0.6,0.9,1.8,1,3.3c0.1,1.9-0.5,3.4-0.8,4"/>
		</g>
		<g>
			<path class="st5" d="M133.7-56.8c-1.9-0.1-2.1-2.6-4.5-3c-2.6-0.4-4.9,1.7-5.8,4c-0.7,1.8-0.7,3.8-0.4,5.7c0.3,1.9,1,3.6,1.7,5.3
				c0.5,1.3,1.1,2.6,2.5,3.3c1.5,0.7,3.1,0.1,4.7,0c1.7-0.1,3.2,1,4.9,0.4c2.9-0.9,4.1-3.5,5.1-6.2c1.3-3.7,2.5-7.7-0.3-11
				c-0.6-0.7-1.3-1.2-2.2-1.3C136.9-59.9,136.1-56.6,133.7-56.8z"/>
			<path class="st5" d="M133.6-64.5c0.3,0.6,0.9,1.8,1,3.3c0.1,1.9-0.5,3.4-0.8,4"/>
		</g>
		<g>
			<path class="st5" d="M61.8-117.8c-1.9-0.1-2.1-2.6-4.5-3c-2.6-0.4-4.9,1.7-5.8,4c-0.7,1.8-0.7,3.8-0.4,5.7c0.3,1.9,1,3.6,1.7,5.3
				c0.5,1.3,1.1,2.6,2.5,3.3c1.5,0.7,3.1,0.1,4.7,0c1.7-0.1,3.2,1,4.9,0.4c2.9-0.9,4.1-3.5,5.1-6.2c1.3-3.7,2.5-7.7-0.3-11
				c-0.6-0.7-1.3-1.2-2.2-1.3C65-121,64.1-117.6,61.8-117.8z"/>
			<path class="st5" d="M61.7-125.6c0.3,0.6,0.9,1.8,1,3.3c0.1,1.9-0.5,3.4-0.8,4"/>
		</g>
		<g>
			<path class="st5" d="M-27.8-188.7c-1.9-0.1-2.1-2.6-4.5-3c-2.6-0.4-4.9,1.7-5.8,4c-0.7,1.8-0.7,3.8-0.4,5.7s1,3.6,1.7,5.3
				c0.5,1.3,1.1,2.6,2.5,3.3c1.5,0.7,3.1,0.1,4.7,0c1.7-0.1,3.2,1,4.9,0.4c2.9-0.9,4.1-3.5,5.1-6.2c1.3-3.7,2.5-7.7-0.3-11
				c-0.6-0.7-1.3-1.2-2.2-1.3C-24.7-191.8-25.5-188.5-27.8-188.7z"/>
			<path class="st5" d="M-27.9-196.5c0.3,0.6,0.9,1.8,1,3.3c0.1,1.9-0.5,3.4-0.8,4"/>
		</g>
		<g>
			<path class="st6" d="M61.8-117.8c-1.9-0.1-2.1-2.6-4.5-3c-2.6-0.4-4.9,1.7-5.8,4c-0.7,1.8-0.7,3.8-0.4,5.7c0.3,1.9,1,3.6,1.7,5.3
				c0.5,1.3,1.1,2.6,2.5,3.3c1.5,0.7,3.1,0.1,4.7,0c1.7-0.1,3.2,1,4.9,0.4c2.9-0.9,4.1-3.5,5.1-6.2c1.3-3.7,2.5-7.7-0.3-11
				c-0.6-0.7-1.3-1.2-2.2-1.3C65-121,64.1-117.6,61.8-117.8z"/>
			<path class="st6" d="M61.7-125.6c0.3,0.6,0.9,1.8,1,3.3c0.1,1.9-0.5,3.4-0.8,4"/>
		</g>
		<g>
			<path class="st6" d="M-17.6-96.8c-1.9-0.1-2.1-2.6-4.5-3c-2.6-0.4-4.9,1.7-5.8,4c-0.7,1.8-0.7,3.8-0.4,5.7s1,3.6,1.7,5.3
				c0.5,1.3,1.1,2.6,2.5,3.3c1.5,0.7,3.1,0.1,4.7,0c1.7-0.1,3.2,1,4.9,0.4c2.9-0.9,4.1-3.5,5.1-6.2c1.3-3.7,2.5-7.7-0.3-11
				c-0.6-0.7-1.3-1.2-2.2-1.3C-14.5-99.9-15.3-96.6-17.6-96.8z"/>
			<path class="st6" d="M-17.7-104.6c0.3,0.6,0.9,1.8,1,3.3c0.1,1.9-0.5,3.4-0.8,4"/>
		</g>
		<g>
			<path class="st6" d="M43.5-38.5c-1.9-0.1-2.1-2.6-4.5-3c-2.6-0.4-4.9,1.7-5.8,4c-0.7,1.8-0.7,3.8-0.4,5.7c0.3,1.9,1,3.6,1.7,5.3
				c0.5,1.3,1.1,2.6,2.5,3.3c1.5,0.7,3.1,0.1,4.7,0c1.7-0.1,3.2,1,4.9,0.4c2.9-0.9,4.1-3.5,5.1-6.2c1.3-3.7,2.5-7.7-0.3-11
				c-0.6-0.7-1.3-1.2-2.2-1.3C46.7-41.7,45.9-38.4,43.5-38.5z"/>
			<path class="st6" d="M43.4-46.3c0.3,0.6,0.9,1.8,1,3.3c0.1,1.9-0.5,3.4-0.8,4"/>
		</g>
	</g>
</g>
<g id="Layer_5" class="st0">
	<ellipse class="st7" cx="53.9" cy="87.6" rx="119.8" ry="146.8"/>
	<path class="st8" d="M-0.6-168.4c-4.4-0.1-14-16.3-16-18.9c-9.5-12-17.8-24.9-29.4-36.2c3.4,3.2,51.7,18.3,53.3,18.1
		c10.4-1,17-20.2,21.8-25.2c-2.8,2.9,34.5,24.4,39.1,27.8c0.1,0.1,34.1-21.4,36.6-24.3c8.6,9.3,17.3,18.5,25.9,27.8
		c-1.6-2.4,41.7-20.7,46.7-23.2c-5.3,2.7-23.1,46.1-29.6,59C98.2-165.2,48.8-166.8-0.6-168.4z"/>
	<path class="st8" d="M20.1-129c-3.4-0.1-10.5-16.1-12.1-18.7c-7.1-11.8-13.3-24.6-22.1-35.8c2.5,3.2,39.6,17.5,40.8,17.3
		c8-1.1,13.4-20.5,17.1-25.5c-2.2,2.9,26.2,23.9,29.7,27.2c0.1,0.1,26.6-21.9,28.5-24.8c6.5,9.1,13.1,18.2,19.6,27.4
		c-1.2-2.4,32.4-21.3,36.3-23.9c-4.2,2.7-18.5,46.4-23.6,59.4C96.2-127.3,58.2-128.2,20.1-129z"/>
	<path class="st8" d="M33.1-97.8c-2.7,0-8.2-16-9.4-18.5c-5.6-11.7-10.4-24.5-17.3-35.5c2,3.2,31.5,17,32.5,16.8
		c6.4-1.2,11-20.6,14-25.7c-1.8,2.9,20.7,23.6,23.5,26.8c0,0.1,21.6-22.2,23.2-25.2c5.1,9,10.2,18.1,15.3,27.1
		c-1-2.4,26.2-21.7,29.4-24.3c-3.4,2.8-15.4,46.6-19.7,59.6C94-96.9,63.6-97.3,33.1-97.8z"/>
	<path class="st9" d="M50.5-45.6c0,0-56-2.9-73.1,2.8S-65.7-8.1-69.9,6.3c-4.2,14.3-3.2,62-3.2,62l122.3-0.1L50.5-45.6z"/>
	<path class="st9" d="M-73.9,91.6c0,0-3.1,26.5-2.7,43.4c-0.3,16.3,4,40.9,4,40.9l123.3-1.2l-1.5-82.6L-73.9,91.6z"/>
	<path class="st9" d="M70.1-45.7c0,0,56-1.7,73.1,4.4c17,6.1,38.9,35.1,45.2,46.1c6.3,11,4.8,63,4.8,63L70.9,68L70.1-45.7z"/>
	<path class="st9" d="M196.3,92.2c0,0,3,26.5,2.7,43.4c0.3,16.3-4,40.9-4,40.9l-123.3-1.4l0.6-82.6L196.3,92.2z"/>
	<path class="st9" d="M50.4,311.4c0,0-56,2.3-73.1-3.6s-42.7-35.2-46.8-49.6c-4.1-14.4-2.6-62-2.6-62l122.3,1.4L50.4,311.4z"/>
	<path class="st9" d="M75.5,310.5c0,0,56,2.4,73.1-3.5s42.7-35.2,46.8-49.5c4.1-14.4,2.6-62,2.6-62l-122.3,1.3L75.5,310.5z"/>
	<line class="st10" x1="-69.5" y1="23.4" x2="15.9" y2="-46.9"/>
	<line class="st10" x1="-72.2" y1="62.7" x2="48.3" y2="-32"/>
	<line class="st10" x1="-15.3" y1="66.7" x2="48.3" y2="15.3"/>
	<line class="st10" x1="-70.2" y1="0.1" x2="21.8" y2="65"/>
	<line class="st10" x1="-50.5" y1="-25.3" x2="48.3" y2="45.1"/>
	<line class="st10" x1="-22.6" y1="-42.8" x2="49.6" y2="-0.9"/>
	<line class="st10" x1="-74.9" y1="39.7" x2="-30.7" y2="67.3"/>
	<line class="st10" x1="81.3" y1="-44.9" x2="193.2" y2="59.9"/>
	<line class="st10" x1="117.3" y1="-44.2" x2="194.4" y2="26.2"/>
	<line class="st10" x1="69.3" y1="22.7" x2="116.9" y2="67.1"/>
	<line class="st10" x1="70.9" y1="-15.4" x2="154.6" y2="66"/>
	<line class="st10" x1="126.7" y1="-42.8" x2="68.5" y2="-0.9"/>
	<line class="st10" x1="167.3" y1="-23.9" x2="72.6" y2="60"/>
	<line class="st10" x1="121" y1="67.7" x2="190.3" y2="11.3"/>
	<line class="st10" x1="-75.6" y1="125.7" x2="-16.4" y2="93.6"/>
	<line class="st10" x1="-74.6" y1="160.6" x2="46.8" y2="96.5"/>
	<line class="st10" x1="-30" y1="174.2" x2="49.7" y2="135.4"/>
	<line class="st10" x1="-77.6" y1="115.9" x2="9.9" y2="174.2"/>
	<line class="st10" x1="-50.4" y1="91.7" x2="51.6" y2="160.6"/>
	<line class="st10" x1="10.8" y1="92.6" x2="50.7" y2="115"/>
	<line class="st10" x1="-75.6" y1="146.1" x2="-30" y2="174.2"/>
	<line class="st10" x1="125.4" y1="174.2" x2="199" y2="135.6"/>
	<line class="st10" x1="73" y1="163.5" x2="197.3" y2="99.4"/>
	<line class="st10" x1="72" y1="122.7" x2="137.1" y2="92.6"/>
	<line class="st10" x1="88.5" y1="92.6" x2="197.3" y2="158.7"/>
	<line class="st10" x1="150.7" y1="90.7" x2="200.2" y2="120.8"/>
	<line class="st10" x1="72" y1="122.7" x2="160.4" y2="173.3"/>
	<line class="st10" x1="72" y1="150.9" x2="114.8" y2="174.2"/>
	<line class="st10" x1="-47.5" y1="287.9" x2="50.3" y2="197.7"/>
	<line class="st10" x1="-70.8" y1="252.9" x2="-6.7" y2="196.6"/>
	<line class="st10" x1="0.1" y1="310.2" x2="49.7" y2="264.6"/>
	<line class="st10" x1="-43.6" y1="196.6" x2="49.7" y2="247.1"/>
	<line class="st10" x1="-71.7" y1="221.8" x2="50.7" y2="285.9"/>
	<line class="st10" x1="-63" y1="268.4" x2="34.1" y2="312.1"/>
	<line class="st10" x1="16.7" y1="195.6" x2="48.7" y2="213.1"/>
	<line class="st10" x1="151.7" y1="197.5" x2="197.3" y2="221.8"/>
	<line class="st10" x1="86.6" y1="197.5" x2="195.4" y2="257.5"/>
	<line class="st10" x1="74.9" y1="236.4" x2="172.1" y2="288.8"/>
	<line class="st10" x1="74.9" y1="276.2" x2="129.3" y2="308.3"/>
	<line class="st10" x1="74.9" y1="247.1" x2="130.3" y2="196.6"/>
	<line class="st10" x1="74.9" y1="288.8" x2="198.1" y2="195.5"/>
	<line class="st10" x1="102.1" y1="310.3" x2="196.3" y2="237.4"/>
</g>
<g id="Layer_12" class="st0">
	<path class="st9" d="M123-65.3c0,0-56-2.9-73.1,2.8C32.7-56.7,6.8-27.8,2.6-13.4c-4.2,14.3-3.2,62-3.2,62l122.3-0.1L123-65.3z"/>
	<line class="st10" x1="3" y1="3.7" x2="88.4" y2="-66.6"/>
	<line class="st10" x1="0.3" y1="43" x2="120.7" y2="-51.7"/>
	<line class="st10" x1="57.2" y1="47" x2="120.7" y2="-4.4"/>
	<line class="st10" x1="2.3" y1="-19.6" x2="94.3" y2="45.3"/>
	<line class="st10" x1="22" y1="-45" x2="120.7" y2="25.4"/>
	<line class="st10" x1="49.9" y1="-62.5" x2="122.1" y2="-20.6"/>
	<line class="st10" x1="-2.4" y1="20" x2="41.8" y2="47.5"/>
</g>
<g id="Layer_13" class="st0">
	<path class="st9" d="M21.4-57.3c0,0,56-1.7,73.1,4.4c17,6.1,38.9,35.1,45.2,46.1c6.3,11,4.8,63,4.8,63L22.2,56.5L21.4-57.3z"/>
	<line class="st10" x1="32.6" y1="-56.6" x2="144.5" y2="48.2"/>
	<line class="st10" x1="68.6" y1="-55.8" x2="145.7" y2="14.5"/>
	<line class="st10" x1="20.6" y1="11.1" x2="68.2" y2="55.5"/>
	<line class="st10" x1="22.2" y1="-27" x2="105.9" y2="54.4"/>
	<line class="st10" x1="78" y1="-54.5" x2="19.8" y2="-12.5"/>
	<line class="st10" x1="118.6" y1="-35.5" x2="23.9" y2="48.4"/>
	<line class="st10" x1="72.3" y1="56.1" x2="141.6" y2="-0.3"/>
</g>
<g id="Layer_14" class="st0">
	<path class="st9" d="M127.9,20.1c0,0,3,26.5,2.7,43.4c0.3,16.3-4,40.9-4,40.9L3.3,103l0.6-82.6L127.9,20.1z"/>
	<line class="st10" x1="57" y1="102.1" x2="130.5" y2="63.5"/>
	<line class="st10" x1="4.5" y1="91.4" x2="128.8" y2="27.3"/>
	<line class="st10" x1="3.5" y1="50.6" x2="68.6" y2="20.5"/>
	<line class="st10" x1="20.1" y1="20.5" x2="128.8" y2="86.6"/>
	<line class="st10" x1="82.2" y1="18.6" x2="131.8" y2="48.7"/>
	<line class="st10" x1="3.5" y1="50.6" x2="99.1" y2="104.7"/>
	<line class="st10" x1="3.5" y1="78.8" x2="46.3" y2="102.1"/>
</g>
<g id="Layer_15" class="st0">
	<path class="st9" d="M157.3,129.1c0,0-56,2.3-73.1-3.6c-17.1-5.9-42.7-35.2-46.8-49.6c-4.1-14.4-2.6-62-2.6-62l122.3,1.4
		L157.3,129.1z"/>
	<line class="st10" x1="59.4" y1="105.6" x2="157.1" y2="15.3"/>
	<line class="st10" x1="36.1" y1="70.6" x2="100.2" y2="14.2"/>
	<line class="st10" x1="107" y1="127.9" x2="156.5" y2="82.3"/>
	<line class="st10" x1="63.3" y1="14.2" x2="156.6" y2="64.8"/>
	<line class="st10" x1="35.1" y1="39.5" x2="157.5" y2="103.6"/>
	<line class="st10" x1="43.9" y1="86.1" x2="141" y2="129.8"/>
	<line class="st10" x1="123.5" y1="13.3" x2="155.6" y2="30.8"/>
</g>
<g id="Layer_16">
	<path class="st11" d="M9.2,122.6c0,0,56,2.4,73.1-3.5s42.7-35.2,46.8-49.5c4.1-14.4,2.6-62,2.6-62L9.4,8.9L9.2,122.6z"/>
	<line class="st12" x1="85.4" y1="9.6" x2="131" y2="33.9"/>
	<line class="st12" x1="20.3" y1="9.6" x2="129.2" y2="69.6"/>
	<line class="st12" x1="8.7" y1="48.5" x2="105.8" y2="100.9"/>
	<line class="st12" x1="8.7" y1="88.3" x2="63" y2="120.4"/>
	<line class="st12" x1="8.7" y1="59.2" x2="64" y2="8.7"/>
	<line class="st12" x1="8.7" y1="100.9" x2="131.8" y2="7.6"/>
	<line class="st12" x1="35.8" y1="122.4" x2="130" y2="49.5"/>
</g>
<g id="Layer_17" class="st0">
	<path class="st9" d="M11.2-18.2c0,0-3.1,26.5-2.7,43.4c-0.3,16.3,4,40.9,4,40.9l123.3-1.2l-1.5-82.6L11.2-18.2z"/>
	<line class="st10" x1="9.5" y1="15.8" x2="68.7" y2="-16.2"/>
	<line class="st10" x1="10.5" y1="50.8" x2="131.9" y2="-13.3"/>
	<line class="st10" x1="55.2" y1="64.4" x2="134.8" y2="25.5"/>
	<line class="st10" x1="7.6" y1="6.1" x2="95" y2="64.4"/>
	<line class="st10" x1="34.8" y1="-18.2" x2="136.7" y2="50.8"/>
	<line class="st10" x1="95.9" y1="-17.2" x2="135.8" y2="5.1"/>
	<line class="st10" x1="9.5" y1="36.2" x2="55.2" y2="64.4"/>
</g>
<g id="Layer_6" class="st0">
	<line class="st13" x1="-65.9" y1="93.9" x2="73.9" y2="-57.1"/>
	<line class="st13" x1="-57.2" y1="138" x2="110.2" y2="-42.9"/>
	<line class="st13" x1="-40.9" y1="174.3" x2="136.2" y2="-17"/>
	<line class="st13" x1="-19.4" y1="205.1" x2="157.7" y2="13.8"/>
	<line class="st13" x1="11.2" y1="224.4" x2="170.4" y2="53.4"/>
	<line class="st13" x1="59.4" y1="234.9" x2="172.4" y2="109.5"/>
	<line class="st13" x1="161.5" y1="156.8" x2="-23.1" y2="-22.4"/>
	<line class="st13" x1="138" y1="192.1" x2="-48.2" y2="12.4"/>
	<line class="st13" x1="106.5" y1="223" x2="-63.4" y2="58"/>
	<line class="st13" x1="173.4" y1="110.5" x2="6.8" y2="-49.5"/>
	<line class="st13" x1="170.4" y1="53.4" x2="60.3" y2="-58.7"/>
	<line class="st13" x1="59.4" y1="234.9" x2="-65.9" y2="109.5"/>
	<line class="st13" x1="-59.3" y1="38.2" x2="27.6" y2="-55.6"/>
</g>
<g id="Layer_7" class="st0">
	<path class="st14" d="M167-38.5c0,10.7-1.6,32.6-14.7,55.5c-3.9,6.8-12.9,22-30.6,34c-23.6,15.9-47.8,15.9-68,15.9
		c-20.5,0-53.2-0.1-80.4-22.7C-40,33.1-47.1,20.7-50.5,14.8c-12.6-22.5-14.6-44-14.7-55.3L167-38.5z"/>
	<path class="st15" d="M-65.5-38.3c1.5-12.7,7.4-47.4,35.9-73c41.6-37.3,110.1-35.9,153.1-1.9c32.7,25.8,41.1,62.8,43.4,75.6"/>
	<line class="st15" x1="-59.9" y1="-10.7" x2="-9.4" y2="-40.6"/>
	<line class="st15" x1="-50.5" y1="13.1" x2="38.7" y2="-39.6"/>
	<line class="st15" x1="-37.5" y1="35.1" x2="87.2" y2="-38.6"/>
	<line class="st15" x1="-13.8" y1="52.9" x2="141.1" y2="-38.7"/>
	<line class="st15" x1="20.8" y1="65.2" x2="166" y2="-20.7"/>
	<line class="st15" x1="62.3" y1="66.8" x2="154.8" y2="12.1"/>
	<line class="st15" x1="123.3" y1="-38.6" x2="162.3" y2="-7.4"/>
	<line class="st15" x1="82.3" y1="-38.5" x2="152.2" y2="17"/>
	<line class="st15" x1="41.6" y1="-38.5" x2="137.4" y2="37.6"/>
	<line class="st15" x1="-4.2" y1="-40" x2="115.2" y2="54.9"/>
	<line class="st15" x1="-49" y1="-40.6" x2="85" y2="65.8"/>
	<line class="st15" x1="-62.2" y1="-18.4" x2="45" y2="66.8"/>
	<line class="st15" x1="-49.6" y1="17" x2="6.7" y2="61.7"/>
</g>
<g id="Layer_7_copy_5" class="st0">
	<path class="st16" d="M75.7-44.8c4.4-6,14.8-16.4,15.2-23.6c0.4-7.3,0.8-30.8,2-35.6s9.4,7.8,10.2,12.6c0.8,4.8,3.9,19.9,2.5,25.2
		s-6.5,15.7-9.7,18.5s-7.3,8-13.2,12c-6.1,2.4-10,6.6-16.1,6.6C60.5-29,71.3-38.7,75.7-44.8z"/>
	<path class="st16" d="M98.1-43.2c2.5-6.8,9.5-19.2,7.8-25.9s-8-28.2-8.2-32.8c-0.2-4.7,11.2,4.3,13.3,8.4
		c2.1,4.1,9.4,16.9,9.5,22.1c0.1,5.2-1.8,16.2-4,19.7s-4.7,9.4-9.2,14.8c-5.1,4-7.7,8.9-13.5,10.8C88.1-24.4,95.7-36.5,98.1-43.2z"
		/>
	<path class="st16" d="M55-59c6.2-3.6,19.6-8.7,22.6-15c3-6.2,11.9-26.7,14.7-30.5c2.8-3.7,5.9,10.5,4.9,15s-3.6,19-6.8,23.1
		c-3.2,4.1-11.7,11.3-15.7,12.6c-3.9,1.3-9.6,4.3-16.5,5.5c-6.5-0.3-11.6,2-17.3-0.4S48.8-55.4,55-59z"/>
	<path class="st17" d="M91.6-101.9c0.2-3.8,0-15,0-18.5s10.5-3.5,10.5,0s2.4,15,0,18.5C99.8-98.4,91.4-98.1,91.6-101.9z"/>
	<g class="st2">
		
			<ellipse transform="matrix(0.8054 -0.5928 0.5928 0.8054 22.226 -45.5775)" class="st18" cx="-58.3" cy="-56.6" rx="8.5" ry="8.9"/>
		
			<ellipse transform="matrix(0.8054 -0.5928 0.5928 0.8054 30.8476 -39.4012)" class="st18" cx="-44.6" cy="-66.7" rx="8.5" ry="8.9"/>
		
			<ellipse transform="matrix(0.8054 -0.5928 0.5928 0.8054 39.4545 -33.3118)" class="st18" cx="-31" cy="-76.7" rx="8.5" ry="8.9"/>
		
			<ellipse transform="matrix(0.8054 -0.5928 0.5928 0.8054 48.0761 -27.1353)" class="st18" cx="-17.3" cy="-86.8" rx="8.5" ry="8.9"/>
		
			<ellipse transform="matrix(0.8054 -0.5928 0.5928 0.8054 20.9801 -34.6553)" class="st18" cx="-42.3" cy="-49.3" rx="8.5" ry="8.9"/>
		
			<ellipse transform="matrix(0.8054 -0.5928 0.5928 0.8054 29.587 -28.5659)" class="st18" cx="-28.7" cy="-59.3" rx="8.5" ry="8.9"/>
		
			<ellipse transform="matrix(0.8054 -0.5928 0.5928 0.8054 38.2086 -22.3895)" class="st18" cx="-15" cy="-69.4" rx="8.5" ry="8.9"/>
		
			<ellipse transform="matrix(0.8054 -0.5928 0.5928 0.8054 19.605 -23.6286)" class="st18" cx="-26.2" cy="-41.7" rx="8.5" ry="8.9"/>
		
			<ellipse transform="matrix(0.8054 -0.5928 0.5928 0.8054 28.212 -17.5392)" class="st18" cx="-12.6" cy="-51.7" rx="8.5" ry="8.9"/>
		
			<ellipse transform="matrix(0.8054 -0.5928 0.5928 0.8054 18.3285 -12.7158)" class="st18" cx="-10.2" cy="-34.3" rx="8.5" ry="8.9"/>
		<path class="st19" d="M-44.4-76.8c-0.3,1.4-9.6,2.2-10.9,1.8c-1.9,0.2-11.3-4.7-10.8-7.2s10.2-3.1,11.9-2.6S-44.1-78.3-44.4-76.8z
			"/>
		<path class="st19" d="M-41.7-102.1c2.9,0.8,4.4,12.7,4.5,14.7s-6.9,11.3-8.1,11.3c-1.2,0-6.4-11.1-5.3-14.9
			C-49.4-94.8-44.5-102.9-41.7-102.1z"/>
	</g>
	<g class="st2">
		<path class="st20" d="M24.3-63.5c0,0,1.1-13.5,0.8-18.9s-2.2-6.1-2.5-10.5c-1.5-3,5.2-1,6.7,0.3s3.3,8.9,3.1,14.8
			c-0.2,5.9-0.6,14.7-0.6,14.7L24.3-63.5z"/>
		<ellipse transform="matrix(0.1431 -0.9897 0.9897 0.1431 69.2969 -17.0141)" class="st21" cx="24.8" cy="-48.5" rx="26" ry="26"/>
	</g>
	<ellipse transform="matrix(0.1431 -0.9897 0.9897 0.1431 175.7742 95.0147)" class="st22" cx="142.8" cy="-54" rx="26" ry="26"/>
	<g class="st2">
		<path class="st23" d="M20.6,94.2c-1.6,0.9-3,5.3-1.6,6.8s68.9,2.5,70.2,0.5s0.3-4.9-2.1-6.7C84.7,92.9,22.2,93.4,20.6,94.2z"/>
		<path class="st23" d="M-91.1-25c0.1,2,6.3,3.5,18.6,6.6c35.3,8.8,63.2,8.2,83.5,7.8c78.2-1.5,61.8,0.1,92.1-1.4
			c45.5-2.2,92.1-4.4,92.5-10.9c0-0.7-0.4-4-22.3-9.2C79.8-54.6-92-38.6-91.1-25z"/>
		<path class="st24" d="M168-14.5c0,10.7-1.6,32.6-14.7,55.5c-3.9,6.8-12.9,22-30.6,34c-23.6,15.9-47.8,15.9-68,15.9
			c-20.5,0-53.2-0.1-80.4-22.7C-39,57.1-46.1,44.7-49.5,38.8c-12.6-22.5-14.6-44-14.7-55.3L168-14.5z"/>
	</g>
</g>
<g id="Layer_7_copy" class="st0">
	<path class="st14" d="M167-38.5c0,10.7-1.6,32.6-14.7,55.5c-3.9,6.8-12.9,22-30.6,34c-23.6,15.9-47.8,15.9-68,15.9
		c-20.5,0-53.2-0.1-80.4-22.7C-40,33.1-47.1,20.7-50.5,14.8c-12.6-22.5-14.6-44-14.7-55.3L167-38.5z"/>
	<path class="st15" d="M-65.5-38.3c1.5-12.7,7.4-47.4,35.9-73c41.6-37.3,110.1-35.9,153.1-1.9c32.7,25.8,41.1,62.8,43.4,75.6"/>
	<line class="st15" x1="-59.9" y1="-10.7" x2="-9.4" y2="-40.6"/>
	<line class="st15" x1="-50.5" y1="13.1" x2="38.7" y2="-39.6"/>
	<line class="st15" x1="-37.5" y1="35.1" x2="87.2" y2="-38.6"/>
	<line class="st15" x1="-13.8" y1="52.9" x2="141.1" y2="-38.7"/>
	<line class="st15" x1="20.8" y1="65.2" x2="166" y2="-20.7"/>
	<line class="st15" x1="62.3" y1="66.8" x2="154.8" y2="12.1"/>
	<line class="st15" x1="123.3" y1="-38.6" x2="162.3" y2="-7.4"/>
	<line class="st15" x1="82.3" y1="-38.5" x2="152.2" y2="17"/>
	<line class="st15" x1="41.6" y1="-38.5" x2="137.4" y2="37.6"/>
	<line class="st15" x1="-4.2" y1="-40" x2="115.2" y2="54.9"/>
	<line class="st15" x1="-49" y1="-40.6" x2="85" y2="65.8"/>
	<line class="st15" x1="-62.2" y1="-18.4" x2="45" y2="66.8"/>
	<line class="st15" x1="-49.6" y1="17" x2="6.7" y2="61.7"/>
	<path class="st25" d="M8.9-70.3c1.9,4.9-3.3,6.7-9.3,23.7c-4,11.2-5.2,25.9-7.4,55.1c-0.8,10.8-1.6,21.2-2,35.5
		c0,1.8-0.8,18.3,0.2,36.9C-8,110.9-6,144.4,3,188.7c6.5,31.6,14.5,58.5,21.9,80l9,19.7c-3-2.9-7.4-7-12.7-12
		C4.7,261.1,0.5,257.2-0.4,258c-1.3,1.1,5.6,9.4,10.7,24.7c3.1,9.4,5.6,21.7,3.4,22.6c-2.2,0.9-7.2-10.6-19.9-26
		c-9.7-11.8-22.9-24.7-26-22.6c-2.8,1.9,6.1,13.6,4.7,32.2c-0.6,8.6-3.2,18.4-6.2,18.5c-3.4,0.1-3.3-13.2-12.5-28.4
		c-6.1-10-18.3-24.3-26.6-21.6c-6.5,2.1-8,13.9-8.4,16.5c-2.4,18.3,9.7,31.4,7.6,32.8C-76,308.3-92.4,296-98.2,277
		c-2.6-8.4-2.4-15.8-5.1-16.1c-2.8-0.4-4.3,7.6-11.9,17c-6.6,8.2-15.9,15.1-17.8,13.6c-2.3-1.8,5.5-14.7,9.7-22.6
		c10.5-19.8,13.1-40.1,20.8-80.3c2.3-12.2,4.1-23.6,5.5-34.3c1.9-14.7,5.4-41.3,5.6-73.6c0.2-52.7-8.1-115.1-11.1-127.3
		c-3-12.2-8.2-22.3-9.7-23.5l0,0C-112.3-72.3,0.2-92.6,8.9-70.3z"/>
	<path class="st26" d="M107.2-119.1c-0.7-5.8-2.3-19-12.2-30.6c-9.7-11.4-22.6-15.6-31.6-18.5c-12.1-3.9-21.7-4.2-21.7-5.9
		s8.7-1.3,17.3-4.4c14.3-5.1,25.5-18.4,30.2-31.7c9.5-26.9-8.4-51.2-11.8-55.8c-15.9-21.6-39.3-26.6-48.3-27.9
		c-1.2-0.2-2.1-0.3-2.9-0.4c-6.8-0.7-37.4-4.1-47.8,10.5c-5.5,7.7-3.6,16.4-6.5,16.7c-3.1,0.3-4.8-10.5-9.6-18.5
		c-13.7-22.6-56.5-28.5-86.8-16.1c-6.9,2.8-20.6,8.7-28.6,22.9c-2.3,4.2-8.7,15.6-5.3,27.1c1.9,6.3,5.5,8.4,4.3,10.7
		c-2.6,5.1-20.8-5.5-42.6,0c-4.7,1.1-13.7,3.4-21.6,10.8c-12.8,11.8-19.2,33.2-12,50.7c7.8,18.8,28.3,25.8,33.6,27.6
		c9.4,3.2,18.7,3.7,18.7,5.2c-0.1,1.8-12.8-0.8-23.9,6c-11.4,6.9-17,21.3-17.2,33.6c0,3.2,0.1,15.7,9,26.9
		c10.9,13.8,29.9,17.9,44,16.4c16.2-1.7,22.2-10.6,41.4-9.3c8.8,0.6,12.4,2.8,14.5,4.5c4.8,4,112.7,5.4,121,0.1
		c11.5-7.3,24.1,8,47.7,6.5c17.3-1.1,36.9-11,45.1-27.9C109.2-101.5,107.9-113,107.2-119.1z"/>
	<g class="st2">
		<path class="st5" d="M-20.2-71.1c-3.7-0.3-4-4.5-8.5-5.2c-4.9-0.8-9.2,3-10.9,6.9c-1.3,3.1-1.4,6.6-0.7,10c0.6,3.2,2,6.2,3.1,9.3
			c0.9,2.3,2.1,4.6,4.7,5.7c2.8,1.2,5.9,0.2,8.9,0c3.3-0.2,6,1.7,9.3,0.7c5.6-1.6,7.8-6.1,9.6-10.8c2.5-6.4,4.7-13.4-0.7-19.2
			c-1.1-1.2-2.5-2.1-4.2-2.3C-14.2-76.6-15.8-70.8-20.2-71.1z"/>
		<path class="st5" d="M-20.4-84.6c0.7,1.1,1.7,3.1,1.8,5.8c0.2,3.3-1,5.9-1.6,7"/>
	</g>
</g>
<g id="Layer_7_copy_2" class="st0">
	<path class="st14" d="M167-38.5c0,10.7-1.6,32.6-14.7,55.5c-3.9,6.8-12.9,22-30.6,34c-23.6,15.9-47.8,15.9-68,15.9
		c-20.5,0-53.2-0.1-80.4-22.7C-40,33.1-47.1,20.7-50.5,14.8c-12.6-22.5-14.6-44-14.7-55.3L167-38.5z"/>
	<path class="st15" d="M-65.5-38.3c1.5-12.7,7.4-47.4,35.9-73c41.6-37.3,110.1-35.9,153.1-1.9c32.7,25.8,41.1,62.8,43.4,75.6"/>
	<line class="st15" x1="-59.9" y1="-10.7" x2="-9.4" y2="-40.6"/>
	<line class="st15" x1="-50.5" y1="13.1" x2="38.7" y2="-39.6"/>
	<line class="st15" x1="-37.5" y1="35.1" x2="87.2" y2="-38.6"/>
	<line class="st15" x1="-13.8" y1="52.9" x2="141.1" y2="-38.7"/>
	<line class="st15" x1="20.8" y1="65.2" x2="166" y2="-20.7"/>
	<line class="st15" x1="62.3" y1="66.8" x2="154.8" y2="12.1"/>
	<line class="st15" x1="123.3" y1="-38.6" x2="162.3" y2="-7.4"/>
	<line class="st15" x1="82.3" y1="-38.5" x2="152.2" y2="17"/>
	<line class="st15" x1="41.6" y1="-38.5" x2="137.4" y2="37.6"/>
	<line class="st15" x1="-4.2" y1="-40" x2="115.2" y2="54.9"/>
	<line class="st15" x1="-49" y1="-40.6" x2="85" y2="65.8"/>
	<line class="st15" x1="-62.2" y1="-18.4" x2="45" y2="66.8"/>
	<line class="st15" x1="-49.6" y1="17" x2="6.7" y2="61.7"/>
	<g class="st2">
		<path class="st5" d="M-20.2-71.1c-3.7-0.3-4-4.5-8.5-5.2c-4.9-0.8-9.2,3-10.9,6.9c-1.3,3.1-1.4,6.6-0.7,10c0.6,3.2,2,6.2,3.1,9.3
			c0.9,2.3,2.1,4.6,4.7,5.7c2.8,1.2,5.9,0.2,8.9,0c3.3-0.2,6,1.7,9.3,0.7c5.6-1.6,7.8-6.1,9.6-10.8c2.5-6.4,4.7-13.4-0.7-19.2
			c-1.1-1.2-2.5-2.1-4.2-2.3C-14.2-76.6-15.8-70.8-20.2-71.1z"/>
		<path class="st5" d="M-20.4-84.6c0.7,1.1,1.7,3.1,1.8,5.8c0.2,3.3-1,5.9-1.6,7"/>
	</g>
	<g class="st2">
		<path class="st5" d="M26-71.1c-3.7-0.3-4-4.5-8.5-5.2c-4.9-0.8-9.2,3-10.9,6.9c-1.3,3.1-1.4,6.6-0.7,10c0.6,3.2,2,6.2,3.1,9.3
			c0.9,2.3,2.1,4.6,4.7,5.7c2.8,1.2,5.9,0.2,8.9,0c3.3-0.2,6,1.7,9.3,0.7c5.6-1.6,7.8-6.1,9.6-10.8c2.5-6.4,4.7-13.4-0.7-19.2
			c-1.1-1.2-2.5-2.1-4.2-2.3C32.1-76.6,30.5-70.8,26-71.1z"/>
		<path class="st5" d="M25.9-84.6c0.7,1.1,1.7,3.1,1.8,5.8c0.2,3.3-1,5.9-1.6,7"/>
	</g>
</g>
<g id="Layer_7_copy_3" class="st0">
	<path class="st14" d="M167-38.5c0,10.7-1.6,32.6-14.7,55.5c-3.9,6.8-12.9,22-30.6,34c-23.6,15.9-47.8,15.9-68,15.9
		c-20.5,0-53.2-0.1-80.4-22.7C-40,33.1-47.1,20.7-50.5,14.8c-12.6-22.5-14.6-44-14.7-55.3L167-38.5z"/>
	<path class="st15" d="M-65.5-38.3c1.5-12.7,7.4-47.4,35.9-73c41.6-37.3,110.1-35.9,153.1-1.9c32.7,25.8,41.1,62.8,43.4,75.6"/>
	<line class="st15" x1="-59.9" y1="-10.7" x2="-9.4" y2="-40.6"/>
	<line class="st15" x1="-50.5" y1="13.1" x2="38.7" y2="-39.6"/>
	<line class="st15" x1="-37.5" y1="35.1" x2="87.2" y2="-38.6"/>
	<line class="st15" x1="-13.8" y1="52.9" x2="141.1" y2="-38.7"/>
	<line class="st15" x1="20.8" y1="65.2" x2="166" y2="-20.7"/>
	<line class="st15" x1="62.3" y1="66.8" x2="154.8" y2="12.1"/>
	<line class="st15" x1="123.3" y1="-38.6" x2="162.3" y2="-7.4"/>
	<line class="st15" x1="82.3" y1="-38.5" x2="152.2" y2="17"/>
	<line class="st15" x1="41.6" y1="-38.5" x2="137.4" y2="37.6"/>
	<line class="st15" x1="-4.2" y1="-40" x2="115.2" y2="54.9"/>
	<line class="st15" x1="-49" y1="-40.6" x2="85" y2="65.8"/>
	<line class="st15" x1="-62.2" y1="-18.4" x2="45" y2="66.8"/>
	<line class="st15" x1="-49.6" y1="17" x2="6.7" y2="61.7"/>
	<g class="st2">
		<path class="st5" d="M-20.2-71.1c-3.7-0.3-4-4.5-8.5-5.2c-4.9-0.8-9.2,3-10.9,6.9c-1.3,3.1-1.4,6.6-0.7,10c0.6,3.2,2,6.2,3.1,9.3
			c0.9,2.3,2.1,4.6,4.7,5.7c2.8,1.2,5.9,0.2,8.9,0c3.3-0.2,6,1.7,9.3,0.7c5.6-1.6,7.8-6.1,9.6-10.8c2.5-6.4,4.7-13.4-0.7-19.2
			c-1.1-1.2-2.5-2.1-4.2-2.3C-14.2-76.6-15.8-70.8-20.2-71.1z"/>
		<path class="st5" d="M-20.4-84.6c0.7,1.1,1.7,3.1,1.8,5.8c0.2,3.3-1,5.9-1.6,7"/>
	</g>
	<g class="st2">
		<path class="st5" d="M26-71.1c-3.7-0.3-4-4.5-8.5-5.2c-4.9-0.8-9.2,3-10.9,6.9c-1.3,3.1-1.4,6.6-0.7,10c0.6,3.2,2,6.2,3.1,9.3
			c0.9,2.3,2.1,4.6,4.7,5.7c2.8,1.2,5.9,0.2,8.9,0c3.3-0.2,6,1.7,9.3,0.7c5.6-1.6,7.8-6.1,9.6-10.8c2.5-6.4,4.7-13.4-0.7-19.2
			c-1.1-1.2-2.5-2.1-4.2-2.3C32.1-76.6,30.5-70.8,26-71.1z"/>
		<path class="st5" d="M25.9-84.6c0.7,1.1,1.7,3.1,1.8,5.8c0.2,3.3-1,5.9-1.6,7"/>
	</g>
	<g class="st2">
		<path class="st5" d="M71.2-71.1c-3.7-0.3-4-4.5-8.5-5.2c-4.9-0.8-9.2,3-10.9,6.9c-1.3,3.1-1.4,6.6-0.7,10c0.6,3.2,2,6.2,3.1,9.3
			c0.9,2.3,2.1,4.6,4.7,5.7c2.8,1.2,5.9,0.2,8.9,0c3.3-0.2,6,1.7,9.3,0.7c5.6-1.6,7.8-6.1,9.6-10.8c2.5-6.4,4.7-13.4-0.7-19.2
			c-1.1-1.2-2.5-2.1-4.2-2.3C77.3-76.6,75.7-70.8,71.2-71.1z"/>
		<path class="st5" d="M71.1-84.6c0.7,1.1,1.7,3.1,1.8,5.8c0.2,3.3-1,5.9-1.6,7"/>
	</g>
</g>
<g id="Layer_7_copy_4" class="st0">
	<path class="st14" d="M167-38.5c0,10.7-1.6,32.6-14.7,55.5c-3.9,6.8-12.9,22-30.6,34c-23.6,15.9-47.8,15.9-68,15.9
		c-20.5,0-53.2-0.1-80.4-22.7C-40,33.1-47.1,20.7-50.5,14.8c-12.6-22.5-14.6-44-14.7-55.3L167-38.5z"/>
	<path class="st15" d="M-65.5-38.3c1.5-12.7,7.4-47.4,35.9-73c41.6-37.3,110.1-35.9,153.1-1.9c32.7,25.8,41.1,62.8,43.4,75.6"/>
	<line class="st15" x1="-59.9" y1="-10.7" x2="-9.4" y2="-40.6"/>
	<line class="st15" x1="-50.5" y1="13.1" x2="38.7" y2="-39.6"/>
	<line class="st15" x1="-37.5" y1="35.1" x2="87.2" y2="-38.6"/>
	<line class="st15" x1="-13.8" y1="52.9" x2="141.1" y2="-38.7"/>
	<line class="st15" x1="20.8" y1="65.2" x2="166" y2="-20.7"/>
	<line class="st15" x1="62.3" y1="66.8" x2="154.8" y2="12.1"/>
	<line class="st15" x1="123.3" y1="-38.6" x2="162.3" y2="-7.4"/>
	<line class="st15" x1="82.3" y1="-38.5" x2="152.2" y2="17"/>
	<line class="st15" x1="41.6" y1="-38.5" x2="137.4" y2="37.6"/>
	<line class="st15" x1="-4.2" y1="-40" x2="115.2" y2="54.9"/>
	<line class="st15" x1="-49" y1="-40.6" x2="85" y2="65.8"/>
	<line class="st15" x1="-62.2" y1="-18.4" x2="45" y2="66.8"/>
	<line class="st15" x1="-49.6" y1="17" x2="6.7" y2="61.7"/>
	<g class="st2">
		<path class="st5" d="M-19.2-71.1c-3.7-0.3-4-4.5-8.5-5.2c-4.9-0.8-9.2,3-10.9,6.9c-1.3,3.1-1.4,6.6-0.7,10c0.6,3.2,2,6.2,3.1,9.3
			c0.9,2.3,2.1,4.6,4.7,5.7c2.8,1.2,5.9,0.2,8.9,0c3.3-0.2,6,1.7,9.3,0.7c5.6-1.6,7.8-6.1,9.6-10.8c2.5-6.4,4.7-13.4-0.7-19.2
			c-1.1-1.2-2.5-2.1-4.2-2.3C-13.1-76.6-14.7-70.8-19.2-71.1z"/>
		<path class="st5" d="M-19.3-84.6c0.7,1.1,1.7,3.1,1.8,5.8c0.2,3.3-1,5.9-1.6,7"/>
	</g>
	<g class="st2">
		<path class="st5" d="M25.9-70.4c-3.7-0.3-4-4.5-8.5-5.2c-4.9-0.8-9.2,3-10.9,6.9c-1.3,3.1-1.4,6.6-0.7,10c0.6,3.2,2,6.2,3.1,9.3
			c0.9,2.3,2.1,4.6,4.7,5.7c2.8,1.2,5.9,0.2,8.9,0c3.3-0.2,6,1.7,9.3,0.7c5.6-1.6,7.8-6.1,9.6-10.8c2.5-6.4,4.7-13.4-0.7-19.2
			c-1.1-1.2-2.5-2.1-4.2-2.3C32-75.9,30.4-70.1,25.9-70.4z"/>
		<path class="st5" d="M25.8-84c0.7,1.1,1.7,3.1,1.8,5.8c0.2,3.3-1,5.9-1.6,7"/>
	</g>
	<g class="st2">
		<path class="st5" d="M71.1-70.4c-3.7-0.3-4-4.5-8.5-5.2c-4.9-0.8-9.2,3-10.9,6.9c-1.3,3.1-1.4,6.6-0.7,10c0.6,3.2,2,6.2,3.1,9.3
			c0.9,2.3,2.1,4.6,4.7,5.7c2.8,1.2,5.9,0.2,8.9,0c3.3-0.2,6,1.7,9.3,0.7c5.6-1.6,7.8-6.1,9.6-10.8c2.5-6.4,4.7-13.4-0.7-19.2
			c-1.1-1.2-2.5-2.1-4.2-2.3C77.1-75.9,75.6-70.1,71.1-70.4z"/>
		<path class="st5" d="M71-84c0.7,1.1,1.7,3.1,1.8,5.8c0.2,3.3-1,5.9-1.6,7"/>
	</g>
	<g class="st2">
		<path class="st5" d="M113.9-70.1c-3.7-0.3-4-4.5-8.5-5.2c-4.9-0.8-9.2,3-10.9,6.9c-1.3,3.1-1.4,6.6-0.7,10c0.6,3.2,2,6.2,3.1,9.3
			c0.9,2.3,2.1,4.6,4.7,5.7c2.8,1.2,5.9,0.2,8.9,0c3.3-0.2,6,1.7,9.3,0.7c5.6-1.6,7.8-6.1,9.6-10.8c2.5-6.4,4.7-13.4-0.7-19.2
			c-1.1-1.2-2.5-2.1-4.2-2.3C119.9-75.6,118.4-69.8,113.9-70.1z"/>
		<path class="st5" d="M113.7-83.6c0.7,1.1,1.7,3.1,1.8,5.8c0.2,3.3-1,5.9-1.6,7"/>
	</g>
</g>
</svg>
