<?xml version="1.0" encoding="utf-8"?>
<!-- Generator: Adobe Illustrator 21.1.0, SVG Export Plug-In . SVG Version: 6.00 Build 0)  -->
<svg version="1.1" id="Layer_1" xmlns="http://www.w3.org/2000/svg" xmlns:xlink="http://www.w3.org/1999/xlink" x="0px" y="0px"
	 viewBox="0 0 140.9 136.7" style="enable-background:new 0 0 140.9 136.7;" xml:space="preserve">
<style type="text/css">
	.st0{display:none;}
	.st1{display:inline;fill:#FFFFFF;stroke:#000000;stroke-miterlimit:10;}
	.st2{display:inline;}
	.st3{fill:#8C6E53;stroke:#603913;stroke-width:2;stroke-linejoin:round;stroke-miterlimit:10;}
	.st4{fill:#76C378;stroke:#009444;stroke-width:2;stroke-linejoin:round;stroke-miterlimit:10;}
	.st5{fill:#E7503F;stroke:#931A1D;stroke-width:2;stroke-linejoin:round;stroke-miterlimit:10;}
	.st6{fill:#605D5C;stroke:#3A3636;stroke-width:2;stroke-linejoin:round;stroke-miterlimit:10;}
	.st7{display:inline;fill:#E8E352;stroke:#B5BA4E;stroke-width:6;stroke-linejoin:round;stroke-miterlimit:10;}
	.st8{display:inline;fill:#AED693;stroke:#79AA67;stroke-width:6;stroke-linejoin:round;stroke-miterlimit:10;}
	.st9{fill:#E8E552;stroke:#E4C74A;stroke-width:6;stroke-linejoin:round;stroke-miterlimit:10;}
	.st10{fill:none;stroke:#E4C74A;stroke-width:6;stroke-linejoin:round;stroke-miterlimit:10;}
	.st11{display:inline;fill:none;stroke:#B5BA4E;stroke-width:6;stroke-linejoin:round;stroke-miterlimit:10;}
	.st12{display:inline;fill:#C08C49;stroke:#A56928;stroke-width:4;stroke-linejoin:round;stroke-miterlimit:10;}
	.st13{display:inline;fill:none;stroke:#A56928;stroke-width:4;stroke-linejoin:round;stroke-miterlimit:10;}
	.st14{display:inline;fill:#F1EB67;stroke:#E8E491;stroke-miterlimit:10;}
	.st15{display:inline;fill:#846628;}
	.st16{fill:#662C90;}
	.st17{fill:#2D6733;}
	.st18{fill:#846628;}
	.st19{fill:#E12C26;}
	.st20{display:inline;fill:#F9A51B;}
	.st21{fill:#5FC6D1;stroke:#5F7EAA;stroke-width:4;stroke-miterlimit:10;}
	.st22{fill:#5EC6D1;stroke:#5F7EAA;stroke-width:4;stroke-linejoin:round;stroke-miterlimit:10;}
	.st23{display:inline;fill:#8C6E53;stroke:#603913;stroke-width:2;stroke-linejoin:round;stroke-miterlimit:10;}
	.st24{display:inline;fill:#76C378;stroke:#009444;stroke-width:2;stroke-linejoin:round;stroke-miterlimit:10;}
</style>
<g id="Layer_1_copy" class="st0">
	<path class="st1" d="M213.4,212"/>
</g>
<g id="Layer_3" class="st0">
	<g class="st2">
		<path class="st3" d="M101,72.3c1.9,4.9-3.3,6.7-9.3,23.7c-4,11.2-5.2,25.9-7.4,55.1c-0.8,10.8-1.6,21.2-2,35.5
			c0,1.8-0.8,18.3,0.2,36.9c1.6,30,3.6,63.5,12.6,107.8c6.5,31.6,14.5,58.5,21.9,80l9,19.7c-3-2.9-7.4-7-12.7-12
			c-16.5-15.3-20.7-19.2-21.6-18.4c-1.3,1.1,5.6,9.4,10.7,24.7c3.1,9.4,5.6,21.7,3.4,22.6c-2.2,0.9-7.2-10.6-19.9-26
			c-9.7-11.8-22.9-24.7-26-22.6c-2.8,1.9,6.1,13.6,4.7,32.2c-0.6,8.6-3.2,18.4-6.2,18.5c-3.4,0.1-3.3-13.2-12.5-28.4
			c-6.1-10-18.3-24.3-26.6-21.6c-6.5,2.1-8,13.9-8.4,16.5c-2.4,18.3,9.7,31.4,7.6,32.8c-2.4,1.6-18.8-10.7-24.6-29.7
			c-2.6-8.4-2.4-15.8-5.1-16.1c-2.8-0.4-4.3,7.6-11.9,17c-6.6,8.2-15.9,15.1-17.8,13.6c-2.3-1.8,5.5-14.7,9.7-22.6
			c10.5-19.8,13.1-40.1,20.8-80.3c2.3-12.2,4.1-23.6,5.5-34.3c1.9-14.7,5.4-41.3,5.6-73.6C0.9,170.6-7.4,108.2-10.4,96
			s-8.2-22.3-9.7-23.5l0,0C-20.2,70.3,92.4,50,101,72.3z"/>
		<path class="st4" d="M199.3,23.5c-0.7-5.8-2.3-19-12.2-30.6c-9.7-11.4-22.6-15.6-31.6-18.5c-12.1-3.9-21.7-4.2-21.7-5.9
			s8.7-1.3,17.3-4.4c14.3-5.1,25.5-18.4,30.2-31.7c9.5-26.9-8.4-51.2-11.8-55.8c-15.9-21.6-39.3-26.6-48.3-27.9
			c-1.2-0.2-2.1-0.3-2.9-0.4c-6.8-0.7-37.4-4.1-47.8,10.5c-5.5,7.7-3.6,16.4-6.5,16.7c-3.1,0.3-4.8-10.5-9.6-18.5
			c-13.7-22.6-56.5-28.5-86.8-16.1c-6.9,2.8-20.6,8.7-28.6,22.9c-2.3,4.2-8.7,15.6-5.3,27.1c1.9,6.3,5.5,8.4,4.3,10.7
			c-2.6,5.1-20.8-5.5-42.6,0c-4.9,1.2-13.9,3.6-21.9,10.9c-12.8,11.8-19.2,33.2-11.9,50.7c7.8,18.8,28.3,25.8,33.6,27.6
			C-95.4-6-86.1-5.5-86.1-4c-0.1,1.8-12.8-0.8-23.9,6c-11.4,6.9-17,21.3-17.2,33.6c0,3.2,0.1,15.7,9,26.9
			c10.9,13.8,29.9,17.9,44,16.4C-58,77.2-52,68.3-32.8,69.6c8.8,0.6,12.4,2.8,14.5,4.5c4.8,4,112.7,5.4,121,0.1
			c11.5-7.3,24.1,8,47.7,6.5c17.3-1.1,36.9-11,45.1-27.9C201.3,41.1,200,29.6,199.3,23.5z"/>
		<g>
			<path class="st5" d="M323.2,4.6c-1.9-0.1-2.1-2.6-4.5-3c-2.6-0.4-4.9,1.7-5.8,4c-0.7,1.8-0.7,3.8-0.4,5.7c0.3,1.9,1,3.6,1.7,5.3
				c0.5,1.3,1.1,2.6,2.5,3.3c1.5,0.7,3.1,0.1,4.7,0c1.7-0.1,3.2,1,4.9,0.4c2.9-0.9,4.1-3.5,5.1-6.2c1.3-3.7,2.5-7.7-0.3-11
				c-0.6-0.7-1.3-1.2-2.2-1.3C326.4,1.5,325.6,4.8,323.2,4.6z"/>
			<path class="st5" d="M323.2-3.2c0.3,0.6,0.9,1.8,1,3.3c0.1,1.9-0.5,3.4-0.8,4"/>
		</g>
		<g>
			<path class="st5" d="M342.7,161.8c-1.9-0.1-2.1-2.6-4.5-3c-2.6-0.4-4.9,1.7-5.8,4c-0.7,1.8-0.7,3.8-0.4,5.7
				c0.3,1.9,1,3.6,1.7,5.3c0.5,1.3,1.1,2.6,2.5,3.3c1.5,0.7,3.1,0.1,4.7,0c1.7-0.1,3.2,1,4.9,0.4c2.9-0.9,4.1-3.5,5.1-6.2
				c1.3-3.7,2.5-7.7-0.3-11c-0.6-0.7-1.3-1.2-2.2-1.3C345.9,158.7,345,162,342.7,161.8z"/>
			<path class="st5" d="M342.6,154.1c0.3,0.6,0.9,1.8,1,3.3c0.1,1.9-0.5,3.4-0.8,4"/>
		</g>
		<g>
			<path class="st5" d="M322.4-38c-1.9-0.1-2.1-2.6-4.5-3c-2.6-0.4-4.9,1.7-5.8,4c-0.7,1.8-0.7,3.8-0.4,5.7s1,3.6,1.7,5.3
				c0.5,1.3,1.1,2.6,2.5,3.3c1.5,0.7,3.1,0.1,4.7,0c1.7-0.1,3.2,1,4.9,0.4c2.9-0.9,4.1-3.5,5.1-6.2c1.3-3.7,2.5-7.7-0.3-11
				c-0.6-0.7-1.3-1.2-2.2-1.3C325.6-41.2,324.7-37.9,322.4-38z"/>
			<path class="st5" d="M322.3-45.8c0.3,0.6,0.9,1.8,1,3.3c0.1,1.9-0.5,3.4-0.8,4"/>
		</g>
		<g>
			<path class="st5" d="M335.4,68.2c-1.9-0.1-2.1-2.6-4.5-3c-2.6-0.4-4.9,1.7-5.8,4c-0.7,1.8-0.7,3.8-0.4,5.7c0.3,1.9,1,3.6,1.7,5.3
				c0.5,1.3,1.1,2.6,2.5,3.3c1.5,0.7,3.1,0.1,4.7,0c1.7-0.1,3.2,1,4.9,0.4c2.9-0.9,4.1-3.5,5.1-6.2c1.3-3.7,2.5-7.7-0.3-11
				c-0.6-0.7-1.3-1.2-2.2-1.3C338.6,65.1,337.8,68.4,335.4,68.2z"/>
			<path class="st5" d="M335.3,60.4c0.3,0.6,0.9,1.8,1,3.3c0.1,1.9-0.5,3.4-0.8,4"/>
		</g>
		<g>
			<path class="st5" d="M312-99c-1.9-0.1-2.1-2.6-4.5-3c-2.6-0.4-4.9,1.7-5.8,4c-0.7,1.8-0.7,3.8-0.4,5.7s1,3.6,1.7,5.3
				c0.5,1.3,1.1,2.6,2.5,3.3c1.5,0.7,3.1,0.1,4.7,0c1.7-0.1,3.2,1,4.9,0.4c2.9-0.9,4.1-3.5,5.1-6.2c1.3-3.7,2.5-7.7-0.3-11
				c-0.6-0.7-1.3-1.2-2.2-1.3C315.2-102.1,314.4-98.8,312-99z"/>
			<path class="st5" d="M311.9-106.8c0.3,0.6,0.9,1.8,1,3.3c0.1,1.9-0.5,3.4-0.8,4"/>
		</g>
		<g>
			<path class="st5" d="M327.1,37.6c-1.9-0.1-2.1-2.6-4.5-3c-2.6-0.4-4.9,1.7-5.8,4c-0.7,1.8-0.7,3.8-0.4,5.7c0.3,1.9,1,3.6,1.7,5.3
				c0.5,1.3,1.1,2.6,2.5,3.3c1.5,0.7,3.1,0.1,4.7,0c1.7-0.1,3.2,1,4.9,0.4c2.9-0.9,4.1-3.5,5.1-6.2c1.3-3.7,2.5-7.7-0.3-11
				c-0.6-0.7-1.3-1.2-2.2-1.3C330.3,34.4,329.5,37.7,327.1,37.6z"/>
			<path class="st5" d="M327,29.8c0.3,0.6,0.9,1.8,1,3.3c0.1,1.9-0.5,3.4-0.8,4"/>
		</g>
		<g>
			<path class="st5" d="M325.6-66.2c-1.9-0.1-2.1-2.6-4.5-3c-2.6-0.4-4.9,1.7-5.8,4c-0.7,1.8-0.7,3.8-0.4,5.7s1,3.6,1.7,5.3
				c0.5,1.3,1.1,2.6,2.5,3.3c1.5,0.7,3.1,0.1,4.7,0c1.7-0.1,3.2,1,4.9,0.4c2.9-0.9,4.1-3.5,5.1-6.2c1.3-3.7,2.5-7.7-0.3-11
				c-0.6-0.7-1.3-1.2-2.2-1.3C328.8-69.3,328-66,325.6-66.2z"/>
			<path class="st5" d="M325.6-74c0.3,0.6,0.9,1.8,1,3.3c0.1,1.9-0.5,3.4-0.8,4"/>
		</g>
		<g>
			<path class="st5" d="M367.4-68.5c-1.9-0.1-2.1-2.6-4.5-3c-2.6-0.4-4.9,1.7-5.8,4c-0.7,1.8-0.7,3.8-0.4,5.7s1,3.6,1.7,5.3
				c0.5,1.3,1.1,2.6,2.5,3.3c1.5,0.7,3.1,0.1,4.7,0c1.7-0.1,3.2,1,4.9,0.4c2.9-0.9,4.1-3.5,5.1-6.2c1.3-3.7,2.5-7.7-0.3-11
				c-0.6-0.7-1.3-1.2-2.2-1.3C370.6-71.6,369.8-68.3,367.4-68.5z"/>
			<path class="st5" d="M367.4-76.2c0.3,0.6,0.9,1.8,1,3.3c0.1,1.9-0.5,3.4-0.8,4"/>
		</g>
	</g>
	<g class="st2">
		<path class="st5" d="M108.3,118.4c-4.4-0.3-4.8-5.2-10.2-6c-5.9-0.9-11.1,3.4-13.1,8c-1.6,3.6-1.6,7.7-0.9,11.5
			c0.8,3.7,2.3,7.2,3.8,10.7c1.1,2.7,2.6,5.3,5.7,6.5c3.4,1.4,7.1,0.2,10.7,0c4-0.2,7.2,2,11.1,0.8c6.7-1.9,9.3-7,11.6-12.4
			c3-7.4,5.6-15.4-0.8-22.1c-1.3-1.3-3-2.4-5-2.7C115.5,112.1,113.6,118.8,108.3,118.4z"/>
		<path class="st5" d="M108.1,102.8c0.8,1.3,2,3.6,2.2,6.7c0.3,3.9-1.2,6.8-1.9,8.1"/>
	</g>
</g>
<g id="Layer_3_copy" class="st0">
	<g class="st2">
		<path class="st3" d="M89.5,70.9c1.9,4.9-3.3,6.7-9.3,23.7c-4,11.2-5.2,25.9-7.4,55.1c-0.8,10.8-1.6,21.2-2,35.5
			c0,1.8-0.8,18.3,0.2,36.9c1.6,30,3.6,63.5,12.6,107.8c6.5,31.6,14.5,58.5,21.9,80l9,19.7c-3-2.9-7.4-7-12.7-12
			c-16.5-15.3-20.7-19.2-21.6-18.4c-1.3,1.1,5.6,9.4,10.7,24.7c3.1,9.4,5.6,21.7,3.4,22.6c-2.2,0.9-7.2-10.6-19.9-26
			c-9.7-11.8-22.9-24.7-26-22.6c-2.8,1.9,6.1,13.6,4.7,32.2c-0.6,8.6-3.2,18.4-6.2,18.5c-3.4,0.1-3.3-13.2-12.5-28.4
			c-6.1-10-18.3-24.3-26.6-21.6c-6.5,2.1-8,13.9-8.4,16.5C-3,433.4,9.1,446.5,7,447.9c-2.4,1.6-18.8-10.7-24.6-29.7
			c-2.6-8.4-2.4-15.8-5.1-16.1c-2.8-0.4-4.3,7.6-11.9,17c-6.6,8.2-15.9,15.1-17.8,13.6c-2.3-1.8,5.5-14.7,9.7-22.6
			c10.5-19.8,13.1-40.1,20.8-80.3c2.3-12.2,4.1-23.6,5.5-34.3c1.9-14.7,5.4-41.3,5.6-73.6c0.2-52.7-8.1-115.1-11.1-127.3
			s-8.2-22.3-9.7-23.5l0,0C-31.7,69,80.8,48.7,89.5,70.9z"/>
		<path class="st4" d="M187.7,22.1c-0.7-5.8-2.3-19-12.2-30.6c-9.7-11.4-22.6-15.6-31.6-18.5c-12.1-3.9-21.7-4.2-21.7-5.9
			s8.7-1.3,17.3-4.4c14.3-5.1,25.5-18.4,30.2-31.7c9.5-26.9-8.4-51.2-11.8-55.8c-15.9-21.6-39.3-26.6-48.3-27.9
			c-1.2-0.2-2.1-0.3-2.9-0.4c-6.8-0.7-37.4-4.1-47.8,10.5c-5.5,7.7-3.6,16.4-6.5,16.7c-3.1,0.3-4.8-10.5-9.6-18.5
			C29.1-167-13.7-172.9-44-160.5c-6.9,2.8-20.6,8.7-28.6,22.9c-2.3,4.2-8.7,15.6-5.3,27.1c1.9,6.3,5.5,8.4,4.3,10.7
			c-2.6,5.1-20.8-5.5-42.6,0c-4.9,1.2-13.9,3.6-21.9,10.9c-12.8,11.8-19.2,33.2-11.9,50.7c7.8,18.8,28.3,25.8,33.6,27.6
			c9.4,3.2,18.7,3.7,18.7,5.2c-0.1,1.8-12.8-0.8-23.9,6c-11.4,6.9-17,21.3-17.2,33.6c0,3.2,0.1,15.7,9,26.9
			c10.9,13.8,29.9,17.9,44,16.4c16.2-1.7,22.2-10.6,41.4-9.3c8.8,0.6,12.4,2.8,14.5,4.5c4.8,4,112.7,5.4,121,0.1
			c11.5-7.3,24.1,8,47.7,6.5c17.3-1.1,36.9-11,45.1-27.9C189.7,39.8,188.4,28.2,187.7,22.1z"/>
		<g>
			<path class="st6" d="M-67.5,41.1c-1.9-0.1-2.1-2.6-4.5-3c-2.6-0.4-4.9,1.7-5.8,4c-0.7,1.8-0.7,3.8-0.4,5.7c0.3,1.9,1,3.6,1.7,5.3
				c0.5,1.3,1.1,2.6,2.5,3.3c1.5,0.7,3.1,0.1,4.7,0c1.7-0.1,3.2,1,4.9,0.4c2.9-0.9,4.1-3.5,5.1-6.2c1.3-3.7,2.5-7.7-0.3-11
				c-0.6-0.7-1.3-1.2-2.2-1.3C-64.3,37.9-65.1,41.3-67.5,41.1z"/>
			<path class="st6" d="M-67.6,33.3c0.3,0.6,0.9,1.8,1,3.3c0.1,1.9-0.5,3.4-0.8,4"/>
		</g>
		<g>
			<path class="st5" d="M-78.8-63c-1.9-0.1-2.1-2.6-4.5-3c-2.6-0.4-4.9,1.7-5.8,4c-0.7,1.8-0.7,3.8-0.4,5.7s1,3.6,1.7,5.3
				c0.5,1.3,1.1,2.6,2.5,3.3c1.5,0.7,3.1,0.1,4.7,0c1.7-0.1,3.2,1,4.9,0.4c2.9-0.9,4.1-3.5,5.1-6.2c1.3-3.7,2.5-7.7-0.3-11
				c-0.6-0.7-1.3-1.2-2.2-1.3C-75.6-66.1-76.5-62.8-78.8-63z"/>
			<path class="st5" d="M-78.9-70.8c0.3,0.6,0.9,1.8,1,3.3c0.1,1.9-0.5,3.4-0.8,4"/>
		</g>
		<g>
			<path class="st5" d="M-8.7-20.2c-1.9-0.1-2.1-2.6-4.5-3c-2.6-0.4-4.9,1.7-5.8,4c-0.7,1.8-0.7,3.8-0.4,5.7s1,3.6,1.7,5.3
				c0.5,1.3,1.1,2.6,2.5,3.3c1.5,0.7,3.1,0.1,4.7,0c1.7-0.1,3.2,1,4.9,0.4c2.9-0.9,4.1-3.5,5.1-6.2c1.3-3.7,2.5-7.7-0.3-11
				C-1.4-22.4-2.1-22.9-3-23C-5.6-23.3-6.4-20-8.7-20.2z"/>
			<path class="st5" d="M-8.8-28c0.3,0.6,0.9,1.8,1,3.3c0.1,1.9-0.5,3.4-0.8,4"/>
		</g>
		<g>
			<path class="st5" d="M52.4,38.1c-1.9-0.1-2.1-2.6-4.5-3c-2.6-0.4-4.9,1.7-5.8,4c-0.7,1.8-0.7,3.8-0.4,5.7c0.3,1.9,1,3.6,1.7,5.3
				c0.5,1.3,1.1,2.6,2.5,3.3c1.5,0.7,3.1,0.1,4.7,0c1.7-0.1,3.2,1,4.9,0.4c2.9-0.9,4.1-3.5,5.1-6.2c1.3-3.7,2.5-7.7-0.3-11
				c-0.6-0.7-1.3-1.2-2.2-1.3C55.6,34.9,54.8,38.2,52.4,38.1z"/>
			<path class="st5" d="M52.3,30.3c0.3,0.6,0.9,1.8,1,3.3c0.1,1.9-0.5,3.4-0.8,4"/>
		</g>
		<g>
			<path class="st5" d="M114-105.3c-1.9-0.1-2.1-2.6-4.5-3c-2.6-0.4-4.9,1.7-5.8,4c-0.7,1.8-0.7,3.8-0.4,5.7c0.3,1.9,1,3.6,1.7,5.3
				c0.5,1.3,1.1,2.6,2.5,3.3c1.5,0.7,3.1,0.1,4.7,0c1.7-0.1,3.2,1,4.9,0.4c2.9-0.9,4.1-3.5,5.1-6.2c1.3-3.7,2.5-7.7-0.3-11
				c-0.6-0.7-1.3-1.2-2.2-1.3C117.2-108.5,116.3-105.2,114-105.3z"/>
			<path class="st5" d="M113.9-113.1c0.3,0.6,0.9,1.8,1,3.3c0.1,1.9-0.5,3.4-0.8,4"/>
		</g>
		<g>
			<path class="st5" d="M142.6,19.8c-1.9-0.1-2.1-2.6-4.5-3c-2.6-0.4-4.9,1.7-5.8,4c-0.7,1.8-0.7,3.8-0.4,5.7c0.3,1.9,1,3.6,1.7,5.3
				c0.5,1.3,1.1,2.6,2.5,3.3c1.5,0.7,3.1,0.1,4.7,0c1.7-0.1,3.2,1,4.9,0.4c2.9-0.9,4.1-3.5,5.1-6.2c1.3-3.7,2.5-7.7-0.3-11
				c-0.6-0.7-1.3-1.2-2.2-1.3C145.8,16.7,145,20,142.6,19.8z"/>
			<path class="st5" d="M142.5,12.1c0.3,0.6,0.9,1.8,1,3.3c0.1,1.9-0.5,3.4-0.8,4"/>
		</g>
		<g>
			<path class="st5" d="M70.7-41.2c-1.9-0.1-2.1-2.6-4.5-3c-2.6-0.4-4.9,1.7-5.8,4c-0.7,1.8-0.7,3.8-0.4,5.7c0.3,1.9,1,3.6,1.7,5.3
				c0.5,1.3,1.1,2.6,2.5,3.3c1.5,0.7,3.1,0.1,4.7,0c1.7-0.1,3.2,1,4.9,0.4c2.9-0.9,4.1-3.5,5.1-6.2c1.3-3.7,2.5-7.7-0.3-11
				c-0.6-0.7-1.3-1.2-2.2-1.3C73.9-44.4,73-41,70.7-41.2z"/>
			<path class="st5" d="M70.6-49c0.3,0.6,0.9,1.8,1,3.3c0.1,1.9-0.5,3.4-0.8,4"/>
		</g>
		<g>
			<path class="st5" d="M-18.9-112.1c-1.9-0.1-2.1-2.6-4.5-3c-2.6-0.4-4.9,1.7-5.8,4c-0.7,1.8-0.7,3.8-0.4,5.7s1,3.6,1.7,5.3
				c0.5,1.3,1.1,2.6,2.5,3.3c1.5,0.7,3.1,0.1,4.7,0c1.7-0.1,3.2,1,4.9,0.4c2.9-0.9,4.1-3.5,5.1-6.2c1.3-3.7,2.5-7.7-0.3-11
				c-0.6-0.7-1.3-1.2-2.2-1.3C-15.8-115.2-16.6-111.9-18.9-112.1z"/>
			<path class="st5" d="M-19-119.9c0.3,0.6,0.9,1.8,1,3.3c0.1,1.9-0.5,3.4-0.8,4"/>
		</g>
		<g>
			<path class="st6" d="M70.7-41.2c-1.9-0.1-2.1-2.6-4.5-3c-2.6-0.4-4.9,1.7-5.8,4c-0.7,1.8-0.7,3.8-0.4,5.7c0.3,1.9,1,3.6,1.7,5.3
				c0.5,1.3,1.1,2.6,2.5,3.3c1.5,0.7,3.1,0.1,4.7,0c1.7-0.1,3.2,1,4.9,0.4c2.9-0.9,4.1-3.5,5.1-6.2c1.3-3.7,2.5-7.7-0.3-11
				c-0.6-0.7-1.3-1.2-2.2-1.3C73.9-44.4,73-41,70.7-41.2z"/>
			<path class="st6" d="M70.6-49c0.3,0.6,0.9,1.8,1,3.3c0.1,1.9-0.5,3.4-0.8,4"/>
		</g>
		<g>
			<path class="st6" d="M-8.7-20.2c-1.9-0.1-2.1-2.6-4.5-3c-2.6-0.4-4.9,1.7-5.8,4c-0.7,1.8-0.7,3.8-0.4,5.7s1,3.6,1.7,5.3
				c0.5,1.3,1.1,2.6,2.5,3.3c1.5,0.7,3.1,0.1,4.7,0c1.7-0.1,3.2,1,4.9,0.4c2.9-0.9,4.1-3.5,5.1-6.2c1.3-3.7,2.5-7.7-0.3-11
				C-1.4-22.4-2.1-22.9-3-23C-5.6-23.3-6.4-20-8.7-20.2z"/>
			<path class="st6" d="M-8.8-28c0.3,0.6,0.9,1.8,1,3.3c0.1,1.9-0.5,3.4-0.8,4"/>
		</g>
		<g>
			<path class="st6" d="M52.4,38.1c-1.9-0.1-2.1-2.6-4.5-3c-2.6-0.4-4.9,1.7-5.8,4c-0.7,1.8-0.7,3.8-0.4,5.7c0.3,1.9,1,3.6,1.7,5.3
				c0.5,1.3,1.1,2.6,2.5,3.3c1.5,0.7,3.1,0.1,4.7,0c1.7-0.1,3.2,1,4.9,0.4c2.9-0.9,4.1-3.5,5.1-6.2c1.3-3.7,2.5-7.7-0.3-11
				c-0.6-0.7-1.3-1.2-2.2-1.3C55.6,34.9,54.8,38.2,52.4,38.1z"/>
			<path class="st6" d="M52.3,30.3c0.3,0.6,0.9,1.8,1,3.3c0.1,1.9-0.5,3.4-0.8,4"/>
		</g>
	</g>
</g>
<g id="Layer_5" class="st0">
	<ellipse class="st7" cx="62.8" cy="164.2" rx="119.8" ry="146.8"/>
	<path class="st8" d="M13.8,155.6c-4.4-0.1-14-16.3-16-18.9c-9.5-12-17.8-24.9-29.4-36.2c3.4,3.2,51.7,18.3,53.3,18.1
		c10.4-1,17-20.2,21.8-25.2c-2.8,2.9,34.5,24.4,39.1,27.8c0.1,0.1,34.1-21.4,36.6-24.3c8.6,9.3,17.3,18.5,25.9,27.8
		c-1.6-2.4,41.7-20.7,46.7-23.2c-5.3,2.7-23.1,46.1-29.6,59C112.7,158.8,63.3,157.2,13.8,155.6z"/>
	<path class="st8" d="M34.6,195c-3.4-0.1-10.5-16.1-12.1-18.7c-7.1-11.8-13.3-24.6-22.1-35.8c2.5,3.2,39.6,17.5,40.8,17.3
		c8-1.1,13.4-20.5,17.1-25.5c-2.2,2.9,26.2,23.9,29.7,27.2c0.1,0.1,26.6-21.9,28.5-24.8c6.5,9.1,13.1,18.2,19.6,27.4
		c-1.2-2.4,32.4-21.3,36.3-23.9c-4.2,2.7-18.5,46.4-23.6,59.4C110.7,196.8,72.7,195.9,34.6,195z"/>
	<path class="st8" d="M47.6,226.3c-2.7,0-8.2-16-9.4-18.5c-5.6-11.7-10.4-24.5-17.3-35.5c2,3.2,31.5,17,32.5,16.8
		c6.4-1.2,11-20.6,14-25.7c-1.8,2.9,20.7,23.6,23.5,26.8c0,0.1,21.6-22.2,23.2-25.2c5.1,9,10.2,18.1,15.3,27.1
		c-1-2.4,26.2-21.7,29.4-24.3c-3.4,2.8-15.4,46.6-19.7,59.6C108.5,227.1,78,226.7,47.6,226.3z"/>
</g>
<g id="Layer_12">
	<path class="st9" d="M131.9,11.3c0,0-56-2.9-73.1,2.8c-17.2,5.8-43.1,34.7-47.3,49.1c-4.2,14.3-3.2,62-3.2,62l122.3-0.1L131.9,11.3
		z"/>
	<line class="st10" x1="11.9" y1="80.3" x2="97.3" y2="10"/>
	<line class="st10" x1="9.2" y1="119.6" x2="129.6" y2="24.9"/>
	<line class="st10" x1="66.1" y1="123.6" x2="129.6" y2="72.2"/>
	<line class="st10" x1="11.2" y1="57" x2="103.2" y2="121.9"/>
	<line class="st10" x1="30.9" y1="31.6" x2="129.6" y2="102"/>
	<line class="st10" x1="58.8" y1="14.1" x2="131" y2="56"/>
	<line class="st10" x1="6.5" y1="96.6" x2="50.7" y2="124.1"/>
</g>
<g id="Layer_6" class="st0">
	<line class="st11" x1="-57" y1="170.5" x2="82.8" y2="19.5"/>
	<line class="st11" x1="-48.3" y1="214.6" x2="119.1" y2="33.7"/>
	<line class="st11" x1="-32" y1="250.9" x2="145.1" y2="59.6"/>
	<line class="st11" x1="-10.5" y1="281.7" x2="166.6" y2="90.4"/>
	<line class="st11" x1="20.1" y1="301" x2="179.3" y2="130"/>
	<line class="st11" x1="68.3" y1="311.5" x2="181.3" y2="186.1"/>
	<line class="st11" x1="170.4" y1="233.4" x2="-14.2" y2="54.2"/>
	<line class="st11" x1="146.9" y1="268.7" x2="-39.3" y2="89"/>
	<line class="st11" x1="115.4" y1="299.6" x2="-54.5" y2="134.6"/>
	<line class="st11" x1="182.3" y1="187.1" x2="15.7" y2="27.1"/>
	<line class="st11" x1="179.3" y1="130" x2="69.2" y2="17.9"/>
	<line class="st11" x1="68.3" y1="311.5" x2="-57" y2="186.1"/>
	<line class="st11" x1="-50.4" y1="114.8" x2="36.5" y2="21"/>
</g>
<g id="Layer_7" class="st0">
	<path class="st12" d="M175.9,38.1c0,10.7-1.6,32.6-14.7,55.5c-3.9,6.8-12.9,22-30.6,34c-23.6,15.9-47.8,15.9-68,15.9
		c-20.5,0-53.2-0.1-80.4-22.7c-13.3-11.1-20.4-23.5-23.8-29.4c-12.6-22.5-14.6-44-14.7-55.3L175.9,38.1z"/>
	<path class="st13" d="M-56.6,38.3c1.5-12.7,7.4-47.4,35.9-73C20.9-72,89.4-70.6,132.4-36.6c32.7,25.8,41.1,62.8,43.4,75.6"/>
	<line class="st13" x1="-51" y1="65.9" x2="-0.5" y2="36"/>
	<line class="st13" x1="-41.6" y1="89.7" x2="47.6" y2="37"/>
	<line class="st13" x1="-28.6" y1="111.7" x2="96.1" y2="38"/>
	<line class="st13" x1="-4.9" y1="129.5" x2="150" y2="37.9"/>
	<line class="st13" x1="29.7" y1="141.8" x2="174.9" y2="55.9"/>
	<line class="st13" x1="71.2" y1="143.4" x2="163.7" y2="88.7"/>
	<line class="st13" x1="132.2" y1="38" x2="171.2" y2="69.2"/>
	<line class="st13" x1="91.2" y1="38.1" x2="161.1" y2="93.6"/>
	<line class="st13" x1="50.5" y1="38.1" x2="146.3" y2="114.2"/>
	<line class="st13" x1="4.7" y1="36.6" x2="124.1" y2="131.5"/>
	<line class="st13" x1="-40.1" y1="36" x2="93.9" y2="142.4"/>
	<line class="st13" x1="-53.3" y1="58.2" x2="53.9" y2="143.4"/>
	<line class="st13" x1="-40.7" y1="93.6" x2="15.6" y2="138.3"/>
</g>
<g id="Layer_7_copy_5" class="st0">
	<path class="st14" d="M84.6,31.8c4.4-6,14.8-16.4,15.2-23.6c0.4-7.3,0.8-30.8,2-35.6s9.4,7.8,10.2,12.6c0.8,4.8,3.9,19.9,2.5,25.2
		s-6.5,15.7-9.7,18.5s-7.3,8-13.2,12c-6.1,2.4-10,6.6-16.1,6.6C69.4,47.6,80.2,37.9,84.6,31.8z"/>
	<path class="st14" d="M107,33.4c2.5-6.8,9.5-19.2,7.8-25.9s-8-28.2-8.2-32.8c-0.2-4.7,11.2,4.3,13.3,8.4c2.1,4.1,9.4,16.9,9.5,22.1
		c0.1,5.2-1.8,16.2-4,19.7s-4.7,9.4-9.2,14.8c-5.1,4-7.7,8.9-13.5,10.8C97,52.2,104.6,40.1,107,33.4z"/>
	<path class="st14" d="M63.9,17.6c6.2-3.6,19.6-8.7,22.6-15c3-6.2,11.9-26.7,14.7-30.5c2.8-3.7,5.9,10.5,4.9,15s-3.6,19-6.8,23.1
		c-3.2,4.1-11.7,11.3-15.7,12.6c-3.9,1.3-9.6,4.3-16.5,5.5c-6.5-0.3-11.6,2-17.3-0.4S57.7,21.2,63.9,17.6z"/>
	<path class="st15" d="M100.5-25.3c0.2-3.8,0-15,0-18.5s10.5-3.5,10.5,0s2.4,15,0,18.5C108.7-21.8,100.3-21.5,100.5-25.3z"/>
	<g class="st2">
		
			<ellipse transform="matrix(0.8054 -0.5928 0.5928 0.8054 -21.4001 -25.4036)" class="st16" cx="-49.4" cy="19.9" rx="8.5" ry="8.9"/>
		
			<ellipse transform="matrix(0.8054 -0.5928 0.5928 0.8054 -12.7785 -19.2272)" class="st16" cx="-35.7" cy="9.8" rx="8.5" ry="8.9"/>
		
			<ellipse transform="matrix(0.8054 -0.5928 0.5928 0.8054 -4.1716 -13.1378)" class="st16" cx="-22.1" cy="-0.2" rx="8.5" ry="8.9"/>
		<ellipse transform="matrix(0.8054 -0.5928 0.5928 0.8054 4.45 -6.9614)" class="st16" cx="-8.4" cy="-10.3" rx="8.5" ry="8.9"/>
		
			<ellipse transform="matrix(0.8054 -0.5928 0.5928 0.8054 -22.646 -14.4813)" class="st16" cx="-33.4" cy="27.2" rx="8.5" ry="8.9"/>
		
			<ellipse transform="matrix(0.8054 -0.5928 0.5928 0.8054 -14.0391 -8.3919)" class="st16" cx="-19.8" cy="17.2" rx="8.5" ry="8.9"/>
		<ellipse transform="matrix(0.8054 -0.5928 0.5928 0.8054 -5.4175 -2.2155)" class="st16" cx="-6.1" cy="7.1" rx="8.5" ry="8.9"/>
		
			<ellipse transform="matrix(0.8054 -0.5928 0.5928 0.8054 -24.021 -3.4546)" class="st16" cx="-17.3" cy="34.9" rx="8.5" ry="8.9"/>
		<ellipse transform="matrix(0.8054 -0.5928 0.5928 0.8054 -15.4141 2.6347)" class="st16" cx="-3.7" cy="24.8" rx="8.5" ry="8.9"/>
		<ellipse transform="matrix(0.8054 -0.5928 0.5928 0.8054 -25.2976 7.4581)" class="st16" cx="-1.3" cy="42.3" rx="8.5" ry="8.9"/>
		<path class="st17" d="M-35.5-0.2c-0.3,1.4-9.6,2.2-10.9,1.8c-1.9,0.2-11.3-4.7-10.8-7.2S-47-8.7-45.3-8.2S-35.2-1.7-35.5-0.2z"/>
		<path class="st17" d="M-32.8-25.5c2.9,0.8,4.4,12.7,4.5,14.7s-6.9,11.3-8.1,11.3c-1.2,0-6.4-11.1-5.3-14.9
			C-40.5-18.2-35.6-26.3-32.8-25.5z"/>
	</g>
	<g class="st2">
		<path class="st18" d="M33.2,13.1c0,0,1.1-13.5,0.8-18.9s-2.2-6.1-2.5-10.5c-1.5-3,5.2-1,6.7,0.3s3.3,8.9,3.1,14.8
			c-0.2,5.9-0.6,14.7-0.6,14.7L33.2,13.1z"/>
		<ellipse transform="matrix(0.1431 -0.9897 0.9897 0.1431 1.1966 57.3731)" class="st19" cx="33.7" cy="28" rx="26" ry="26"/>
	</g>
	<ellipse transform="matrix(0.1431 -0.9897 0.9897 0.1431 107.6739 169.4019)" class="st20" cx="151.7" cy="22.5" rx="26" ry="26"/>
	<g class="st2">
		<path class="st21" d="M29.5,170.8c-1.6,0.9-3,5.3-1.6,6.8s68.9,2.5,70.2,0.5s0.3-4.9-2.1-6.7C93.6,169.5,31.1,170,29.5,170.8z"/>
		<path class="st21" d="M-82.2,51.6c0.1,2,6.3,3.5,18.6,6.6C-28.3,67-0.4,66.4,19.9,66c78.2-1.5,61.8,0.1,92.1-1.4
			c45.5-2.2,92.1-4.4,92.5-10.9c0-0.7-0.4-4-22.3-9.2C88.7,22-83.1,38-82.2,51.6z"/>
		<path class="st22" d="M176.9,62.1c0,10.7-1.6,32.6-14.7,55.5c-3.9,6.8-12.9,22-30.6,34c-23.6,15.9-47.8,15.9-68,15.9
			c-20.5,0-53.2-0.1-80.4-22.7c-13.3-11.1-20.4-23.5-23.8-29.4c-12.6-22.5-14.6-44-14.7-55.3L176.9,62.1z"/>
	</g>
</g>
<g id="Layer_7_copy" class="st0">
	<path class="st12" d="M175.9,38.1c0,10.7-1.6,32.6-14.7,55.5c-3.9,6.8-12.9,22-30.6,34c-23.6,15.9-47.8,15.9-68,15.9
		c-20.5,0-53.2-0.1-80.4-22.7c-13.3-11.1-20.4-23.5-23.8-29.4c-12.6-22.5-14.6-44-14.7-55.3L175.9,38.1z"/>
	<path class="st13" d="M-56.6,38.3c1.5-12.7,7.4-47.4,35.9-73C20.9-72,89.4-70.6,132.4-36.6c32.7,25.8,41.1,62.8,43.4,75.6"/>
	<line class="st13" x1="-51" y1="65.9" x2="-0.5" y2="36"/>
	<line class="st13" x1="-41.6" y1="89.7" x2="47.6" y2="37"/>
	<line class="st13" x1="-28.6" y1="111.7" x2="96.1" y2="38"/>
	<line class="st13" x1="-4.9" y1="129.5" x2="150" y2="37.9"/>
	<line class="st13" x1="29.7" y1="141.8" x2="174.9" y2="55.9"/>
	<line class="st13" x1="71.2" y1="143.4" x2="163.7" y2="88.7"/>
	<line class="st13" x1="132.2" y1="38" x2="171.2" y2="69.2"/>
	<line class="st13" x1="91.2" y1="38.1" x2="161.1" y2="93.6"/>
	<line class="st13" x1="50.5" y1="38.1" x2="146.3" y2="114.2"/>
	<line class="st13" x1="4.7" y1="36.6" x2="124.1" y2="131.5"/>
	<line class="st13" x1="-40.1" y1="36" x2="93.9" y2="142.4"/>
	<line class="st13" x1="-53.3" y1="58.2" x2="53.9" y2="143.4"/>
	<line class="st13" x1="-40.7" y1="93.6" x2="15.6" y2="138.3"/>
	<path class="st23" d="M17.8,6.3c1.9,4.9-3.3,6.7-9.3,23.7c-4,11.2-5.2,25.9-7.4,55.1c-0.8,10.8-1.6,21.2-2,35.5
		c0,1.8-0.8,18.3,0.2,36.9c1.6,30,3.6,63.5,12.6,107.8c6.5,31.6,14.5,58.5,21.9,80l9,19.7c-3-2.9-7.4-7-12.7-12
		c-16.5-15.3-20.7-19.2-21.6-18.4c-1.3,1.1,5.6,9.4,10.7,24.7c3.1,9.4,5.6,21.7,3.4,22.6c-2.2,0.9-7.2-10.6-19.9-26
		c-9.7-11.8-22.9-24.7-26-22.6c-2.8,1.9,6.1,13.6,4.7,32.2c-0.6,8.6-3.2,18.4-6.2,18.5c-3.4,0.1-3.3-13.2-12.5-28.4
		c-6.1-10-18.3-24.3-26.6-21.6c-6.5,2.1-8,13.9-8.4,16.5c-2.4,18.3,9.7,31.4,7.6,32.8c-2.4,1.6-18.8-10.7-24.6-29.7
		c-2.6-8.4-2.4-15.8-5.1-16.1c-2.8-0.4-4.3,7.6-11.9,17c-6.6,8.2-15.9,15.1-17.8,13.6c-2.3-1.8,5.5-14.7,9.7-22.6
		c10.5-19.8,13.1-40.1,20.8-80.3c2.3-12.2,4.1-23.6,5.5-34.3c1.9-14.7,5.4-41.3,5.6-73.6c0.2-52.7-8.1-115.1-11.1-127.3
		c-3-12.2-8.2-22.3-9.7-23.5l0,0C-103.4,4.3,9.1-16,17.8,6.3z"/>
	<path class="st24" d="M116.1-42.5c-0.7-5.8-2.3-19-12.2-30.6c-9.7-11.4-22.6-15.6-31.6-18.5c-12.1-3.9-21.7-4.2-21.7-5.9
		s8.7-1.3,17.3-4.4c14.3-5.1,25.5-18.4,30.2-31.7c9.5-26.9-8.4-51.2-11.8-55.8C70.4-211,47-216,38-217.3c-1.2-0.2-2.1-0.3-2.9-0.4
		c-6.8-0.7-37.4-4.1-47.8,10.5c-5.5,7.7-3.6,16.4-6.5,16.7c-3.1,0.3-4.8-10.5-9.6-18.5c-13.7-22.6-56.5-28.5-86.8-16.1
		c-6.9,2.8-20.6,8.7-28.6,22.9c-2.3,4.2-8.7,15.6-5.3,27.1c1.9,6.3,5.5,8.4,4.3,10.7c-2.6,5.1-20.8-5.5-42.6,0
		c-4.7,1.1-13.7,3.4-21.6,10.8c-12.8,11.8-19.2,33.2-12,50.7c7.8,18.8,28.3,25.8,33.6,27.6c9.4,3.2,18.7,3.7,18.7,5.2
		c-0.1,1.8-12.8-0.8-23.9,6c-11.4,6.9-17,21.3-17.2,33.6c0,3.2,0.1,15.7,9,26.9c10.9,13.8,29.9,17.9,44,16.4
		c16.2-1.7,22.2-10.6,41.4-9.3c8.8,0.6,12.4,2.8,14.5,4.5c4.8,4,112.7,5.4,121,0.1c11.5-7.3,24.1,8,47.7,6.5
		c17.3-1.1,36.9-11,45.1-27.9C118.1-24.9,116.8-36.4,116.1-42.5z"/>
	<g class="st2">
		<path class="st5" d="M-11.3,5.5c-3.7-0.3-4-4.5-8.5-5.2c-4.9-0.8-9.2,3-10.9,6.9c-1.3,3.1-1.4,6.6-0.7,10c0.6,3.2,2,6.2,3.1,9.3
			c0.9,2.3,2.1,4.6,4.7,5.7c2.8,1.2,5.9,0.2,8.9,0c3.3-0.2,6,1.7,9.3,0.7c5.6-1.6,7.8-6.1,9.6-10.8C6.7,15.7,8.9,8.7,3.5,2.9
			C2.4,1.7,1,0.8-0.7,0.6C-5.3,0-6.9,5.8-11.3,5.5z"/>
		<path class="st5" d="M-11.5-8c0.7,1.1,1.7,3.1,1.8,5.8c0.2,3.3-1,5.9-1.6,7"/>
	</g>
</g>
<g id="Layer_7_copy_2" class="st0">
	<path class="st12" d="M175.9,38.1c0,10.7-1.6,32.6-14.7,55.5c-3.9,6.8-12.9,22-30.6,34c-23.6,15.9-47.8,15.9-68,15.9
		c-20.5,0-53.2-0.1-80.4-22.7c-13.3-11.1-20.4-23.5-23.8-29.4c-12.6-22.5-14.6-44-14.7-55.3L175.9,38.1z"/>
	<path class="st13" d="M-56.6,38.3c1.5-12.7,7.4-47.4,35.9-73C20.9-72,89.4-70.6,132.4-36.6c32.7,25.8,41.1,62.8,43.4,75.6"/>
	<line class="st13" x1="-51" y1="65.9" x2="-0.5" y2="36"/>
	<line class="st13" x1="-41.6" y1="89.7" x2="47.6" y2="37"/>
	<line class="st13" x1="-28.6" y1="111.7" x2="96.1" y2="38"/>
	<line class="st13" x1="-4.9" y1="129.5" x2="150" y2="37.9"/>
	<line class="st13" x1="29.7" y1="141.8" x2="174.9" y2="55.9"/>
	<line class="st13" x1="71.2" y1="143.4" x2="163.7" y2="88.7"/>
	<line class="st13" x1="132.2" y1="38" x2="171.2" y2="69.2"/>
	<line class="st13" x1="91.2" y1="38.1" x2="161.1" y2="93.6"/>
	<line class="st13" x1="50.5" y1="38.1" x2="146.3" y2="114.2"/>
	<line class="st13" x1="4.7" y1="36.6" x2="124.1" y2="131.5"/>
	<line class="st13" x1="-40.1" y1="36" x2="93.9" y2="142.4"/>
	<line class="st13" x1="-53.3" y1="58.2" x2="53.9" y2="143.4"/>
	<line class="st13" x1="-40.7" y1="93.6" x2="15.6" y2="138.3"/>
	<g class="st2">
		<path class="st5" d="M-11.3,5.5c-3.7-0.3-4-4.5-8.5-5.2c-4.9-0.8-9.2,3-10.9,6.9c-1.3,3.1-1.4,6.6-0.7,10c0.6,3.2,2,6.2,3.1,9.3
			c0.9,2.3,2.1,4.6,4.7,5.7c2.8,1.2,5.9,0.2,8.9,0c3.3-0.2,6,1.7,9.3,0.7c5.6-1.6,7.8-6.1,9.6-10.8C6.7,15.7,8.9,8.7,3.5,2.9
			C2.4,1.7,1,0.8-0.7,0.6C-5.3,0-6.9,5.8-11.3,5.5z"/>
		<path class="st5" d="M-11.5-8c0.7,1.1,1.7,3.1,1.8,5.8c0.2,3.3-1,5.9-1.6,7"/>
	</g>
	<g class="st2">
		<path class="st5" d="M34.9,5.5c-3.7-0.3-4-4.5-8.5-5.2c-4.9-0.8-9.2,3-10.9,6.9c-1.3,3.1-1.4,6.6-0.7,10c0.6,3.2,2,6.2,3.1,9.3
			c0.9,2.3,2.1,4.6,4.7,5.7c2.8,1.2,5.9,0.2,8.9,0c3.3-0.2,6,1.7,9.3,0.7c5.6-1.6,7.8-6.1,9.6-10.8c2.5-6.4,4.7-13.4-0.7-19.2
			c-1.1-1.2-2.5-2.1-4.2-2.3C41,0,39.4,5.8,34.9,5.5z"/>
		<path class="st5" d="M34.8-8c0.7,1.1,1.7,3.1,1.8,5.8c0.2,3.3-1,5.9-1.6,7"/>
	</g>
</g>
<g id="Layer_7_copy_3" class="st0">
	<path class="st12" d="M175.9,38.1c0,10.7-1.6,32.6-14.7,55.5c-3.9,6.8-12.9,22-30.6,34c-23.6,15.9-47.8,15.9-68,15.9
		c-20.5,0-53.2-0.1-80.4-22.7c-13.3-11.1-20.4-23.5-23.8-29.4c-12.6-22.5-14.6-44-14.7-55.3L175.9,38.1z"/>
	<path class="st13" d="M-56.6,38.3c1.5-12.7,7.4-47.4,35.9-73C20.9-72,89.4-70.6,132.4-36.6c32.7,25.8,41.1,62.8,43.4,75.6"/>
	<line class="st13" x1="-51" y1="65.9" x2="-0.5" y2="36"/>
	<line class="st13" x1="-41.6" y1="89.7" x2="47.6" y2="37"/>
	<line class="st13" x1="-28.6" y1="111.7" x2="96.1" y2="38"/>
	<line class="st13" x1="-4.9" y1="129.5" x2="150" y2="37.9"/>
	<line class="st13" x1="29.7" y1="141.8" x2="174.9" y2="55.9"/>
	<line class="st13" x1="71.2" y1="143.4" x2="163.7" y2="88.7"/>
	<line class="st13" x1="132.2" y1="38" x2="171.2" y2="69.2"/>
	<line class="st13" x1="91.2" y1="38.1" x2="161.1" y2="93.6"/>
	<line class="st13" x1="50.5" y1="38.1" x2="146.3" y2="114.2"/>
	<line class="st13" x1="4.7" y1="36.6" x2="124.1" y2="131.5"/>
	<line class="st13" x1="-40.1" y1="36" x2="93.9" y2="142.4"/>
	<line class="st13" x1="-53.3" y1="58.2" x2="53.9" y2="143.4"/>
	<line class="st13" x1="-40.7" y1="93.6" x2="15.6" y2="138.3"/>
	<g class="st2">
		<path class="st5" d="M-11.3,5.5c-3.7-0.3-4-4.5-8.5-5.2c-4.9-0.8-9.2,3-10.9,6.9c-1.3,3.1-1.4,6.6-0.7,10c0.6,3.2,2,6.2,3.1,9.3
			c0.9,2.3,2.1,4.6,4.7,5.7c2.8,1.2,5.9,0.2,8.9,0c3.3-0.2,6,1.7,9.3,0.7c5.6-1.6,7.8-6.1,9.6-10.8C6.7,15.7,8.9,8.7,3.5,2.9
			C2.4,1.7,1,0.8-0.7,0.6C-5.3,0-6.9,5.8-11.3,5.5z"/>
		<path class="st5" d="M-11.5-8c0.7,1.1,1.7,3.1,1.8,5.8c0.2,3.3-1,5.9-1.6,7"/>
	</g>
	<g class="st2">
		<path class="st5" d="M34.9,5.5c-3.7-0.3-4-4.5-8.5-5.2c-4.9-0.8-9.2,3-10.9,6.9c-1.3,3.1-1.4,6.6-0.7,10c0.6,3.2,2,6.2,3.1,9.3
			c0.9,2.3,2.1,4.6,4.7,5.7c2.8,1.2,5.9,0.2,8.9,0c3.3-0.2,6,1.7,9.3,0.7c5.6-1.6,7.8-6.1,9.6-10.8c2.5-6.4,4.7-13.4-0.7-19.2
			c-1.1-1.2-2.5-2.1-4.2-2.3C41,0,39.4,5.8,34.9,5.5z"/>
		<path class="st5" d="M34.8-8c0.7,1.1,1.7,3.1,1.8,5.8c0.2,3.3-1,5.9-1.6,7"/>
	</g>
	<g class="st2">
		<path class="st5" d="M80.1,5.5c-3.7-0.3-4-4.5-8.5-5.2c-4.9-0.8-9.2,3-10.9,6.9c-1.3,3.1-1.4,6.6-0.7,10c0.6,3.2,2,6.2,3.1,9.3
			c0.9,2.3,2.1,4.6,4.7,5.7c2.8,1.2,5.9,0.2,8.9,0c3.3-0.2,6,1.7,9.3,0.7c5.6-1.6,7.8-6.1,9.6-10.8c2.5-6.4,4.7-13.4-0.7-19.2
			c-1.1-1.2-2.5-2.1-4.2-2.3C86.2,0,84.6,5.8,80.1,5.5z"/>
		<path class="st5" d="M80-8c0.7,1.1,1.7,3.1,1.8,5.8c0.2,3.3-1,5.9-1.6,7"/>
	</g>
</g>
<g id="Layer_7_copy_4" class="st0">
	<path class="st12" d="M175.9,38.1c0,10.7-1.6,32.6-14.7,55.5c-3.9,6.8-12.9,22-30.6,34c-23.6,15.9-47.8,15.9-68,15.9
		c-20.5,0-53.2-0.1-80.4-22.7c-13.3-11.1-20.4-23.5-23.8-29.4c-12.6-22.5-14.6-44-14.7-55.3L175.9,38.1z"/>
	<path class="st13" d="M-56.6,38.3c1.5-12.7,7.4-47.4,35.9-73C20.9-72,89.4-70.6,132.4-36.6c32.7,25.8,41.1,62.8,43.4,75.6"/>
	<line class="st13" x1="-51" y1="65.9" x2="-0.5" y2="36"/>
	<line class="st13" x1="-41.6" y1="89.7" x2="47.6" y2="37"/>
	<line class="st13" x1="-28.6" y1="111.7" x2="96.1" y2="38"/>
	<line class="st13" x1="-4.9" y1="129.5" x2="150" y2="37.9"/>
	<line class="st13" x1="29.7" y1="141.8" x2="174.9" y2="55.9"/>
	<line class="st13" x1="71.2" y1="143.4" x2="163.7" y2="88.7"/>
	<line class="st13" x1="132.2" y1="38" x2="171.2" y2="69.2"/>
	<line class="st13" x1="91.2" y1="38.1" x2="161.1" y2="93.6"/>
	<line class="st13" x1="50.5" y1="38.1" x2="146.3" y2="114.2"/>
	<line class="st13" x1="4.7" y1="36.6" x2="124.1" y2="131.5"/>
	<line class="st13" x1="-40.1" y1="36" x2="93.9" y2="142.4"/>
	<line class="st13" x1="-53.3" y1="58.2" x2="53.9" y2="143.4"/>
	<line class="st13" x1="-40.7" y1="93.6" x2="15.6" y2="138.3"/>
	<g class="st2">
		<path class="st5" d="M-10.3,5.5c-3.7-0.3-4-4.5-8.5-5.2c-4.9-0.8-9.2,3-10.9,6.9c-1.3,3.1-1.4,6.6-0.7,10c0.6,3.2,2,6.2,3.1,9.3
			c0.9,2.3,2.1,4.6,4.7,5.7c2.8,1.2,5.9,0.2,8.9,0c3.3-0.2,6,1.7,9.3,0.7c5.6-1.6,7.8-6.1,9.6-10.8C7.7,15.7,9.9,8.7,4.5,2.9
			C3.4,1.7,2,0.8,0.3,0.6C-4.2,0-5.8,5.8-10.3,5.5z"/>
		<path class="st5" d="M-10.4-8c0.7,1.1,1.7,3.1,1.8,5.8c0.2,3.3-1,5.9-1.6,7"/>
	</g>
	<g class="st2">
		<path class="st5" d="M34.8,6.2c-3.7-0.3-4-4.5-8.5-5.2c-4.9-0.8-9.2,3-10.9,6.9c-1.3,3.1-1.4,6.6-0.7,10c0.6,3.2,2,6.2,3.1,9.3
			c0.9,2.3,2.1,4.6,4.7,5.7c2.8,1.2,5.9,0.2,8.9,0c3.3-0.2,6,1.7,9.3,0.7c5.6-1.6,7.8-6.1,9.6-10.8c2.5-6.4,4.7-13.4-0.7-19.2
			c-1.1-1.2-2.5-2.1-4.2-2.3C40.9,0.7,39.3,6.5,34.8,6.2z"/>
		<path class="st5" d="M34.7-7.4c0.7,1.1,1.7,3.1,1.8,5.8c0.2,3.3-1,5.9-1.6,7"/>
	</g>
	<g class="st2">
		<path class="st5" d="M80,6.2c-3.7-0.3-4-4.5-8.5-5.2c-4.9-0.8-9.2,3-10.9,6.9c-1.3,3.1-1.4,6.6-0.7,10c0.6,3.2,2,6.2,3.1,9.3
			c0.9,2.3,2.1,4.6,4.7,5.7c2.8,1.2,5.9,0.2,8.9,0c3.3-0.2,6,1.7,9.3,0.7c5.6-1.6,7.8-6.1,9.6-10.8c2.5-6.4,4.7-13.4-0.7-19.2
			c-1.1-1.2-2.5-2.1-4.2-2.3C86,0.7,84.5,6.5,80,6.2z"/>
		<path class="st5" d="M79.9-7.4c0.7,1.1,1.7,3.1,1.8,5.8c0.2,3.3-1,5.9-1.6,7"/>
	</g>
	<g class="st2">
		<path class="st5" d="M122.8,6.5c-3.7-0.3-4-4.5-8.5-5.2c-4.9-0.8-9.2,3-10.9,6.9c-1.3,3.1-1.4,6.6-0.7,10c0.6,3.2,2,6.2,3.1,9.3
			c0.9,2.3,2.1,4.6,4.7,5.7c2.8,1.2,5.9,0.2,8.9,0c3.3-0.2,6,1.7,9.3,0.7c5.6-1.6,7.8-6.1,9.6-10.8c2.5-6.4,4.7-13.4-0.7-19.2
			c-1.1-1.2-2.5-2.1-4.2-2.3C128.8,1,127.3,6.8,122.8,6.5z"/>
		<path class="st5" d="M122.6-7c0.7,1.1,1.7,3.1,1.8,5.8c0.2,3.3-1,5.9-1.6,7"/>
	</g>
</g>
</svg>
