<?xml version="1.0" encoding="utf-8"?>
<!-- Generator: Adobe Illustrator 21.1.0, SVG Export Plug-In . SVG Version: 6.00 Build 0)  -->
<svg version="1.1" id="Layer_1" xmlns="http://www.w3.org/2000/svg" xmlns:xlink="http://www.w3.org/1999/xlink" x="0px" y="0px"
	 viewBox="0 0 142.7 131.7" style="enable-background:new 0 0 142.7 131.7;" xml:space="preserve">
<style type="text/css">
	.st0{display:none;}
	.st1{display:inline;fill:#FFFFFF;stroke:#000000;stroke-miterlimit:10;}
	.st2{display:inline;}
	.st3{fill:#8C6E53;stroke:#603913;stroke-width:2;stroke-linejoin:round;stroke-miterlimit:10;}
	.st4{fill:#76C378;stroke:#009444;stroke-width:2;stroke-linejoin:round;stroke-miterlimit:10;}
	.st5{fill:#E7503F;stroke:#931A1D;stroke-width:2;stroke-linejoin:round;stroke-miterlimit:10;}
	.st6{fill:#605D5C;stroke:#3A3636;stroke-width:2;stroke-linejoin:round;stroke-miterlimit:10;}
	.st7{display:inline;fill:#E8E352;stroke:#B5BA4E;stroke-width:6;stroke-linejoin:round;stroke-miterlimit:10;}
	.st8{display:inline;fill:#AED693;stroke:#79AA67;stroke-width:6;stroke-linejoin:round;stroke-miterlimit:10;}
	.st9{fill:#E8E552;stroke:#E4C74A;stroke-width:6;stroke-linejoin:round;stroke-miterlimit:10;}
	.st10{fill:none;stroke:#E4C74A;stroke-width:6;stroke-linejoin:round;stroke-miterlimit:10;}
	.st11{display:inline;fill:none;stroke:#B5BA4E;stroke-width:6;stroke-linejoin:round;stroke-miterlimit:10;}
	.st12{display:inline;fill:#C08C49;stroke:#A56928;stroke-width:4;stroke-linejoin:round;stroke-miterlimit:10;}
	.st13{display:inline;fill:none;stroke:#A56928;stroke-width:4;stroke-linejoin:round;stroke-miterlimit:10;}
	.st14{display:inline;fill:#F1EB67;stroke:#E8E491;stroke-miterlimit:10;}
	.st15{display:inline;fill:#846628;}
	.st16{fill:#662C90;}
	.st17{fill:#2D6733;}
	.st18{fill:#846628;}
	.st19{fill:#E12C26;}
	.st20{display:inline;fill:#F9A51B;}
	.st21{fill:#5FC6D1;stroke:#5F7EAA;stroke-width:4;stroke-miterlimit:10;}
	.st22{fill:#5EC6D1;stroke:#5F7EAA;stroke-width:4;stroke-linejoin:round;stroke-miterlimit:10;}
	.st23{display:inline;fill:#8C6E53;stroke:#603913;stroke-width:2;stroke-linejoin:round;stroke-miterlimit:10;}
	.st24{display:inline;fill:#76C378;stroke:#009444;stroke-width:2;stroke-linejoin:round;stroke-miterlimit:10;}
</style>
<g id="Layer_1_copy" class="st0">
	<path class="st1" d="M213.5,208"/>
</g>
<g id="Layer_3" class="st0">
	<g class="st2">
		<path class="st3" d="M101.1,68.3c1.9,4.9-3.3,6.7-9.3,23.7c-4,11.2-5.2,25.9-7.4,55.1c-0.8,10.8-1.6,21.2-2,35.5
			c0,1.8-0.8,18.3,0.2,36.9c1.6,30,3.6,63.5,12.6,107.8c6.5,31.6,14.5,58.5,21.9,80l9,19.7c-3-2.9-7.4-7-12.7-12
			c-16.5-15.3-20.7-19.2-21.6-18.4c-1.3,1.1,5.6,9.4,10.7,24.7c3.1,9.4,5.6,21.7,3.4,22.6c-2.2,0.9-7.2-10.6-19.9-26
			c-9.7-11.8-22.9-24.7-26-22.6c-2.8,1.9,6.1,13.6,4.7,32.2c-0.6,8.6-3.2,18.4-6.2,18.5c-3.4,0.1-3.3-13.2-12.5-28.4
			c-6.1-10-18.3-24.3-26.6-21.6c-6.5,2.1-8,13.9-8.4,16.5c-2.4,18.3,9.7,31.4,7.6,32.8c-2.4,1.6-18.8-10.7-24.6-29.7
			c-2.6-8.4-2.4-15.8-5.1-16.1c-2.8-0.4-4.3,7.6-11.9,17c-6.6,8.2-15.9,15.1-17.8,13.6c-2.3-1.8,5.5-14.7,9.7-22.6
			c10.5-19.8,13.1-40.1,20.8-80.3c2.3-12.2,4.1-23.6,5.5-34.3c1.9-14.7,5.4-41.3,5.6-73.6C1,166.6-7.3,104.2-10.3,92
			s-8.2-22.3-9.7-23.5l0,0C-20.1,66.3,92.5,46,101.1,68.3z"/>
		<path class="st4" d="M199.4,19.5c-0.7-5.8-2.3-19-12.2-30.6c-9.7-11.4-22.6-15.6-31.6-18.5c-12.1-3.9-21.7-4.2-21.7-5.9
			s8.7-1.3,17.3-4.4c14.3-5.1,25.5-18.4,30.2-31.7c9.5-26.9-8.4-51.2-11.8-55.8c-15.9-21.6-39.3-26.6-48.3-27.9
			c-1.2-0.2-2.1-0.3-2.9-0.4c-6.8-0.7-37.4-4.1-47.8,10.5c-5.5,7.7-3.6,16.4-6.5,16.7c-3.1,0.3-4.8-10.5-9.6-18.5
			C40.8-169.6-2-175.5-32.3-163.1c-6.9,2.8-20.6,8.7-28.6,22.9c-2.3,4.2-8.7,15.6-5.3,27.1c1.9,6.3,5.5,8.4,4.3,10.7
			c-2.6,5.1-20.8-5.5-42.6,0c-4.9,1.2-13.9,3.6-21.9,10.9c-12.8,11.8-19.2,33.2-11.9,50.7C-130.5-22-110-15-104.7-13.2
			C-95.3-10-86-9.5-86-8c-0.1,1.8-12.8-0.8-23.9,6c-11.4,6.9-17,21.3-17.2,33.6c0,3.2,0.1,15.7,9,26.9c10.9,13.8,29.9,17.9,44,16.4
			c16.2-1.7,22.2-10.6,41.4-9.3c8.8,0.6,12.4,2.8,14.5,4.5c4.8,4,112.7,5.4,121,0.1c11.5-7.3,24.1,8,47.7,6.5
			c17.3-1.1,36.9-11,45.1-27.9C201.4,37.1,200.1,25.6,199.4,19.5z"/>
		<g>
			<path class="st5" d="M323.3,0.6c-1.9-0.1-2.1-2.6-4.5-3c-2.6-0.4-4.9,1.7-5.8,4c-0.7,1.8-0.7,3.8-0.4,5.7c0.3,1.9,1,3.6,1.7,5.3
				c0.5,1.3,1.1,2.6,2.5,3.3c1.5,0.7,3.1,0.1,4.7,0c1.7-0.1,3.2,1,4.9,0.4c2.9-0.9,4.1-3.5,5.1-6.2c1.3-3.7,2.5-7.7-0.3-11
				c-0.6-0.7-1.3-1.2-2.2-1.3C326.5-2.5,325.7,0.8,323.3,0.6z"/>
			<path class="st5" d="M323.3-7.2c0.3,0.6,0.9,1.8,1,3.3c0.1,1.9-0.5,3.4-0.8,4"/>
		</g>
		<g>
			<path class="st5" d="M342.8,157.8c-1.9-0.1-2.1-2.6-4.5-3c-2.6-0.4-4.9,1.7-5.8,4c-0.7,1.8-0.7,3.8-0.4,5.7
				c0.3,1.9,1,3.6,1.7,5.3c0.5,1.3,1.1,2.6,2.5,3.3c1.5,0.7,3.1,0.1,4.7,0c1.7-0.1,3.2,1,4.9,0.4c2.9-0.9,4.1-3.5,5.1-6.2
				c1.3-3.7,2.5-7.7-0.3-11c-0.6-0.7-1.3-1.2-2.2-1.3C346,154.7,345.1,158,342.8,157.8z"/>
			<path class="st5" d="M342.7,150.1c0.3,0.6,0.9,1.8,1,3.3c0.1,1.9-0.5,3.4-0.8,4"/>
		</g>
		<g>
			<path class="st5" d="M322.5-42c-1.9-0.1-2.1-2.6-4.5-3c-2.6-0.4-4.9,1.7-5.8,4c-0.7,1.8-0.7,3.8-0.4,5.7s1,3.6,1.7,5.3
				c0.5,1.3,1.1,2.6,2.5,3.3c1.5,0.7,3.1,0.1,4.7,0c1.7-0.1,3.2,1,4.9,0.4c2.9-0.9,4.1-3.5,5.1-6.2c1.3-3.7,2.5-7.7-0.3-11
				c-0.6-0.7-1.3-1.2-2.2-1.3C325.7-45.2,324.8-41.9,322.5-42z"/>
			<path class="st5" d="M322.4-49.8c0.3,0.6,0.9,1.8,1,3.3c0.1,1.9-0.5,3.4-0.8,4"/>
		</g>
		<g>
			<path class="st5" d="M335.5,64.2c-1.9-0.1-2.1-2.6-4.5-3c-2.6-0.4-4.9,1.7-5.8,4c-0.7,1.8-0.7,3.8-0.4,5.7c0.3,1.9,1,3.6,1.7,5.3
				c0.5,1.3,1.1,2.6,2.5,3.3c1.5,0.7,3.1,0.1,4.7,0c1.7-0.1,3.2,1,4.9,0.4c2.9-0.9,4.1-3.5,5.1-6.2c1.3-3.7,2.5-7.7-0.3-11
				c-0.6-0.7-1.3-1.2-2.2-1.3C338.7,61.1,337.9,64.4,335.5,64.2z"/>
			<path class="st5" d="M335.4,56.4c0.3,0.6,0.9,1.8,1,3.3c0.1,1.9-0.5,3.4-0.8,4"/>
		</g>
		<g>
			<path class="st5" d="M312.1-103c-1.9-0.1-2.1-2.6-4.5-3c-2.6-0.4-4.9,1.7-5.8,4c-0.7,1.8-0.7,3.8-0.4,5.7s1,3.6,1.7,5.3
				c0.5,1.3,1.1,2.6,2.5,3.3c1.5,0.7,3.1,0.1,4.7,0c1.7-0.1,3.2,1,4.9,0.4c2.9-0.9,4.1-3.5,5.1-6.2c1.3-3.7,2.5-7.7-0.3-11
				c-0.6-0.7-1.3-1.2-2.2-1.3C315.3-106.1,314.5-102.8,312.1-103z"/>
			<path class="st5" d="M312-110.8c0.3,0.6,0.9,1.8,1,3.3c0.1,1.9-0.5,3.4-0.8,4"/>
		</g>
		<g>
			<path class="st5" d="M327.2,33.6c-1.9-0.1-2.1-2.6-4.5-3c-2.6-0.4-4.9,1.7-5.8,4c-0.7,1.8-0.7,3.8-0.4,5.7c0.3,1.9,1,3.6,1.7,5.3
				c0.5,1.3,1.1,2.6,2.5,3.3c1.5,0.7,3.1,0.1,4.7,0c1.7-0.1,3.2,1,4.9,0.4c2.9-0.9,4.1-3.5,5.1-6.2c1.3-3.7,2.5-7.7-0.3-11
				c-0.6-0.7-1.3-1.2-2.2-1.3C330.4,30.4,329.6,33.7,327.2,33.6z"/>
			<path class="st5" d="M327.1,25.8c0.3,0.6,0.9,1.8,1,3.3c0.1,1.9-0.5,3.4-0.8,4"/>
		</g>
		<g>
			<path class="st5" d="M325.7-70.2c-1.9-0.1-2.1-2.6-4.5-3c-2.6-0.4-4.9,1.7-5.8,4c-0.7,1.8-0.7,3.8-0.4,5.7s1,3.6,1.7,5.3
				c0.5,1.3,1.1,2.6,2.5,3.3c1.5,0.7,3.1,0.1,4.7,0c1.7-0.1,3.2,1,4.9,0.4c2.9-0.9,4.1-3.5,5.1-6.2c1.3-3.7,2.5-7.7-0.3-11
				c-0.6-0.7-1.3-1.2-2.2-1.3C328.9-73.3,328.1-70,325.7-70.2z"/>
			<path class="st5" d="M325.7-78c0.3,0.6,0.9,1.8,1,3.3c0.1,1.9-0.5,3.4-0.8,4"/>
		</g>
		<g>
			<path class="st5" d="M367.5-72.5c-1.9-0.1-2.1-2.6-4.5-3c-2.6-0.4-4.9,1.7-5.8,4c-0.7,1.8-0.7,3.8-0.4,5.7s1,3.6,1.7,5.3
				c0.5,1.3,1.1,2.6,2.5,3.3c1.5,0.7,3.1,0.1,4.7,0c1.7-0.1,3.2,1,4.9,0.4c2.9-0.9,4.1-3.5,5.1-6.2c1.3-3.7,2.5-7.7-0.3-11
				c-0.6-0.7-1.3-1.2-2.2-1.3C370.7-75.6,369.9-72.3,367.5-72.5z"/>
			<path class="st5" d="M367.5-80.2c0.3,0.6,0.9,1.8,1,3.3c0.1,1.9-0.5,3.4-0.8,4"/>
		</g>
	</g>
	<g class="st2">
		<path class="st5" d="M108.4,114.4c-4.4-0.3-4.8-5.2-10.2-6c-5.9-0.9-11.1,3.4-13.1,8c-1.6,3.6-1.6,7.7-0.9,11.5
			c0.8,3.7,2.3,7.2,3.8,10.7c1.1,2.7,2.6,5.3,5.7,6.5c3.4,1.4,7.1,0.2,10.7,0c4-0.2,7.2,2,11.1,0.8c6.7-1.9,9.3-7,11.6-12.4
			c3-7.4,5.6-15.4-0.8-22.1c-1.3-1.3-3-2.4-5-2.7C115.6,108.1,113.7,114.8,108.4,114.4z"/>
		<path class="st5" d="M108.2,98.8c0.8,1.3,2,3.6,2.2,6.7c0.3,3.9-1.2,6.8-1.9,8.1"/>
	</g>
</g>
<g id="Layer_3_copy" class="st0">
	<g class="st2">
		<path class="st3" d="M89.6,66.9c1.9,4.9-3.3,6.7-9.3,23.7c-4,11.2-5.2,25.9-7.4,55.1c-0.8,10.8-1.6,21.2-2,35.5
			c0,1.8-0.8,18.3,0.2,36.9c1.6,30,3.6,63.5,12.6,107.8c6.5,31.6,14.5,58.5,21.9,80l9,19.7c-3-2.9-7.4-7-12.7-12
			c-16.5-15.3-20.7-19.2-21.6-18.4c-1.3,1.1,5.6,9.4,10.7,24.7c3.1,9.4,5.6,21.7,3.4,22.6c-2.2,0.9-7.2-10.6-19.9-26
			c-9.7-11.8-22.9-24.7-26-22.6c-2.8,1.9,6.1,13.6,4.7,32.2c-0.6,8.6-3.2,18.4-6.2,18.5c-3.4,0.1-3.3-13.2-12.5-28.4
			c-6.1-10-18.3-24.3-26.6-21.6c-6.5,2.1-8,13.9-8.4,16.5c-2.4,18.3,9.7,31.4,7.6,32.8c-2.4,1.6-18.8-10.7-24.6-29.7
			c-2.6-8.4-2.4-15.8-5.1-16.1c-2.8-0.4-4.3,7.6-11.9,17c-6.6,8.2-15.9,15.1-17.8,13.6c-2.3-1.8,5.5-14.7,9.7-22.6
			c10.5-19.8,13.1-40.1,20.8-80.3c2.3-12.2,4.1-23.6,5.5-34.3c1.9-14.7,5.4-41.3,5.6-73.6c0.2-52.7-8.1-115.1-11.1-127.3
			s-8.2-22.3-9.7-23.5l0,0C-31.6,65,80.9,44.7,89.6,66.9z"/>
		<path class="st4" d="M187.8,18.1c-0.7-5.8-2.3-19-12.2-30.6C165.9-23.9,153-28.1,144-31c-12.1-3.9-21.7-4.2-21.7-5.9
			s8.7-1.3,17.3-4.4c14.3-5.1,25.5-18.4,30.2-31.7c9.5-26.9-8.4-51.2-11.8-55.8c-15.9-21.6-39.3-26.6-48.3-27.9
			c-1.2-0.2-2.1-0.3-2.9-0.4c-6.8-0.7-37.4-4.1-47.8,10.5c-5.5,7.7-3.6,16.4-6.5,16.7c-3.1,0.3-4.8-10.5-9.6-18.5
			c-13.7-22.6-56.5-28.5-86.8-16.1c-6.9,2.8-20.6,8.7-28.6,22.9c-2.3,4.2-8.7,15.6-5.3,27.1c1.9,6.3,5.5,8.4,4.3,10.7
			c-2.6,5.1-20.8-5.5-42.6,0c-4.9,1.2-13.9,3.6-21.9,10.9c-12.8,11.8-19.2,33.2-11.9,50.7c7.8,18.8,28.3,25.8,33.6,27.6
			c9.4,3.2,18.7,3.7,18.7,5.2c-0.1,1.8-12.8-0.8-23.9,6c-11.4,6.9-17,21.3-17.2,33.6c0,3.2,0.1,15.7,9,26.9
			c10.9,13.8,29.9,17.9,44,16.4c16.2-1.7,22.2-10.6,41.4-9.3c8.8,0.6,12.4,2.8,14.5,4.5c4.8,4,112.7,5.4,121,0.1
			c11.5-7.3,24.1,8,47.7,6.5c17.3-1.1,36.9-11,45.1-27.9C189.8,35.8,188.5,24.2,187.8,18.1z"/>
		<g>
			<path class="st6" d="M-67.4,37.1c-1.9-0.1-2.1-2.6-4.5-3c-2.6-0.4-4.9,1.7-5.8,4c-0.7,1.8-0.7,3.8-0.4,5.7c0.3,1.9,1,3.6,1.7,5.3
				c0.5,1.3,1.1,2.6,2.5,3.3c1.5,0.7,3.1,0.1,4.7,0c1.7-0.1,3.2,1,4.9,0.4c2.9-0.9,4.1-3.5,5.1-6.2c1.3-3.7,2.5-7.7-0.3-11
				c-0.6-0.7-1.3-1.2-2.2-1.3C-64.2,33.9-65,37.3-67.4,37.1z"/>
			<path class="st6" d="M-67.5,29.3c0.3,0.6,0.9,1.8,1,3.3c0.1,1.9-0.5,3.4-0.8,4"/>
		</g>
		<g>
			<path class="st5" d="M-78.7-67c-1.9-0.1-2.1-2.6-4.5-3c-2.6-0.4-4.9,1.7-5.8,4c-0.7,1.8-0.7,3.8-0.4,5.7s1,3.6,1.7,5.3
				c0.5,1.3,1.1,2.6,2.5,3.3c1.5,0.7,3.1,0.1,4.7,0c1.7-0.1,3.2,1,4.9,0.4c2.9-0.9,4.1-3.5,5.1-6.2c1.3-3.7,2.5-7.7-0.3-11
				c-0.6-0.7-1.3-1.2-2.2-1.3C-75.5-70.1-76.4-66.8-78.7-67z"/>
			<path class="st5" d="M-78.8-74.8c0.3,0.6,0.9,1.8,1,3.3c0.1,1.9-0.5,3.4-0.8,4"/>
		</g>
		<g>
			<path class="st5" d="M-8.6-24.2c-1.9-0.1-2.1-2.6-4.5-3c-2.6-0.4-4.9,1.7-5.8,4c-0.7,1.8-0.7,3.8-0.4,5.7s1,3.6,1.7,5.3
				c0.5,1.3,1.1,2.6,2.5,3.3c1.5,0.7,3.1,0.1,4.7,0c1.7-0.1,3.2,1,4.9,0.4c2.9-0.9,4.1-3.5,5.1-6.2c1.3-3.7,2.5-7.7-0.3-11
				C-1.3-26.4-2-26.9-2.9-27C-5.5-27.3-6.3-24-8.6-24.2z"/>
			<path class="st5" d="M-8.7-32c0.3,0.6,0.9,1.8,1,3.3c0.1,1.9-0.5,3.4-0.8,4"/>
		</g>
		<g>
			<path class="st5" d="M52.5,34.1c-1.9-0.1-2.1-2.6-4.5-3c-2.6-0.4-4.9,1.7-5.8,4c-0.7,1.8-0.7,3.8-0.4,5.7c0.3,1.9,1,3.6,1.7,5.3
				c0.5,1.3,1.1,2.6,2.5,3.3c1.5,0.7,3.1,0.1,4.7,0c1.7-0.1,3.2,1,4.9,0.4c2.9-0.9,4.1-3.5,5.1-6.2c1.3-3.7,2.5-7.7-0.3-11
				c-0.6-0.7-1.3-1.2-2.2-1.3C55.7,30.9,54.9,34.2,52.5,34.1z"/>
			<path class="st5" d="M52.4,26.3c0.3,0.6,0.9,1.8,1,3.3c0.1,1.9-0.5,3.4-0.8,4"/>
		</g>
		<g>
			<path class="st5" d="M114.1-109.3c-1.9-0.1-2.1-2.6-4.5-3c-2.6-0.4-4.9,1.7-5.8,4c-0.7,1.8-0.7,3.8-0.4,5.7
				c0.3,1.9,1,3.6,1.7,5.3c0.5,1.3,1.1,2.6,2.5,3.3c1.5,0.7,3.1,0.1,4.7,0c1.7-0.1,3.2,1,4.9,0.4c2.9-0.9,4.1-3.5,5.1-6.2
				c1.3-3.7,2.5-7.7-0.3-11c-0.6-0.7-1.3-1.2-2.2-1.3C117.3-112.5,116.4-109.2,114.1-109.3z"/>
			<path class="st5" d="M114-117.1c0.3,0.6,0.9,1.8,1,3.3c0.1,1.9-0.5,3.4-0.8,4"/>
		</g>
		<g>
			<path class="st5" d="M142.7,15.8c-1.9-0.1-2.1-2.6-4.5-3c-2.6-0.4-4.9,1.7-5.8,4c-0.7,1.8-0.7,3.8-0.4,5.7c0.3,1.9,1,3.6,1.7,5.3
				c0.5,1.3,1.1,2.6,2.5,3.3c1.5,0.7,3.1,0.1,4.7,0c1.7-0.1,3.2,1,4.9,0.4c2.9-0.9,4.1-3.5,5.1-6.2c1.3-3.7,2.5-7.7-0.3-11
				c-0.6-0.7-1.3-1.2-2.2-1.3C145.9,12.7,145.1,16,142.7,15.8z"/>
			<path class="st5" d="M142.6,8.1c0.3,0.6,0.9,1.8,1,3.3c0.1,1.9-0.5,3.4-0.8,4"/>
		</g>
		<g>
			<path class="st5" d="M70.8-45.2c-1.9-0.1-2.1-2.6-4.5-3c-2.6-0.4-4.9,1.7-5.8,4c-0.7,1.8-0.7,3.8-0.4,5.7c0.3,1.9,1,3.6,1.7,5.3
				c0.5,1.3,1.1,2.6,2.5,3.3c1.5,0.7,3.1,0.1,4.7,0c1.7-0.1,3.2,1,4.9,0.4c2.9-0.9,4.1-3.5,5.1-6.2c1.3-3.7,2.5-7.7-0.3-11
				c-0.6-0.7-1.3-1.2-2.2-1.3C74-48.4,73.1-45,70.8-45.2z"/>
			<path class="st5" d="M70.7-53c0.3,0.6,0.9,1.8,1,3.3c0.1,1.9-0.5,3.4-0.8,4"/>
		</g>
		<g>
			<path class="st5" d="M-18.8-116.1c-1.9-0.1-2.1-2.6-4.5-3c-2.6-0.4-4.9,1.7-5.8,4c-0.7,1.8-0.7,3.8-0.4,5.7s1,3.6,1.7,5.3
				c0.5,1.3,1.1,2.6,2.5,3.3c1.5,0.7,3.1,0.1,4.7,0c1.7-0.1,3.2,1,4.9,0.4c2.9-0.9,4.1-3.5,5.1-6.2c1.3-3.7,2.5-7.7-0.3-11
				c-0.6-0.7-1.3-1.2-2.2-1.3C-15.7-119.2-16.5-115.9-18.8-116.1z"/>
			<path class="st5" d="M-18.9-123.9c0.3,0.6,0.9,1.8,1,3.3c0.1,1.9-0.5,3.4-0.8,4"/>
		</g>
		<g>
			<path class="st6" d="M70.8-45.2c-1.9-0.1-2.1-2.6-4.5-3c-2.6-0.4-4.9,1.7-5.8,4c-0.7,1.8-0.7,3.8-0.4,5.7c0.3,1.9,1,3.6,1.7,5.3
				c0.5,1.3,1.1,2.6,2.5,3.3c1.5,0.7,3.1,0.1,4.7,0c1.7-0.1,3.2,1,4.9,0.4c2.9-0.9,4.1-3.5,5.1-6.2c1.3-3.7,2.5-7.7-0.3-11
				c-0.6-0.7-1.3-1.2-2.2-1.3C74-48.4,73.1-45,70.8-45.2z"/>
			<path class="st6" d="M70.7-53c0.3,0.6,0.9,1.8,1,3.3c0.1,1.9-0.5,3.4-0.8,4"/>
		</g>
		<g>
			<path class="st6" d="M-8.6-24.2c-1.9-0.1-2.1-2.6-4.5-3c-2.6-0.4-4.9,1.7-5.8,4c-0.7,1.8-0.7,3.8-0.4,5.7s1,3.6,1.7,5.3
				c0.5,1.3,1.1,2.6,2.5,3.3c1.5,0.7,3.1,0.1,4.7,0c1.7-0.1,3.2,1,4.9,0.4c2.9-0.9,4.1-3.5,5.1-6.2c1.3-3.7,2.5-7.7-0.3-11
				C-1.3-26.4-2-26.9-2.9-27C-5.5-27.3-6.3-24-8.6-24.2z"/>
			<path class="st6" d="M-8.7-32c0.3,0.6,0.9,1.8,1,3.3c0.1,1.9-0.5,3.4-0.8,4"/>
		</g>
		<g>
			<path class="st6" d="M52.5,34.1c-1.9-0.1-2.1-2.6-4.5-3c-2.6-0.4-4.9,1.7-5.8,4c-0.7,1.8-0.7,3.8-0.4,5.7c0.3,1.9,1,3.6,1.7,5.3
				c0.5,1.3,1.1,2.6,2.5,3.3c1.5,0.7,3.1,0.1,4.7,0c1.7-0.1,3.2,1,4.9,0.4c2.9-0.9,4.1-3.5,5.1-6.2c1.3-3.7,2.5-7.7-0.3-11
				c-0.6-0.7-1.3-1.2-2.2-1.3C55.7,30.9,54.9,34.2,52.5,34.1z"/>
			<path class="st6" d="M52.4,26.3c0.3,0.6,0.9,1.8,1,3.3c0.1,1.9-0.5,3.4-0.8,4"/>
		</g>
	</g>
</g>
<g id="Layer_5" class="st0">
	<ellipse class="st7" cx="62.9" cy="160.2" rx="119.8" ry="146.8"/>
	<path class="st8" d="M13.9,151.6c-4.4-0.1-14-16.3-16-18.9c-9.5-12-17.8-24.9-29.4-36.2c3.4,3.2,51.7,18.3,53.3,18.1
		c10.4-1,17-20.2,21.8-25.2c-2.8,2.9,34.5,24.4,39.1,27.8c0.1,0.1,34.1-21.4,36.6-24.3c8.6,9.3,17.3,18.5,25.9,27.8
		c-1.6-2.4,41.7-20.7,46.7-23.2c-5.3,2.7-23.1,46.1-29.6,59C112.8,154.8,63.4,153.2,13.9,151.6z"/>
	<path class="st8" d="M34.7,191c-3.4-0.1-10.5-16.1-12.1-18.7c-7.1-11.8-13.3-24.6-22.1-35.8c2.5,3.2,39.6,17.5,40.8,17.3
		c8-1.1,13.4-20.5,17.1-25.5c-2.2,2.9,26.2,23.9,29.7,27.2c0.1,0.1,26.6-21.9,28.5-24.8c6.5,9.1,13.1,18.2,19.6,27.4
		c-1.2-2.4,32.4-21.3,36.3-23.9c-4.2,2.7-18.5,46.4-23.6,59.4C110.8,192.8,72.8,191.9,34.7,191z"/>
	<path class="st8" d="M47.7,222.3c-2.7,0-8.2-16-9.4-18.5c-5.6-11.7-10.4-24.5-17.3-35.5c2,3.2,31.5,17,32.5,16.8
		c6.4-1.2,11-20.6,14-25.7c-1.8,2.9,20.7,23.6,23.5,26.8c0,0.1,21.6-22.2,23.2-25.2c5.1,9,10.2,18.1,15.3,27.1
		c-1-2.4,26.2-21.7,29.4-24.3c-3.4,2.8-15.4,46.6-19.7,59.6C108.6,223.1,78.1,222.7,47.7,222.3z"/>
</g>
<g id="Layer_12">
	<path class="st9" d="M132,7.3c0,0-56-2.9-73.1,2.8c-17.2,5.8-43.1,34.7-47.3,49.1c-4.2,14.3-3.2,62-3.2,62l122.3-0.1L132,7.3z"/>
	<line class="st10" x1="12" y1="76.3" x2="97.4" y2="6"/>
	<line class="st10" x1="9.3" y1="115.6" x2="129.7" y2="20.9"/>
	<line class="st10" x1="66.2" y1="119.6" x2="129.7" y2="68.2"/>
	<line class="st10" x1="11.3" y1="53" x2="103.3" y2="117.9"/>
	<line class="st10" x1="31" y1="27.6" x2="129.7" y2="98"/>
	<line class="st10" x1="58.9" y1="10.1" x2="131.1" y2="52"/>
	<line class="st10" x1="6.6" y1="92.6" x2="50.8" y2="120.1"/>
</g>
<g id="Layer_6" class="st0">
	<line class="st11" x1="-56.9" y1="166.5" x2="82.9" y2="15.5"/>
	<line class="st11" x1="-48.2" y1="210.6" x2="119.2" y2="29.7"/>
	<line class="st11" x1="-31.9" y1="246.9" x2="145.2" y2="55.6"/>
	<line class="st11" x1="-10.4" y1="277.7" x2="166.7" y2="86.4"/>
	<line class="st11" x1="20.2" y1="297" x2="179.4" y2="126"/>
	<line class="st11" x1="68.4" y1="307.5" x2="181.4" y2="182.1"/>
	<line class="st11" x1="170.5" y1="229.4" x2="-14.1" y2="50.2"/>
	<line class="st11" x1="147" y1="264.7" x2="-39.2" y2="85"/>
	<line class="st11" x1="115.5" y1="295.6" x2="-54.4" y2="130.6"/>
	<line class="st11" x1="182.4" y1="183.1" x2="15.8" y2="23.1"/>
	<line class="st11" x1="179.4" y1="126" x2="69.3" y2="13.9"/>
	<line class="st11" x1="68.4" y1="307.5" x2="-56.9" y2="182.1"/>
	<line class="st11" x1="-50.3" y1="110.8" x2="36.6" y2="17"/>
</g>
<g id="Layer_7" class="st0">
	<path class="st12" d="M176,34.1c0,10.7-1.6,32.6-14.7,55.5c-3.9,6.8-12.9,22-30.6,34c-23.6,15.9-47.8,15.9-68,15.9
		c-20.5,0-53.2-0.1-80.4-22.7C-31,105.7-38.1,93.3-41.5,87.4c-12.6-22.5-14.6-44-14.7-55.3L176,34.1z"/>
	<path class="st13" d="M-56.5,34.3c1.5-12.7,7.4-47.4,35.9-73C21-76,89.5-74.6,132.5-40.6c32.7,25.8,41.1,62.8,43.4,75.6"/>
	<line class="st13" x1="-50.9" y1="61.9" x2="-0.4" y2="32"/>
	<line class="st13" x1="-41.5" y1="85.7" x2="47.7" y2="33"/>
	<line class="st13" x1="-28.5" y1="107.7" x2="96.2" y2="34"/>
	<line class="st13" x1="-4.8" y1="125.5" x2="150.1" y2="33.9"/>
	<line class="st13" x1="29.8" y1="137.8" x2="175" y2="51.9"/>
	<line class="st13" x1="71.3" y1="139.4" x2="163.8" y2="84.7"/>
	<line class="st13" x1="132.3" y1="34" x2="171.3" y2="65.2"/>
	<line class="st13" x1="91.3" y1="34.1" x2="161.2" y2="89.6"/>
	<line class="st13" x1="50.6" y1="34.1" x2="146.4" y2="110.2"/>
	<line class="st13" x1="4.8" y1="32.6" x2="124.2" y2="127.5"/>
	<line class="st13" x1="-40" y1="32" x2="94" y2="138.4"/>
	<line class="st13" x1="-53.2" y1="54.2" x2="54" y2="139.4"/>
	<line class="st13" x1="-40.6" y1="89.6" x2="15.7" y2="134.3"/>
</g>
<g id="Layer_7_copy_5" class="st0">
	<path class="st14" d="M84.7,27.8c4.4-6,14.8-16.4,15.2-23.6c0.4-7.3,0.8-30.8,2-35.6s9.4,7.8,10.2,12.6c0.8,4.8,3.9,19.9,2.5,25.2
		s-6.5,15.7-9.7,18.5s-7.3,8-13.2,12c-6.1,2.4-10,6.6-16.1,6.6C69.5,43.6,80.3,33.9,84.7,27.8z"/>
	<path class="st14" d="M107.1,29.4c2.5-6.8,9.5-19.2,7.8-25.9s-8-28.2-8.2-32.8c-0.2-4.7,11.2,4.3,13.3,8.4
		c2.1,4.1,9.4,16.9,9.5,22.1c0.1,5.2-1.8,16.2-4,19.7s-4.7,9.4-9.2,14.8c-5.1,4-7.7,8.9-13.5,10.8C97.1,48.2,104.7,36.1,107.1,29.4z
		"/>
	<path class="st14" d="M64,13.6c6.2-3.6,19.6-8.7,22.6-15c3-6.2,11.9-26.7,14.7-30.5c2.8-3.7,5.9,10.5,4.9,15s-3.6,19-6.8,23.1
		c-3.2,4.1-11.7,11.3-15.7,12.6c-3.9,1.3-9.6,4.3-16.5,5.5c-6.5-0.3-11.6,2-17.3-0.4S57.8,17.2,64,13.6z"/>
	<path class="st15" d="M100.6-29.3c0.2-3.8,0-15,0-18.5s10.5-3.5,10.5,0s2.4,15,0,18.5C108.8-25.8,100.4-25.5,100.6-29.3z"/>
	<g class="st2">
		
			<ellipse transform="matrix(0.8054 -0.5928 0.5928 0.8054 -19.0313 -26.1133)" class="st16" cx="-49.3" cy="15.9" rx="8.5" ry="8.9"/>
		
			<ellipse transform="matrix(0.8054 -0.5928 0.5928 0.8054 -10.4098 -19.9369)" class="st16" cx="-35.6" cy="5.9" rx="8.5" ry="8.9"/>
		<ellipse transform="matrix(0.8054 -0.5928 0.5928 0.8054 -1.8028 -13.8475)" class="st16" cx="-22" cy="-4.2" rx="8.5" ry="8.9"/>
		<ellipse transform="matrix(0.8054 -0.5928 0.5928 0.8054 6.8187 -7.6711)" class="st16" cx="-8.3" cy="-14.2" rx="8.5" ry="8.9"/>
		
			<ellipse transform="matrix(0.8054 -0.5928 0.5928 0.8054 -20.2773 -15.191)" class="st16" cx="-33.3" cy="23.3" rx="8.5" ry="8.9"/>
		
			<ellipse transform="matrix(0.8054 -0.5928 0.5928 0.8054 -11.6703 -9.1016)" class="st16" cx="-19.7" cy="13.2" rx="8.5" ry="8.9"/>
		<ellipse transform="matrix(0.8054 -0.5928 0.5928 0.8054 -3.0487 -2.9252)" class="st16" cx="-6" cy="3.2" rx="8.5" ry="8.9"/>
		
			<ellipse transform="matrix(0.8054 -0.5928 0.5928 0.8054 -21.6523 -4.1643)" class="st16" cx="-17.2" cy="30.9" rx="8.5" ry="8.9"/>
		<ellipse transform="matrix(0.8054 -0.5928 0.5928 0.8054 -13.0454 1.925)" class="st16" cx="-3.6" cy="20.8" rx="8.5" ry="8.9"/>
		<ellipse transform="matrix(0.8054 -0.5928 0.5928 0.8054 -22.9288 6.7484)" class="st16" cx="-1.2" cy="38.3" rx="8.5" ry="8.9"/>
		<path class="st17" d="M-35.4-4.2C-35.7-2.8-45-2-46.3-2.4c-1.9,0.2-11.3-4.7-10.8-7.2s10.2-3.1,11.9-2.6S-35.1-5.7-35.4-4.2z"/>
		<path class="st17" d="M-32.7-29.5c2.9,0.8,4.4,12.7,4.5,14.7s-6.9,11.3-8.1,11.3c-1.2,0-6.4-11.1-5.3-14.9
			C-40.4-22.2-35.5-30.3-32.7-29.5z"/>
	</g>
	<g class="st2">
		<path class="st18" d="M33.3,9.1c0,0,1.1-13.5,0.8-18.9s-2.2-6.1-2.5-10.5c-1.5-3,5.2-1,6.7,0.3s3.3,8.9,3.1,14.8
			c-0.2,5.9-0.6,14.7-0.6,14.7L33.3,9.1z"/>
		<ellipse transform="matrix(0.1431 -0.9897 0.9897 0.1431 5.2066 54.0805)" class="st19" cx="33.8" cy="24" rx="26" ry="26"/>
	</g>
	<ellipse transform="matrix(0.1431 -0.9897 0.9897 0.1431 111.6839 166.1094)" class="st20" cx="151.8" cy="18.6" rx="26" ry="26"/>
	<g class="st2">
		<path class="st21" d="M29.6,166.8c-1.6,0.9-3,5.3-1.6,6.8s68.9,2.5,70.2,0.5s0.3-4.9-2.1-6.7C93.7,165.5,31.2,166,29.6,166.8z"/>
		<path class="st21" d="M-82.1,47.6c0.1,2,6.3,3.5,18.6,6.6C-28.2,63-0.3,62.4,20,62c78.2-1.5,61.8,0.1,92.1-1.4
			c45.5-2.2,92.1-4.4,92.5-10.9c0-0.7-0.4-4-22.3-9.2C88.8,18-83,34-82.1,47.6z"/>
		<path class="st22" d="M177,58.1c0,10.7-1.6,32.6-14.7,55.5c-3.9,6.8-12.9,22-30.6,34c-23.6,15.9-47.8,15.9-68,15.9
			c-20.5,0-53.2-0.1-80.4-22.7c-13.3-11.1-20.4-23.5-23.8-29.4c-12.6-22.5-14.6-44-14.7-55.3L177,58.1z"/>
	</g>
</g>
<g id="Layer_7_copy" class="st0">
	<path class="st12" d="M176,34.1c0,10.7-1.6,32.6-14.7,55.5c-3.9,6.8-12.9,22-30.6,34c-23.6,15.9-47.8,15.9-68,15.9
		c-20.5,0-53.2-0.1-80.4-22.7C-31,105.7-38.1,93.3-41.5,87.4c-12.6-22.5-14.6-44-14.7-55.3L176,34.1z"/>
	<path class="st13" d="M-56.5,34.3c1.5-12.7,7.4-47.4,35.9-73C21-76,89.5-74.6,132.5-40.6c32.7,25.8,41.1,62.8,43.4,75.6"/>
	<line class="st13" x1="-50.9" y1="61.9" x2="-0.4" y2="32"/>
	<line class="st13" x1="-41.5" y1="85.7" x2="47.7" y2="33"/>
	<line class="st13" x1="-28.5" y1="107.7" x2="96.2" y2="34"/>
	<line class="st13" x1="-4.8" y1="125.5" x2="150.1" y2="33.9"/>
	<line class="st13" x1="29.8" y1="137.8" x2="175" y2="51.9"/>
	<line class="st13" x1="71.3" y1="139.4" x2="163.8" y2="84.7"/>
	<line class="st13" x1="132.3" y1="34" x2="171.3" y2="65.2"/>
	<line class="st13" x1="91.3" y1="34.1" x2="161.2" y2="89.6"/>
	<line class="st13" x1="50.6" y1="34.1" x2="146.4" y2="110.2"/>
	<line class="st13" x1="4.8" y1="32.6" x2="124.2" y2="127.5"/>
	<line class="st13" x1="-40" y1="32" x2="94" y2="138.4"/>
	<line class="st13" x1="-53.2" y1="54.2" x2="54" y2="139.4"/>
	<line class="st13" x1="-40.6" y1="89.6" x2="15.7" y2="134.3"/>
	<path class="st23" d="M17.9,2.3C19.8,7.2,14.6,9,8.6,26c-4,11.2-5.2,25.9-7.4,55.1c-0.8,10.8-1.6,21.2-2,35.5
		c0,1.8-0.8,18.3,0.2,36.9C1,183.5,3,217,12,261.3c6.5,31.6,14.5,58.5,21.9,80l9,19.7c-3-2.9-7.4-7-12.7-12
		c-16.5-15.3-20.7-19.2-21.6-18.4c-1.3,1.1,5.6,9.4,10.7,24.7c3.1,9.4,5.6,21.7,3.4,22.6c-2.2,0.9-7.2-10.6-19.9-26
		c-9.7-11.8-22.9-24.7-26-22.6c-2.8,1.9,6.1,13.6,4.7,32.2c-0.6,8.6-3.2,18.4-6.2,18.5c-3.4,0.1-3.3-13.2-12.5-28.4
		c-6.1-10-18.3-24.3-26.6-21.6c-6.5,2.1-8,13.9-8.4,16.5c-2.4,18.3,9.7,31.4,7.6,32.8c-2.4,1.6-18.8-10.7-24.6-29.7
		c-2.6-8.4-2.4-15.8-5.1-16.1c-2.8-0.4-4.3,7.6-11.9,17c-6.6,8.2-15.9,15.1-17.8,13.6c-2.3-1.8,5.5-14.7,9.7-22.6
		c10.5-19.8,13.1-40.1,20.8-80.3c2.3-12.2,4.1-23.6,5.5-34.3c1.9-14.7,5.4-41.3,5.6-73.6c0.2-52.7-8.1-115.1-11.1-127.3
		c-3-12.2-8.2-22.3-9.7-23.5l0,0C-103.3,0.3,9.2-20,17.9,2.3z"/>
	<path class="st24" d="M116.2-46.5c-0.7-5.8-2.3-19-12.2-30.6c-9.7-11.4-22.6-15.6-31.6-18.5c-12.1-3.9-21.7-4.2-21.7-5.9
		s8.7-1.3,17.3-4.4c14.3-5.1,25.5-18.4,30.2-31.7c9.5-26.9-8.4-51.2-11.8-55.8C70.5-215,47.1-220,38.1-221.3
		c-1.2-0.2-2.1-0.3-2.9-0.4c-6.8-0.7-37.4-4.1-47.8,10.5c-5.5,7.7-3.6,16.4-6.5,16.7c-3.1,0.3-4.8-10.5-9.6-18.5
		c-13.7-22.6-56.5-28.5-86.8-16.1c-6.9,2.8-20.6,8.7-28.6,22.9c-2.3,4.2-8.7,15.6-5.3,27.1c1.9,6.3,5.5,8.4,4.3,10.7
		c-2.6,5.1-20.8-5.5-42.6,0c-4.7,1.1-13.7,3.4-21.6,10.8c-12.8,11.8-19.2,33.2-12,50.7c7.8,18.8,28.3,25.8,33.6,27.6
		c9.4,3.2,18.7,3.7,18.7,5.2c-0.1,1.8-12.8-0.8-23.9,6c-11.4,6.9-17,21.3-17.2,33.6c0,3.2,0.1,15.7,9,26.9
		c10.9,13.8,29.9,17.9,44,16.4c16.2-1.7,22.2-10.6,41.4-9.3c8.8,0.6,12.4,2.8,14.5,4.5c4.8,4,112.7,5.4,121,0.1
		c11.5-7.3,24.1,8,47.7,6.5c17.3-1.1,36.9-11,45.1-27.9C118.2-28.9,116.9-40.4,116.2-46.5z"/>
	<g class="st2">
		<path class="st5" d="M-11.2,1.5c-3.7-0.3-4-4.5-8.5-5.2c-4.9-0.8-9.2,3-10.9,6.9c-1.3,3.1-1.4,6.6-0.7,10c0.6,3.2,2,6.2,3.1,9.3
			c0.9,2.3,2.1,4.6,4.7,5.7c2.8,1.2,5.9,0.2,8.9,0c3.3-0.2,6,1.7,9.3,0.7c5.6-1.6,7.8-6.1,9.6-10.8C6.8,11.7,9,4.7,3.6-1.1
			C2.5-2.3,1.1-3.2-0.6-3.4C-5.2-4-6.8,1.8-11.2,1.5z"/>
		<path class="st5" d="M-11.4-12c0.7,1.1,1.7,3.1,1.8,5.8c0.2,3.3-1,5.9-1.6,7"/>
	</g>
</g>
<g id="Layer_7_copy_2" class="st0">
	<path class="st12" d="M176,34.1c0,10.7-1.6,32.6-14.7,55.5c-3.9,6.8-12.9,22-30.6,34c-23.6,15.9-47.8,15.9-68,15.9
		c-20.5,0-53.2-0.1-80.4-22.7C-31,105.7-38.1,93.3-41.5,87.4c-12.6-22.5-14.6-44-14.7-55.3L176,34.1z"/>
	<path class="st13" d="M-56.5,34.3c1.5-12.7,7.4-47.4,35.9-73C21-76,89.5-74.6,132.5-40.6c32.7,25.8,41.1,62.8,43.4,75.6"/>
	<line class="st13" x1="-50.9" y1="61.9" x2="-0.4" y2="32"/>
	<line class="st13" x1="-41.5" y1="85.7" x2="47.7" y2="33"/>
	<line class="st13" x1="-28.5" y1="107.7" x2="96.2" y2="34"/>
	<line class="st13" x1="-4.8" y1="125.5" x2="150.1" y2="33.9"/>
	<line class="st13" x1="29.8" y1="137.8" x2="175" y2="51.9"/>
	<line class="st13" x1="71.3" y1="139.4" x2="163.8" y2="84.7"/>
	<line class="st13" x1="132.3" y1="34" x2="171.3" y2="65.2"/>
	<line class="st13" x1="91.3" y1="34.1" x2="161.2" y2="89.6"/>
	<line class="st13" x1="50.6" y1="34.1" x2="146.4" y2="110.2"/>
	<line class="st13" x1="4.8" y1="32.6" x2="124.2" y2="127.5"/>
	<line class="st13" x1="-40" y1="32" x2="94" y2="138.4"/>
	<line class="st13" x1="-53.2" y1="54.2" x2="54" y2="139.4"/>
	<line class="st13" x1="-40.6" y1="89.6" x2="15.7" y2="134.3"/>
	<g class="st2">
		<path class="st5" d="M-11.2,1.5c-3.7-0.3-4-4.5-8.5-5.2c-4.9-0.8-9.2,3-10.9,6.9c-1.3,3.1-1.4,6.6-0.7,10c0.6,3.2,2,6.2,3.1,9.3
			c0.9,2.3,2.1,4.6,4.7,5.7c2.8,1.2,5.9,0.2,8.9,0c3.3-0.2,6,1.7,9.3,0.7c5.6-1.6,7.8-6.1,9.6-10.8C6.8,11.7,9,4.7,3.6-1.1
			C2.5-2.3,1.1-3.2-0.6-3.4C-5.2-4-6.8,1.8-11.2,1.5z"/>
		<path class="st5" d="M-11.4-12c0.7,1.1,1.7,3.1,1.8,5.8c0.2,3.3-1,5.9-1.6,7"/>
	</g>
	<g class="st2">
		<path class="st5" d="M35,1.5c-3.7-0.3-4-4.5-8.5-5.2c-4.9-0.8-9.2,3-10.9,6.9c-1.3,3.1-1.4,6.6-0.7,10c0.6,3.2,2,6.2,3.1,9.3
			c0.9,2.3,2.1,4.6,4.7,5.7c2.8,1.2,5.9,0.2,8.9,0c3.3-0.2,6,1.7,9.3,0.7c5.6-1.6,7.8-6.1,9.6-10.8c2.5-6.4,4.7-13.4-0.7-19.2
			c-1.1-1.2-2.5-2.1-4.2-2.3C41.1-4,39.5,1.8,35,1.5z"/>
		<path class="st5" d="M34.9-12c0.7,1.1,1.7,3.1,1.8,5.8c0.2,3.3-1,5.9-1.6,7"/>
	</g>
</g>
<g id="Layer_7_copy_3" class="st0">
	<path class="st12" d="M176,34.1c0,10.7-1.6,32.6-14.7,55.5c-3.9,6.8-12.9,22-30.6,34c-23.6,15.9-47.8,15.9-68,15.9
		c-20.5,0-53.2-0.1-80.4-22.7C-31,105.7-38.1,93.3-41.5,87.4c-12.6-22.5-14.6-44-14.7-55.3L176,34.1z"/>
	<path class="st13" d="M-56.5,34.3c1.5-12.7,7.4-47.4,35.9-73C21-76,89.5-74.6,132.5-40.6c32.7,25.8,41.1,62.8,43.4,75.6"/>
	<line class="st13" x1="-50.9" y1="61.9" x2="-0.4" y2="32"/>
	<line class="st13" x1="-41.5" y1="85.7" x2="47.7" y2="33"/>
	<line class="st13" x1="-28.5" y1="107.7" x2="96.2" y2="34"/>
	<line class="st13" x1="-4.8" y1="125.5" x2="150.1" y2="33.9"/>
	<line class="st13" x1="29.8" y1="137.8" x2="175" y2="51.9"/>
	<line class="st13" x1="71.3" y1="139.4" x2="163.8" y2="84.7"/>
	<line class="st13" x1="132.3" y1="34" x2="171.3" y2="65.2"/>
	<line class="st13" x1="91.3" y1="34.1" x2="161.2" y2="89.6"/>
	<line class="st13" x1="50.6" y1="34.1" x2="146.4" y2="110.2"/>
	<line class="st13" x1="4.8" y1="32.6" x2="124.2" y2="127.5"/>
	<line class="st13" x1="-40" y1="32" x2="94" y2="138.4"/>
	<line class="st13" x1="-53.2" y1="54.2" x2="54" y2="139.4"/>
	<line class="st13" x1="-40.6" y1="89.6" x2="15.7" y2="134.3"/>
	<g class="st2">
		<path class="st5" d="M-11.2,1.5c-3.7-0.3-4-4.5-8.5-5.2c-4.9-0.8-9.2,3-10.9,6.9c-1.3,3.1-1.4,6.6-0.7,10c0.6,3.2,2,6.2,3.1,9.3
			c0.9,2.3,2.1,4.6,4.7,5.7c2.8,1.2,5.9,0.2,8.9,0c3.3-0.2,6,1.7,9.3,0.7c5.6-1.6,7.8-6.1,9.6-10.8C6.8,11.7,9,4.7,3.6-1.1
			C2.5-2.3,1.1-3.2-0.6-3.4C-5.2-4-6.8,1.8-11.2,1.5z"/>
		<path class="st5" d="M-11.4-12c0.7,1.1,1.7,3.1,1.8,5.8c0.2,3.3-1,5.9-1.6,7"/>
	</g>
	<g class="st2">
		<path class="st5" d="M35,1.5c-3.7-0.3-4-4.5-8.5-5.2c-4.9-0.8-9.2,3-10.9,6.9c-1.3,3.1-1.4,6.6-0.7,10c0.6,3.2,2,6.2,3.1,9.3
			c0.9,2.3,2.1,4.6,4.7,5.7c2.8,1.2,5.9,0.2,8.9,0c3.3-0.2,6,1.7,9.3,0.7c5.6-1.6,7.8-6.1,9.6-10.8c2.5-6.4,4.7-13.4-0.7-19.2
			c-1.1-1.2-2.5-2.1-4.2-2.3C41.1-4,39.5,1.8,35,1.5z"/>
		<path class="st5" d="M34.9-12c0.7,1.1,1.7,3.1,1.8,5.8c0.2,3.3-1,5.9-1.6,7"/>
	</g>
	<g class="st2">
		<path class="st5" d="M80.2,1.5c-3.7-0.3-4-4.5-8.5-5.2c-4.9-0.8-9.2,3-10.9,6.9c-1.3,3.1-1.4,6.6-0.7,10c0.6,3.2,2,6.2,3.1,9.3
			c0.9,2.3,2.1,4.6,4.7,5.7c2.8,1.2,5.9,0.2,8.9,0c3.3-0.2,6,1.7,9.3,0.7c5.6-1.6,7.8-6.1,9.6-10.8c2.5-6.4,4.7-13.4-0.7-19.2
			c-1.1-1.2-2.5-2.1-4.2-2.3C86.3-4,84.7,1.8,80.2,1.5z"/>
		<path class="st5" d="M80.1-12c0.7,1.1,1.7,3.1,1.8,5.8c0.2,3.3-1,5.9-1.6,7"/>
	</g>
</g>
<g id="Layer_7_copy_4" class="st0">
	<path class="st12" d="M176,34.1c0,10.7-1.6,32.6-14.7,55.5c-3.9,6.8-12.9,22-30.6,34c-23.6,15.9-47.8,15.9-68,15.9
		c-20.5,0-53.2-0.1-80.4-22.7C-31,105.7-38.1,93.3-41.5,87.4c-12.6-22.5-14.6-44-14.7-55.3L176,34.1z"/>
	<path class="st13" d="M-56.5,34.3c1.5-12.7,7.4-47.4,35.9-73C21-76,89.5-74.6,132.5-40.6c32.7,25.8,41.1,62.8,43.4,75.6"/>
	<line class="st13" x1="-50.9" y1="61.9" x2="-0.4" y2="32"/>
	<line class="st13" x1="-41.5" y1="85.7" x2="47.7" y2="33"/>
	<line class="st13" x1="-28.5" y1="107.7" x2="96.2" y2="34"/>
	<line class="st13" x1="-4.8" y1="125.5" x2="150.1" y2="33.9"/>
	<line class="st13" x1="29.8" y1="137.8" x2="175" y2="51.9"/>
	<line class="st13" x1="71.3" y1="139.4" x2="163.8" y2="84.7"/>
	<line class="st13" x1="132.3" y1="34" x2="171.3" y2="65.2"/>
	<line class="st13" x1="91.3" y1="34.1" x2="161.2" y2="89.6"/>
	<line class="st13" x1="50.6" y1="34.1" x2="146.4" y2="110.2"/>
	<line class="st13" x1="4.8" y1="32.6" x2="124.2" y2="127.5"/>
	<line class="st13" x1="-40" y1="32" x2="94" y2="138.4"/>
	<line class="st13" x1="-53.2" y1="54.2" x2="54" y2="139.4"/>
	<line class="st13" x1="-40.6" y1="89.6" x2="15.7" y2="134.3"/>
	<g class="st2">
		<path class="st5" d="M-10.2,1.5c-3.7-0.3-4-4.5-8.5-5.2c-4.9-0.8-9.2,3-10.9,6.9c-1.3,3.1-1.4,6.6-0.7,10c0.6,3.2,2,6.2,3.1,9.3
			c0.9,2.3,2.1,4.6,4.7,5.7c2.8,1.2,5.9,0.2,8.9,0c3.3-0.2,6,1.7,9.3,0.7c5.6-1.6,7.8-6.1,9.6-10.8C7.8,11.7,10,4.7,4.6-1.1
			C3.5-2.3,2.1-3.2,0.4-3.4C-4.1-4-5.7,1.8-10.2,1.5z"/>
		<path class="st5" d="M-10.3-12c0.7,1.1,1.7,3.1,1.8,5.8c0.2,3.3-1,5.9-1.6,7"/>
	</g>
	<g class="st2">
		<path class="st5" d="M34.9,2.2c-3.7-0.3-4-4.5-8.5-5.2c-4.9-0.8-9.2,3-10.9,6.9c-1.3,3.1-1.4,6.6-0.7,10c0.6,3.2,2,6.2,3.1,9.3
			c0.9,2.3,2.1,4.6,4.7,5.7c2.8,1.2,5.9,0.2,8.9,0c3.3-0.2,6,1.7,9.3,0.7c5.6-1.6,7.8-6.1,9.6-10.8c2.5-6.4,4.7-13.4-0.7-19.2
			c-1.1-1.2-2.5-2.1-4.2-2.3C41-3.3,39.4,2.5,34.9,2.2z"/>
		<path class="st5" d="M34.8-11.4c0.7,1.1,1.7,3.1,1.8,5.8c0.2,3.3-1,5.9-1.6,7"/>
	</g>
	<g class="st2">
		<path class="st5" d="M80.1,2.2c-3.7-0.3-4-4.5-8.5-5.2c-4.9-0.8-9.2,3-10.9,6.9c-1.3,3.1-1.4,6.6-0.7,10c0.6,3.2,2,6.2,3.1,9.3
			c0.9,2.3,2.1,4.6,4.7,5.7c2.8,1.2,5.9,0.2,8.9,0c3.3-0.2,6,1.7,9.3,0.7c5.6-1.6,7.8-6.1,9.6-10.8c2.5-6.4,4.7-13.4-0.7-19.2
			c-1.1-1.2-2.5-2.1-4.2-2.3C86.1-3.3,84.6,2.5,80.1,2.2z"/>
		<path class="st5" d="M80-11.4c0.7,1.1,1.7,3.1,1.8,5.8c0.2,3.3-1,5.9-1.6,7"/>
	</g>
	<g class="st2">
		<path class="st5" d="M122.9,2.5c-3.7-0.3-4-4.5-8.5-5.2c-4.9-0.8-9.2,3-10.9,6.9c-1.3,3.1-1.4,6.6-0.7,10c0.6,3.2,2,6.2,3.1,9.3
			c0.9,2.3,2.1,4.6,4.7,5.7c2.8,1.2,5.9,0.2,8.9,0c3.3-0.2,6,1.7,9.3,0.7c5.6-1.6,7.8-6.1,9.6-10.8c2.5-6.4,4.7-13.4-0.7-19.2
			c-1.1-1.2-2.5-2.1-4.2-2.3C128.9-3,127.4,2.8,122.9,2.5z"/>
		<path class="st5" d="M122.7-11c0.7,1.1,1.7,3.1,1.8,5.8c0.2,3.3-1,5.9-1.6,7"/>
	</g>
</g>
</svg>
