<?xml version="1.0" encoding="utf-8"?>
<!-- Generator: Adobe Illustrator 21.1.0, SVG Export Plug-In . SVG Version: 6.00 Build 0)  -->
<svg version="1.1" id="Layer_1" xmlns="http://www.w3.org/2000/svg" xmlns:xlink="http://www.w3.org/1999/xlink" x="0px" y="0px"
	 viewBox="0 0 146.2 101.4" style="enable-background:new 0 0 146.2 101.4;" xml:space="preserve">
<style type="text/css">
	.st0{display:none;}
	.st1{display:inline;fill:#FFFFFF;stroke:#000000;stroke-miterlimit:10;}
	.st2{display:inline;}
	.st3{fill:#8C6E53;stroke:#603913;stroke-width:2;stroke-linejoin:round;stroke-miterlimit:10;}
	.st4{fill:#76C378;stroke:#009444;stroke-width:2;stroke-linejoin:round;stroke-miterlimit:10;}
	.st5{fill:#E7503F;stroke:#931A1D;stroke-width:2;stroke-linejoin:round;stroke-miterlimit:10;}
	.st6{fill:#605D5C;stroke:#3A3636;stroke-width:2;stroke-linejoin:round;stroke-miterlimit:10;}
	.st7{display:inline;fill:#E8E352;stroke:#B5BA4E;stroke-width:6;stroke-linejoin:round;stroke-miterlimit:10;}
	.st8{display:inline;fill:#AED693;stroke:#79AA67;stroke-width:6;stroke-linejoin:round;stroke-miterlimit:10;}
	.st9{display:inline;fill:#E8E552;stroke:#E4C74A;stroke-width:6;stroke-linejoin:round;stroke-miterlimit:10;}
	.st10{display:inline;fill:none;stroke:#E4C74A;stroke-width:6;stroke-linejoin:round;stroke-miterlimit:10;}
	.st11{fill:#E8E552;stroke:#E4C74A;stroke-width:6;stroke-linejoin:round;stroke-miterlimit:10;}
	.st12{fill:none;stroke:#E4C74A;stroke-width:6;stroke-linejoin:round;stroke-miterlimit:10;}
	.st13{display:inline;fill:none;stroke:#B5BA4E;stroke-width:6;stroke-linejoin:round;stroke-miterlimit:10;}
	.st14{display:inline;fill:#C08C49;stroke:#A56928;stroke-width:4;stroke-linejoin:round;stroke-miterlimit:10;}
	.st15{display:inline;fill:none;stroke:#A56928;stroke-width:4;stroke-linejoin:round;stroke-miterlimit:10;}
	.st16{display:inline;fill:#F1EB67;stroke:#E8E491;stroke-miterlimit:10;}
	.st17{display:inline;fill:#846628;}
	.st18{fill:#662C90;}
	.st19{fill:#2D6733;}
	.st20{fill:#846628;}
	.st21{fill:#E12C26;}
	.st22{display:inline;fill:#F9A51B;}
	.st23{fill:#5FC6D1;stroke:#5F7EAA;stroke-width:4;stroke-miterlimit:10;}
	.st24{fill:#5EC6D1;stroke:#5F7EAA;stroke-width:4;stroke-linejoin:round;stroke-miterlimit:10;}
	.st25{display:inline;fill:#8C6E53;stroke:#603913;stroke-width:2;stroke-linejoin:round;stroke-miterlimit:10;}
	.st26{display:inline;fill:#76C378;stroke:#009444;stroke-width:2;stroke-linejoin:round;stroke-miterlimit:10;}
</style>
<g id="Layer_1_copy" class="st0">
	<path class="st1" d="M204.7,163.9"/>
</g>
<g id="Layer_3" class="st0">
	<g class="st2">
		<path class="st3" d="M92.3,24.2c1.9,4.9-3.3,6.7-9.3,23.7c-4,11.2-5.2,25.9-7.4,55.1c-0.8,10.8-1.6,21.2-2,35.5
			c0,1.8-0.8,18.3,0.2,36.9c1.6,30,3.6,63.5,12.6,107.8c6.5,31.6,14.5,58.5,21.9,80l9,19.7c-3-2.9-7.4-7-12.7-12
			c-16.5-15.3-20.7-19.2-21.6-18.4c-1.3,1.1,5.6,9.4,10.7,24.7c3.1,9.4,5.6,21.7,3.4,22.6c-2.2,0.9-7.2-10.6-19.9-26
			c-9.7-11.8-22.9-24.7-26-22.6c-2.8,1.9,6.1,13.6,4.7,32.2c-0.6,8.6-3.2,18.4-6.2,18.5c-3.4,0.1-3.3-13.2-12.5-28.4
			c-6.1-10-18.3-24.3-26.6-21.6c-6.5,2.1-8,13.9-8.4,16.5c-2.4,18.3,9.7,31.4,7.6,32.8c-2.4,1.6-18.8-10.7-24.6-29.7
			c-2.6-8.4-2.4-15.8-5.1-16.1c-2.8-0.4-4.3,7.6-11.9,17c-6.6,8.2-15.9,15.1-17.8,13.6c-2.3-1.8,5.5-14.7,9.7-22.6
			c10.5-19.8,13.1-40.1,20.8-80.3c2.3-12.2,4.1-23.6,5.5-34.3c1.9-14.7,5.4-41.3,5.6-73.6c0.2-52.7-8.1-115.1-11.1-127.3
			s-8.2-22.3-9.7-23.5l0,0C-28.9,22.2,83.7,1.9,92.3,24.2z"/>
		<path class="st4" d="M190.6-24.6c-0.7-5.8-2.3-19-12.2-30.6c-9.7-11.4-22.6-15.6-31.6-18.5c-12.1-3.9-21.7-4.2-21.7-5.9
			s8.7-1.3,17.3-4.4c14.3-5.1,25.5-18.4,30.2-31.7c9.5-26.9-8.4-51.2-11.8-55.8c-15.9-21.6-39.3-26.6-48.3-27.9
			c-1.2-0.2-2.1-0.3-2.9-0.4c-6.8-0.7-37.4-4.1-47.8,10.5c-5.5,7.7-3.6,16.4-6.5,16.7c-3.1,0.3-4.8-10.5-9.6-18.5
			c-13.7-22.6-56.5-28.5-86.8-16.1c-6.9,2.8-20.6,8.7-28.6,22.9c-2.3,4.2-8.7,15.6-5.3,27.1c1.9,6.3,5.5,8.4,4.3,10.7
			c-2.6,5.1-20.8-5.5-42.6,0c-4.9,1.2-13.9,3.6-21.9,10.9c-12.8,11.8-19.2,33.2-11.9,50.7c7.8,18.8,28.3,25.8,33.6,27.6
			c9.4,3.2,18.7,3.7,18.7,5.2c-0.1,1.8-12.8-0.8-23.9,6c-11.4,6.9-17,21.3-17.2,33.6c0,3.2,0.1,15.7,9,26.9
			c10.9,13.8,29.9,17.9,44,16.4c16.2-1.7,22.2-10.6,41.4-9.3c8.8,0.6,12.4,2.8,14.5,4.5c4.8,4,112.7,5.4,121,0.1
			c11.5-7.3,24.1,8,47.7,6.5c17.3-1.1,36.9-11,45.1-27.9C192.6-7,191.3-18.5,190.6-24.6z"/>
		<g>
			<path class="st5" d="M314.5-43.5c-1.9-0.1-2.1-2.6-4.5-3c-2.6-0.4-4.9,1.7-5.8,4c-0.7,1.8-0.7,3.8-0.4,5.7c0.3,1.9,1,3.6,1.7,5.3
				c0.5,1.3,1.1,2.6,2.5,3.3c1.5,0.7,3.1,0.1,4.7,0c1.7-0.1,3.2,1,4.9,0.4c2.9-0.9,4.1-3.5,5.1-6.2c1.3-3.7,2.5-7.7-0.3-11
				c-0.6-0.7-1.3-1.2-2.2-1.3C317.7-46.6,316.9-43.3,314.5-43.5z"/>
			<path class="st5" d="M314.5-51.3c0.3,0.6,0.9,1.8,1,3.3c0.1,1.9-0.5,3.4-0.8,4"/>
		</g>
		<g>
			<path class="st5" d="M334,113.7c-1.9-0.1-2.1-2.6-4.5-3c-2.6-0.4-4.9,1.7-5.8,4c-0.7,1.8-0.7,3.8-0.4,5.7c0.3,1.9,1,3.6,1.7,5.3
				c0.5,1.3,1.1,2.6,2.5,3.3c1.5,0.7,3.1,0.1,4.7,0c1.7-0.1,3.2,1,4.9,0.4c2.9-0.9,4.1-3.5,5.1-6.2c1.3-3.7,2.5-7.7-0.3-11
				c-0.6-0.7-1.3-1.2-2.2-1.3C337.2,110.6,336.3,113.9,334,113.7z"/>
			<path class="st5" d="M333.9,106c0.3,0.6,0.9,1.8,1,3.3c0.1,1.9-0.5,3.4-0.8,4"/>
		</g>
		<g>
			<path class="st5" d="M313.7-86.1c-1.9-0.1-2.1-2.6-4.5-3c-2.6-0.4-4.9,1.7-5.8,4c-0.7,1.8-0.7,3.8-0.4,5.7s1,3.6,1.7,5.3
				c0.5,1.3,1.1,2.6,2.5,3.3c1.5,0.7,3.1,0.1,4.7,0c1.7-0.1,3.2,1,4.9,0.4c2.9-0.9,4.1-3.5,5.1-6.2c1.3-3.7,2.5-7.7-0.3-11
				c-0.6-0.7-1.3-1.2-2.2-1.3C316.9-89.3,316-86,313.7-86.1z"/>
			<path class="st5" d="M313.6-93.9c0.3,0.6,0.9,1.8,1,3.3c0.1,1.9-0.5,3.4-0.8,4"/>
		</g>
		<g>
			<path class="st5" d="M326.7,20.1c-1.9-0.1-2.1-2.6-4.5-3c-2.6-0.4-4.9,1.7-5.8,4c-0.7,1.8-0.7,3.8-0.4,5.7c0.3,1.9,1,3.6,1.7,5.3
				c0.5,1.3,1.1,2.6,2.5,3.3c1.5,0.7,3.1,0.1,4.7,0c1.7-0.1,3.2,1,4.9,0.4c2.9-0.9,4.1-3.5,5.1-6.2c1.3-3.7,2.5-7.7-0.3-11
				c-0.6-0.7-1.3-1.2-2.2-1.3C329.9,17,329.1,20.3,326.7,20.1z"/>
			<path class="st5" d="M326.6,12.3c0.3,0.6,0.9,1.8,1,3.3c0.1,1.9-0.5,3.4-0.8,4"/>
		</g>
		<g>
			<path class="st5" d="M303.3-147.1c-1.9-0.1-2.1-2.6-4.5-3c-2.6-0.4-4.9,1.7-5.8,4c-0.7,1.8-0.7,3.8-0.4,5.7s1,3.6,1.7,5.3
				c0.5,1.3,1.1,2.6,2.5,3.3c1.5,0.7,3.1,0.1,4.7,0c1.7-0.1,3.2,1,4.9,0.4c2.9-0.9,4.1-3.5,5.1-6.2c1.3-3.7,2.5-7.7-0.3-11
				c-0.6-0.7-1.3-1.2-2.2-1.3C306.5-150.2,305.7-146.9,303.3-147.1z"/>
			<path class="st5" d="M303.2-154.9c0.3,0.6,0.9,1.8,1,3.3c0.1,1.9-0.5,3.4-0.8,4"/>
		</g>
		<g>
			<path class="st5" d="M318.4-10.5c-1.9-0.1-2.1-2.6-4.5-3c-2.6-0.4-4.9,1.7-5.8,4c-0.7,1.8-0.7,3.8-0.4,5.7c0.3,1.9,1,3.6,1.7,5.3
				c0.5,1.3,1.1,2.6,2.5,3.3c1.5,0.7,3.1,0.1,4.7,0c1.7-0.1,3.2,1,4.9,0.4c2.9-0.9,4.1-3.5,5.1-6.2c1.3-3.7,2.5-7.7-0.3-11
				c-0.6-0.7-1.3-1.2-2.2-1.3C321.6-13.7,320.8-10.4,318.4-10.5z"/>
			<path class="st5" d="M318.3-18.3c0.3,0.6,0.9,1.8,1,3.3c0.1,1.9-0.5,3.4-0.8,4"/>
		</g>
		<g>
			<path class="st5" d="M316.9-114.3c-1.9-0.1-2.1-2.6-4.5-3c-2.6-0.4-4.9,1.7-5.8,4c-0.7,1.8-0.7,3.8-0.4,5.7s1,3.6,1.7,5.3
				c0.5,1.3,1.1,2.6,2.5,3.3c1.5,0.7,3.1,0.1,4.7,0c1.7-0.1,3.2,1,4.9,0.4c2.9-0.9,4.1-3.5,5.1-6.2c1.3-3.7,2.5-7.7-0.3-11
				c-0.6-0.7-1.3-1.2-2.2-1.3C320.1-117.4,319.3-114.1,316.9-114.3z"/>
			<path class="st5" d="M316.9-122.1c0.3,0.6,0.9,1.8,1,3.3c0.1,1.9-0.5,3.4-0.8,4"/>
		</g>
		<g>
			<path class="st5" d="M358.7-116.6c-1.9-0.1-2.1-2.6-4.5-3c-2.6-0.4-4.9,1.7-5.8,4c-0.7,1.8-0.7,3.8-0.4,5.7s1,3.6,1.7,5.3
				c0.5,1.3,1.1,2.6,2.5,3.3c1.5,0.7,3.1,0.1,4.7,0c1.7-0.1,3.2,1,4.9,0.4c2.9-0.9,4.1-3.5,5.1-6.2c1.3-3.7,2.5-7.7-0.3-11
				c-0.6-0.7-1.3-1.2-2.2-1.3C361.9-119.7,361.1-116.4,358.7-116.6z"/>
			<path class="st5" d="M358.7-124.3c0.3,0.6,0.9,1.8,1,3.3c0.1,1.9-0.5,3.4-0.8,4"/>
		</g>
	</g>
	<g class="st2">
		<path class="st5" d="M99.6,70.3c-4.4-0.3-4.8-5.2-10.2-6c-5.9-0.9-11.1,3.4-13.1,8c-1.6,3.6-1.6,7.7-0.9,11.5
			c0.8,3.7,2.3,7.2,3.8,10.7c1.1,2.7,2.6,5.3,5.7,6.5c3.4,1.4,7.1,0.2,10.7,0c4-0.2,7.2,2,11.1,0.8c6.7-1.9,9.3-7,11.6-12.4
			c3-7.4,5.6-15.4-0.8-22.1c-1.3-1.3-3-2.4-5-2.7C106.8,64,104.9,70.7,99.6,70.3z"/>
		<path class="st5" d="M99.4,54.7c0.8,1.3,2,3.6,2.2,6.7c0.3,3.9-1.2,6.8-1.9,8.1"/>
	</g>
</g>
<g id="Layer_3_copy" class="st0">
	<g class="st2">
		<path class="st3" d="M80.8,22.8c1.9,4.9-3.3,6.7-9.3,23.7c-4,11.2-5.2,25.9-7.4,55.1c-0.8,10.8-1.6,21.2-2,35.5
			c0,1.8-0.8,18.3,0.2,36.9c1.6,30,3.6,63.5,12.6,107.8c6.5,31.6,14.5,58.5,21.9,80l9,19.7c-3-2.9-7.4-7-12.7-12
			c-16.5-15.3-20.7-19.2-21.6-18.4c-1.3,1.1,5.6,9.4,10.7,24.7c3.1,9.4,5.6,21.7,3.4,22.6c-2.2,0.9-7.2-10.6-19.9-26
			c-9.7-11.8-22.9-24.7-26-22.6c-2.8,1.9,6.1,13.6,4.7,32.2c-0.6,8.6-3.2,18.4-6.2,18.5c-3.4,0.1-3.3-13.2-12.5-28.4
			c-6.1-10-18.3-24.3-26.6-21.6c-6.5,2.1-8,13.9-8.4,16.5c-2.4,18.3,9.7,31.4,7.6,32.8c-2.4,1.6-18.8-10.7-24.6-29.7
			c-2.6-8.4-2.4-15.8-5.1-16.1c-2.8-0.4-4.3,7.6-11.9,17c-6.6,8.2-15.9,15.1-17.8,13.6c-2.3-1.8,5.5-14.7,9.7-22.6
			c10.5-19.8,13.1-40.1,20.8-80.3c2.3-12.2,4.1-23.6,5.5-34.3c1.9-14.7,5.4-41.3,5.6-73.6c0.2-52.7-8.1-115.1-11.1-127.3
			s-8.2-22.3-9.7-23.5l0,0C-40.4,20.9,72.1,0.6,80.8,22.8z"/>
		<path class="st4" d="M179-26c-0.7-5.8-2.3-19-12.2-30.6c-9.7-11.4-22.6-15.6-31.6-18.5c-12.1-3.9-21.7-4.2-21.7-5.9
			s8.7-1.3,17.3-4.4c14.3-5.1,25.5-18.4,30.2-31.7c9.5-26.9-8.4-51.2-11.8-55.8c-15.9-21.6-39.3-26.6-48.3-27.9
			c-1.2-0.2-2.1-0.3-2.9-0.4c-6.8-0.7-37.4-4.1-47.8,10.5c-5.5,7.7-3.6,16.4-6.5,16.7c-3.1,0.3-4.8-10.5-9.6-18.5
			c-13.7-22.6-56.5-28.5-86.8-16.1c-6.9,2.8-20.6,8.7-28.6,22.9c-2.3,4.2-8.7,15.6-5.3,27.1c1.9,6.3,5.5,8.4,4.3,10.7
			c-2.6,5.1-20.8-5.5-42.6,0c-4.9,1.2-13.9,3.6-21.9,10.9c-12.8,11.8-19.2,33.2-11.9,50.7c7.8,18.8,28.3,25.8,33.6,27.6
			c9.4,3.2,18.7,3.7,18.7,5.2c-0.1,1.8-12.8-0.8-23.9,6c-11.4,6.9-17,21.3-17.2,33.6c0,3.2,0.1,15.7,9,26.9
			c10.9,13.8,29.9,17.9,44,16.4c16.2-1.7,22.2-10.6,41.4-9.3c8.8,0.6,12.4,2.8,14.5,4.5c4.8,4,112.7,5.4,121,0.1
			c11.5-7.3,24.1,8,47.7,6.5c17.3-1.1,36.9-11,45.1-27.9C181-8.3,179.7-19.9,179-26z"/>
		<g>
			<path class="st6" d="M-76.2-7c-1.9-0.1-2.1-2.6-4.5-3c-2.6-0.4-4.9,1.7-5.8,4c-0.7,1.8-0.7,3.8-0.4,5.7c0.3,1.9,1,3.6,1.7,5.3
				c0.5,1.3,1.1,2.6,2.5,3.3c1.5,0.7,3.1,0.1,4.7,0c1.7-0.1,3.2,1,4.9,0.4c2.9-0.9,4.1-3.5,5.1-6.2c1.3-3.7,2.5-7.7-0.3-11
				c-0.6-0.7-1.3-1.2-2.2-1.3C-73-10.2-73.8-6.8-76.2-7z"/>
			<path class="st6" d="M-76.3-14.8c0.3,0.6,0.9,1.8,1,3.3c0.1,1.9-0.5,3.4-0.8,4"/>
		</g>
		<g>
			<path class="st5" d="M-87.5-111.1c-1.9-0.1-2.1-2.6-4.5-3c-2.6-0.4-4.9,1.7-5.8,4c-0.7,1.8-0.7,3.8-0.4,5.7s1,3.6,1.7,5.3
				c0.5,1.3,1.1,2.6,2.5,3.3c1.5,0.7,3.1,0.1,4.7,0c1.7-0.1,3.2,1,4.9,0.4c2.9-0.9,4.1-3.5,5.1-6.2c1.3-3.7,2.5-7.7-0.3-11
				c-0.6-0.7-1.3-1.2-2.2-1.3C-84.3-114.2-85.2-110.9-87.5-111.1z"/>
			<path class="st5" d="M-87.6-118.9c0.3,0.6,0.9,1.8,1,3.3c0.1,1.9-0.5,3.4-0.8,4"/>
		</g>
		<g>
			<path class="st5" d="M-17.4-68.3c-1.9-0.1-2.1-2.6-4.5-3c-2.6-0.4-4.9,1.7-5.8,4c-0.7,1.8-0.7,3.8-0.4,5.7s1,3.6,1.7,5.3
				c0.5,1.3,1.1,2.6,2.5,3.3c1.5,0.7,3.1,0.1,4.7,0c1.7-0.1,3.2,1,4.9,0.4c2.9-0.9,4.1-3.5,5.1-6.2c1.3-3.7,2.5-7.7-0.3-11
				c-0.6-0.7-1.3-1.2-2.2-1.3C-14.3-71.4-15.1-68.1-17.4-68.3z"/>
			<path class="st5" d="M-17.5-76.1c0.3,0.6,0.9,1.8,1,3.3c0.1,1.9-0.5,3.4-0.8,4"/>
		</g>
		<g>
			<path class="st5" d="M43.7-10c-1.9-0.1-2.1-2.6-4.5-3c-2.6-0.4-4.9,1.7-5.8,4c-0.7,1.8-0.7,3.8-0.4,5.7c0.3,1.9,1,3.6,1.7,5.3
				c0.5,1.3,1.1,2.6,2.5,3.3c1.5,0.7,3.1,0.1,4.7,0c1.7-0.1,3.2,1,4.9,0.4c2.9-0.9,4.1-3.5,5.1-6.2c1.3-3.7,2.5-7.7-0.3-11
				c-0.6-0.7-1.3-1.2-2.2-1.3C46.9-13.2,46.1-9.9,43.7-10z"/>
			<path class="st5" d="M43.6-17.8c0.3,0.6,0.9,1.8,1,3.3c0.1,1.9-0.5,3.4-0.8,4"/>
		</g>
		<g>
			<path class="st5" d="M105.3-153.4c-1.9-0.1-2.1-2.6-4.5-3c-2.6-0.4-4.9,1.7-5.8,4c-0.7,1.8-0.7,3.8-0.4,5.7
				c0.3,1.9,1,3.6,1.7,5.3c0.5,1.3,1.1,2.6,2.5,3.3c1.5,0.7,3.1,0.1,4.7,0c1.7-0.1,3.2,1,4.9,0.4c2.9-0.9,4.1-3.5,5.1-6.2
				c1.3-3.7,2.5-7.7-0.3-11c-0.6-0.7-1.3-1.2-2.2-1.3C108.5-156.6,107.6-153.3,105.3-153.4z"/>
			<path class="st5" d="M105.2-161.2c0.3,0.6,0.9,1.8,1,3.3c0.1,1.9-0.5,3.4-0.8,4"/>
		</g>
		<g>
			<path class="st5" d="M133.9-28.3c-1.9-0.1-2.1-2.6-4.5-3c-2.6-0.4-4.9,1.7-5.8,4c-0.7,1.8-0.7,3.8-0.4,5.7c0.3,1.9,1,3.6,1.7,5.3
				c0.5,1.3,1.1,2.6,2.5,3.3c1.5,0.7,3.1,0.1,4.7,0c1.7-0.1,3.2,1,4.9,0.4c2.9-0.9,4.1-3.5,5.1-6.2c1.3-3.7,2.5-7.7-0.3-11
				c-0.6-0.7-1.3-1.2-2.2-1.3C137.1-31.4,136.3-28.1,133.9-28.3z"/>
			<path class="st5" d="M133.8-36c0.3,0.6,0.9,1.8,1,3.3c0.1,1.9-0.5,3.4-0.8,4"/>
		</g>
		<g>
			<path class="st5" d="M62-89.3c-1.9-0.1-2.1-2.6-4.5-3c-2.6-0.4-4.9,1.7-5.8,4c-0.7,1.8-0.7,3.8-0.4,5.7c0.3,1.9,1,3.6,1.7,5.3
				c0.5,1.3,1.1,2.6,2.5,3.3c1.5,0.7,3.1,0.1,4.7,0c1.7-0.1,3.2,1,4.9,0.4c2.9-0.9,4.1-3.5,5.1-6.2c1.3-3.7,2.5-7.7-0.3-11
				c-0.6-0.7-1.3-1.2-2.2-1.3C65.2-92.5,64.3-89.1,62-89.3z"/>
			<path class="st5" d="M61.9-97.1c0.3,0.6,0.9,1.8,1,3.3c0.1,1.9-0.5,3.4-0.8,4"/>
		</g>
		<g>
			<path class="st5" d="M-27.6-160.2c-1.9-0.1-2.1-2.6-4.5-3c-2.6-0.4-4.9,1.7-5.8,4c-0.7,1.8-0.7,3.8-0.4,5.7s1,3.6,1.7,5.3
				c0.5,1.3,1.1,2.6,2.5,3.3c1.5,0.7,3.1,0.1,4.7,0c1.7-0.1,3.2,1,4.9,0.4c2.9-0.9,4.1-3.5,5.1-6.2c1.3-3.7,2.5-7.7-0.3-11
				c-0.6-0.7-1.3-1.2-2.2-1.3C-24.5-163.3-25.3-160-27.6-160.2z"/>
			<path class="st5" d="M-27.7-168c0.3,0.6,0.9,1.8,1,3.3c0.1,1.9-0.5,3.4-0.8,4"/>
		</g>
		<g>
			<path class="st6" d="M62-89.3c-1.9-0.1-2.1-2.6-4.5-3c-2.6-0.4-4.9,1.7-5.8,4c-0.7,1.8-0.7,3.8-0.4,5.7c0.3,1.9,1,3.6,1.7,5.3
				c0.5,1.3,1.1,2.6,2.5,3.3c1.5,0.7,3.1,0.1,4.7,0c1.7-0.1,3.2,1,4.9,0.4c2.9-0.9,4.1-3.5,5.1-6.2c1.3-3.7,2.5-7.7-0.3-11
				c-0.6-0.7-1.3-1.2-2.2-1.3C65.2-92.5,64.3-89.1,62-89.3z"/>
			<path class="st6" d="M61.9-97.1c0.3,0.6,0.9,1.8,1,3.3c0.1,1.9-0.5,3.4-0.8,4"/>
		</g>
		<g>
			<path class="st6" d="M-17.4-68.3c-1.9-0.1-2.1-2.6-4.5-3c-2.6-0.4-4.9,1.7-5.8,4c-0.7,1.8-0.7,3.8-0.4,5.7s1,3.6,1.7,5.3
				c0.5,1.3,1.1,2.6,2.5,3.3c1.5,0.7,3.1,0.1,4.7,0c1.7-0.1,3.2,1,4.9,0.4c2.9-0.9,4.1-3.5,5.1-6.2c1.3-3.7,2.5-7.7-0.3-11
				c-0.6-0.7-1.3-1.2-2.2-1.3C-14.3-71.4-15.1-68.1-17.4-68.3z"/>
			<path class="st6" d="M-17.5-76.1c0.3,0.6,0.9,1.8,1,3.3c0.1,1.9-0.5,3.4-0.8,4"/>
		</g>
		<g>
			<path class="st6" d="M43.7-10c-1.9-0.1-2.1-2.6-4.5-3c-2.6-0.4-4.9,1.7-5.8,4c-0.7,1.8-0.7,3.8-0.4,5.7c0.3,1.9,1,3.6,1.7,5.3
				c0.5,1.3,1.1,2.6,2.5,3.3c1.5,0.7,3.1,0.1,4.7,0c1.7-0.1,3.2,1,4.9,0.4c2.9-0.9,4.1-3.5,5.1-6.2c1.3-3.7,2.5-7.7-0.3-11
				c-0.6-0.7-1.3-1.2-2.2-1.3C46.9-13.2,46.1-9.9,43.7-10z"/>
			<path class="st6" d="M43.6-17.8c0.3,0.6,0.9,1.8,1,3.3c0.1,1.9-0.5,3.4-0.8,4"/>
		</g>
	</g>
</g>
<g id="Layer_5" class="st0">
	<ellipse class="st7" cx="54.1" cy="116.1" rx="119.8" ry="146.8"/>
	<path class="st8" d="M5.1,107.5c-4.4-0.1-14-16.3-16-18.9c-9.5-12-17.8-24.9-29.4-36.2c3.4,3.2,51.7,18.3,53.3,18.1
		c10.4-1,17-20.2,21.8-25.2C32,48.2,69.3,69.7,73.9,73.1c0.1,0.1,34.1-21.4,36.6-24.3c8.6,9.3,17.3,18.5,25.9,27.8
		c-1.6-2.4,41.7-20.7,46.7-23.2c-5.3,2.7-23.1,46.1-29.6,59C104,110.7,54.6,109.1,5.1,107.5z"/>
	<path class="st8" d="M25.9,146.9c-3.4-0.1-10.5-16.1-12.1-18.7C6.7,116.4,0.5,103.6-8.3,92.4c2.5,3.2,39.6,17.5,40.8,17.3
		c8-1.1,13.4-20.5,17.1-25.5c-2.2,2.9,26.2,23.9,29.7,27.2c0.1,0.1,26.6-21.9,28.5-24.8c6.5,9.1,13.1,18.2,19.6,27.4
		c-1.2-2.4,32.4-21.3,36.3-23.9c-4.2,2.7-18.5,46.4-23.6,59.4C102,148.7,64,147.8,25.9,146.9z"/>
	<path class="st8" d="M38.9,178.2c-2.7,0-8.2-16-9.4-18.5c-5.6-11.7-10.4-24.5-17.3-35.5c2,3.2,31.5,17,32.5,16.8
		c6.4-1.2,11-20.6,14-25.7c-1.8,2.9,20.7,23.6,23.5,26.8c0,0.1,21.6-22.2,23.2-25.2c5.1,9,10.2,18.1,15.3,27.1
		c-1-2.4,26.2-21.7,29.4-24.3c-3.4,2.8-15.4,46.6-19.7,59.6C99.8,179,69.3,178.6,38.9,178.2z"/>
</g>
<g id="Layer_12" class="st0">
	<path class="st9" d="M123.2-36.8c0,0-56-2.9-73.1,2.8C32.9-28.2,7,0.7,2.8,15.1c-4.2,14.3-3.2,62-3.2,62L121.9,77L123.2-36.8z"/>
	<line class="st10" x1="3.2" y1="32.2" x2="88.6" y2="-38.1"/>
	<line class="st10" x1="0.5" y1="71.5" x2="120.9" y2="-23.2"/>
	<line class="st10" x1="57.4" y1="75.5" x2="120.9" y2="24.1"/>
	<line class="st10" x1="2.5" y1="8.9" x2="94.5" y2="73.8"/>
	<line class="st10" x1="22.2" y1="-16.5" x2="120.9" y2="53.9"/>
	<line class="st10" x1="50.1" y1="-34" x2="122.3" y2="7.9"/>
	<line class="st10" x1="-2.2" y1="48.5" x2="42" y2="76"/>
</g>
<g id="Layer_13" class="st0">
	<path class="st9" d="M21.6-28.8c0,0,56-1.7,73.1,4.4c17,6.1,38.9,35.1,45.2,46.1c6.3,11,4.8,63,4.8,63L22.4,85L21.6-28.8z"/>
	<line class="st10" x1="32.8" y1="-28.1" x2="144.7" y2="76.7"/>
	<line class="st10" x1="68.8" y1="-27.3" x2="145.9" y2="43"/>
	<line class="st10" x1="20.8" y1="39.6" x2="68.4" y2="84"/>
	<line class="st10" x1="22.4" y1="1.5" x2="106.1" y2="82.9"/>
	<line class="st10" x1="78.2" y1="-26" x2="20" y2="16"/>
	<line class="st10" x1="118.8" y1="-7" x2="24.1" y2="76.9"/>
	<line class="st10" x1="72.5" y1="84.6" x2="141.8" y2="28.2"/>
</g>
<g id="Layer_14">
</g>
<g id="Layer_15">
</g>
<g id="Layer_16">
</g>
<g id="Layer_17">
	<path class="st11" d="M11.4,10.3c0,0-3.1,26.5-2.7,43.4c-0.3,16.3,4,40.9,4,40.9L136,93.4l-1.5-82.6L11.4,10.3z"/>
	<line class="st12" x1="9.7" y1="44.3" x2="68.9" y2="12.3"/>
	<line class="st12" x1="10.7" y1="79.3" x2="132.1" y2="15.2"/>
	<line class="st12" x1="55.4" y1="92.9" x2="135" y2="54"/>
	<line class="st12" x1="7.8" y1="34.6" x2="95.2" y2="92.9"/>
	<line class="st12" x1="35" y1="10.3" x2="136.9" y2="79.3"/>
	<line class="st12" x1="96.1" y1="11.3" x2="136" y2="33.6"/>
	<line class="st12" x1="9.7" y1="64.7" x2="55.4" y2="92.9"/>
</g>
<g id="Layer_6" class="st0">
	<line class="st13" x1="-65.7" y1="122.4" x2="74.1" y2="-28.6"/>
	<line class="st13" x1="-57" y1="166.5" x2="110.4" y2="-14.4"/>
	<line class="st13" x1="-40.7" y1="202.8" x2="136.4" y2="11.5"/>
	<line class="st13" x1="-19.2" y1="233.6" x2="157.9" y2="42.3"/>
	<line class="st13" x1="11.4" y1="252.9" x2="170.6" y2="81.9"/>
	<line class="st13" x1="59.6" y1="263.4" x2="172.6" y2="138"/>
	<line class="st13" x1="161.7" y1="185.3" x2="-22.9" y2="6.1"/>
	<line class="st13" x1="138.2" y1="220.6" x2="-48" y2="40.9"/>
	<line class="st13" x1="106.7" y1="251.5" x2="-63.2" y2="86.5"/>
	<line class="st13" x1="173.6" y1="139" x2="7" y2="-21"/>
	<line class="st13" x1="170.6" y1="81.9" x2="60.5" y2="-30.2"/>
	<line class="st13" x1="59.6" y1="263.4" x2="-65.7" y2="138"/>
	<line class="st13" x1="-59.1" y1="66.7" x2="27.8" y2="-27.1"/>
</g>
<g id="Layer_7" class="st0">
	<path class="st14" d="M167.2-10c0,10.7-1.6,32.6-14.7,55.5c-3.9,6.8-12.9,22-30.6,34c-23.6,15.9-47.8,15.9-68,15.9
		c-20.5,0-53.2-0.1-80.4-22.7c-13.3-11.1-20.4-23.5-23.8-29.4C-62.9,20.8-64.9-0.7-65-12L167.2-10z"/>
	<path class="st15" d="M-65.3-9.8c1.5-12.7,7.4-47.4,35.9-73c41.6-37.3,110.1-35.9,153.1-1.9c32.7,25.8,41.1,62.8,43.4,75.6"/>
	<line class="st15" x1="-59.7" y1="17.8" x2="-9.2" y2="-12.1"/>
	<line class="st15" x1="-50.3" y1="41.6" x2="38.9" y2="-11.1"/>
	<line class="st15" x1="-37.3" y1="63.6" x2="87.4" y2="-10.1"/>
	<line class="st15" x1="-13.6" y1="81.4" x2="141.3" y2="-10.2"/>
	<line class="st15" x1="21" y1="93.7" x2="166.2" y2="7.8"/>
	<line class="st15" x1="62.5" y1="95.3" x2="155" y2="40.6"/>
	<line class="st15" x1="123.5" y1="-10.1" x2="162.5" y2="21.1"/>
	<line class="st15" x1="82.5" y1="-10" x2="152.4" y2="45.5"/>
	<line class="st15" x1="41.8" y1="-10" x2="137.6" y2="66.1"/>
	<line class="st15" x1="-4" y1="-11.5" x2="115.4" y2="83.4"/>
	<line class="st15" x1="-48.8" y1="-12.1" x2="85.2" y2="94.3"/>
	<line class="st15" x1="-62" y1="10.1" x2="45.2" y2="95.3"/>
	<line class="st15" x1="-49.4" y1="45.5" x2="6.9" y2="90.2"/>
</g>
<g id="Layer_7_copy_5" class="st0">
	<path class="st16" d="M75.9-16.3c4.4-6,14.8-16.4,15.2-23.6c0.4-7.3,0.8-30.8,2-35.6s9.4,7.8,10.2,12.6c0.8,4.8,3.9,19.9,2.5,25.2
		S99.3-22,96.1-19.2s-7.3,8-13.2,12c-6.1,2.4-10,6.6-16.1,6.6C60.7-0.5,71.5-10.2,75.9-16.3z"/>
	<path class="st16" d="M98.3-14.7c2.5-6.8,9.5-19.2,7.8-25.9s-8-28.2-8.2-32.8c-0.2-4.7,11.2,4.3,13.3,8.4
		c2.1,4.1,9.4,16.9,9.5,22.1c0.1,5.2-1.8,16.2-4,19.7s-4.7,9.4-9.2,14.8c-5.1,4-7.7,8.9-13.5,10.8C88.3,4.1,95.9-8,98.3-14.7z"/>
	<path class="st16" d="M55.2-30.5c6.2-3.6,19.6-8.7,22.6-15c3-6.2,11.9-26.7,14.7-30.5c2.8-3.7,5.9,10.5,4.9,15s-3.6,19-6.8,23.1
		c-3.2,4.1-11.7,11.3-15.7,12.6C71-24,65.3-21,58.4-19.8c-6.5-0.3-11.6,2-17.3-0.4S49-26.9,55.2-30.5z"/>
	<path class="st17" d="M91.8-73.4c0.2-3.8,0-15,0-18.5s10.5-3.5,10.5,0s2.4,15,0,18.5C100-69.9,91.6-69.6,91.8-73.4z"/>
	<g class="st2">
		
			<ellipse transform="matrix(0.8054 -0.5928 0.5928 0.8054 5.3634 -39.9087)" class="st18" cx="-58.1" cy="-28.1" rx="8.5" ry="8.9"/>
		
			<ellipse transform="matrix(0.8054 -0.5928 0.5928 0.8054 13.9849 -33.7323)" class="st18" cx="-44.4" cy="-38.2" rx="8.5" ry="8.9"/>
		
			<ellipse transform="matrix(0.8054 -0.5928 0.5928 0.8054 22.5918 -27.6429)" class="st18" cx="-30.8" cy="-48.2" rx="8.5" ry="8.9"/>
		
			<ellipse transform="matrix(0.8054 -0.5928 0.5928 0.8054 31.2134 -21.4665)" class="st18" cx="-17.1" cy="-58.3" rx="8.5" ry="8.9"/>
		
			<ellipse transform="matrix(0.8054 -0.5928 0.5928 0.8054 4.1174 -28.9864)" class="st18" cx="-42.1" cy="-20.8" rx="8.5" ry="8.9"/>
		
			<ellipse transform="matrix(0.8054 -0.5928 0.5928 0.8054 12.7243 -22.897)" class="st18" cx="-28.5" cy="-30.8" rx="8.5" ry="8.9"/>
		
			<ellipse transform="matrix(0.8054 -0.5928 0.5928 0.8054 21.3459 -16.7206)" class="st18" cx="-14.8" cy="-40.9" rx="8.5" ry="8.9"/>
		<ellipse transform="matrix(0.8054 -0.5928 0.5928 0.8054 2.7424 -17.9597)" class="st18" cx="-26" cy="-13.2" rx="8.5" ry="8.9"/>
		
			<ellipse transform="matrix(0.8054 -0.5928 0.5928 0.8054 11.3493 -11.8704)" class="st18" cx="-12.4" cy="-23.2" rx="8.5" ry="8.9"/>
		<ellipse transform="matrix(0.8054 -0.5928 0.5928 0.8054 1.4658 -7.047)" class="st18" cx="-10" cy="-5.8" rx="8.5" ry="8.9"/>
		<path class="st19" d="M-44.2-48.3c-0.3,1.4-9.6,2.2-10.9,1.8c-1.9,0.2-11.3-4.7-10.8-7.2s10.2-3.1,11.9-2.6S-43.9-49.8-44.2-48.3z
			"/>
		<path class="st19" d="M-41.5-73.6c2.9,0.8,4.4,12.7,4.5,14.7s-6.9,11.3-8.1,11.3c-1.2,0-6.4-11.1-5.3-14.9
			C-49.2-66.3-44.3-74.4-41.5-73.6z"/>
	</g>
	<g class="st2">
		<path class="st20" d="M24.5-35c0,0,1.1-13.5,0.8-18.9s-2.2-6.1-2.5-10.5c-1.5-3,5.2-1,6.7,0.3s3.3,8.9,3.1,14.8
			C32.4-43.4,32-34.6,32-34.6L24.5-35z"/>
		<ellipse transform="matrix(0.1431 -0.9897 0.9897 0.1431 41.2497 7.6178)" class="st21" cx="25" cy="-20" rx="26" ry="26"/>
	</g>
	<ellipse transform="matrix(0.1431 -0.9897 0.9897 0.1431 147.727 119.6467)" class="st22" cx="143" cy="-25.5" rx="26" ry="26"/>
	<g class="st2">
		<path class="st23" d="M20.8,122.7c-1.6,0.9-3,5.3-1.6,6.8s68.9,2.5,70.2,0.5s0.3-4.9-2.1-6.7C84.9,121.4,22.4,121.9,20.8,122.7z"
			/>
		<path class="st23" d="M-90.9,3.5c0.1,2,6.3,3.5,18.6,6.6c35.3,8.8,63.2,8.2,83.5,7.8c78.2-1.5,61.8,0.1,92.1-1.4
			c45.5-2.2,92.1-4.4,92.5-10.9c0-0.7-0.4-4-22.3-9.2C80-26.1-91.8-10.1-90.9,3.5z"/>
		<path class="st24" d="M168.2,14c0,10.7-1.6,32.6-14.7,55.5c-3.9,6.8-12.9,22-30.6,34c-23.6,15.9-47.8,15.9-68,15.9
			c-20.5,0-53.2-0.1-80.4-22.7c-13.3-11.1-20.4-23.5-23.8-29.4C-61.9,44.8-63.9,23.3-64,12L168.2,14z"/>
	</g>
</g>
<g id="Layer_7_copy" class="st0">
	<path class="st14" d="M167.2-10c0,10.7-1.6,32.6-14.7,55.5c-3.9,6.8-12.9,22-30.6,34c-23.6,15.9-47.8,15.9-68,15.9
		c-20.5,0-53.2-0.1-80.4-22.7c-13.3-11.1-20.4-23.5-23.8-29.4C-62.9,20.8-64.9-0.7-65-12L167.2-10z"/>
	<path class="st15" d="M-65.3-9.8c1.5-12.7,7.4-47.4,35.9-73c41.6-37.3,110.1-35.9,153.1-1.9c32.7,25.8,41.1,62.8,43.4,75.6"/>
	<line class="st15" x1="-59.7" y1="17.8" x2="-9.2" y2="-12.1"/>
	<line class="st15" x1="-50.3" y1="41.6" x2="38.9" y2="-11.1"/>
	<line class="st15" x1="-37.3" y1="63.6" x2="87.4" y2="-10.1"/>
	<line class="st15" x1="-13.6" y1="81.4" x2="141.3" y2="-10.2"/>
	<line class="st15" x1="21" y1="93.7" x2="166.2" y2="7.8"/>
	<line class="st15" x1="62.5" y1="95.3" x2="155" y2="40.6"/>
	<line class="st15" x1="123.5" y1="-10.1" x2="162.5" y2="21.1"/>
	<line class="st15" x1="82.5" y1="-10" x2="152.4" y2="45.5"/>
	<line class="st15" x1="41.8" y1="-10" x2="137.6" y2="66.1"/>
	<line class="st15" x1="-4" y1="-11.5" x2="115.4" y2="83.4"/>
	<line class="st15" x1="-48.8" y1="-12.1" x2="85.2" y2="94.3"/>
	<line class="st15" x1="-62" y1="10.1" x2="45.2" y2="95.3"/>
	<line class="st15" x1="-49.4" y1="45.5" x2="6.9" y2="90.2"/>
	<path class="st25" d="M9.1-41.8c1.9,4.9-3.3,6.7-9.3,23.7C-4.2-6.9-5.4,7.8-7.6,37c-0.8,10.8-1.6,21.2-2,35.5
		c0,1.8-0.8,18.3,0.2,36.9c1.6,30,3.6,63.5,12.6,107.8c6.5,31.6,14.5,58.5,21.9,80l9,19.7c-3-2.9-7.4-7-12.7-12
		C4.9,289.6,0.7,285.7-0.2,286.5c-1.3,1.1,5.6,9.4,10.7,24.7c3.1,9.4,5.6,21.7,3.4,22.6c-2.2,0.9-7.2-10.6-19.9-26
		c-9.7-11.8-22.9-24.7-26-22.6c-2.8,1.9,6.1,13.6,4.7,32.2c-0.6,8.6-3.2,18.4-6.2,18.5c-3.4,0.1-3.3-13.2-12.5-28.4
		c-6.1-10-18.3-24.3-26.6-21.6c-6.5,2.1-8,13.9-8.4,16.5c-2.4,18.3,9.7,31.4,7.6,32.8c-2.4,1.6-18.8-10.7-24.6-29.7
		c-2.6-8.4-2.4-15.8-5.1-16.1c-2.8-0.4-4.3,7.6-11.9,17c-6.6,8.2-15.9,15.1-17.8,13.6c-2.3-1.8,5.5-14.7,9.7-22.6
		c10.5-19.8,13.1-40.1,20.8-80.3c2.3-12.2,4.1-23.6,5.5-34.3c1.9-14.7,5.4-41.3,5.6-73.6C-91,56.5-99.3-5.9-102.3-18.1
		c-3-12.2-8.2-22.3-9.7-23.5l0,0C-112.1-43.8,0.4-64.1,9.1-41.8z"/>
	<path class="st26" d="M107.4-90.6c-0.7-5.8-2.3-19-12.2-30.6c-9.7-11.4-22.6-15.6-31.6-18.5c-12.1-3.9-21.7-4.2-21.7-5.9
		s8.7-1.3,17.3-4.4c14.3-5.1,25.5-18.4,30.2-31.7c9.5-26.9-8.4-51.2-11.8-55.8c-15.9-21.6-39.3-26.6-48.3-27.9
		c-1.2-0.2-2.1-0.3-2.9-0.4c-6.8-0.7-37.4-4.1-47.8,10.5c-5.5,7.7-3.6,16.4-6.5,16.7c-3.1,0.3-4.8-10.5-9.6-18.5
		c-13.7-22.6-56.5-28.5-86.8-16.1c-6.9,2.8-20.6,8.7-28.6,22.9c-2.3,4.2-8.7,15.6-5.3,27.1c1.9,6.3,5.5,8.4,4.3,10.7
		c-2.6,5.1-20.8-5.5-42.6,0c-4.7,1.1-13.7,3.4-21.6,10.8c-12.8,11.8-19.2,33.2-12,50.7c7.8,18.8,28.3,25.8,33.6,27.6
		c9.4,3.2,18.7,3.7,18.7,5.2c-0.1,1.8-12.8-0.8-23.9,6c-11.4,6.9-17,21.3-17.2,33.6c0,3.2,0.1,15.7,9,26.9
		c10.9,13.8,29.9,17.9,44,16.4c16.2-1.7,22.2-10.6,41.4-9.3c8.8,0.6,12.4,2.8,14.5,4.5c4.8,4,112.7,5.4,121,0.1
		c11.5-7.3,24.1,8,47.7,6.5c17.3-1.1,36.9-11,45.1-27.9C109.4-73,108.1-84.5,107.4-90.6z"/>
	<g class="st2">
		<path class="st5" d="M-20-42.6c-3.7-0.3-4-4.5-8.5-5.2c-4.9-0.8-9.2,3-10.9,6.9c-1.3,3.1-1.4,6.6-0.7,10c0.6,3.2,2,6.2,3.1,9.3
			c0.9,2.3,2.1,4.6,4.7,5.7c2.8,1.2,5.9,0.2,8.9,0c3.3-0.2,6,1.7,9.3,0.7c5.6-1.6,7.8-6.1,9.6-10.8c2.5-6.4,4.7-13.4-0.7-19.2
			c-1.1-1.2-2.5-2.1-4.2-2.3C-14-48.1-15.6-42.3-20-42.6z"/>
		<path class="st5" d="M-20.2-56.1c0.7,1.1,1.7,3.1,1.8,5.8c0.2,3.3-1,5.9-1.6,7"/>
	</g>
</g>
<g id="Layer_7_copy_2" class="st0">
	<path class="st14" d="M167.2-10c0,10.7-1.6,32.6-14.7,55.5c-3.9,6.8-12.9,22-30.6,34c-23.6,15.9-47.8,15.9-68,15.9
		c-20.5,0-53.2-0.1-80.4-22.7c-13.3-11.1-20.4-23.5-23.8-29.4C-62.9,20.8-64.9-0.7-65-12L167.2-10z"/>
	<path class="st15" d="M-65.3-9.8c1.5-12.7,7.4-47.4,35.9-73c41.6-37.3,110.1-35.9,153.1-1.9c32.7,25.8,41.1,62.8,43.4,75.6"/>
	<line class="st15" x1="-59.7" y1="17.8" x2="-9.2" y2="-12.1"/>
	<line class="st15" x1="-50.3" y1="41.6" x2="38.9" y2="-11.1"/>
	<line class="st15" x1="-37.3" y1="63.6" x2="87.4" y2="-10.1"/>
	<line class="st15" x1="-13.6" y1="81.4" x2="141.3" y2="-10.2"/>
	<line class="st15" x1="21" y1="93.7" x2="166.2" y2="7.8"/>
	<line class="st15" x1="62.5" y1="95.3" x2="155" y2="40.6"/>
	<line class="st15" x1="123.5" y1="-10.1" x2="162.5" y2="21.1"/>
	<line class="st15" x1="82.5" y1="-10" x2="152.4" y2="45.5"/>
	<line class="st15" x1="41.8" y1="-10" x2="137.6" y2="66.1"/>
	<line class="st15" x1="-4" y1="-11.5" x2="115.4" y2="83.4"/>
	<line class="st15" x1="-48.8" y1="-12.1" x2="85.2" y2="94.3"/>
	<line class="st15" x1="-62" y1="10.1" x2="45.2" y2="95.3"/>
	<line class="st15" x1="-49.4" y1="45.5" x2="6.9" y2="90.2"/>
	<g class="st2">
		<path class="st5" d="M-20-42.6c-3.7-0.3-4-4.5-8.5-5.2c-4.9-0.8-9.2,3-10.9,6.9c-1.3,3.1-1.4,6.6-0.7,10c0.6,3.2,2,6.2,3.1,9.3
			c0.9,2.3,2.1,4.6,4.7,5.7c2.8,1.2,5.9,0.2,8.9,0c3.3-0.2,6,1.7,9.3,0.7c5.6-1.6,7.8-6.1,9.6-10.8c2.5-6.4,4.7-13.4-0.7-19.2
			c-1.1-1.2-2.5-2.1-4.2-2.3C-14-48.1-15.6-42.3-20-42.6z"/>
		<path class="st5" d="M-20.2-56.1c0.7,1.1,1.7,3.1,1.8,5.8c0.2,3.3-1,5.9-1.6,7"/>
	</g>
	<g class="st2">
		<path class="st5" d="M26.2-42.6c-3.7-0.3-4-4.5-8.5-5.2c-4.9-0.8-9.2,3-10.9,6.9c-1.3,3.1-1.4,6.6-0.7,10c0.6,3.2,2,6.2,3.1,9.3
			c0.9,2.3,2.1,4.6,4.7,5.7c2.8,1.2,5.9,0.2,8.9,0c3.3-0.2,6,1.7,9.3,0.7c5.6-1.6,7.8-6.1,9.6-10.8c2.5-6.4,4.7-13.4-0.7-19.2
			c-1.1-1.2-2.5-2.1-4.2-2.3C32.3-48.1,30.7-42.3,26.2-42.6z"/>
		<path class="st5" d="M26.1-56.1c0.7,1.1,1.7,3.1,1.8,5.8c0.2,3.3-1,5.9-1.6,7"/>
	</g>
</g>
<g id="Layer_7_copy_3" class="st0">
	<path class="st14" d="M167.2-10c0,10.7-1.6,32.6-14.7,55.5c-3.9,6.8-12.9,22-30.6,34c-23.6,15.9-47.8,15.9-68,15.9
		c-20.5,0-53.2-0.1-80.4-22.7c-13.3-11.1-20.4-23.5-23.8-29.4C-62.9,20.8-64.9-0.7-65-12L167.2-10z"/>
	<path class="st15" d="M-65.3-9.8c1.5-12.7,7.4-47.4,35.9-73c41.6-37.3,110.1-35.9,153.1-1.9c32.7,25.8,41.1,62.8,43.4,75.6"/>
	<line class="st15" x1="-59.7" y1="17.8" x2="-9.2" y2="-12.1"/>
	<line class="st15" x1="-50.3" y1="41.6" x2="38.9" y2="-11.1"/>
	<line class="st15" x1="-37.3" y1="63.6" x2="87.4" y2="-10.1"/>
	<line class="st15" x1="-13.6" y1="81.4" x2="141.3" y2="-10.2"/>
	<line class="st15" x1="21" y1="93.7" x2="166.2" y2="7.8"/>
	<line class="st15" x1="62.5" y1="95.3" x2="155" y2="40.6"/>
	<line class="st15" x1="123.5" y1="-10.1" x2="162.5" y2="21.1"/>
	<line class="st15" x1="82.5" y1="-10" x2="152.4" y2="45.5"/>
	<line class="st15" x1="41.8" y1="-10" x2="137.6" y2="66.1"/>
	<line class="st15" x1="-4" y1="-11.5" x2="115.4" y2="83.4"/>
	<line class="st15" x1="-48.8" y1="-12.1" x2="85.2" y2="94.3"/>
	<line class="st15" x1="-62" y1="10.1" x2="45.2" y2="95.3"/>
	<line class="st15" x1="-49.4" y1="45.5" x2="6.9" y2="90.2"/>
	<g class="st2">
		<path class="st5" d="M-20-42.6c-3.7-0.3-4-4.5-8.5-5.2c-4.9-0.8-9.2,3-10.9,6.9c-1.3,3.1-1.4,6.6-0.7,10c0.6,3.2,2,6.2,3.1,9.3
			c0.9,2.3,2.1,4.6,4.7,5.7c2.8,1.2,5.9,0.2,8.9,0c3.3-0.2,6,1.7,9.3,0.7c5.6-1.6,7.8-6.1,9.6-10.8c2.5-6.4,4.7-13.4-0.7-19.2
			c-1.1-1.2-2.5-2.1-4.2-2.3C-14-48.1-15.6-42.3-20-42.6z"/>
		<path class="st5" d="M-20.2-56.1c0.7,1.1,1.7,3.1,1.8,5.8c0.2,3.3-1,5.9-1.6,7"/>
	</g>
	<g class="st2">
		<path class="st5" d="M26.2-42.6c-3.7-0.3-4-4.5-8.5-5.2c-4.9-0.8-9.2,3-10.9,6.9c-1.3,3.1-1.4,6.6-0.7,10c0.6,3.2,2,6.2,3.1,9.3
			c0.9,2.3,2.1,4.6,4.7,5.7c2.8,1.2,5.9,0.2,8.9,0c3.3-0.2,6,1.7,9.3,0.7c5.6-1.6,7.8-6.1,9.6-10.8c2.5-6.4,4.7-13.4-0.7-19.2
			c-1.1-1.2-2.5-2.1-4.2-2.3C32.3-48.1,30.7-42.3,26.2-42.6z"/>
		<path class="st5" d="M26.1-56.1c0.7,1.1,1.7,3.1,1.8,5.8c0.2,3.3-1,5.9-1.6,7"/>
	</g>
	<g class="st2">
		<path class="st5" d="M71.4-42.6c-3.7-0.3-4-4.5-8.5-5.2c-4.9-0.8-9.2,3-10.9,6.9c-1.3,3.1-1.4,6.6-0.7,10c0.6,3.2,2,6.2,3.1,9.3
			c0.9,2.3,2.1,4.6,4.7,5.7c2.8,1.2,5.9,0.2,8.9,0c3.3-0.2,6,1.7,9.3,0.7c5.6-1.6,7.8-6.1,9.6-10.8c2.5-6.4,4.7-13.4-0.7-19.2
			c-1.1-1.2-2.5-2.1-4.2-2.3C77.5-48.1,75.9-42.3,71.4-42.6z"/>
		<path class="st5" d="M71.3-56.1C72-55,73-53,73.1-50.3c0.2,3.3-1,5.9-1.6,7"/>
	</g>
</g>
<g id="Layer_7_copy_4" class="st0">
	<path class="st14" d="M167.2-10c0,10.7-1.6,32.6-14.7,55.5c-3.9,6.8-12.9,22-30.6,34c-23.6,15.9-47.8,15.9-68,15.9
		c-20.5,0-53.2-0.1-80.4-22.7c-13.3-11.1-20.4-23.5-23.8-29.4C-62.9,20.8-64.9-0.7-65-12L167.2-10z"/>
	<path class="st15" d="M-65.3-9.8c1.5-12.7,7.4-47.4,35.9-73c41.6-37.3,110.1-35.9,153.1-1.9c32.7,25.8,41.1,62.8,43.4,75.6"/>
	<line class="st15" x1="-59.7" y1="17.8" x2="-9.2" y2="-12.1"/>
	<line class="st15" x1="-50.3" y1="41.6" x2="38.9" y2="-11.1"/>
	<line class="st15" x1="-37.3" y1="63.6" x2="87.4" y2="-10.1"/>
	<line class="st15" x1="-13.6" y1="81.4" x2="141.3" y2="-10.2"/>
	<line class="st15" x1="21" y1="93.7" x2="166.2" y2="7.8"/>
	<line class="st15" x1="62.5" y1="95.3" x2="155" y2="40.6"/>
	<line class="st15" x1="123.5" y1="-10.1" x2="162.5" y2="21.1"/>
	<line class="st15" x1="82.5" y1="-10" x2="152.4" y2="45.5"/>
	<line class="st15" x1="41.8" y1="-10" x2="137.6" y2="66.1"/>
	<line class="st15" x1="-4" y1="-11.5" x2="115.4" y2="83.4"/>
	<line class="st15" x1="-48.8" y1="-12.1" x2="85.2" y2="94.3"/>
	<line class="st15" x1="-62" y1="10.1" x2="45.2" y2="95.3"/>
	<line class="st15" x1="-49.4" y1="45.5" x2="6.9" y2="90.2"/>
	<g class="st2">
		<path class="st5" d="M-19-42.6c-3.7-0.3-4-4.5-8.5-5.2c-4.9-0.8-9.2,3-10.9,6.9c-1.3,3.1-1.4,6.6-0.7,10c0.6,3.2,2,6.2,3.1,9.3
			c0.9,2.3,2.1,4.6,4.7,5.7c2.8,1.2,5.9,0.2,8.9,0c3.3-0.2,6,1.7,9.3,0.7c5.6-1.6,7.8-6.1,9.6-10.8c2.5-6.4,4.7-13.4-0.7-19.2
			c-1.1-1.2-2.5-2.1-4.2-2.3C-12.9-48.1-14.5-42.3-19-42.6z"/>
		<path class="st5" d="M-19.1-56.1c0.7,1.1,1.7,3.1,1.8,5.8c0.2,3.3-1,5.9-1.6,7"/>
	</g>
	<g class="st2">
		<path class="st5" d="M26.1-41.9c-3.7-0.3-4-4.5-8.5-5.2c-4.9-0.8-9.2,3-10.9,6.9c-1.3,3.1-1.4,6.6-0.7,10C6.6-27,8-24,9.1-20.9
			c0.9,2.3,2.1,4.6,4.7,5.7c2.8,1.2,5.9,0.2,8.9,0c3.3-0.2,6,1.7,9.3,0.7c5.6-1.6,7.8-6.1,9.6-10.8c2.5-6.4,4.7-13.4-0.7-19.2
			c-1.1-1.2-2.5-2.1-4.2-2.3C32.2-47.4,30.6-41.6,26.1-41.9z"/>
		<path class="st5" d="M26-55.5c0.7,1.1,1.7,3.1,1.8,5.8c0.2,3.3-1,5.9-1.6,7"/>
	</g>
	<g class="st2">
		<path class="st5" d="M71.3-41.9c-3.7-0.3-4-4.5-8.5-5.2c-4.9-0.8-9.2,3-10.9,6.9c-1.3,3.1-1.4,6.6-0.7,10c0.6,3.2,2,6.2,3.1,9.3
			c0.9,2.3,2.1,4.6,4.7,5.7c2.8,1.2,5.9,0.2,8.9,0c3.3-0.2,6,1.7,9.3,0.7c5.6-1.6,7.8-6.1,9.6-10.8c2.5-6.4,4.7-13.4-0.7-19.2
			c-1.1-1.2-2.5-2.1-4.2-2.3C77.3-47.4,75.8-41.6,71.3-41.9z"/>
		<path class="st5" d="M71.2-55.5c0.7,1.1,1.7,3.1,1.8,5.8c0.2,3.3-1,5.9-1.6,7"/>
	</g>
	<g class="st2">
		<path class="st5" d="M114.1-41.6c-3.7-0.3-4-4.5-8.5-5.2c-4.9-0.8-9.2,3-10.9,6.9c-1.3,3.1-1.4,6.6-0.7,10c0.6,3.2,2,6.2,3.1,9.3
			c0.9,2.3,2.1,4.6,4.7,5.7c2.8,1.2,5.9,0.2,8.9,0c3.3-0.2,6,1.7,9.3,0.7c5.6-1.6,7.8-6.1,9.6-10.8c2.5-6.4,4.7-13.4-0.7-19.2
			c-1.1-1.2-2.5-2.1-4.2-2.3C120.1-47.1,118.6-41.3,114.1-41.6z"/>
		<path class="st5" d="M113.9-55.1c0.7,1.1,1.7,3.1,1.8,5.8c0.2,3.3-1,5.9-1.6,7"/>
	</g>
</g>
</svg>
