<?xml version="1.0" encoding="utf-8"?>
<!-- Generator: Adobe Illustrator 21.1.0, SVG Export Plug-In . SVG Version: 6.00 Build 0)  -->
<svg version="1.1" xmlns="http://www.w3.org/2000/svg" xmlns:xlink="http://www.w3.org/1999/xlink" x="0px" y="0px"
	 viewBox="0 0 612 792" style="enable-background:new 0 0 612 792;" xml:space="preserve">
<style type="text/css">
	.st0{display:none;}
	.st1{display:inline;fill:#FFFFFF;stroke:#000000;stroke-miterlimit:10;}
	.st2{display:inline;fill:#8C6E53;stroke:#603913;stroke-width:2;stroke-linejoin:round;stroke-miterlimit:10;}
	.st3{display:inline;fill:#76C378;stroke:#009444;stroke-width:2;stroke-linejoin:round;stroke-miterlimit:10;}
	.st4{display:inline;}
	.st5{fill:#E7503F;stroke:#931A1D;stroke-width:2;stroke-linejoin:round;stroke-miterlimit:10;}
	.st6{display:inline;fill:#E7503F;stroke:#931A1D;stroke-width:2;stroke-linejoin:round;stroke-miterlimit:10;}
	.st7{fill:#8C6E53;stroke:#603913;stroke-width:2;stroke-linejoin:round;stroke-miterlimit:10;}
	.st8{fill:#76C378;stroke:#009444;stroke-width:2;stroke-linejoin:round;stroke-miterlimit:10;}
	.st9{fill:#605D5C;stroke:#3A3636;stroke-width:2;stroke-linejoin:round;stroke-miterlimit:10;}
	.st10{display:none;fill:#E8E352;stroke:#B5BA4E;stroke-width:6;stroke-linejoin:round;stroke-miterlimit:10;}
	.st11{fill:#AED693;stroke:#79AA67;stroke-width:6;stroke-linejoin:round;stroke-miterlimit:10;}
	.st12{fill:#878787;stroke:#5E5F5E;stroke-width:6;stroke-linejoin:round;stroke-miterlimit:10;}
	.st13{fill:#878787;stroke:#5E605F;stroke-width:6;stroke-linejoin:round;stroke-miterlimit:10;}
	.st14{fill:#E8E552;stroke:#E4C74A;stroke-width:6;stroke-linejoin:round;stroke-miterlimit:10;}
	.st15{fill:none;stroke:#E4C74A;stroke-width:6;stroke-linejoin:round;stroke-miterlimit:10;}
	.st16{display:inline;fill:none;stroke:#B5BA4E;stroke-width:6;stroke-linejoin:round;stroke-miterlimit:10;}
	.st17{display:inline;fill:#C08C49;stroke:#A56928;stroke-width:4;stroke-linejoin:round;stroke-miterlimit:10;}
	.st18{display:inline;fill:none;stroke:#A56928;stroke-width:4;stroke-linejoin:round;stroke-miterlimit:10;}
	.st19{fill:#F1EB67;stroke:#E8E491;stroke-miterlimit:10;}
	.st20{fill:#846628;}
	.st21{display:inline;fill:#662C90;}
	.st22{display:inline;fill:#2D6733;}
	.st23{display:inline;fill:#846628;}
	.st24{display:inline;fill:#E12C26;}
	.st25{fill:#F9A51B;}
	.st26{fill:#5FC6D1;stroke:#5F7EAA;stroke-width:4;stroke-miterlimit:10;}
	.st27{fill:#5EC6D1;stroke:#5F7EAA;stroke-width:4;stroke-linejoin:round;stroke-miterlimit:10;}
</style>
<g id="Layer_1_copy" class="st0">
	<path class="st1" d="M433.9,454.9"/>
</g>
<g id="Layer_3" class="st0">
	<g>
		<path class="st2" d="M321.5,315.2c1.9,4.9-3.3,6.7-9.3,23.7c-4,11.2-5.2,25.9-7.4,55.1c-0.8,10.8-1.6,21.2-2,35.5
			c0,1.8-0.8,18.3,0.2,36.9c1.6,30,3.6,63.5,12.6,107.8c6.5,31.6,14.5,58.5,21.9,80l9,19.7c-3-2.9-7.4-7-12.7-12
			c-16.5-15.3-20.7-19.2-21.6-18.4c-1.3,1.1,5.6,9.4,10.7,24.7c3.1,9.4,5.6,21.7,3.4,22.6c-2.2,0.9-7.2-10.6-19.9-26
			c-9.7-11.8-22.9-24.7-26-22.6c-2.8,1.9,6.1,13.6,4.7,32.2c-0.6,8.6-3.2,18.4-6.2,18.5c-3.4,0.1-3.3-13.2-12.5-28.4
			c-6.1-10-18.3-24.3-26.6-21.6c-6.5,2.1-8,13.9-8.4,16.5c-2.4,18.3,9.7,31.4,7.6,32.8c-2.4,1.6-18.8-10.7-24.6-29.7
			c-2.6-8.4-2.4-15.8-5.1-16.1c-2.8-0.4-4.3,7.6-11.9,17c-6.6,8.2-15.9,15.1-17.8,13.6c-2.3-1.8,5.5-14.7,9.7-22.6
			c10.5-19.8,13.1-40.1,20.8-80.3c2.3-12.2,4.1-23.6,5.5-34.3c1.9-14.7,5.4-41.3,5.6-73.6c0.2-52.7-8.1-115.1-11.1-127.3
			c-3-12.2-8.2-22.3-9.7-23.5c0,0,0,0,0,0C200.3,313.2,312.9,292.9,321.5,315.2z"/>
		<path class="st3" d="M419.8,266.4c-0.7-5.8-2.3-19-12.2-30.6c-9.7-11.4-22.6-15.6-31.6-18.5c-12.1-3.9-21.7-4.2-21.7-5.9
			c0-1.7,8.7-1.3,17.3-4.4c14.3-5.1,25.5-18.4,30.2-31.7c9.5-26.9-8.4-51.2-11.8-55.8c-15.9-21.6-39.3-26.6-48.3-27.9
			c-1.2-0.2-2.1-0.3-2.9-0.4c-6.8-0.7-37.4-4.1-47.8,10.5c-5.5,7.7-3.6,16.4-6.5,16.7c-3.1,0.3-4.8-10.5-9.6-18.5
			c-13.7-22.6-56.5-28.5-86.8-16.1c-6.9,2.8-20.6,8.7-28.6,22.9c-2.3,4.2-8.7,15.6-5.3,27.1c1.9,6.3,5.5,8.4,4.3,10.7
			c-2.6,5.1-20.8-5.5-42.6,0c-4.9,1.2-13.9,3.6-21.9,10.9c-12.8,11.8-19.2,33.2-11.9,50.7c7.8,18.8,28.3,25.8,33.6,27.6
			c9.4,3.2,18.7,3.7,18.7,5.2c-0.1,1.8-12.8-0.8-23.9,6c-11.4,6.9-17,21.3-17.2,33.6c0,3.2,0.1,15.7,9,26.9
			c10.9,13.8,29.9,17.9,44,16.4c16.2-1.7,22.2-10.6,41.4-9.3c8.8,0.6,12.4,2.8,14.5,4.5c4.8,4,112.7,5.4,121,0.1
			c11.5-7.3,24.1,8,47.7,6.5c17.3-1.1,36.9-11,45.1-27.9C421.8,284,420.5,272.5,419.8,266.4z"/>
		<g class="st4">
			<path class="st5" d="M543.7,247.5c-1.9-0.1-2.1-2.6-4.5-3c-2.6-0.4-4.9,1.7-5.8,4c-0.7,1.8-0.7,3.8-0.4,5.7
				c0.3,1.9,1,3.6,1.7,5.3c0.5,1.3,1.1,2.6,2.5,3.3c1.5,0.7,3.1,0.1,4.7,0c1.7-0.1,3.2,1,4.9,0.4c2.9-0.9,4.1-3.5,5.1-6.2
				c1.3-3.7,2.5-7.7-0.3-11c-0.6-0.7-1.3-1.2-2.2-1.3C546.9,244.4,546.1,247.7,543.7,247.5z"/>
			<path class="st5" d="M543.7,239.7c0.3,0.6,0.9,1.8,1,3.3c0.1,1.9-0.5,3.4-0.8,4"/>
		</g>
		<g>
			<path class="st6" d="M563.2,404.7c-1.9-0.1-2.1-2.6-4.5-3c-2.6-0.4-4.9,1.7-5.8,4c-0.7,1.8-0.7,3.8-0.4,5.7
				c0.3,1.9,1,3.6,1.7,5.3c0.5,1.3,1.1,2.6,2.5,3.3c1.5,0.7,3.1,0.1,4.7,0c1.7-0.1,3.2,1,4.9,0.4c2.9-0.9,4.1-3.5,5.1-6.2
				c1.3-3.7,2.5-7.7-0.3-11c-0.6-0.7-1.3-1.2-2.2-1.3C566.4,401.6,565.5,404.9,563.2,404.7z"/>
			<path class="st6" d="M563.1,397c0.3,0.6,0.9,1.8,1,3.3c0.1,1.9-0.5,3.4-0.8,4"/>
		</g>
		<g>
			<path class="st6" d="M542.9,204.9c-1.9-0.1-2.1-2.6-4.5-3c-2.6-0.4-4.9,1.7-5.8,4c-0.7,1.8-0.7,3.8-0.4,5.7
				c0.3,1.9,1,3.6,1.7,5.3c0.5,1.3,1.1,2.6,2.5,3.3c1.5,0.7,3.1,0.1,4.7,0c1.7-0.1,3.2,1,4.9,0.4c2.9-0.9,4.1-3.5,5.1-6.2
				c1.3-3.7,2.5-7.7-0.3-11c-0.6-0.7-1.3-1.2-2.2-1.3C546.1,201.7,545.2,205,542.9,204.9z"/>
			<path class="st6" d="M542.8,197.1c0.3,0.6,0.9,1.8,1,3.3c0.1,1.9-0.5,3.4-0.8,4"/>
		</g>
		<g>
			<path class="st6" d="M555.9,311.1c-1.9-0.1-2.1-2.6-4.5-3c-2.6-0.4-4.9,1.7-5.8,4c-0.7,1.8-0.7,3.8-0.4,5.7
				c0.3,1.9,1,3.6,1.7,5.3c0.5,1.3,1.1,2.6,2.5,3.3c1.5,0.7,3.1,0.1,4.7,0c1.7-0.1,3.2,1,4.9,0.4c2.9-0.9,4.1-3.5,5.1-6.2
				c1.3-3.7,2.5-7.7-0.3-11c-0.6-0.7-1.3-1.2-2.2-1.3C559.1,308,558.3,311.3,555.9,311.1z"/>
			<path class="st6" d="M555.8,303.3c0.3,0.6,0.9,1.8,1,3.3c0.1,1.9-0.5,3.4-0.8,4"/>
		</g>
		<g>
			<path class="st6" d="M532.5,143.9c-1.9-0.1-2.1-2.6-4.5-3c-2.6-0.4-4.9,1.7-5.8,4c-0.7,1.8-0.7,3.8-0.4,5.7
				c0.3,1.9,1,3.6,1.7,5.3c0.5,1.3,1.1,2.6,2.5,3.3c1.5,0.7,3.1,0.1,4.7,0c1.7-0.1,3.2,1,4.9,0.4c2.9-0.9,4.1-3.5,5.1-6.2
				c1.3-3.7,2.5-7.7-0.3-11c-0.6-0.7-1.3-1.2-2.2-1.3C535.7,140.8,534.9,144.1,532.5,143.9z"/>
			<path class="st6" d="M532.4,136.1c0.3,0.6,0.9,1.8,1,3.3c0.1,1.9-0.5,3.4-0.8,4"/>
		</g>
		<g>
			<path class="st6" d="M547.6,280.5c-1.9-0.1-2.1-2.6-4.5-3c-2.6-0.4-4.9,1.7-5.8,4c-0.7,1.8-0.7,3.8-0.4,5.7
				c0.3,1.9,1,3.6,1.7,5.3c0.5,1.3,1.1,2.6,2.5,3.3c1.5,0.7,3.1,0.1,4.7,0c1.7-0.1,3.2,1,4.9,0.4c2.9-0.9,4.1-3.5,5.1-6.2
				c1.3-3.7,2.5-7.7-0.3-11c-0.6-0.7-1.3-1.2-2.2-1.3C550.8,277.3,550,280.6,547.6,280.5z"/>
			<path class="st6" d="M547.5,272.7c0.3,0.6,0.9,1.8,1,3.3c0.1,1.9-0.5,3.4-0.8,4"/>
		</g>
		<g>
			<path class="st6" d="M546.1,176.7c-1.9-0.1-2.1-2.6-4.5-3c-2.6-0.4-4.9,1.7-5.8,4c-0.7,1.8-0.7,3.8-0.4,5.7
				c0.3,1.9,1,3.6,1.7,5.3c0.5,1.3,1.1,2.6,2.5,3.3c1.5,0.7,3.1,0.1,4.7,0c1.7-0.1,3.2,1,4.9,0.4c2.9-0.9,4.1-3.5,5.1-6.2
				c1.3-3.7,2.5-7.7-0.3-11c-0.6-0.7-1.3-1.2-2.2-1.3C549.3,173.6,548.5,176.9,546.1,176.7z"/>
			<path class="st6" d="M546.1,168.9c0.3,0.6,0.9,1.8,1,3.3c0.1,1.9-0.5,3.4-0.8,4"/>
		</g>
		<g>
			<path class="st6" d="M587.9,174.4c-1.9-0.1-2.1-2.6-4.5-3c-2.6-0.4-4.9,1.7-5.8,4c-0.7,1.8-0.7,3.8-0.4,5.7
				c0.3,1.9,1,3.6,1.7,5.3c0.5,1.3,1.1,2.6,2.5,3.3c1.5,0.7,3.1,0.1,4.7,0c1.7-0.1,3.2,1,4.9,0.4c2.9-0.9,4.1-3.5,5.1-6.2
				c1.3-3.7,2.5-7.7-0.3-11c-0.6-0.7-1.3-1.2-2.2-1.3C591.1,171.3,590.3,174.6,587.9,174.4z"/>
			<path class="st6" d="M587.9,166.7c0.3,0.6,0.9,1.8,1,3.3c0.1,1.9-0.5,3.4-0.8,4"/>
		</g>
	</g>
	<g class="st4">
		<path class="st5" d="M328.8,361.3c-4.4-0.3-4.8-5.2-10.2-6c-5.9-0.9-11.1,3.4-13.1,8c-1.6,3.6-1.6,7.7-0.9,11.5
			c0.8,3.7,2.3,7.2,3.8,10.7c1.1,2.7,2.6,5.3,5.7,6.5c3.4,1.4,7.1,0.2,10.7,0c4-0.2,7.2,2,11.1,0.8c6.7-1.9,9.3-7,11.6-12.4
			c3-7.4,5.6-15.4-0.8-22.1c-1.3-1.3-3-2.4-5-2.7C336,355,334.1,361.7,328.8,361.3z"/>
		<path class="st5" d="M328.6,345.7c0.8,1.3,2,3.6,2.2,6.7c0.3,3.9-1.2,6.8-1.9,8.1"/>
	</g>
</g>
<g id="Layer_3_copy" class="st0">
	<g class="st4">
		<path class="st7" d="M310,313.8c1.9,4.9-3.3,6.7-9.3,23.7c-4,11.2-5.2,25.9-7.4,55.1c-0.8,10.8-1.6,21.2-2,35.5
			c0,1.8-0.8,18.3,0.2,36.9c1.6,30,3.6,63.5,12.6,107.8c6.5,31.6,14.5,58.5,21.9,80l9,19.7c-3-2.9-7.4-7-12.7-12
			c-16.5-15.3-20.7-19.2-21.6-18.4c-1.3,1.1,5.6,9.4,10.7,24.7c3.1,9.4,5.6,21.7,3.4,22.6c-2.2,0.9-7.2-10.6-19.9-26
			c-9.7-11.8-22.9-24.7-26-22.6c-2.8,1.9,6.1,13.6,4.7,32.2c-0.6,8.6-3.2,18.4-6.2,18.5c-3.4,0.1-3.3-13.2-12.5-28.4
			c-6.1-10-18.3-24.3-26.6-21.6c-6.5,2.1-8,13.9-8.4,16.5c-2.4,18.3,9.7,31.4,7.6,32.8c-2.4,1.6-18.8-10.7-24.6-29.7
			c-2.6-8.4-2.4-15.8-5.1-16.1c-2.8-0.4-4.3,7.6-11.9,17c-6.6,8.2-15.9,15.1-17.8,13.6c-2.3-1.8,5.5-14.7,9.7-22.6
			c10.5-19.8,13.1-40.1,20.8-80.3c2.3-12.2,4.1-23.6,5.5-34.3c1.9-14.7,5.4-41.3,5.6-73.6c0.2-52.7-8.1-115.1-11.1-127.3
			c-3-12.2-8.2-22.3-9.7-23.5c0,0,0,0,0,0C188.8,311.9,301.3,291.6,310,313.8z"/>
		<path class="st8" d="M408.2,265c-0.7-5.8-2.3-19-12.2-30.6c-9.7-11.4-22.6-15.6-31.6-18.5c-12.1-3.9-21.7-4.2-21.7-5.9
			c0-1.7,8.7-1.3,17.3-4.4c14.3-5.1,25.5-18.4,30.2-31.7c9.5-26.9-8.4-51.2-11.8-55.8c-15.9-21.6-39.3-26.6-48.3-27.9
			c-1.2-0.2-2.1-0.3-2.9-0.4c-6.8-0.7-37.4-4.1-47.8,10.5c-5.5,7.7-3.6,16.4-6.5,16.7c-3.1,0.3-4.8-10.5-9.6-18.5
			c-13.7-22.6-56.5-28.5-86.8-16.1c-6.9,2.8-20.6,8.7-28.6,22.9c-2.3,4.2-8.7,15.6-5.3,27.1c1.9,6.3,5.5,8.4,4.3,10.7
			c-2.6,5.1-20.8-5.5-42.6,0c-4.9,1.2-13.9,3.6-21.9,10.9c-12.8,11.8-19.2,33.2-11.9,50.7c7.8,18.8,28.3,25.8,33.6,27.6
			c9.4,3.2,18.7,3.7,18.7,5.2c-0.1,1.8-12.8-0.8-23.9,6c-11.4,6.9-17,21.3-17.2,33.6c0,3.2,0.1,15.7,9,26.9
			c10.9,13.8,29.9,17.9,44,16.4c16.2-1.7,22.2-10.6,41.4-9.3c8.8,0.6,12.4,2.8,14.5,4.5c4.8,4,112.7,5.4,121,0.1
			c11.5-7.3,24.1,8,47.7,6.5c17.3-1.1,36.9-11,45.1-27.9C410.2,282.7,408.9,271.1,408.2,265z"/>
		<g>
			<path class="st9" d="M153,284c-1.9-0.1-2.1-2.6-4.5-3c-2.6-0.4-4.9,1.7-5.8,4c-0.7,1.8-0.7,3.8-0.4,5.7c0.3,1.9,1,3.6,1.7,5.3
				c0.5,1.3,1.1,2.6,2.5,3.3c1.5,0.7,3.1,0.1,4.7,0c1.7-0.1,3.2,1,4.9,0.4c2.9-0.9,4.1-3.5,5.1-6.2c1.3-3.7,2.5-7.7-0.3-11
				c-0.6-0.7-1.3-1.2-2.2-1.3C156.2,280.8,155.4,284.2,153,284z"/>
			<path class="st9" d="M152.9,276.2c0.3,0.6,0.9,1.8,1,3.3c0.1,1.9-0.5,3.4-0.8,4"/>
		</g>
		<g>
			<path class="st5" d="M141.7,179.9c-1.9-0.1-2.1-2.6-4.5-3c-2.6-0.4-4.9,1.7-5.8,4c-0.7,1.8-0.7,3.8-0.4,5.7
				c0.3,1.9,1,3.6,1.7,5.3c0.5,1.3,1.1,2.6,2.5,3.3c1.5,0.7,3.1,0.1,4.7,0c1.7-0.1,3.2,1,4.9,0.4c2.9-0.9,4.1-3.5,5.1-6.2
				c1.3-3.7,2.5-7.7-0.3-11c-0.6-0.7-1.3-1.2-2.2-1.3C144.9,176.8,144,180.1,141.7,179.9z"/>
			<path class="st5" d="M141.6,172.1c0.3,0.6,0.9,1.8,1,3.3c0.1,1.9-0.5,3.4-0.8,4"/>
		</g>
		<g>
			<path class="st5" d="M211.8,222.7c-1.9-0.1-2.1-2.6-4.5-3c-2.6-0.4-4.9,1.7-5.8,4c-0.7,1.8-0.7,3.8-0.4,5.7
				c0.3,1.9,1,3.6,1.7,5.3c0.5,1.3,1.1,2.6,2.5,3.3c1.5,0.7,3.1,0.1,4.7,0c1.7-0.1,3.2,1,4.9,0.4c2.9-0.9,4.1-3.5,5.1-6.2
				c1.3-3.7,2.5-7.7-0.3-11c-0.6-0.7-1.3-1.2-2.2-1.3C214.9,219.6,214.1,222.9,211.8,222.7z"/>
			<path class="st5" d="M211.7,214.9c0.3,0.6,0.9,1.8,1,3.3c0.1,1.9-0.5,3.4-0.8,4"/>
		</g>
		<g>
			<path class="st5" d="M272.9,281c-1.9-0.1-2.1-2.6-4.5-3c-2.6-0.4-4.9,1.7-5.8,4c-0.7,1.8-0.7,3.8-0.4,5.7c0.3,1.9,1,3.6,1.7,5.3
				c0.5,1.3,1.1,2.6,2.5,3.3c1.5,0.7,3.1,0.1,4.7,0c1.7-0.1,3.2,1,4.9,0.4c2.9-0.9,4.1-3.5,5.1-6.2c1.3-3.7,2.5-7.7-0.3-11
				c-0.6-0.7-1.3-1.2-2.2-1.3C276.1,277.8,275.3,281.1,272.9,281z"/>
			<path class="st5" d="M272.8,273.2c0.3,0.6,0.9,1.8,1,3.3c0.1,1.9-0.5,3.4-0.8,4"/>
		</g>
		<g>
			<path class="st5" d="M334.5,137.6c-1.9-0.1-2.1-2.6-4.5-3c-2.6-0.4-4.9,1.7-5.8,4c-0.7,1.8-0.7,3.8-0.4,5.7
				c0.3,1.9,1,3.6,1.7,5.3c0.5,1.3,1.1,2.6,2.5,3.3c1.5,0.7,3.1,0.1,4.7,0c1.7-0.1,3.2,1,4.9,0.4c2.9-0.9,4.1-3.5,5.1-6.2
				c1.3-3.7,2.5-7.7-0.3-11c-0.6-0.7-1.3-1.2-2.2-1.3C337.7,134.4,336.8,137.7,334.5,137.6z"/>
			<path class="st5" d="M334.4,129.8c0.3,0.6,0.9,1.8,1,3.3c0.1,1.9-0.5,3.4-0.8,4"/>
		</g>
		<g>
			<path class="st5" d="M363.1,262.7c-1.9-0.1-2.1-2.6-4.5-3c-2.6-0.4-4.9,1.7-5.8,4c-0.7,1.8-0.7,3.8-0.4,5.7
				c0.3,1.9,1,3.6,1.7,5.3c0.5,1.3,1.1,2.6,2.5,3.3c1.5,0.7,3.1,0.1,4.7,0c1.7-0.1,3.2,1,4.9,0.4c2.9-0.9,4.1-3.5,5.1-6.2
				c1.3-3.7,2.5-7.7-0.3-11c-0.6-0.7-1.3-1.2-2.2-1.3C366.3,259.6,365.5,262.9,363.1,262.7z"/>
			<path class="st5" d="M363,255c0.3,0.6,0.9,1.8,1,3.3c0.1,1.9-0.5,3.4-0.8,4"/>
		</g>
		<g>
			<path class="st5" d="M291.2,201.7c-1.9-0.1-2.1-2.6-4.5-3c-2.6-0.4-4.9,1.7-5.8,4c-0.7,1.8-0.7,3.8-0.4,5.7
				c0.3,1.9,1,3.6,1.7,5.3c0.5,1.3,1.1,2.6,2.5,3.3c1.5,0.7,3.1,0.1,4.7,0c1.7-0.1,3.2,1,4.9,0.4c2.9-0.9,4.1-3.5,5.1-6.2
				c1.3-3.7,2.5-7.7-0.3-11c-0.6-0.7-1.3-1.2-2.2-1.3C294.4,198.5,293.5,201.9,291.2,201.7z"/>
			<path class="st5" d="M291.1,193.9c0.3,0.6,0.9,1.8,1,3.3c0.1,1.9-0.5,3.4-0.8,4"/>
		</g>
		<g>
			<path class="st5" d="M201.6,130.8c-1.9-0.1-2.1-2.6-4.5-3c-2.6-0.4-4.9,1.7-5.8,4c-0.7,1.8-0.7,3.8-0.4,5.7
				c0.3,1.9,1,3.6,1.7,5.3c0.5,1.3,1.1,2.6,2.5,3.3c1.5,0.7,3.1,0.1,4.7,0c1.7-0.1,3.2,1,4.9,0.4c2.9-0.9,4.1-3.5,5.1-6.2
				c1.3-3.7,2.5-7.7-0.3-11c-0.6-0.7-1.3-1.2-2.2-1.3C204.7,127.7,203.9,131,201.6,130.8z"/>
			<path class="st5" d="M201.5,123c0.3,0.6,0.9,1.8,1,3.3c0.1,1.9-0.5,3.4-0.8,4"/>
		</g>
		<g>
			<path class="st9" d="M291.2,201.7c-1.9-0.1-2.1-2.6-4.5-3c-2.6-0.4-4.9,1.7-5.8,4c-0.7,1.8-0.7,3.8-0.4,5.7
				c0.3,1.9,1,3.6,1.7,5.3c0.5,1.3,1.1,2.6,2.5,3.3c1.5,0.7,3.1,0.1,4.7,0c1.7-0.1,3.2,1,4.9,0.4c2.9-0.9,4.1-3.5,5.1-6.2
				c1.3-3.7,2.5-7.7-0.3-11c-0.6-0.7-1.3-1.2-2.2-1.3C294.4,198.5,293.5,201.9,291.2,201.7z"/>
			<path class="st9" d="M291.1,193.9c0.3,0.6,0.9,1.8,1,3.3c0.1,1.9-0.5,3.4-0.8,4"/>
		</g>
		<g>
			<path class="st9" d="M211.8,222.7c-1.9-0.1-2.1-2.6-4.5-3c-2.6-0.4-4.9,1.7-5.8,4c-0.7,1.8-0.7,3.8-0.4,5.7
				c0.3,1.9,1,3.6,1.7,5.3c0.5,1.3,1.1,2.6,2.5,3.3c1.5,0.7,3.1,0.1,4.7,0c1.7-0.1,3.2,1,4.9,0.4c2.9-0.9,4.1-3.5,5.1-6.2
				c1.3-3.7,2.5-7.7-0.3-11c-0.6-0.7-1.3-1.2-2.2-1.3C214.9,219.6,214.1,222.9,211.8,222.7z"/>
			<path class="st9" d="M211.7,214.9c0.3,0.6,0.9,1.8,1,3.3c0.1,1.9-0.5,3.4-0.8,4"/>
		</g>
		<g>
			<path class="st9" d="M272.9,281c-1.9-0.1-2.1-2.6-4.5-3c-2.6-0.4-4.9,1.7-5.8,4c-0.7,1.8-0.7,3.8-0.4,5.7c0.3,1.9,1,3.6,1.7,5.3
				c0.5,1.3,1.1,2.6,2.5,3.3c1.5,0.7,3.1,0.1,4.7,0c1.7-0.1,3.2,1,4.9,0.4c2.9-0.9,4.1-3.5,5.1-6.2c1.3-3.7,2.5-7.7-0.3-11
				c-0.6-0.7-1.3-1.2-2.2-1.3C276.1,277.8,275.3,281.1,272.9,281z"/>
			<path class="st9" d="M272.8,273.2c0.3,0.6,0.9,1.8,1,3.3c0.1,1.9-0.5,3.4-0.8,4"/>
		</g>
	</g>
</g>
<g id="Layer_5">
	<ellipse class="st10" cx="283.3" cy="407.1" rx="119.8" ry="146.8"/>
	<path class="st11" d="M126.9,159.9c-2.6-0.1-8.1-9.5-9.3-11c-5.5-7-10.3-14.5-17.1-21.1c2,1.9,30.1,10.6,31,10.5
		c6.1-0.6,9.9-11.8,12.7-14.6c-1.6,1.7,20.1,14.2,22.7,16.2c0,0,19.8-12.5,21.3-14.2c5,5.4,10.1,10.8,15.1,16.2
		c-1-1.4,24.3-12,27.2-13.5c-3.1,1.5-13.4,26.8-17.2,34.3C184.5,161.7,155.7,160.8,126.9,159.9z"/>
	<path class="st11" d="M139,182.8c-2,0-6.1-9.4-7-10.9c-4.1-6.9-7.8-14.3-12.9-20.8c1.5,1.9,23,10.2,23.7,10.1
		c4.7-0.7,7.8-11.9,10-14.8c-1.3,1.7,15.3,13.9,17.3,15.8c0,0,15.5-12.7,16.6-14.5c3.8,5.3,7.6,10.6,11.4,15.9
		c-0.7-1.4,18.9-12.4,21.1-13.9c-2.4,1.6-10.7,27-13.7,34.5C183.3,183.8,161.2,183.3,139,182.8z"/>
	<path class="st11" d="M146.6,201c-1.6,0-4.8-9.3-5.5-10.8c-3.2-6.8-6-14.2-10.1-20.6c1.2,1.8,18.3,9.9,18.9,9.8
		c3.7-0.7,6.4-12,8.2-14.9c-1,1.7,12.1,13.7,13.6,15.6c0,0,12.5-12.9,13.5-14.7c3,5.3,6,10.5,8.9,15.8c-0.6-1.4,15.3-12.6,17.1-14.1
		c-2,1.6-8.9,27.1-11.4,34.7C182,201.5,164.3,201.2,146.6,201z"/>
	<path class="st12" d="M166.7,214.7c0,0-32.6-1.7-42.6,1.6s-25.1,20.2-27.5,28.6c-2.5,8.3-1.9,36.1-1.9,36.1l71.2-0.1L166.7,214.7z"
		/>
	<path class="st12" d="M94.3,294.5c0,0-1.8,15.4-1.6,25.3c-0.2,9.5,2.3,23.8,2.3,23.8l71.7-0.7l-0.9-48.1L94.3,294.5z"/>
	<path class="st12" d="M178.1,214.6c0,0,32.6-1,42.5,2.6c9.9,3.6,22.6,20.4,26.3,26.8c3.6,6.4,2.8,36.7,2.8,36.7l-71.2,0.1
		L178.1,214.6z"/>
	<path class="st12" d="M251.6,294.8c0,0,1.8,15.4,1.6,25.3c0.2,9.5-2.3,23.8-2.3,23.8l-71.7-0.8l0.3-48.1L251.6,294.8z"/>
	<path class="st12" d="M166.6,422.4c0,0-32.6,1.4-42.5-2.1c-9.9-3.5-24.8-20.5-27.2-28.8s-1.5-36.1-1.5-36.1l71.2,0.8L166.6,422.4z"
		/>
	<path class="st12" d="M181.3,421.9c0,0,32.6,1.4,42.5-2s24.9-20.5,27.2-28.8s1.5-36.1,1.5-36.1l-71.2,0.7L181.3,421.9z"/>
	<line class="st12" x1="96.9" y1="254.8" x2="146.6" y2="213.9"/>
	<line class="st12" x1="95.3" y1="277.7" x2="165.4" y2="222.6"/>
	<line class="st12" x1="128.4" y1="280" x2="165.4" y2="250.1"/>
	<line class="st12" x1="96.5" y1="241.2" x2="150" y2="279"/>
	<line class="st12" x1="107.9" y1="226.5" x2="165.4" y2="267.4"/>
	<line class="st12" x1="124.1" y1="216.3" x2="166.2" y2="240.7"/>
	<line class="st12" x1="93.7" y1="264.3" x2="119.5" y2="280.3"/>
	<line class="st12" x1="184.6" y1="215" x2="249.7" y2="276"/>
	<line class="st12" x1="205.5" y1="215.5" x2="250.4" y2="256.4"/>
	<line class="st12" x1="177.6" y1="254.4" x2="205.3" y2="280.2"/>
	<line class="st12" x1="178.6" y1="232.2" x2="227.3" y2="279.6"/>
	<line class="st12" x1="211.1" y1="216.3" x2="177.2" y2="240.7"/>
	<line class="st12" x1="234.7" y1="227.3" x2="179.6" y2="276.1"/>
	<line class="st12" x1="207.7" y1="280.6" x2="248.1" y2="247.7"/>
	<line class="st12" x1="93.3" y1="314.3" x2="127.8" y2="295.7"/>
	<line class="st12" x1="93.9" y1="334.7" x2="164.5" y2="297.4"/>
	<line class="st12" x1="119.9" y1="342.6" x2="166.2" y2="320"/>
	<line class="st12" x1="92.2" y1="308.7" x2="143" y2="342.6"/>
	<line class="st12" x1="108" y1="294.5" x2="167.4" y2="334.7"/>
	<line class="st12" x1="143.6" y1="295.1" x2="166.8" y2="308.1"/>
	<line class="st12" x1="93.3" y1="326.2" x2="119.9" y2="342.6"/>
	<line class="st12" x1="210.3" y1="342.6" x2="253.1" y2="320.1"/>
	<line class="st12" x1="179.8" y1="336.4" x2="252.1" y2="299.1"/>
	<line class="st12" x1="179.2" y1="312.6" x2="217.1" y2="295.1"/>
	<line class="st12" x1="188.8" y1="295.1" x2="252.1" y2="333.5"/>
	<line class="st12" x1="225" y1="294" x2="253.8" y2="311.5"/>
	<line class="st12" x1="179.2" y1="312.6" x2="230.7" y2="342"/>
	<line class="st12" x1="179.2" y1="329" x2="204.1" y2="342.6"/>
	<line class="st12" x1="109.7" y1="408.7" x2="166.6" y2="356.2"/>
	<line class="st12" x1="96.1" y1="388.4" x2="133.4" y2="355.6"/>
	<line class="st12" x1="137.4" y1="421.7" x2="166.2" y2="395.2"/>
	<line class="st12" x1="112" y1="355.6" x2="166.2" y2="385"/>
	<line class="st12" x1="95.6" y1="370.3" x2="166.8" y2="407.6"/>
	<line class="st12" x1="100.7" y1="397.4" x2="157.2" y2="422.8"/>
	<line class="st12" x1="147" y1="355" x2="165.7" y2="365.2"/>
	<line class="st12" x1="225.6" y1="356.1" x2="252.1" y2="370.3"/>
	<line class="st12" x1="187.7" y1="356.1" x2="251" y2="391"/>
	<line class="st12" x1="180.9" y1="378.8" x2="237.4" y2="409.3"/>
	<line class="st12" x1="180.9" y1="401.9" x2="212.6" y2="420.6"/>
	<line class="st12" x1="180.9" y1="385" x2="213.1" y2="355.6"/>
	<line class="st12" x1="180.9" y1="409.3" x2="252.6" y2="354.9"/>
	<line class="st12" x1="196.7" y1="421.7" x2="251.6" y2="379.4"/>
	<path class="st11" d="M311.4,158.9c-2.6-0.1-8.1-9.5-9.3-11c-5.5-7-10.3-14.5-17.1-21.1c2,1.9,30.1,10.6,31,10.5
		c6.1-0.6,9.9-11.8,12.7-14.6c-1.6,1.7,20.1,14.2,22.7,16.2c0,0,19.8-12.5,21.3-14.2c5,5.4,10.1,10.8,15.1,16.2
		c-1-1.4,24.3-12,27.2-13.5c-3.1,1.5-13.4,26.8-17.2,34.3C369,160.8,340.2,159.9,311.4,158.9z"/>
	<path class="st11" d="M323.5,181.8c-2,0-6.1-9.4-7-10.9c-4.1-6.9-7.8-14.3-12.9-20.8c1.5,1.9,23,10.2,23.7,10.1
		c4.7-0.7,7.8-11.9,10-14.8c-1.3,1.7,15.3,13.9,17.3,15.8c0,0,15.5-12.7,16.6-14.5c3.8,5.3,7.6,10.6,11.4,15.9
		c-0.7-1.4,18.9-12.4,21.1-13.9c-2.4,1.6-10.7,27-13.7,34.5C367.8,182.9,345.7,182.3,323.5,181.8z"/>
	<path class="st11" d="M331,200c-1.6,0-4.8-9.3-5.5-10.8c-3.2-6.8-6-14.2-10.1-20.6c1.2,1.8,18.3,9.9,18.9,9.8
		c3.7-0.7,6.4-12,8.2-14.9c-1,1.7,12.1,13.7,13.6,15.6c0,0,12.5-12.9,13.5-14.7c3,5.3,6,10.5,8.9,15.8c-0.6-1.4,15.3-12.6,17.1-14.1
		c-2,1.6-8.9,27.1-11.4,34.7C366.5,200.5,348.8,200.3,331,200z"/>
	<path class="st13" d="M351.2,213.7c0,0-32.6-1.7-42.6,1.6s-25.1,20.2-27.5,28.6c-2.5,8.3-1.9,36.1-1.9,36.1l71.2-0.1L351.2,213.7z"
		/>
	<path class="st14" d="M278.8,293.6c0,0-1.8,15.4-1.6,25.3c-0.2,9.5,2.3,23.8,2.3,23.8l71.7-0.7l-0.9-48.1L278.8,293.6z"/>
	<path class="st14" d="M362.6,213.6c0,0,32.6-1,42.5,2.6c9.9,3.6,22.6,20.4,26.3,26.8c3.6,6.4,2.8,36.7,2.8,36.7l-71.2,0.1
		L362.6,213.6z"/>
	<path class="st14" d="M436.1,293.9c0,0,1.8,15.4,1.6,25.3c0.2,9.5-2.3,23.8-2.3,23.8l-71.7-0.8l0.3-48.1L436.1,293.9z"/>
	<path class="st14" d="M351.1,421.5c0,0-32.6,1.4-42.5-2.1c-9.9-3.5-24.8-20.5-27.2-28.8s-1.5-36.1-1.5-36.1l71.2,0.8L351.1,421.5z"
		/>
	<path class="st14" d="M365.7,420.9c0,0,32.6,1.4,42.5-2c10-3.4,24.9-20.5,27.2-28.8s1.5-36.1,1.5-36.1l-71.2,0.7L365.7,420.9z"/>
	<line class="st13" x1="281.4" y1="253.9" x2="331.1" y2="213"/>
	<line class="st13" x1="279.8" y1="276.7" x2="349.9" y2="221.6"/>
	<line class="st13" x1="312.9" y1="279.1" x2="349.9" y2="249.2"/>
	<line class="st13" x1="281" y1="240.3" x2="334.5" y2="278.1"/>
	<line class="st13" x1="292.4" y1="225.5" x2="349.9" y2="266.5"/>
	<line class="st13" x1="308.6" y1="215.3" x2="350.7" y2="239.7"/>
	<line class="st13" x1="278.2" y1="263.3" x2="304" y2="279.4"/>
	<line class="st15" x1="369.1" y1="214.1" x2="434.2" y2="275.1"/>
	<line class="st15" x1="390" y1="214.5" x2="434.9" y2="255.5"/>
	<line class="st15" x1="362.1" y1="253.4" x2="389.8" y2="279.3"/>
	<line class="st15" x1="363.1" y1="231.3" x2="411.8" y2="278.6"/>
	<line class="st15" x1="395.5" y1="215.3" x2="361.7" y2="239.7"/>
	<line class="st15" x1="419.2" y1="226.3" x2="364.1" y2="275.1"/>
	<line class="st15" x1="392.2" y1="279.6" x2="432.6" y2="246.8"/>
	<line class="st15" x1="277.8" y1="313.4" x2="312.3" y2="294.7"/>
	<line class="st15" x1="278.4" y1="333.7" x2="349" y2="296.4"/>
	<line class="st15" x1="304.4" y1="341.6" x2="350.7" y2="319"/>
	<line class="st15" x1="276.7" y1="307.7" x2="327.5" y2="341.6"/>
	<line class="st15" x1="292.5" y1="293.6" x2="351.8" y2="333.7"/>
	<line class="st15" x1="328.1" y1="294.1" x2="351.3" y2="307.1"/>
	<line class="st15" x1="277.8" y1="325.2" x2="304.4" y2="341.6"/>
	<line class="st15" x1="394.8" y1="341.6" x2="437.6" y2="319.2"/>
	<line class="st15" x1="364.3" y1="335.4" x2="436.6" y2="298.1"/>
	<line class="st15" x1="363.7" y1="311.7" x2="401.6" y2="294.1"/>
	<line class="st15" x1="373.3" y1="294.1" x2="436.6" y2="332.6"/>
	<line class="st15" x1="409.5" y1="293" x2="438.3" y2="310.5"/>
	<line class="st15" x1="363.7" y1="311.7" x2="415.1" y2="341.1"/>
	<line class="st15" x1="363.7" y1="328.1" x2="388.6" y2="341.6"/>
	<line class="st15" x1="294.2" y1="407.8" x2="351" y2="355.3"/>
	<line class="st15" x1="280.6" y1="387.4" x2="317.9" y2="354.6"/>
	<line class="st15" x1="321.9" y1="420.8" x2="350.7" y2="394.2"/>
	<line class="st15" x1="296.4" y1="354.6" x2="350.7" y2="384"/>
	<line class="st15" x1="280.1" y1="369.3" x2="351.3" y2="406.6"/>
	<line class="st15" x1="285.1" y1="396.5" x2="341.7" y2="421.9"/>
	<line class="st15" x1="331.5" y1="354.1" x2="350.1" y2="364.2"/>
	<line class="st15" x1="410.1" y1="355.2" x2="436.6" y2="369.3"/>
	<line class="st15" x1="372.2" y1="355.2" x2="435.5" y2="390.1"/>
	<line class="st15" x1="365.4" y1="377.8" x2="421.9" y2="408.3"/>
	<line class="st15" x1="365.4" y1="401" x2="397.1" y2="419.6"/>
	<line class="st15" x1="365.4" y1="384" x2="397.6" y2="354.6"/>
	<line class="st15" x1="365.4" y1="408.3" x2="437.1" y2="354"/>
	<line class="st15" x1="381.2" y1="420.8" x2="436" y2="378.4"/>
</g>
<g id="Layer_6" class="st0">
	<line class="st16" x1="163.5" y1="413.4" x2="303.3" y2="262.4"/>
	<line class="st16" x1="172.2" y1="457.5" x2="339.6" y2="276.6"/>
	<line class="st16" x1="188.5" y1="493.8" x2="365.6" y2="302.5"/>
	<line class="st16" x1="210" y1="524.6" x2="387.1" y2="333.3"/>
	<line class="st16" x1="240.6" y1="543.9" x2="399.8" y2="372.9"/>
	<line class="st16" x1="288.8" y1="554.4" x2="401.8" y2="429"/>
	<line class="st16" x1="390.9" y1="476.3" x2="206.3" y2="297.1"/>
	<line class="st16" x1="367.4" y1="511.6" x2="181.2" y2="331.9"/>
	<line class="st16" x1="335.9" y1="542.5" x2="166" y2="377.5"/>
	<line class="st16" x1="402.8" y1="430" x2="236.2" y2="270"/>
	<line class="st16" x1="399.8" y1="372.9" x2="289.7" y2="260.8"/>
	<line class="st16" x1="288.8" y1="554.4" x2="163.5" y2="429"/>
	<line class="st16" x1="170.1" y1="357.7" x2="257" y2="263.9"/>
</g>
<g id="Layer_7" class="st0">
	<path class="st17" d="M396.4,281c0,10.7-1.6,32.6-14.7,55.5c-3.9,6.8-12.9,22-30.6,34c-23.6,15.9-47.8,15.9-68,15.9
		c-20.5,0-53.2-0.1-80.4-22.7c-13.3-11.1-20.4-23.5-23.8-29.4c-12.6-22.5-14.6-44-14.7-55.3L396.4,281z"/>
	<path class="st18" d="M163.9,281.2c1.5-12.7,7.4-47.4,35.9-73c41.6-37.3,110.1-35.9,153.1-1.9c32.7,25.8,41.1,62.8,43.4,75.6"/>
	<line class="st18" x1="169.5" y1="308.8" x2="220" y2="278.9"/>
	<line class="st18" x1="178.9" y1="332.6" x2="268.1" y2="279.9"/>
	<line class="st18" x1="191.9" y1="354.6" x2="316.6" y2="280.9"/>
	<line class="st18" x1="215.6" y1="372.4" x2="370.5" y2="280.8"/>
	<line class="st18" x1="250.2" y1="384.7" x2="395.4" y2="298.8"/>
	<line class="st18" x1="291.7" y1="386.3" x2="384.2" y2="331.6"/>
	<line class="st18" x1="352.7" y1="280.9" x2="391.7" y2="312.1"/>
	<line class="st18" x1="311.7" y1="281" x2="381.6" y2="336.5"/>
	<line class="st18" x1="271" y1="281" x2="366.8" y2="357.1"/>
	<line class="st18" x1="225.2" y1="279.5" x2="344.6" y2="374.4"/>
	<line class="st18" x1="180.4" y1="278.9" x2="314.4" y2="385.3"/>
	<line class="st18" x1="167.2" y1="301.1" x2="274.4" y2="386.3"/>
	<line class="st18" x1="179.8" y1="336.5" x2="236.1" y2="381.2"/>
</g>
<g id="Layer_7_copy_5" class="st0">
	<path class="st19" d="M305.1,274.7c4.4-6,14.8-16.4,15.2-23.6c0.4-7.3,0.8-30.8,2-35.6c1.2-4.8,9.4,7.8,10.2,12.6
		c0.8,4.8,3.9,19.9,2.5,25.2c-1.4,5.3-6.5,15.7-9.7,18.5c-3.2,2.8-7.3,8-13.2,12c-6.1,2.4-10,6.6-16.1,6.6
		C289.9,290.5,300.7,280.8,305.1,274.7z"/>
	<path class="st19" d="M327.5,276.3c2.5-6.8,9.5-19.2,7.8-25.9s-8-28.2-8.2-32.8c-0.2-4.7,11.2,4.3,13.3,8.4
		c2.1,4.1,9.4,16.9,9.5,22.1c0.1,5.2-1.8,16.2-4,19.7c-2.2,3.5-4.7,9.4-9.2,14.8c-5.1,4-7.7,8.9-13.5,10.8
		C317.5,295.1,325.1,283,327.5,276.3z"/>
	<path class="st19" d="M284.4,260.5c6.2-3.6,19.6-8.7,22.6-15c3-6.2,11.9-26.7,14.7-30.5c2.8-3.7,5.9,10.5,4.9,15
		c-1,4.5-3.6,19-6.8,23.1c-3.2,4.1-11.7,11.3-15.7,12.6c-3.9,1.3-9.6,4.3-16.5,5.5c-6.5-0.3-11.6,2-17.3-0.4
		S278.2,264.1,284.4,260.5z"/>
	<path class="st20" d="M321,217.6c0.2-3.8,0-15,0-18.5c0-3.5,10.5-3.5,10.5,0c0,3.5,2.4,15,0,18.5
		C329.2,221.1,320.8,221.4,321,217.6z"/>
	<g>
		
			<ellipse transform="matrix(0.8054 -0.5928 0.5928 0.8054 -122.483 152.5988)" class="st21" cx="171.1" cy="262.8" rx="8.5" ry="8.9"/>
		
			<ellipse transform="matrix(0.8054 -0.5928 0.5928 0.8054 -113.8728 158.7334)" class="st21" cx="184.8" cy="252.8" rx="8.5" ry="8.9"/>
		
			<ellipse transform="matrix(0.8054 -0.5928 0.5928 0.8054 -105.2625 164.868)" class="st21" cx="198.4" cy="242.7" rx="8.5" ry="8.9"/>
		
			<ellipse transform="matrix(0.8054 -0.5928 0.5928 0.8054 -96.6522 171.0026)" class="st21" cx="212.1" cy="232.7" rx="8.5" ry="8.9"/>
		
			<ellipse transform="matrix(0.8054 -0.5928 0.5928 0.8054 -123.7466 163.4821)" class="st21" cx="187.1" cy="270.2" rx="8.5" ry="8.9"/>
		
			<ellipse transform="matrix(0.8054 -0.5928 0.5928 0.8054 -115.1363 169.6167)" class="st21" cx="200.7" cy="260.1" rx="8.5" ry="8.9"/>
		
			<ellipse transform="matrix(0.8054 -0.5928 0.5928 0.8054 -106.526 175.7513)" class="st21" cx="214.4" cy="250.1" rx="8.5" ry="8.9"/>
		
			<ellipse transform="matrix(0.8054 -0.5928 0.5928 0.8054 -125.1148 174.5124)" class="st21" cx="203.2" cy="277.8" rx="8.5" ry="8.9"/>
		
			<ellipse transform="matrix(0.8054 -0.5928 0.5928 0.8054 -116.5046 180.647)" class="st21" cx="216.8" cy="267.7" rx="8.5" ry="8.9"/>
		
			<ellipse transform="matrix(0.8054 -0.5928 0.5928 0.8054 -126.4082 185.4375)" class="st21" cx="219.2" cy="285.2" rx="8.5" ry="8.9"/>
		<path class="st22" d="M185,242.7c-0.3,1.4-9.6,2.2-10.9,1.8c-1.9,0.2-11.3-4.7-10.8-7.2c0.5-2.5,10.2-3.1,11.9-2.6
			S185.3,241.2,185,242.7z"/>
		<path class="st22" d="M187.7,217.4c2.9,0.8,4.4,12.7,4.5,14.7c0.1,2-6.9,11.3-8.1,11.3c-1.2,0-6.4-11.1-5.3-14.9
			C180,224.7,184.9,216.6,187.7,217.4z"/>
	</g>
	<g>
		<path class="st23" d="M253.7,256c0,0,1.1-13.5,0.8-18.9c-0.3-5.4-2.2-6.1-2.5-10.5c-1.5-3,5.2-1,6.7,0.3c1.5,1.3,3.3,8.9,3.1,14.8
			c-0.2,5.9-0.6,14.7-0.6,14.7L253.7,256z"/>
		
			<ellipse transform="matrix(0.1431 -0.9897 0.9897 0.1431 -50.2613 483.7549)" class="st24" cx="254.2" cy="270.9" rx="26" ry="26"/>
	</g>
	<ellipse transform="matrix(0.1431 -0.9897 0.9897 0.1431 56.1319 595.8367)" class="st25" cx="372.2" cy="265.5" rx="26" ry="26"/>
	<g class="st4">
		<path class="st26" d="M250,413.7c-1.6,0.9-3,5.3-1.6,6.8c1.4,1.5,68.9,2.5,70.2,0.5c1.3-2,0.3-4.9-2.1-6.7
			C314.1,412.4,251.6,412.9,250,413.7z"/>
		<path class="st26" d="M138.3,294.5c0.1,2,6.3,3.5,18.6,6.6c35.3,8.8,63.2,8.2,83.5,7.8c78.2-1.5,61.8,0.1,92.1-1.4
			c45.5-2.2,92.1-4.4,92.5-10.9c0-0.7-0.4-4-22.3-9.2C309.2,264.9,137.4,280.9,138.3,294.5z"/>
		<path class="st27" d="M397.4,305c0,10.7-1.6,32.6-14.7,55.5c-3.9,6.8-12.9,22-30.6,34c-23.6,15.9-47.8,15.9-68,15.9
			c-20.5,0-53.2-0.1-80.4-22.7c-13.3-11.1-20.4-23.5-23.8-29.4c-12.6-22.5-14.6-44-14.7-55.3L397.4,305z"/>
	</g>
</g>
<g id="Layer_7_copy" class="st0">
	<path class="st17" d="M396.4,281c0,10.7-1.6,32.6-14.7,55.5c-3.9,6.8-12.9,22-30.6,34c-23.6,15.9-47.8,15.9-68,15.9
		c-20.5,0-53.2-0.1-80.4-22.7c-13.3-11.1-20.4-23.5-23.8-29.4c-12.6-22.5-14.6-44-14.7-55.3L396.4,281z"/>
	<path class="st18" d="M163.9,281.2c1.5-12.7,7.4-47.4,35.9-73c41.6-37.3,110.1-35.9,153.1-1.9c32.7,25.8,41.1,62.8,43.4,75.6"/>
	<line class="st18" x1="169.5" y1="308.8" x2="220" y2="278.9"/>
	<line class="st18" x1="178.9" y1="332.6" x2="268.1" y2="279.9"/>
	<line class="st18" x1="191.9" y1="354.6" x2="316.6" y2="280.9"/>
	<line class="st18" x1="215.6" y1="372.4" x2="370.5" y2="280.8"/>
	<line class="st18" x1="250.2" y1="384.7" x2="395.4" y2="298.8"/>
	<line class="st18" x1="291.7" y1="386.3" x2="384.2" y2="331.6"/>
	<line class="st18" x1="352.7" y1="280.9" x2="391.7" y2="312.1"/>
	<line class="st18" x1="311.7" y1="281" x2="381.6" y2="336.5"/>
	<line class="st18" x1="271" y1="281" x2="366.8" y2="357.1"/>
	<line class="st18" x1="225.2" y1="279.5" x2="344.6" y2="374.4"/>
	<line class="st18" x1="180.4" y1="278.9" x2="314.4" y2="385.3"/>
	<line class="st18" x1="167.2" y1="301.1" x2="274.4" y2="386.3"/>
	<line class="st18" x1="179.8" y1="336.5" x2="236.1" y2="381.2"/>
	<path class="st7" d="M238.3,249.2c1.9,4.9-3.3,6.7-9.3,23.7c-4,11.2-5.2,25.9-7.4,55.1c-0.8,10.8-1.6,21.2-2,35.5
		c0,1.8-0.8,18.3,0.2,36.9c1.6,30,3.6,63.5,12.6,107.8c6.5,31.6,14.5,58.5,21.9,80l9,19.7c-3-2.9-7.4-7-12.7-12
		c-16.5-15.3-20.7-19.2-21.6-18.4c-1.3,1.1,5.6,9.4,10.7,24.7c3.1,9.4,5.6,21.7,3.4,22.6c-2.2,0.9-7.2-10.6-19.9-26
		c-9.7-11.8-22.9-24.7-26-22.6c-2.8,1.9,6.1,13.6,4.7,32.2c-0.6,8.6-3.2,18.4-6.2,18.5c-3.4,0.1-3.3-13.2-12.5-28.4
		c-6.1-10-18.3-24.3-26.6-21.6c-6.5,2.1-8,13.9-8.4,16.5c-2.4,18.3,9.7,31.4,7.6,32.8c-2.4,1.6-18.8-10.7-24.6-29.7
		c-2.6-8.4-2.4-15.8-5.1-16.1c-2.8-0.4-4.3,7.6-11.9,17c-6.6,8.2-15.9,15.1-17.8,13.6c-2.3-1.8,5.5-14.7,9.7-22.6
		c10.5-19.8,13.1-40.1,20.8-80.3c2.3-12.2,4.1-23.6,5.5-34.3c1.9-14.7,5.4-41.3,5.6-73.6c0.2-52.7-8.1-115.1-11.1-127.3
		c-3-12.2-8.2-22.3-9.7-23.5c0,0,0,0,0,0C117.1,247.2,229.6,226.9,238.3,249.2z"/>
	<path class="st8" d="M336.6,200.4c-0.7-5.8-2.3-19-12.2-30.6c-9.7-11.4-22.6-15.6-31.6-18.5c-12.1-3.9-21.7-4.2-21.7-5.9
		c0-1.7,8.7-1.3,17.3-4.4c14.3-5.1,25.5-18.4,30.2-31.7c9.5-26.9-8.4-51.2-11.8-55.8c-15.9-21.6-39.3-26.6-48.3-27.9
		c-1.2-0.2-2.1-0.3-2.9-0.4c-6.8-0.7-37.4-4.1-47.8,10.5c-5.5,7.7-3.6,16.4-6.5,16.7c-3.1,0.3-4.8-10.5-9.6-18.5
		c-13.7-22.6-56.5-28.5-86.8-16.1c-6.9,2.8-20.6,8.7-28.6,22.9c-2.3,4.2-8.7,15.6-5.3,27.1c1.9,6.3,5.5,8.4,4.3,10.7
		c-2.6,5.1-20.8-5.5-42.6,0C28,79.6,19,81.9,11.1,89.3C-1.7,101.1-8.1,122.5-0.9,140c7.8,18.8,28.3,25.8,33.6,27.6
		c9.4,3.2,18.7,3.7,18.7,5.2c-0.1,1.8-12.8-0.8-23.9,6c-11.4,6.9-17,21.3-17.2,33.6c0,3.2,0.1,15.7,9,26.9
		c10.9,13.8,29.9,17.9,44,16.4c16.2-1.7,22.2-10.6,41.4-9.3c8.8,0.6,12.4,2.8,14.5,4.5c4.8,4,112.7,5.4,121,0.1
		c11.5-7.3,24.1,8,47.7,6.5c17.3-1.1,36.9-11,45.1-27.9C338.6,218,337.3,206.5,336.6,200.4z"/>
	<g class="st4">
		<path class="st5" d="M209.2,248.4c-3.7-0.3-4-4.5-8.5-5.2c-4.9-0.8-9.2,3-10.9,6.9c-1.3,3.1-1.4,6.6-0.7,10c0.6,3.2,2,6.2,3.1,9.3
			c0.9,2.3,2.1,4.6,4.7,5.7c2.8,1.2,5.9,0.2,8.9,0c3.3-0.2,6,1.7,9.3,0.7c5.6-1.6,7.8-6.1,9.6-10.8c2.5-6.4,4.7-13.4-0.7-19.2
			c-1.1-1.2-2.5-2.1-4.2-2.3C215.2,242.9,213.6,248.7,209.2,248.4z"/>
		<path class="st5" d="M209,234.9c0.7,1.1,1.7,3.1,1.8,5.8c0.2,3.3-1,5.9-1.6,7"/>
	</g>
</g>
<g id="Layer_7_copy_2" class="st0">
	<path class="st17" d="M396.4,281c0,10.7-1.6,32.6-14.7,55.5c-3.9,6.8-12.9,22-30.6,34c-23.6,15.9-47.8,15.9-68,15.9
		c-20.5,0-53.2-0.1-80.4-22.7c-13.3-11.1-20.4-23.5-23.8-29.4c-12.6-22.5-14.6-44-14.7-55.3L396.4,281z"/>
	<path class="st18" d="M163.9,281.2c1.5-12.7,7.4-47.4,35.9-73c41.6-37.3,110.1-35.9,153.1-1.9c32.7,25.8,41.1,62.8,43.4,75.6"/>
	<line class="st18" x1="169.5" y1="308.8" x2="220" y2="278.9"/>
	<line class="st18" x1="178.9" y1="332.6" x2="268.1" y2="279.9"/>
	<line class="st18" x1="191.9" y1="354.6" x2="316.6" y2="280.9"/>
	<line class="st18" x1="215.6" y1="372.4" x2="370.5" y2="280.8"/>
	<line class="st18" x1="250.2" y1="384.7" x2="395.4" y2="298.8"/>
	<line class="st18" x1="291.7" y1="386.3" x2="384.2" y2="331.6"/>
	<line class="st18" x1="352.7" y1="280.9" x2="391.7" y2="312.1"/>
	<line class="st18" x1="311.7" y1="281" x2="381.6" y2="336.5"/>
	<line class="st18" x1="271" y1="281" x2="366.8" y2="357.1"/>
	<line class="st18" x1="225.2" y1="279.5" x2="344.6" y2="374.4"/>
	<line class="st18" x1="180.4" y1="278.9" x2="314.4" y2="385.3"/>
	<line class="st18" x1="167.2" y1="301.1" x2="274.4" y2="386.3"/>
	<line class="st18" x1="179.8" y1="336.5" x2="236.1" y2="381.2"/>
	<g class="st4">
		<path class="st5" d="M209.2,248.4c-3.7-0.3-4-4.5-8.5-5.2c-4.9-0.8-9.2,3-10.9,6.9c-1.3,3.1-1.4,6.6-0.7,10c0.6,3.2,2,6.2,3.1,9.3
			c0.9,2.3,2.1,4.6,4.7,5.7c2.8,1.2,5.9,0.2,8.9,0c3.3-0.2,6,1.7,9.3,0.7c5.6-1.6,7.8-6.1,9.6-10.8c2.5-6.4,4.7-13.4-0.7-19.2
			c-1.1-1.2-2.5-2.1-4.2-2.3C215.2,242.9,213.6,248.7,209.2,248.4z"/>
		<path class="st5" d="M209,234.9c0.7,1.1,1.7,3.1,1.8,5.8c0.2,3.3-1,5.9-1.6,7"/>
	</g>
	<g class="st4">
		<path class="st5" d="M255.4,248.4c-3.7-0.3-4-4.5-8.5-5.2c-4.9-0.8-9.2,3-10.9,6.9c-1.3,3.1-1.4,6.6-0.7,10c0.6,3.2,2,6.2,3.1,9.3
			c0.9,2.3,2.1,4.6,4.7,5.7c2.8,1.2,5.9,0.2,8.9,0c3.3-0.2,6,1.7,9.3,0.7c5.6-1.6,7.8-6.1,9.6-10.8c2.5-6.4,4.7-13.4-0.7-19.2
			c-1.1-1.2-2.5-2.1-4.2-2.3C261.5,242.9,259.9,248.7,255.4,248.4z"/>
		<path class="st5" d="M255.3,234.9c0.7,1.1,1.7,3.1,1.8,5.8c0.2,3.3-1,5.9-1.6,7"/>
	</g>
</g>
<g id="Layer_7_copy_3" class="st0">
	<path class="st17" d="M396.4,281c0,10.7-1.6,32.6-14.7,55.5c-3.9,6.8-12.9,22-30.6,34c-23.6,15.9-47.8,15.9-68,15.9
		c-20.5,0-53.2-0.1-80.4-22.7c-13.3-11.1-20.4-23.5-23.8-29.4c-12.6-22.5-14.6-44-14.7-55.3L396.4,281z"/>
	<path class="st18" d="M163.9,281.2c1.5-12.7,7.4-47.4,35.9-73c41.6-37.3,110.1-35.9,153.1-1.9c32.7,25.8,41.1,62.8,43.4,75.6"/>
	<line class="st18" x1="169.5" y1="308.8" x2="220" y2="278.9"/>
	<line class="st18" x1="178.9" y1="332.6" x2="268.1" y2="279.9"/>
	<line class="st18" x1="191.9" y1="354.6" x2="316.6" y2="280.9"/>
	<line class="st18" x1="215.6" y1="372.4" x2="370.5" y2="280.8"/>
	<line class="st18" x1="250.2" y1="384.7" x2="395.4" y2="298.8"/>
	<line class="st18" x1="291.7" y1="386.3" x2="384.2" y2="331.6"/>
	<line class="st18" x1="352.7" y1="280.9" x2="391.7" y2="312.1"/>
	<line class="st18" x1="311.7" y1="281" x2="381.6" y2="336.5"/>
	<line class="st18" x1="271" y1="281" x2="366.8" y2="357.1"/>
	<line class="st18" x1="225.2" y1="279.5" x2="344.6" y2="374.4"/>
	<line class="st18" x1="180.4" y1="278.9" x2="314.4" y2="385.3"/>
	<line class="st18" x1="167.2" y1="301.1" x2="274.4" y2="386.3"/>
	<line class="st18" x1="179.8" y1="336.5" x2="236.1" y2="381.2"/>
	<g class="st4">
		<path class="st5" d="M209.2,248.4c-3.7-0.3-4-4.5-8.5-5.2c-4.9-0.8-9.2,3-10.9,6.9c-1.3,3.1-1.4,6.6-0.7,10c0.6,3.2,2,6.2,3.1,9.3
			c0.9,2.3,2.1,4.6,4.7,5.7c2.8,1.2,5.9,0.2,8.9,0c3.3-0.2,6,1.7,9.3,0.7c5.6-1.6,7.8-6.1,9.6-10.8c2.5-6.4,4.7-13.4-0.7-19.2
			c-1.1-1.2-2.5-2.1-4.2-2.3C215.2,242.9,213.6,248.7,209.2,248.4z"/>
		<path class="st5" d="M209,234.9c0.7,1.1,1.7,3.1,1.8,5.8c0.2,3.3-1,5.9-1.6,7"/>
	</g>
	<g class="st4">
		<path class="st5" d="M255.4,248.4c-3.7-0.3-4-4.5-8.5-5.2c-4.9-0.8-9.2,3-10.9,6.9c-1.3,3.1-1.4,6.6-0.7,10c0.6,3.2,2,6.2,3.1,9.3
			c0.9,2.3,2.1,4.6,4.7,5.7c2.8,1.2,5.9,0.2,8.9,0c3.3-0.2,6,1.7,9.3,0.7c5.6-1.6,7.8-6.1,9.6-10.8c2.5-6.4,4.7-13.4-0.7-19.2
			c-1.1-1.2-2.5-2.1-4.2-2.3C261.5,242.9,259.9,248.7,255.4,248.4z"/>
		<path class="st5" d="M255.3,234.9c0.7,1.1,1.7,3.1,1.8,5.8c0.2,3.3-1,5.9-1.6,7"/>
	</g>
	<g class="st4">
		<path class="st5" d="M300.6,248.4c-3.7-0.3-4-4.5-8.5-5.2c-4.9-0.8-9.2,3-10.9,6.9c-1.3,3.1-1.4,6.6-0.7,10c0.6,3.2,2,6.2,3.1,9.3
			c0.9,2.3,2.1,4.6,4.7,5.7c2.8,1.2,5.9,0.2,8.9,0c3.3-0.2,6,1.7,9.3,0.7c5.6-1.6,7.8-6.1,9.6-10.8c2.5-6.4,4.7-13.4-0.7-19.2
			c-1.1-1.2-2.5-2.1-4.2-2.3C306.7,242.9,305.1,248.7,300.6,248.4z"/>
		<path class="st5" d="M300.5,234.9c0.7,1.1,1.7,3.1,1.8,5.8c0.2,3.3-1,5.9-1.6,7"/>
	</g>
</g>
<g id="Layer_7_copy_4" class="st0">
	<path class="st17" d="M396.4,281c0,10.7-1.6,32.6-14.7,55.5c-3.9,6.8-12.9,22-30.6,34c-23.6,15.9-47.8,15.9-68,15.9
		c-20.5,0-53.2-0.1-80.4-22.7c-13.3-11.1-20.4-23.5-23.8-29.4c-12.6-22.5-14.6-44-14.7-55.3L396.4,281z"/>
	<path class="st18" d="M163.9,281.2c1.5-12.7,7.4-47.4,35.9-73c41.6-37.3,110.1-35.9,153.1-1.9c32.7,25.8,41.1,62.8,43.4,75.6"/>
	<line class="st18" x1="169.5" y1="308.8" x2="220" y2="278.9"/>
	<line class="st18" x1="178.9" y1="332.6" x2="268.1" y2="279.9"/>
	<line class="st18" x1="191.9" y1="354.6" x2="316.6" y2="280.9"/>
	<line class="st18" x1="215.6" y1="372.4" x2="370.5" y2="280.8"/>
	<line class="st18" x1="250.2" y1="384.7" x2="395.4" y2="298.8"/>
	<line class="st18" x1="291.7" y1="386.3" x2="384.2" y2="331.6"/>
	<line class="st18" x1="352.7" y1="280.9" x2="391.7" y2="312.1"/>
	<line class="st18" x1="311.7" y1="281" x2="381.6" y2="336.5"/>
	<line class="st18" x1="271" y1="281" x2="366.8" y2="357.1"/>
	<line class="st18" x1="225.2" y1="279.5" x2="344.6" y2="374.4"/>
	<line class="st18" x1="180.4" y1="278.9" x2="314.4" y2="385.3"/>
	<line class="st18" x1="167.2" y1="301.1" x2="274.4" y2="386.3"/>
	<line class="st18" x1="179.8" y1="336.5" x2="236.1" y2="381.2"/>
	<g class="st4">
		<path class="st5" d="M210.2,248.4c-3.7-0.3-4-4.5-8.5-5.2c-4.9-0.8-9.2,3-10.9,6.9c-1.3,3.1-1.4,6.6-0.7,10c0.6,3.2,2,6.2,3.1,9.3
			c0.9,2.3,2.1,4.6,4.7,5.7c2.8,1.2,5.9,0.2,8.9,0c3.3-0.2,6,1.7,9.3,0.7c5.6-1.6,7.8-6.1,9.6-10.8c2.5-6.4,4.7-13.4-0.7-19.2
			c-1.1-1.2-2.5-2.1-4.2-2.3C216.3,242.9,214.7,248.7,210.2,248.4z"/>
		<path class="st5" d="M210.1,234.9c0.7,1.1,1.7,3.1,1.8,5.8c0.2,3.3-1,5.9-1.6,7"/>
	</g>
	<g class="st4">
		<path class="st5" d="M255.3,249.1c-3.7-0.3-4-4.5-8.5-5.2c-4.9-0.8-9.2,3-10.9,6.9c-1.3,3.1-1.4,6.6-0.7,10c0.6,3.2,2,6.2,3.1,9.3
			c0.9,2.3,2.1,4.6,4.7,5.7c2.8,1.2,5.9,0.2,8.9,0c3.3-0.2,6,1.7,9.3,0.7c5.6-1.6,7.8-6.1,9.6-10.8c2.5-6.4,4.7-13.4-0.7-19.2
			c-1.1-1.2-2.5-2.1-4.2-2.3C261.4,243.6,259.8,249.4,255.3,249.1z"/>
		<path class="st5" d="M255.2,235.5c0.7,1.1,1.7,3.1,1.8,5.8c0.2,3.3-1,5.9-1.6,7"/>
	</g>
	<g class="st4">
		<path class="st5" d="M300.5,249.1c-3.7-0.3-4-4.5-8.5-5.2c-4.9-0.8-9.2,3-10.9,6.9c-1.3,3.1-1.4,6.6-0.7,10c0.6,3.2,2,6.2,3.1,9.3
			c0.9,2.3,2.1,4.6,4.7,5.7c2.8,1.2,5.9,0.2,8.9,0c3.3-0.2,6,1.7,9.3,0.7c5.6-1.6,7.8-6.1,9.6-10.8c2.5-6.4,4.7-13.4-0.7-19.2
			c-1.1-1.2-2.5-2.1-4.2-2.3C306.5,243.6,305,249.4,300.5,249.1z"/>
		<path class="st5" d="M300.4,235.5c0.7,1.1,1.7,3.1,1.8,5.8c0.2,3.3-1,5.9-1.6,7"/>
	</g>
	<g class="st4">
		<path class="st5" d="M343.3,249.4c-3.7-0.3-4-4.5-8.5-5.2c-4.9-0.8-9.2,3-10.9,6.9c-1.3,3.1-1.4,6.6-0.7,10c0.6,3.2,2,6.2,3.1,9.3
			c0.9,2.3,2.1,4.6,4.7,5.7c2.8,1.2,5.9,0.2,8.9,0c3.3-0.2,6,1.7,9.3,0.7c5.6-1.6,7.8-6.1,9.6-10.8c2.5-6.4,4.7-13.4-0.7-19.2
			c-1.1-1.2-2.5-2.1-4.2-2.3C349.3,243.9,347.8,249.7,343.3,249.4z"/>
		<path class="st5" d="M343.1,235.9c0.7,1.1,1.7,3.1,1.8,5.8c0.2,3.3-1,5.9-1.6,7"/>
	</g>
</g>
</svg>
